<svg version="1.1" viewBox="0.0 0.0 600.0 371.0" fill="none" stroke="none" stroke-linecap="square" stroke-miterlimit="10" width="600" height="371" xmlns:xlink="http://www.w3.org/1999/xlink" xmlns="http://www.w3.org/2000/svg"><path fill="#ffffff" d="M0 0L600.0 0L600.0 371.0L0 371.0L0 0Z" fill-rule="nonzero"/><path stroke="#cccccc" stroke-width="1.0" stroke-linecap="butt" d="M100.5 88.5L100.5 332.5" fill-rule="nonzero"/><path stroke="#cccccc" stroke-width="1.0" stroke-linecap="butt" d="M207.5 88.5L207.5 332.5" fill-rule="nonzero"/><path stroke="#cccccc" stroke-width="1.0" stroke-linecap="butt" d="M313.5 88.5L313.5 332.5" fill-rule="nonzero"/><path stroke="#cccccc" stroke-width="1.0" stroke-linecap="butt" d="M419.5 88.5L419.5 332.5" fill-rule="nonzero"/><path stroke="#cccccc" stroke-width="1.0" stroke-linecap="butt" d="M526.5 88.5L526.5 332.5" fill-rule="nonzero"/><path stroke="#333333" stroke-width="1.0" stroke-linecap="butt" d="M45.5 332.5L581.5 332.5" fill-rule="nonzero"/><path stroke="#cccccc" stroke-width="1.0" stroke-linecap="butt" d="M45.5 251.5L581.5 251.5" fill-rule="nonzero"/><path stroke="#cccccc" stroke-width="1.0" stroke-linecap="butt" d="M45.5 169.5L581.5 169.5" fill-rule="nonzero"/><path stroke="#cccccc" stroke-width="1.0" stroke-linecap="butt" d="M45.5 88.5L581.5 88.5" fill-rule="nonzero"/><clipPath id="id_0"><path d="M45.55 88.28333L581.45 88.28333L581.45 332.45L45.55 332.45L45.55 88.28333Z" clip-rule="nonzero"/></clipPath><path stroke="#4285f4" stroke-width="2.0" stroke-linecap="butt" clip-path="url(#id_0)" d="M579.46484 289.36176L526.27185 296.2188L473.0789 318.3426L419.88593 327.72418L366.69296 327.1991L313.5 314.00186L260.30704 265.23853L207.11407 133.86111L153.92111 292.0181L100.72815 332.45L47.535183 332.45" fill-rule="nonzero"/><path stroke="#ea4335" stroke-width="2.0" stroke-linecap="butt" clip-path="url(#id_0)" d="M579.46484 320.0023L526.27185 324.57367L473.0789 328.10925L419.88593 329.29947L366.69296 331.9249L313.5 325.9389L260.30704 274.69016L207.11407 227.72963L153.92111 325.62384L100.72815 332.45L47.535183 332.45" fill-rule="nonzero"/><path stroke="#fbbc04" stroke-width="2.0" stroke-linecap="butt" clip-path="url(#id_0)" d="M579.46484 320.9598L526.27185 328.2493L473.0789 327.02408L419.88593 327.72418L366.69296 329.29947L313.5 325.3963L260.30704 314.59695L207.11407 236.9537L153.92111 318.79767L100.72815 332.45L47.535183 332.45" fill-rule="nonzero"/><path fill="#4285f4" clip-path="url(#id_0)" d="M581.46484 289.36176C581.46484 290.46634 580.5694 291.36176 579.46484 291.36176C578.3602 291.36176 577.46484 290.46634 577.46484 289.36176C577.46484 288.2572 578.3602 287.36176 579.46484 287.36176C580.5694 287.36176 581.46484 288.2572 581.46484 289.36176Z" fill-rule="nonzero"/><path fill="#4285f4" clip-path="url(#id_0)" d="M528.27185 296.2188C528.27185 297.3234 527.3764 298.2188 526.27185 298.2188C525.1673 298.2188 524.27185 297.3234 524.27185 296.2188C524.27185 295.11426 525.1673 294.2188 526.27185 294.2188C527.3764 294.2188 528.27185 295.11426 528.27185 296.2188Z" fill-rule="nonzero"/><path fill="#4285f4" clip-path="url(#id_0)" d="M475.0789 318.3426C475.0789 319.44717 474.18347 320.3426 473.0789 320.3426C471.97433 320.3426 471.0789 319.44717 471.0789 318.3426C471.0789 317.23804 471.97433 316.3426 473.0789 316.3426C474.18347 316.3426 475.0789 317.23804 475.0789 318.3426Z" fill-rule="nonzero"/><path fill="#4285f4" clip-path="url(#id_0)" d="M421.88593 327.72418C421.88593 328.82877 420.9905 329.72418 419.88593 329.72418C418.78137 329.72418 417.88593 328.82877 417.88593 327.72418C417.88593 326.61963 418.78137 325.72418 419.88593 325.72418C420.9905 325.72418 421.88593 326.61963 421.88593 327.72418Z" fill-rule="nonzero"/><path fill="#4285f4" clip-path="url(#id_0)" d="M368.69296 327.1991C368.69296 328.30368 367.79755 329.1991 366.69296 329.1991C365.58838 329.1991 364.69296 328.30368 364.69296 327.1991C364.69296 326.09454 365.58838 325.1991 366.69296 325.1991C367.79755 325.1991 368.69296 326.09454 368.69296 327.1991Z" fill-rule="nonzero"/><path fill="#4285f4" clip-path="url(#id_0)" d="M315.5 314.00186C315.5 315.1064 314.60458 316.00186 313.5 316.00186C312.39542 316.00186 311.5 315.1064 311.5 314.00186C311.5 312.89728 312.39542 312.00186 313.5 312.00186C314.60458 312.00186 315.5 312.89728 315.5 314.00186Z" fill-rule="nonzero"/><path fill="#4285f4" clip-path="url(#id_0)" d="M262.30704 265.23853C262.30704 266.3431 261.41162 267.23853 260.30704 267.23853C259.20245 267.23853 258.30704 266.3431 258.30704 265.23853C258.30704 264.13397 259.20245 263.23853 260.30704 263.23853C261.41162 263.23853 262.30704 264.13397 262.30704 265.23853Z" fill-rule="nonzero"/><path fill="#4285f4" clip-path="url(#id_0)" d="M209.11407 133.86111C209.11407 134.96568 208.21864 135.86111 207.11407 135.86111C206.0095 135.86111 205.11407 134.96568 205.11407 133.86111C205.11407 132.75655 206.0095 131.86111 207.11407 131.86111C208.21864 131.86111 209.11407 132.75655 209.11407 133.86111Z" fill-rule="nonzero"/><path fill="#4285f4" clip-path="url(#id_0)" d="M155.92111 292.0181C155.92111 293.12268 155.02568 294.0181 153.92111 294.0181C152.81654 294.0181 151.92111 293.12268 151.92111 292.0181C151.92111 290.91354 152.81654 290.0181 153.92111 290.0181C155.02568 290.0181 155.92111 290.91354 155.92111 292.0181Z" fill-rule="nonzero"/><path fill="#4285f4" clip-path="url(#id_0)" d="M102.72815 332.45C102.72815 333.55457 101.83272 334.45 100.72815 334.45C99.62357 334.45 98.72815 333.55457 98.72815 332.45C98.72815 331.34543 99.62357 330.45 100.72815 330.45C101.83272 330.45 102.72815 331.34543 102.72815 332.45Z" fill-rule="nonzero"/><path fill="#4285f4" clip-path="url(#id_0)" d="M49.535183 332.45C49.535183 333.55457 48.63975 334.45 47.535183 334.45C46.430614 334.45 45.535183 333.55457 45.535183 332.45C45.535183 331.34543 46.430614 330.45 47.535183 330.45C48.63975 330.45 49.535183 331.34543 49.535183 332.45Z" fill-rule="nonzero"/><path fill="#ea4335" clip-path="url(#id_0)" d="M581.46484 320.0023C581.46484 321.10684 580.5694 322.0023 579.46484 322.0023C578.3602 322.0023 577.46484 321.10684 577.46484 320.0023C577.46484 318.8977 578.3602 318.0023 579.46484 318.0023C580.5694 318.0023 581.46484 318.8977 581.46484 320.0023Z" fill-rule="nonzero"/><path fill="#ea4335" clip-path="url(#id_0)" d="M528.27185 324.57367C528.27185 325.67822 527.3764 326.57367 526.27185 326.57367C525.1673 326.57367 524.27185 325.67822 524.27185 324.57367C524.27185 323.4691 525.1673 322.57367 526.27185 322.57367C527.3764 322.57367 528.27185 323.4691 528.27185 324.57367Z" fill-rule="nonzero"/><path fill="#ea4335" clip-path="url(#id_0)" d="M475.0789 328.10925C475.0789 329.21384 474.18347 330.10925 473.0789 330.10925C471.97433 330.10925 471.0789 329.21384 471.0789 328.10925C471.0789 327.0047 471.97433 326.10925 473.0789 326.10925C474.18347 326.10925 475.0789 327.0047 475.0789 328.10925Z" fill-rule="nonzero"/><path fill="#ea4335" clip-path="url(#id_0)" d="M421.88593 329.29947C421.88593 330.40402 420.9905 331.29947 419.88593 331.29947C418.78137 331.29947 417.88593 330.40402 417.88593 329.29947C417.88593 328.1949 418.78137 327.29947 419.88593 327.29947C420.9905 327.29947 421.88593 328.1949 421.88593 329.29947Z" fill-rule="nonzero"/><path fill="#ea4335" clip-path="url(#id_0)" d="M368.69296 331.9249C368.69296 333.02948 367.79755 333.9249 366.69296 333.9249C365.58838 333.9249 364.69296 333.02948 364.69296 331.9249C364.69296 330.82034 365.58838 329.9249 366.69296 329.9249C367.79755 329.9249 368.69296 330.82034 368.69296 331.9249Z" fill-rule="nonzero"/><path fill="#ea4335" clip-path="url(#id_0)" d="M315.5 325.9389C315.5 327.04346 314.60458 327.9389 313.5 327.9389C312.39542 327.9389 311.5 327.04346 311.5 325.9389C311.5 324.83432 312.39542 323.9389 313.5 323.9389C314.60458 323.9389 315.5 324.83432 315.5 325.9389Z" fill-rule="nonzero"/><path fill="#ea4335" clip-path="url(#id_0)" d="M262.30704 274.69016C262.30704 275.7947 261.41162 276.69016 260.30704 276.69016C259.20245 276.69016 258.30704 275.7947 258.30704 274.69016C258.30704 273.58557 259.20245 272.69016 260.30704 272.69016C261.41162 272.69016 262.30704 273.58557 262.30704 274.69016Z" fill-rule="nonzero"/><path fill="#ea4335" clip-path="url(#id_0)" d="M209.11407 227.72963C209.11407 228.8342 208.21864 229.72963 207.11407 229.72963C206.0095 229.72963 205.11407 228.8342 205.11407 227.72963C205.11407 226.62506 206.0095 225.72963 207.11407 225.72963C208.21864 225.72963 209.11407 226.62506 209.11407 227.72963Z" fill-rule="nonzero"/><path fill="#ea4335" clip-path="url(#id_0)" d="M155.92111 325.62384C155.92111 326.7284 155.02568 327.62384 153.92111 327.62384C152.81654 327.62384 151.92111 326.7284 151.92111 325.62384C151.92111 324.51926 152.81654 323.62384 153.92111 323.62384C155.02568 323.62384 155.92111 324.51926 155.92111 325.62384Z" fill-rule="nonzero"/><path fill="#ea4335" clip-path="url(#id_0)" d="M102.72815 332.45C102.72815 333.55457 101.83272 334.45 100.72815 334.45C99.62357 334.45 98.72815 333.55457 98.72815 332.45C98.72815 331.34543 99.62357 330.45 100.72815 330.45C101.83272 330.45 102.72815 331.34543 102.72815 332.45Z" fill-rule="nonzero"/><path fill="#ea4335" clip-path="url(#id_0)" d="M49.535183 332.45C49.535183 333.55457 48.63975 334.45 47.535183 334.45C46.430614 334.45 45.535183 333.55457 45.535183 332.45C45.535183 331.34543 46.430614 330.45 47.535183 330.45C48.63975 330.45 49.535183 331.34543 49.535183 332.45Z" fill-rule="nonzero"/><path fill="#fbbc04" clip-path="url(#id_0)" d="M581.46484 320.9598C581.46484 322.06436 580.5694 322.9598 579.46484 322.9598C578.3602 322.9598 577.46484 322.06436 577.46484 320.9598C577.46484 319.85522 578.3602 318.9598 579.46484 318.9598C580.5694 318.9598 581.46484 319.85522 581.46484 320.9598Z" fill-rule="nonzero"/><path fill="#fbbc04" clip-path="url(#id_0)" d="M528.27185 328.2493C528.27185 329.35385 527.3764 330.2493 526.27185 330.2493C525.1673 330.2493 524.27185 329.35385 524.27185 328.2493C524.27185 327.1447 525.1673 326.2493 526.27185 326.2493C527.3764 326.2493 528.27185 327.1447 528.27185 328.2493Z" fill-rule="nonzero"/><path fill="#fbbc04" clip-path="url(#id_0)" d="M475.0789 327.02408C475.0789 328.12863 474.18347 329.02408 473.0789 329.02408C471.97433 329.02408 471.0789 328.12863 471.0789 327.02408C471.0789 325.9195 471.97433 325.02408 473.0789 325.02408C474.18347 325.02408 475.0789 325.9195 475.0789 327.02408Z" fill-rule="nonzero"/><path fill="#fbbc04" clip-path="url(#id_0)" d="M421.88593 327.72418C421.88593 328.82877 420.9905 329.72418 419.88593 329.72418C418.78137 329.72418 417.88593 328.82877 417.88593 327.72418C417.88593 326.61963 418.78137 325.72418 419.88593 325.72418C420.9905 325.72418 421.88593 326.61963 421.88593 327.72418Z" fill-rule="nonzero"/><path fill="#fbbc04" clip-path="url(#id_0)" d="M368.69296 329.29947C368.69296 330.40402 367.79755 331.29947 366.69296 331.29947C365.58838 331.29947 364.69296 330.40402 364.69296 329.29947C364.69296 328.1949 365.58838 327.29947 366.69296 327.29947C367.79755 327.29947 368.69296 328.1949 368.69296 329.29947Z" fill-rule="nonzero"/><path fill="#fbbc04" clip-path="url(#id_0)" d="M315.5 325.3963C315.5 326.50085 314.60458 327.3963 313.5 327.3963C312.39542 327.3963 311.5 326.50085 311.5 325.3963C311.5 324.29172 312.39542 323.3963 313.5 323.3963C314.60458 323.3963 315.5 324.29172 315.5 325.3963Z" fill-rule="nonzero"/><path fill="#fbbc04" clip-path="url(#id_0)" d="M262.30704 314.59695C262.30704 315.70154 261.41162 316.59695 260.30704 316.59695C259.20245 316.59695 258.30704 315.70154 258.30704 314.59695C258.30704 313.49237 259.20245 312.59695 260.30704 312.59695C261.41162 312.59695 262.30704 313.49237 262.30704 314.59695Z" fill-rule="nonzero"/><path fill="#fbbc04" clip-path="url(#id_0)" d="M209.11407 236.9537C209.11407 238.05827 208.21864 238.9537 207.11407 238.9537C206.0095 238.9537 205.11407 238.05827 205.11407 236.9537C205.11407 235.84914 206.0095 234.9537 207.11407 234.9537C208.21864 234.9537 209.11407 235.84914 209.11407 236.9537Z" fill-rule="nonzero"/><path fill="#fbbc04" clip-path="url(#id_0)" d="M155.92111 318.79767C155.92111 319.90225 155.02568 320.79767 153.92111 320.79767C152.81654 320.79767 151.92111 319.90225 151.92111 318.79767C151.92111 317.6931 152.81654 316.79767 153.92111 316.79767C155.02568 316.79767 155.92111 317.6931 155.92111 318.79767Z" fill-rule="nonzero"/><path fill="#fbbc04" clip-path="url(#id_0)" d="M102.72815 332.45C102.72815 333.55457 101.83272 334.45 100.72815 334.45C99.62357 334.45 98.72815 333.55457 98.72815 332.45C98.72815 331.34543 99.62357 330.45 100.72815 330.45C101.83272 330.45 102.72815 331.34543 102.72815 332.45Z" fill-rule="nonzero"/><path fill="#fbbc04" clip-path="url(#id_0)" d="M49.535183 332.45C49.535183 333.55457 48.63975 334.45 47.535183 334.45C46.430614 334.45 45.535183 333.55457 45.535183 332.45C45.535183 331.34543 46.430614 330.45 47.535183 330.45C48.63975 330.45 49.535183 331.34543 49.535183 332.45Z" fill-rule="nonzero"/><path fill="#000000" d="M33.05 332.21564Q33.05 330.6844 33.3625 329.7625Q33.675 328.825 34.284374 328.325Q34.909374 327.825 35.846874 327.825Q36.534374 327.825 37.05 328.10626Q37.58125 328.3875 37.925 328.91876Q38.26875 329.4344 38.45625 330.1844Q38.64375 330.9344 38.64375 332.21564Q38.64375 333.73126 38.33125 334.65314Q38.034374 335.575 37.409374 336.09064Q36.8 336.59064 35.846874 336.59064Q34.6125 336.59064 33.89375 335.7Q33.05 334.6375 33.05 332.21564ZM34.128124 332.21564Q34.128124 334.325 34.628124 335.02814Q35.128124 335.73126 35.846874 335.73126Q36.58125 335.73126 37.065624 335.02814Q37.565624 334.325 37.565624 332.21564Q37.565624 330.09064 37.065624 329.40314Q36.58125 328.7 35.83125 328.7Q35.1125 328.7 34.675 329.3094Q34.128124 330.09064 34.128124 332.21564Z" fill-rule="nonzero"/><path fill="#000000" d="M33.05 252.81111L34.159374 252.71736Q34.284374 253.52986 34.721874 253.93611Q35.175 254.34236 35.815624 254.34236Q36.565624 254.34236 37.096874 253.76424Q37.628124 253.18611 37.628124 252.24861Q37.628124 251.34236 37.1125 250.82674Q36.6125 250.29549 35.784374 250.29549Q35.284374 250.29549 34.8625 250.52986Q34.45625 250.76424 34.221874 251.12361L33.2375 250.99861L34.065624 246.59236L38.346874 246.59236L38.346874 247.59236L34.909374 247.59236L34.45625 249.90486Q35.221874 249.35799 36.065624 249.35799Q37.190624 249.35799 37.95625 250.13924Q38.7375 250.92049 38.7375 252.15486Q38.7375 253.31111 38.065624 254.17049Q37.2375 255.20174 35.815624 255.20174Q34.64375 255.20174 33.89375 254.54549Q33.159374 253.88924 33.05 252.81111Z" fill-rule="nonzero"/><path fill="#000000" d="M30.01875 173.67223L28.971874 173.67223L28.971874 166.95348Q28.58125 167.31285 27.95625 167.68785Q27.346874 168.04723 26.8625 168.2191L26.8625 167.20348Q27.7375 166.7816 28.39375 166.20348Q29.065624 165.60973 29.346874 165.04723L30.01875 165.04723L30.01875 173.67223ZM33.05 169.43785Q33.05 167.9066 33.3625 166.98473Q33.675 166.04723 34.284374 165.54723Q34.909374 165.04723 35.846874 165.04723Q36.534374 165.04723 37.05 165.32848Q37.58125 165.60973 37.925 166.14098Q38.26875 166.6566 38.45625 167.4066Q38.64375 168.1566 38.64375 169.43785Q38.64375 170.95348 38.33125 171.87535Q38.034374 172.79723 37.409374 173.31285Q36.8 173.81285 35.846874 173.81285Q34.6125 173.81285 33.89375 172.92223Q33.05 171.85973 33.05 169.43785ZM34.128124 169.43785Q34.128124 171.54723 34.628124 172.25035Q35.128124 172.95348 35.846874 172.95348Q36.58125 172.95348 37.065624 172.25035Q37.565624 171.54723 37.565624 169.43785Q37.565624 167.31285 37.065624 166.62535Q36.58125 165.92223 35.83125 165.92223Q35.1125 165.92223 34.675 166.5316Q34.128124 167.31285 34.128124 169.43785Z" fill-rule="nonzero"/><path fill="#000000" d="M30.01875 92.28333L28.971874 92.28333L28.971874 85.56458Q28.58125 85.92396 27.95625 86.29896Q27.346874 86.65833 26.8625 86.83021L26.8625 85.81458Q27.7375 85.39271 28.39375 84.81458Q29.065624 84.22083 29.346874 83.65833L30.01875 83.65833L30.01875 92.28333ZM33.05 90.03333L34.159374 89.93958Q34.284374 90.75208 34.721874 91.15833Q35.175 91.56458 35.815624 91.56458Q36.565624 91.56458 37.096874 90.98646Q37.628124 90.40833 37.628124 89.47083Q37.628124 88.56458 37.1125 88.04896Q36.6125 87.51771 35.784374 87.51771Q35.284374 87.51771 34.8625 87.75208Q34.45625 87.98646 34.221874 88.34583L33.2375 88.22083L34.065624 83.81458L38.346874 83.81458L38.346874 84.81458L34.909374 84.81458L34.45625 87.12708Q35.221874 86.58021 36.065624 86.58021Q37.190624 86.58021 37.95625 87.36146Q38.7375 88.14271 38.7375 89.37708Q38.7375 90.53333 38.065624 91.39271Q37.2375 92.42396 35.815624 92.42396Q34.64375 92.42396 33.89375 91.76771Q33.159374 91.11146 33.05 90.03333Z" fill-rule="nonzero"/><path fill="#000000" d="M103.275024 348.4344L103.275024 349.45L97.587524 349.45Q97.587524 349.075 97.712524 348.71564Q97.931274 348.1375 98.400024 347.575Q98.8844 347.0125 99.79065 346.27814Q101.1969 345.1219 101.681274 344.45Q102.181274 343.77814 102.181274 343.1844Q102.181274 342.5594 101.72815 342.1375Q101.275024 341.7 100.556274 341.7Q99.79065 341.7 99.337524 342.15314Q98.8844 342.60626 98.868774 343.41876L97.79065 343.3094Q97.900024 342.09064 98.618774 341.46564Q99.35315 340.825 100.587524 340.825Q101.8219 340.825 102.54065 341.5125Q103.2594 342.2 103.2594 343.21564Q103.2594 343.73126 103.04065 344.23126Q102.837524 344.71564 102.337524 345.27814Q101.85315 345.825 100.72815 346.77814Q99.775024 347.575 99.493774 347.8719Q99.22815 348.15314 99.056274 348.4344L103.275024 348.4344Z" fill-rule="nonzero"/><path fill="#000000" d="M207.48907 349.45L207.48907 347.3875L203.77032 347.3875L203.77032 346.41876L207.6922 340.85626L208.55157 340.85626L208.55157 346.41876L209.70782 346.41876L209.70782 347.3875L208.55157 347.3875L208.55157 349.45L207.48907 349.45ZM207.48907 346.41876L207.48907 342.5594L204.80157 346.41876L207.48907 346.41876Z" fill-rule="nonzero"/><path fill="#000000" d="M315.96875 342.96564L314.92188 343.04376Q314.78125 342.41876 314.53125 342.1375Q314.09375 341.6844 313.46875 341.6844Q312.96875 341.6844 312.57812 341.96564Q312.09375 342.34064 311.79688 343.04376Q311.51562 343.73126 311.5 345.0125Q311.875 344.4344 312.42188 344.15314Q312.98438 343.8719 313.59375 343.8719Q314.64062 343.8719 315.375 344.65314Q316.125 345.4344 316.125 346.65314Q316.125 347.46564 315.76562 348.16876Q315.42188 348.85626 314.8125 349.23126Q314.20312 349.59064 313.4375 349.59064Q312.10938 349.59064 311.28125 348.6219Q310.45312 347.65314 310.45312 345.4344Q310.45312 342.9344 311.375 341.8094Q312.17188 340.825 313.53125 340.825Q314.54688 340.825 315.1875 341.40314Q315.84375 341.96564 315.96875 342.96564ZM311.67188 346.66876Q311.67188 347.21564 311.89062 347.71564Q312.125 348.2 312.53125 348.46564Q312.95312 348.73126 313.42188 348.73126Q314.07812 348.73126 314.5625 348.2Q315.04688 347.65314 315.04688 346.73126Q315.04688 345.84064 314.5625 345.325Q314.09375 344.8094 313.375 344.8094Q312.65625 344.8094 312.15625 345.325Q311.67188 345.84064 311.67188 346.66876Z" fill-rule="nonzero"/><path fill="#000000" d="M418.51093 344.79376Q417.85468 344.54376 417.52655 344.10626Q417.21405 343.65314 417.21405 343.04376Q417.21405 342.10626 417.88593 341.46564Q418.57343 340.825 419.6828 340.825Q420.8078 340.825 421.4953 341.48126Q422.1828 342.1375 422.1828 343.075Q422.1828 343.66876 421.8703 344.10626Q421.5578 344.54376 420.91718 344.79376Q421.71405 345.04376 422.1203 345.6219Q422.52655 346.2 422.52655 346.9969Q422.52655 348.09064 421.7453 348.84064Q420.97968 349.59064 419.69843 349.59064Q418.4328 349.59064 417.65155 348.84064Q416.8703 348.09064 416.8703 346.96564Q416.8703 346.1219 417.29218 345.5594Q417.72968 344.9969 418.51093 344.79376ZM418.29218 342.9969Q418.29218 343.60626 418.6828 343.9969Q419.08905 344.3875 419.71405 344.3875Q420.32343 344.3875 420.71405 344.0125Q421.10468 343.6219 421.10468 343.0594Q421.10468 342.48126 420.69843 342.09064Q420.29218 341.6844 419.69843 341.6844Q419.08905 341.6844 418.6828 342.075Q418.29218 342.46564 418.29218 342.9969ZM417.96405 346.96564Q417.96405 347.41876 418.16718 347.84064Q418.38593 348.2625 418.8078 348.4969Q419.22968 348.73126 419.71405 348.73126Q420.46405 348.73126 420.94843 348.2469Q421.44843 347.7625 421.44843 347.0125Q421.44843 346.2469 420.94843 345.7469Q420.44843 345.2469 419.6828 345.2469Q418.9328 345.2469 418.44843 345.7469Q417.96405 346.23126 417.96405 346.96564Z" fill-rule="nonzero"/><path fill="#000000" d="M523.7406 349.45L522.6937 349.45L522.6937 342.73126Q522.3031 343.09064 521.6781 343.46564Q521.0687 343.825 520.58435 343.9969L520.58435 342.98126Q521.45935 342.5594 522.1156 341.98126Q522.7875 341.3875 523.0687 340.825L523.7406 340.825L523.7406 349.45ZM526.77185 345.21564Q526.77185 343.6844 527.08435 342.7625Q527.39685 341.825 528.0062 341.325Q528.6312 340.825 529.5687 340.825Q530.2562 340.825 530.77185 341.10626Q531.3031 341.3875 531.64685 341.91876Q531.9906 342.4344 532.1781 343.1844Q532.3656 343.9344 532.3656 345.21564Q532.3656 346.73126 532.0531 347.65314Q531.7562 348.575 531.1312 349.09064Q530.52185 349.59064 529.5687 349.59064Q528.33435 349.59064 527.6156 348.7Q526.77185 347.6375 526.77185 345.21564ZM527.85 345.21564Q527.85 347.325 528.35 348.02814Q528.85 348.73126 529.5687 348.73126Q530.3031 348.73126 530.7875 348.02814Q531.2875 347.325 531.2875 345.21564Q531.2875 343.09064 530.7875 342.40314Q530.3031 341.7 529.5531 341.7Q528.83435 341.7 528.39685 342.3094Q527.85 343.09064 527.85 345.21564Z" fill-rule="nonzero"/><path fill="#4285f4" d="M199.5 61.916668C199.5 65.23038 196.8137 67.916664 193.5 67.916664C190.1863 67.916664 187.5 65.23038 187.5 61.916668C187.5 58.60296 190.1863 55.916668 193.5 55.916668C196.8137 55.916668 199.5 58.60296 199.5 61.916668Z" fill-rule="nonzero"/><path fill="#1a1a1a" d="M208.42188 65.916664L208.42188 57.322914L211.39062 57.322914Q212.39062 57.322914 212.92188 57.447914Q213.65625 57.61979 214.17188 58.05729Q214.85938 58.635414 215.1875 59.541664Q215.53125 60.43229 215.53125 61.572914Q215.53125 62.55729 215.29688 63.30729Q215.07812 64.05729 214.71875 64.55729Q214.35938 65.05729 213.92188 65.33854Q213.5 65.61979 212.90625 65.77604Q212.3125 65.916664 211.53125 65.916664L208.42188 65.916664ZM209.5625 64.90104L211.39062 64.90104Q212.25 64.90104 212.73438 64.74479Q213.21875 64.58854 213.5 64.291664Q213.90625 63.90104 214.125 63.21354Q214.35938 62.52604 214.35938 61.55729Q214.35938 60.21354 213.90625 59.49479Q213.46875 58.760414 212.84375 58.510414Q212.375 58.33854 211.375 58.33854L209.5625 58.33854L209.5625 64.90104ZM221.54688 63.916664L222.64062 64.041664Q222.39062 64.99479 221.6875 65.52604Q220.98438 66.05729 219.90625 66.05729Q218.54688 66.05729 217.73438 65.21354Q216.9375 64.36979 216.9375 62.854164Q216.9375 61.291664 217.75 60.43229Q218.5625 59.55729 219.84375 59.55729Q221.09375 59.55729 221.875 60.40104Q222.67188 61.24479 222.67188 62.791664Q222.67188 62.885414 222.67188 63.072914L218.03125 63.072914Q218.09375 64.104164 218.60938 64.65104Q219.125 65.18229 219.90625 65.18229Q220.48438 65.18229 220.89062 64.885414Q221.3125 64.572914 221.54688 63.916664ZM218.09375 62.21354L221.5625 62.21354Q221.5 61.416664 221.17188 61.02604Q220.65625 60.416664 219.85938 60.416664Q219.125 60.416664 218.625 60.90104Q218.14062 61.385414 218.09375 62.21354ZM224.29688 65.916664L224.29688 59.697914L225.23438 59.697914L225.23438 60.572914Q225.92188 59.55729 227.21875 59.55729Q227.78125 59.55729 228.25 59.760414Q228.73438 59.96354 228.96875 60.291664Q229.20312 60.61979 229.29688 61.05729Q229.34375 61.354164 229.34375 62.08854L229.34375 65.916664L228.29688 65.916664L228.29688 62.135414Q228.29688 61.479164 228.17188 61.166664Q228.04688 60.854164 227.73438 60.666664Q227.42188 60.46354 227.0 60.46354Q226.32812 60.46354 225.82812 60.90104Q225.34375 61.322914 225.34375 62.510414L225.34375 65.916664L224.29688 65.916664ZM231.29688 65.916664L231.29688 59.697914L232.23438 59.697914L232.23438 60.572914Q232.53125 60.104164 233.01562 59.83854Q233.5 59.55729 234.125 59.55729Q234.8125 59.55729 235.25 59.83854Q235.70312 60.11979 235.875 60.635414Q236.625 59.55729 237.79688 59.55729Q238.73438 59.55729 239.21875 60.072914Q239.71875 60.572914 239.71875 61.65104L239.71875 65.916664L238.67188 65.916664L238.67188 61.99479Q238.67188 61.36979 238.5625 61.08854Q238.46875 60.80729 238.20312 60.635414Q237.9375 60.46354 237.5625 60.46354Q236.90625 60.46354 236.46875 60.90104Q236.04688 61.33854 236.04688 62.30729L236.04688 65.916664L234.98438 65.916664L234.98438 61.86979Q234.98438 61.166664 234.71875 60.822914Q234.46875 60.46354 233.89062 60.46354Q233.4375 60.46354 233.0625 60.697914Q232.6875 60.93229 232.51562 61.385414Q232.34375 61.83854 232.34375 62.68229L232.34375 65.916664L231.29688 65.916664ZM245.35938 65.15104Q244.76562 65.65104 244.21875 65.854164Q243.6875 66.05729 243.0625 66.05729Q242.03125 66.05729 241.48438 65.55729Q240.9375 65.05729 240.9375 64.27604Q240.9375 63.822914 241.14062 63.447914Q241.34375 63.05729 241.6875 62.83854Q242.03125 62.604164 242.45312 62.49479Q242.75 62.40104 243.39062 62.322914Q244.65625 62.18229 245.26562 61.96354Q245.26562 61.74479 245.26562 61.697914Q245.26562 61.041664 244.96875 60.77604Q244.5625 60.43229 243.76562 60.43229Q243.03125 60.43229 242.67188 60.697914Q242.3125 60.947914 242.14062 61.604164L241.10938 61.46354Q241.25 60.80729 241.57812 60.40104Q241.90625 59.99479 242.51562 59.77604Q243.125 59.55729 243.92188 59.55729Q244.71875 59.55729 245.21875 59.74479Q245.71875 59.93229 245.95312 60.21354Q246.1875 60.49479 246.28125 60.93229Q246.32812 61.197914 246.32812 61.90104L246.32812 63.30729Q246.32812 64.77604 246.39062 65.166664Q246.46875 65.55729 246.67188 65.916664L245.5625 65.916664Q245.40625 65.58854 245.35938 65.15104ZM245.26562 62.791664Q244.6875 63.02604 243.54688 63.197914Q242.89062 63.291664 242.625 63.416664Q242.35938 63.52604 242.20312 63.74479Q242.0625 63.96354 242.0625 64.24479Q242.0625 64.666664 242.375 64.947914Q242.70312 65.229164 243.3125 65.229164Q243.92188 65.229164 244.39062 64.96354Q244.875 64.697914 245.09375 64.229164Q245.26562 63.86979 245.26562 63.18229L245.26562 62.791664ZM248.28125 65.916664L248.28125 59.697914L249.23438 59.697914L249.23438 60.635414Q249.59375 59.979164 249.89062 59.77604Q250.20312 59.55729 250.57812 59.55729Q251.10938 59.55729 251.65625 59.885414L251.29688 60.86979Q250.90625 60.635414 250.53125 60.635414Q250.17188 60.635414 249.89062 60.854164Q249.625 61.05729 249.51562 61.43229Q249.32812 61.99479 249.32812 62.65104L249.32812 65.916664L248.28125 65.916664ZM252.29688 65.916664L252.29688 57.322914L253.35938 57.322914L253.35938 62.229164L255.84375 59.697914L257.21875 59.697914L254.82812 61.99479L257.45312 65.916664L256.15625 65.916664L254.09375 62.729164L253.35938 63.447914L253.35938 65.916664L252.29688 65.916664Z" fill-rule="nonzero"/><path fill="#ea4335" d="M285.5 61.916668C285.5 65.23038 282.81372 67.916664 279.5 67.916664C276.18628 67.916664 273.5 65.23038 273.5 61.916668C273.5 58.60296 276.18628 55.916668 279.5 55.916668C282.81372 55.916668 285.5 58.60296 285.5 61.916668Z" fill-rule="nonzero"/><path fill="#1a1a1a" d="M294.48438 65.916664L294.48438 57.322914L300.28125 57.322914L300.28125 58.33854L295.625 58.33854L295.625 60.99479L299.65625 60.99479L299.65625 62.010414L295.625 62.010414L295.625 65.916664L294.48438 65.916664ZM301.29688 58.541664L301.29688 57.322914L302.35938 57.322914L302.35938 58.541664L301.29688 58.541664ZM301.29688 65.916664L301.29688 59.697914L302.35938 59.697914L302.35938 65.916664L301.29688 65.916664ZM304.29688 65.916664L304.29688 59.697914L305.23438 59.697914L305.23438 60.572914Q305.92188 59.55729 307.21875 59.55729Q307.78125 59.55729 308.25 59.760414Q308.73438 59.96354 308.96875 60.291664Q309.20312 60.61979 309.29688 61.05729Q309.34375 61.354164 309.34375 62.08854L309.34375 65.916664L308.29688 65.916664L308.29688 62.135414Q308.29688 61.479164 308.17188 61.166664Q308.04688 60.854164 307.73438 60.666664Q307.42188 60.46354 307.0 60.46354Q306.32812 60.46354 305.82812 60.90104Q305.34375 61.322914 305.34375 62.510414L305.34375 65.916664L304.29688 65.916664ZM311.26562 65.916664L311.26562 57.322914L312.32812 57.322914L312.32812 65.916664L311.26562 65.916664ZM318.35938 65.15104Q317.76562 65.65104 317.21875 65.854164Q316.6875 66.05729 316.0625 66.05729Q315.03125 66.05729 314.48438 65.55729Q313.9375 65.05729 313.9375 64.27604Q313.9375 63.822914 314.14062 63.447914Q314.34375 63.05729 314.6875 62.83854Q315.03125 62.604164 315.45312 62.49479Q315.75 62.40104 316.39062 62.322914Q317.65625 62.18229 318.26562 61.96354Q318.26562 61.74479 318.26562 61.697914Q318.26562 61.041664 317.96875 60.77604Q317.5625 60.43229 316.76562 60.43229Q316.03125 60.43229 315.67188 60.697914Q315.3125 60.947914 315.14062 61.604164L314.10938 61.46354Q314.25 60.80729 314.57812 60.40104Q314.90625 59.99479 315.51562 59.77604Q316.125 59.55729 316.92188 59.55729Q317.71875 59.55729 318.21875 59.74479Q318.71875 59.93229 318.95312 60.21354Q319.1875 60.49479 319.28125 60.93229Q319.32812 61.197914 319.32812 61.90104L319.32812 63.30729Q319.32812 64.77604 319.39062 65.166664Q319.46875 65.55729 319.67188 65.916664L318.5625 65.916664Q318.40625 65.58854 318.35938 65.15104ZM318.26562 62.791664Q317.6875 63.02604 316.54688 63.197914Q315.89062 63.291664 315.625 63.416664Q315.35938 63.52604 315.20312 63.74479Q315.0625 63.96354 315.0625 64.24479Q315.0625 64.666664 315.375 64.947914Q315.70312 65.229164 316.3125 65.229164Q316.92188 65.229164 317.39062 64.96354Q317.875 64.697914 318.09375 64.229164Q318.26562 63.86979 318.26562 63.18229L318.26562 62.791664ZM321.29688 65.916664L321.29688 59.697914L322.23438 59.697914L322.23438 60.572914Q322.92188 59.55729 324.21875 59.55729Q324.78125 59.55729 325.25 59.760414Q325.73438 59.96354 325.96875 60.291664Q326.20312 60.61979 326.29688 61.05729Q326.34375 61.354164 326.34375 62.08854L326.34375 65.916664L325.29688 65.916664L325.29688 62.135414Q325.29688 61.479164 325.17188 61.166664Q325.04688 60.854164 324.73438 60.666664Q324.42188 60.46354 324.0 60.46354Q323.32812 60.46354 322.82812 60.90104Q322.34375 61.322914 322.34375 62.510414L322.34375 65.916664L321.29688 65.916664ZM332.32812 65.916664L332.32812 65.135414Q331.73438 66.05729 330.59375 66.05729Q329.84375 66.05729 329.21875 65.65104Q328.59375 65.229164 328.25 64.49479Q327.90625 63.760414 327.90625 62.80729Q327.90625 61.885414 328.21875 61.11979Q328.53125 60.354164 329.15625 59.96354Q329.78125 59.55729 330.54688 59.55729Q331.10938 59.55729 331.54688 59.791664Q331.98438 60.02604 332.26562 60.40104L332.26562 57.322914L333.3125 57.322914L333.3125 65.916664L332.32812 65.916664ZM329.0 62.80729Q329.0 64.010414 329.5 64.604164Q330.0 65.18229 330.6875 65.18229Q331.375 65.18229 331.85938 64.61979Q332.34375 64.05729 332.34375 62.90104Q332.34375 61.61979 331.84375 61.02604Q331.35938 60.43229 330.64062 60.43229Q329.9375 60.43229 329.46875 61.010414Q329.0 61.572914 329.0 62.80729Z" fill-rule="nonzero"/><path fill="#fbbc04" d="M362.5 61.916668C362.5 65.23038 359.81372 67.916664 356.5 67.916664C353.18628 67.916664 350.5 65.23038 350.5 61.916668C350.5 58.60296 353.18628 55.916668 356.5 55.916668C359.81372 55.916668 362.5 58.60296 362.5 61.916668Z" fill-rule="nonzero"/><path fill="#1a1a1a" d="M371.42188 65.916664L371.42188 57.322914L372.57812 57.322914L377.09375 64.072914L377.09375 57.322914L378.1875 57.322914L378.1875 65.916664L377.01562 65.916664L372.5 59.166664L372.5 65.916664L371.42188 65.916664ZM379.90625 62.80729Q379.90625 61.072914 380.85938 60.24479Q381.65625 59.55729 382.8125 59.55729Q384.09375 59.55729 384.90625 60.40104Q385.73438 61.229164 385.73438 62.71354Q385.73438 63.916664 385.375 64.604164Q385.01562 65.291664 384.3125 65.68229Q383.625 66.05729 382.8125 66.05729Q381.51562 66.05729 380.70312 65.229164Q379.90625 64.385414 379.90625 62.80729ZM380.98438 62.80729Q380.98438 63.99479 381.5 64.58854Q382.03125 65.18229 382.8125 65.18229Q383.60938 65.18229 384.125 64.58854Q384.64062 63.99479 384.64062 62.77604Q384.64062 61.61979 384.10938 61.02604Q383.59375 60.43229 382.8125 60.43229Q382.03125 60.43229 381.5 61.02604Q380.98438 61.604164 380.98438 62.80729ZM387.28125 65.916664L387.28125 59.697914L388.23438 59.697914L388.23438 60.635414Q388.59375 59.979164 388.89062 59.77604Q389.20312 59.55729 389.57812 59.55729Q390.10938 59.55729 390.65625 59.885414L390.29688 60.86979Q389.90625 60.635414 389.53125 60.635414Q389.17188 60.635414 388.89062 60.854164Q388.625 61.05729 388.51562 61.43229Q388.32812 61.99479 388.32812 62.65104L388.32812 65.916664L387.28125 65.916664ZM392.4375 65.916664L390.53125 59.697914L391.625 59.697914L392.60938 63.291664L392.98438 64.61979Q393.01562 64.52604 393.3125 63.33854L394.29688 59.697914L395.375 59.697914L396.3125 63.30729L396.625 64.49479L396.98438 63.291664L398.04688 59.697914L399.07812 59.697914L397.125 65.916664L396.03125 65.916664L395.04688 62.18229L394.79688 61.135414L393.54688 65.916664L392.4375 65.916664ZM404.35938 65.15104Q403.76562 65.65104 403.21875 65.854164Q402.6875 66.05729 402.0625 66.05729Q401.03125 66.05729 400.48438 65.55729Q399.9375 65.05729 399.9375 64.27604Q399.9375 63.822914 400.14062 63.447914Q400.34375 63.05729 400.6875 62.83854Q401.03125 62.604164 401.45312 62.49479Q401.75 62.40104 402.39062 62.322914Q403.65625 62.18229 404.26562 61.96354Q404.26562 61.74479 404.26562 61.697914Q404.26562 61.041664 403.96875 60.77604Q403.5625 60.43229 402.76562 60.43229Q402.03125 60.43229 401.67188 60.697914Q401.3125 60.947914 401.14062 61.604164L400.10938 61.46354Q400.25 60.80729 400.57812 60.40104Q400.90625 59.99479 401.51562 59.77604Q402.125 59.55729 402.92188 59.55729Q403.71875 59.55729 404.21875 59.74479Q404.71875 59.93229 404.95312 60.21354Q405.1875 60.49479 405.28125 60.93229Q405.32812 61.197914 405.32812 61.90104L405.32812 63.30729Q405.32812 64.77604 405.39062 65.166664Q405.46875 65.55729 405.67188 65.916664L404.5625 65.916664Q404.40625 65.58854 404.35938 65.15104ZM404.26562 62.791664Q403.6875 63.02604 402.54688 63.197914Q401.89062 63.291664 401.625 63.416664Q401.35938 63.52604 401.20312 63.74479Q401.0625 63.96354 401.0625 64.24479Q401.0625 64.666664 401.375 64.947914Q401.70312 65.229164 402.3125 65.229164Q402.92188 65.229164 403.39062 64.96354Q403.875 64.697914 404.09375 64.229164Q404.26562 63.86979 404.26562 63.18229L404.26562 62.791664ZM407.25 68.30729L407.125 67.322914Q407.46875 67.416664 407.73438 67.416664Q408.07812 67.416664 408.28125 67.291664Q408.5 67.18229 408.64062 66.979164Q408.73438 66.80729 408.96875 66.18229Q408.98438 66.104164 409.0625 65.93229L406.6875 59.697914L407.82812 59.697914L409.125 63.291664Q409.375 63.979164 409.57812 64.74479Q409.76562 64.010414 410.01562 63.322914L411.34375 59.697914L412.39062 59.697914L410.03125 66.02604Q409.64062 67.041664 409.4375 67.43229Q409.15625 67.96354 408.78125 68.197914Q408.42188 68.447914 407.92188 68.447914Q407.625 68.447914 407.25 68.30729Z" fill-rule="nonzero"/><path fill="#757575" d="M20.034374 37.55L20.034374 23.2375L22.89375 23.2375L26.26875 33.3625Q26.7375 34.784374 26.95625 35.4875Q27.20625 34.70625 27.721874 33.190624L31.14375 23.2375L33.690624 23.2375L33.690624 37.55L31.878124 37.55L31.878124 25.565624L27.70625 37.55L26.003124 37.55L21.8625 25.3625L21.8625 37.55L20.034374 37.55ZM43.971874 34.20625L45.784374 34.440624Q45.3625 36.01875 44.190624 36.909374Q43.034374 37.784374 41.221874 37.784374Q38.95625 37.784374 37.6125 36.39375Q36.284374 34.9875 36.284374 32.45625Q36.284374 29.83125 37.628124 28.39375Q38.971874 26.940624 41.128124 26.940624Q43.20625 26.940624 44.51875 28.3625Q45.846874 29.76875 45.846874 32.346874Q45.846874 32.503124 45.83125 32.815624L38.096874 32.815624Q38.190624 34.51875 39.065624 35.425Q39.940624 36.33125 41.2375 36.33125Q42.20625 36.33125 42.878124 35.83125Q43.565624 35.315624 43.971874 34.20625ZM38.190624 31.3625L43.9875 31.3625Q43.878124 30.065624 43.33125 29.409374Q42.4875 28.39375 41.14375 28.39375Q39.940624 28.39375 39.1125 29.20625Q38.284374 30.003124 38.190624 31.3625ZM54.64375 36.26875Q53.659374 37.096874 52.753124 37.440624Q51.846874 37.784374 50.815624 37.784374Q49.1125 37.784374 48.190624 36.95625Q47.26875 36.1125 47.26875 34.815624Q47.26875 34.05 47.6125 33.425Q47.971874 32.8 48.534374 32.425Q49.096874 32.034374 49.8 31.83125Q50.315624 31.70625 51.3625 31.565624Q53.4875 31.315624 54.4875 30.971874Q54.503124 30.6125 54.503124 30.503124Q54.503124 29.440624 54.003124 28.9875Q53.33125 28.39375 52.003124 28.39375Q50.753124 28.39375 50.159374 28.83125Q49.58125 29.26875 49.3 30.378124L47.58125 30.14375Q47.815624 29.034374 48.346874 28.3625Q48.878124 27.675 49.89375 27.315624Q50.909374 26.940624 52.253124 26.940624Q53.58125 26.940624 54.409374 27.253124Q55.2375 27.565624 55.628124 28.05Q56.01875 28.51875 56.175 29.2375Q56.26875 29.690624 56.26875 30.8625L56.26875 33.20625Q56.26875 35.659374 56.378124 36.315624Q56.4875 36.95625 56.83125 37.55L54.9875 37.55Q54.721874 37.003124 54.64375 36.26875ZM54.4875 32.346874Q53.534374 32.7375 51.6125 33.003124Q50.534374 33.159374 50.08125 33.3625Q49.64375 33.55 49.39375 33.925Q49.14375 34.3 49.14375 34.76875Q49.14375 35.471874 49.675 35.940624Q50.20625 36.409374 51.2375 36.409374Q52.253124 36.409374 53.034374 35.971874Q53.83125 35.51875 54.20625 34.753124Q54.4875 34.14375 54.4875 32.9875L54.4875 32.346874ZM58.8625 37.55L58.8625 27.175L60.45625 27.175L60.45625 28.659374Q61.596874 26.940624 63.753124 26.940624Q64.69063 26.940624 65.47188 27.284374Q66.26875 27.6125 66.65938 28.159374Q67.05 28.70625 67.20625 29.45625Q67.3 29.95625 67.3 31.175L67.3 37.55L65.53438 37.55L65.53438 31.2375Q65.53438 30.159374 65.33125 29.628124Q65.12813 29.096874 64.59688 28.784374Q64.08125 28.471874 63.378124 28.471874Q62.253124 28.471874 61.440624 29.190624Q60.628124 29.89375 60.628124 31.878124L60.628124 37.55L58.8625 37.55ZM75.8625 37.55L75.8625 27.175L77.45625 27.175L77.45625 28.659374Q78.59688 26.940624 80.75313 26.940624Q81.69063 26.940624 82.47188 27.284374Q83.26875 27.6125 83.65938 28.159374Q84.05 28.70625 84.20625 29.45625Q84.3 29.95625 84.3 31.175L84.3 37.55L82.53438 37.55L82.53438 31.2375Q82.53438 30.159374 82.33125 29.628124Q82.12813 29.096874 81.59688 28.784374Q81.08125 28.471874 80.37813 28.471874Q79.25313 28.471874 78.44063 29.190624Q77.62813 29.89375 77.62813 31.878124L77.62813 37.55L75.8625 37.55ZM93.65938 37.55L93.65938 36.01875Q92.45625 37.784374 90.37813 37.784374Q89.45625 37.784374 88.65938 37.440624Q87.8625 37.08125 87.47188 36.55Q87.09688 36.01875 86.94063 35.2375Q86.83125 34.721874 86.83125 33.596874L86.83125 27.175L88.58125 27.175L88.58125 32.925Q88.58125 34.3 88.69063 34.784374Q88.8625 35.471874 89.39375 35.878124Q89.94063 36.26875 90.72188 36.26875Q91.51875 36.26875 92.20625 35.8625Q92.90938 35.45625 93.19063 34.76875Q93.4875 34.065624 93.4875 32.7375L93.4875 27.175L95.2375 27.175L95.2375 37.55L93.65938 37.55ZM97.8625 37.55L97.8625 27.175L99.44063 27.175L99.44063 28.628124Q99.925 27.878124 100.7375 27.409374Q101.55 26.940624 102.58125 26.940624Q103.7375 26.940624 104.47188 27.425Q105.20625 27.89375 105.51875 28.753124Q106.75313 26.940624 108.72188 26.940624Q110.26875 26.940624 111.09688 27.8Q111.925 28.659374 111.925 30.425L111.925 37.55L110.175 37.55L110.175 31.01875Q110.175 29.95625 110.00313 29.503124Q109.83125 29.034374 109.37813 28.753124Q108.94063 28.471874 108.33125 28.471874Q107.2375 28.471874 106.50313 29.20625Q105.78438 29.925 105.78438 31.51875L105.78438 37.55L104.03438 37.55L104.03438 30.815624Q104.03438 29.64375 103.59688 29.065624Q103.175 28.471874 102.19063 28.471874Q101.45625 28.471874 100.81563 28.8625Q100.19063 29.253124 99.90938 30.003124Q99.62813 30.753124 99.62813 32.175L99.62813 37.55L97.8625 37.55ZM116.4875 37.55L114.8625 37.55L114.8625 23.2375L116.6125 23.2375L116.6125 28.346874Q117.7375 26.940624 119.45625 26.940624Q120.40938 26.940624 121.26875 27.33125Q122.12813 27.721874 122.675 28.425Q123.22188 29.1125 123.53438 30.096874Q123.84688 31.08125 123.84688 32.20625Q123.84688 34.878124 122.53438 36.33125Q121.22188 37.784374 119.37813 37.784374Q117.53438 37.784374 116.4875 36.253124L116.4875 37.55ZM116.47188 32.284374Q116.47188 34.14375 116.97188 34.9875Q117.81563 36.33125 119.22188 36.33125Q120.37813 36.33125 121.20625 35.33125Q122.05 34.33125 122.05 32.346874Q122.05 30.315624 121.2375 29.3625Q120.44063 28.39375 119.3 28.39375Q118.14375 28.39375 117.3 29.39375Q116.47188 30.39375 116.47188 32.284374ZM132.97188 34.20625L134.78438 34.440624Q134.3625 36.01875 133.19063 36.909374Q132.03438 37.784374 130.22188 37.784374Q127.95625 37.784374 126.6125 36.39375Q125.28438 34.9875 125.28438 32.45625Q125.28438 29.83125 126.62813 28.39375Q127.97188 26.940624 130.12813 26.940624Q132.20625 26.940624 133.51875 28.3625Q134.84688 29.76875 134.84688 32.346874Q134.84688 32.503124 134.83125 32.815624L127.09688 32.815624Q127.19063 34.51875 128.06563 35.425Q128.94063 36.33125 130.2375 36.33125Q131.20625 36.33125 131.87813 35.83125Q132.56563 35.315624 132.97188 34.20625ZM127.19063 31.3625L132.9875 31.3625Q132.87813 30.065624 132.33125 29.409374Q131.4875 28.39375 130.14375 28.39375Q128.94063 28.39375 128.1125 29.20625Q127.28438 30.003124 127.19063 31.3625ZM136.84688 37.55L136.84688 27.175L138.425 27.175L138.425 28.753124Q139.03438 27.64375 139.55 27.3Q140.06563 26.940624 140.675 26.940624Q141.56563 26.940624 142.4875 27.503124L141.87813 29.14375Q141.2375 28.753124 140.59688 28.753124Q140.01875 28.753124 139.55 29.1125Q139.09688 29.45625 138.89375 30.065624Q138.6125 31.003124 138.6125 32.1125L138.6125 37.55L136.84688 37.55ZM149.22188 32.3625Q149.22188 29.4875 150.81563 28.096874Q152.15938 26.940624 154.08125 26.940624Q156.22188 26.940624 157.56563 28.346874Q158.925 29.753124 158.925 32.221874Q158.925 34.221874 158.33125 35.378124Q157.7375 36.51875 156.58125 37.159374Q155.44063 37.784374 154.08125 37.784374Q151.89375 37.784374 150.55 36.39375Q149.22188 34.9875 149.22188 32.3625ZM151.01875 32.3625Q151.01875 34.3625 151.87813 35.346874Q152.75313 36.33125 154.08125 36.33125Q155.39375 36.33125 156.25313 35.346874Q157.12813 34.346874 157.12813 32.3Q157.12813 30.378124 156.25313 29.39375Q155.37813 28.39375 154.08125 28.39375Q152.75313 28.39375 151.87813 29.39375Q151.01875 30.378124 151.01875 32.3625ZM161.28438 37.55L161.28438 28.55L159.7375 28.55L159.7375 27.175L161.28438 27.175L161.28438 26.08125Q161.28438 25.034374 161.47188 24.51875Q161.72188 23.83125 162.3625 23.409374Q163.00313 22.9875 164.15938 22.9875Q164.90938 22.9875 165.8 23.159374L165.53438 24.690624Q164.9875 24.596874 164.50313 24.596874Q163.70625 24.596874 163.3625 24.940624Q163.03438 25.284374 163.03438 26.221874L163.03438 27.175L165.06563 27.175L165.06563 28.55L163.03438 28.55L163.03438 37.55L161.28438 37.55ZM179.59688 37.55L179.59688 36.2375Q178.6125 37.784374 176.69063 37.784374Q175.45625 37.784374 174.40938 37.096874Q173.37813 36.409374 172.8 35.190624Q172.2375 33.971874 172.2375 32.378124Q172.2375 30.815624 172.75313 29.55Q173.26875 28.284374 174.3 27.6125Q175.34688 26.940624 176.6125 26.940624Q177.55 26.940624 178.28438 27.346874Q179.01875 27.7375 179.4875 28.3625L179.4875 23.2375L181.22188 23.2375L181.22188 37.55L179.59688 37.55ZM174.03438 32.378124Q174.03438 34.3625 174.87813 35.346874Q175.72188 36.33125 176.8625 36.33125Q178.01875 36.33125 178.81563 35.39375Q179.62813 34.45625 179.62813 32.51875Q179.62813 30.39375 178.8 29.39375Q177.9875 28.39375 176.78438 28.39375Q175.6125 28.39375 174.81563 29.3625Q174.03438 30.315624 174.03438 32.378124ZM190.97188 34.20625L192.78438 34.440624Q192.3625 36.01875 191.19063 36.909374Q190.03438 37.784374 188.22188 37.784374Q185.95625 37.784374 184.6125 36.39375Q183.28438 34.9875 183.28438 32.45625Q183.28438 29.83125 184.62813 28.39375Q185.97188 26.940624 188.12813 26.940624Q190.20625 26.940624 191.51875 28.3625Q192.84688 29.76875 192.84688 32.346874Q192.84688 32.503124 192.83125 32.815624L185.09688 32.815624Q185.19063 34.51875 186.06563 35.425Q186.94063 36.33125 188.2375 36.33125Q189.20625 36.33125 189.87813 35.83125Q190.56563 35.315624 190.97188 34.20625ZM185.19063 31.3625L190.9875 31.3625Q190.87813 30.065624 190.33125 29.409374Q189.4875 28.39375 188.14375 28.39375Q186.94063 28.39375 186.1125 29.20625Q185.28438 30.003124 185.19063 31.3625ZM201.64375 36.26875Q200.65938 37.096874 199.75313 37.440624Q198.84688 37.784374 197.81563 37.784374Q196.1125 37.784374 195.19063 36.95625Q194.26875 36.1125 194.26875 34.815624Q194.26875 34.05 194.6125 33.425Q194.97188 32.8 195.53438 32.425Q196.09688 32.034374 196.8 31.83125Q197.31563 31.70625 198.3625 31.565624Q200.4875 31.315624 201.4875 30.971874Q201.50313 30.6125 201.50313 30.503124Q201.50313 29.440624 201.00313 28.9875Q200.33125 28.39375 199.00313 28.39375Q197.75313 28.39375 197.15938 28.83125Q196.58125 29.26875 196.3 30.378124L194.58125 30.14375Q194.81563 29.034374 195.34688 28.3625Q195.87813 27.675 196.89375 27.315624Q197.90938 26.940624 199.25313 26.940624Q200.58125 26.940624 201.40938 27.253124Q202.2375 27.565624 202.62813 28.05Q203.01875 28.51875 203.175 29.2375Q203.26875 29.690624 203.26875 30.8625L203.26875 33.20625Q203.26875 35.659374 203.37813 36.315624Q203.4875 36.95625 203.83125 37.55L201.9875 37.55Q201.72188 37.003124 201.64375 36.26875ZM201.4875 32.346874Q200.53438 32.7375 198.6125 33.003124Q197.53438 33.159374 197.08125 33.3625Q196.64375 33.55 196.39375 33.925Q196.14375 34.3 196.14375 34.76875Q196.14375 35.471874 196.675 35.940624Q197.20625 36.409374 198.2375 36.409374Q199.25313 36.409374 200.03438 35.971874Q200.83125 35.51875 201.20625 34.753124Q201.4875 34.14375 201.4875 32.9875L201.4875 32.346874ZM209.70625 35.971874L209.95625 37.534374Q209.22188 37.690624 208.62813 37.690624Q207.675 37.690624 207.14375 37.39375Q206.62813 37.08125 206.40938 36.596874Q206.19063 36.096874 206.19063 34.51875L206.19063 28.55L204.90938 28.55L204.90938 27.175L206.19063 27.175L206.19063 24.6125L207.94063 23.55L207.94063 27.175L209.70625 27.175L209.70625 28.55L207.94063 28.55L207.94063 34.6125Q207.94063 35.3625 208.03438 35.58125Q208.12813 35.784374 208.33125 35.925Q208.55 36.05 208.94063 36.05Q209.22188 36.05 209.70625 35.971874ZM211.8625 37.55L211.8625 23.2375L213.62813 23.2375L213.62813 28.3625Q214.8625 26.940624 216.7375 26.940624Q217.87813 26.940624 218.72188 27.39375Q219.58125 27.846874 219.94063 28.659374Q220.31563 29.45625 220.31563 30.971874L220.31563 37.55L218.56563 37.55L218.56563 30.971874Q218.56563 29.659374 217.9875 29.065624Q217.40938 28.45625 216.37813 28.45625Q215.59688 28.45625 214.89375 28.8625Q214.20625 29.26875 213.90938 29.971874Q213.62813 30.659374 213.62813 31.878124L213.62813 37.55L211.8625 37.55ZM222.15938 34.45625L223.90938 34.175Q224.05 35.221874 224.72188 35.784374Q225.39375 36.33125 226.59688 36.33125Q227.8 36.33125 228.37813 35.846874Q228.97188 35.346874 228.97188 34.690624Q228.97188 34.096874 228.45625 33.753124Q228.09688 33.51875 226.65938 33.159374Q224.72188 32.659374 223.97188 32.315624Q223.2375 31.95625 222.84688 31.33125Q222.45625 30.690624 222.45625 29.925Q222.45625 29.2375 222.76875 28.64375Q223.09688 28.05 223.64375 27.659374Q224.05 27.3625 224.75313 27.159374Q225.47188 26.940624 226.28438 26.940624Q227.50313 26.940624 228.425 27.3Q229.34688 27.64375 229.78438 28.253124Q230.22188 28.846874 230.39375 29.846874L228.675 30.08125Q228.55 29.284374 227.9875 28.846874Q227.425 28.39375 226.40938 28.39375Q225.19063 28.39375 224.675 28.8Q224.15938 29.190624 224.15938 29.721874Q224.15938 30.065624 224.37813 30.346874Q224.58125 30.628124 225.05 30.815624Q225.31563 30.909374 226.59688 31.253124Q228.47188 31.753124 229.20625 32.08125Q229.94063 32.39375 230.3625 33.003124Q230.78438 33.596874 230.78438 34.503124Q230.78438 35.378124 230.26875 36.159374Q229.75313 36.940624 228.78438 37.3625Q227.81563 37.784374 226.59688 37.784374Q224.58125 37.784374 223.51875 36.940624Q222.45625 36.096874 222.15938 34.45625ZM238.8625 41.51875L238.8625 27.175L240.47188 27.175L240.47188 28.51875Q241.03438 27.7375 241.7375 27.346874Q242.45625 26.940624 243.47188 26.940624Q244.8 26.940624 245.81563 27.628124Q246.83125 28.315624 247.34688 29.565624Q247.87813 30.8 247.87813 32.284374Q247.87813 33.878124 247.3 35.159374Q246.7375 36.425 245.64375 37.1125Q244.55 37.784374 243.34688 37.784374Q242.47188 37.784374 241.76875 37.409374Q241.08125 37.034374 240.62813 36.471874L240.62813 41.51875L238.8625 41.51875ZM240.45625 32.425Q240.45625 34.425 241.26875 35.378124Q242.08125 36.33125 243.2375 36.33125Q244.40938 36.33125 245.2375 35.346874Q246.08125 34.3625 246.08125 32.26875Q246.08125 30.3 245.25313 29.315624Q244.44063 28.315624 243.31563 28.315624Q242.19063 28.315624 241.31563 29.378124Q240.45625 30.425 240.45625 32.425ZM256.97186 34.20625L258.78436 34.440624Q258.3625 36.01875 257.1906 36.909374Q256.03436 37.784374 254.22188 37.784374Q251.95625 37.784374 250.6125 36.39375Q249.28438 34.9875 249.28438 32.45625Q249.28438 29.83125 250.62813 28.39375Q251.97188 26.940624 254.12813 26.940624Q256.20624 26.940624 257.51874 28.3625Q258.84686 29.76875 258.84686 32.346874Q258.84686 32.503124 258.83124 32.815624L251.09688 32.815624Q251.19063 34.51875 252.06563 35.425Q252.94063 36.33125 254.2375 36.33125Q255.20625 36.33125 255.87813 35.83125Q256.5656 35.315624 256.97186 34.20625ZM251.19063 31.3625L256.9875 31.3625Q256.8781 30.065624 256.33124 29.409374Q255.4875 28.39375 254.14375 28.39375Q252.94063 28.39375 252.1125 29.20625Q251.28438 30.003124 251.19063 31.3625ZM260.84686 37.55L260.84686 27.175L262.425 27.175L262.425 28.753124Q263.03436 27.64375 263.55 27.3Q264.0656 26.940624 264.675 26.940624Q265.5656 26.940624 266.4875 27.503124L265.8781 29.14375Q265.2375 28.753124 264.59686 28.753124Q264.01874 28.753124 263.55 29.1125Q263.09686 29.45625 262.89374 30.065624Q262.6125 31.003124 262.6125 32.1125L262.6125 37.55L260.84686 37.55ZM273.8625 37.55L273.8625 27.175L275.4406 27.175L275.4406 28.628124Q275.925 27.878124 276.7375 27.409374Q277.55 26.940624 278.58124 26.940624Q279.7375 26.940624 280.47186 27.425Q281.20624 27.89375 281.51874 28.753124Q282.7531 26.940624 284.72186 26.940624Q286.26874 26.940624 287.09686 27.8Q287.925 28.659374 287.925 30.425L287.925 37.55L286.175 37.55L286.175 31.01875Q286.175 29.95625 286.0031 29.503124Q285.83124 29.034374 285.3781 28.753124Q284.9406 28.471874 284.33124 28.471874Q283.2375 28.471874 282.5031 29.20625Q281.78436 29.925 281.78436 31.51875L281.78436 37.55L280.03436 37.55L280.03436 30.815624Q280.03436 29.64375 279.59686 29.065624Q279.175 28.471874 278.1906 28.471874Q277.45624 28.471874 276.8156 28.8625Q276.1906 29.253124 275.90936 30.003124Q275.6281 30.753124 275.6281 32.175L275.6281 37.55L273.8625 37.55ZM290.22186 32.3625Q290.22186 29.4875 291.8156 28.096874Q293.15936 26.940624 295.08124 26.940624Q297.22186 26.940624 298.5656 28.346874Q299.925 29.753124 299.925 32.221874Q299.925 34.221874 299.33124 35.378124Q298.7375 36.51875 297.58124 37.159374Q296.4406 37.784374 295.08124 37.784374Q292.89374 37.784374 291.55 36.39375Q290.22186 34.9875 290.22186 32.3625ZM292.01874 32.3625Q292.01874 34.3625 292.8781 35.346874Q293.7531 36.33125 295.08124 36.33125Q296.39374 36.33125 297.2531 35.346874Q298.1281 34.346874 298.1281 32.3Q298.1281 30.378124 297.2531 29.39375Q296.3781 28.39375 295.08124 28.39375Q293.7531 28.39375 292.8781 29.39375Q292.01874 30.378124 292.01874 32.3625ZM301.8625 37.55L301.8625 27.175L303.45624 27.175L303.45624 28.659374Q304.59686 26.940624 306.7531 26.940624Q307.6906 26.940624 308.47186 27.284374Q309.26874 27.6125 309.65936 28.159374Q310.05 28.70625 310.20624 29.45625Q310.3 29.95625 310.3 31.175L310.3 37.55L308.53436 37.55L308.53436 31.2375Q308.53436 30.159374 308.33124 29.628124Q308.1281 29.096874 307.59686 28.784374Q307.08124 28.471874 306.3781 28.471874Q305.2531 28.471874 304.4406 29.190624Q303.6281 29.89375 303.6281 31.878124L303.6281 37.55L301.8625 37.55ZM316.70624 35.971874L316.95624 37.534374Q316.22186 37.690624 315.6281 37.690624Q314.675 37.690624 314.14374 37.39375Q313.6281 37.08125 313.40936 36.596874Q313.1906 36.096874 313.1906 34.51875L313.1906 28.55L311.90936 28.55L311.90936 27.175L313.1906 27.175L313.1906 24.6125L314.9406 23.55L314.9406 27.175L316.70624 27.175L316.70624 28.55L314.9406 28.55L314.9406 34.6125Q314.9406 35.3625 315.03436 35.58125Q315.1281 35.784374 315.33124 35.925Q315.55 36.05 315.9406 36.05Q316.22186 36.05 316.70624 35.971874ZM318.8625 37.55L318.8625 23.2375L320.6281 23.2375L320.6281 28.3625Q321.8625 26.940624 323.7375 26.940624Q324.8781 26.940624 325.72186 27.39375Q326.58124 27.846874 326.9406 28.659374Q327.3156 29.45625 327.3156 30.971874L327.3156 37.55L325.5656 37.55L325.5656 30.971874Q325.5656 29.659374 324.9875 29.065624Q324.40936 28.45625 323.3781 28.45625Q322.59686 28.45625 321.89374 28.8625Q321.20624 29.26875 320.90936 29.971874Q320.6281 30.659374 320.6281 31.878124L320.6281 37.55L318.8625 37.55Z" fill-rule="nonzero"/></svg>