<svg version="1.1" viewBox="0.0 0.0 600.0 371.0" fill="none" stroke="none" stroke-linecap="square" stroke-miterlimit="10" width="600" height="371" xmlns:xlink="http://www.w3.org/1999/xlink" xmlns="http://www.w3.org/2000/svg"><path fill="#ffffff" d="M0 0L600.0 0L600.0 371.0L0 371.0L0 0Z" fill-rule="nonzero"/><path stroke="#333333" stroke-width="1.0" stroke-linecap="butt" d="M48.5 332.5L581.5 332.5" fill-rule="nonzero"/><path stroke="#cccccc" stroke-width="1.0" stroke-linecap="butt" d="M48.5 264.5L581.5 264.5" fill-rule="nonzero"/><path stroke="#cccccc" stroke-width="1.0" stroke-linecap="butt" d="M48.5 197.5L581.5 197.5" fill-rule="nonzero"/><path stroke="#cccccc" stroke-width="1.0" stroke-linecap="butt" d="M48.5 129.5L581.5 129.5" fill-rule="nonzero"/><path stroke="#cccccc" stroke-width="1.0" stroke-linecap="butt" d="M48.5 61.5L581.5 61.5" fill-rule="nonzero"/><clipPath id="id_0"><path d="M48.55 61.916668L581.45 61.916668L581.45 332.45L48.55 332.45L48.55 61.916668Z" clip-rule="nonzero"/></clipPath><path fill="#4285f4" clip-path="url(#id_0)" d="M103.22612 331.45L208.62463 331.45L208.62463 333.45L103.22612 333.45L103.22612 331.45Z" fill-rule="nonzero"/><path stroke="#4285f4" stroke-width="2.0" stroke-linecap="butt" clip-path="url(#id_0)" d="M315.0 61.916668L315.0 332.45" fill-rule="nonzero"/><path fill="#4285f4" clip-path="url(#id_0)" d="M262.30075 331.45L367.69925 331.45L367.69925 333.45L262.30075 333.45L262.30075 331.45Z" fill-rule="nonzero"/><path fill="#4285f4" clip-path="url(#id_0)" d="M421.37537 331.45L526.77386 331.45L526.77386 333.45L421.37537 333.45L421.37537 331.45Z" fill-rule="nonzero"/><path fill="#000000" d="M19.05 332.21564Q19.05 330.6844 19.3625 329.7625Q19.675 328.825 20.284374 328.325Q20.909374 327.825 21.846874 327.825Q22.534374 327.825 23.05 328.10626Q23.58125 328.3875 23.925 328.91876Q24.26875 329.4344 24.45625 330.1844Q24.64375 330.9344 24.64375 332.21564Q24.64375 333.73126 24.33125 334.65314Q24.034374 335.575 23.409374 336.09064Q22.8 336.59064 21.846874 336.59064Q20.6125 336.59064 19.89375 335.7Q19.05 334.6375 19.05 332.21564ZM20.128124 332.21564Q20.128124 334.325 20.628124 335.02814Q21.128124 335.73126 21.846874 335.73126Q22.58125 335.73126 23.065624 335.02814Q23.565624 334.325 23.565624 332.21564Q23.565624 330.09064 23.065624 329.40314Q22.58125 328.7 21.83125 328.7Q21.1125 328.7 20.675 329.3094Q20.128124 330.09064 20.128124 332.21564ZM26.64375 336.45L26.64375 335.2469L27.846874 335.2469L27.846874 336.45L26.64375 336.45ZM29.05 332.21564Q29.05 330.6844 29.3625 329.7625Q29.675 328.825 30.284374 328.325Q30.909374 327.825 31.846874 327.825Q32.534374 327.825 33.05 328.10626Q33.58125 328.3875 33.925 328.91876Q34.26875 329.4344 34.45625 330.1844Q34.64375 330.9344 34.64375 332.21564Q34.64375 333.73126 34.33125 334.65314Q34.034374 335.575 33.409374 336.09064Q32.8 336.59064 31.846874 336.59064Q30.6125 336.59064 29.89375 335.7Q29.05 334.6375 29.05 332.21564ZM30.128124 332.21564Q30.128124 334.325 30.628124 335.02814Q31.128124 335.73126 31.846874 335.73126Q32.58125 335.73126 33.065624 335.02814Q33.565624 334.325 33.565624 332.21564Q33.565624 330.09064 33.065624 329.40314Q32.58125 328.7 31.83125 328.7Q31.1125 328.7 30.675 329.3094Q30.128124 330.09064 30.128124 332.21564ZM36.05 332.21564Q36.05 330.6844 36.3625 329.7625Q36.675 328.825 37.284374 328.325Q37.909374 327.825 38.846874 327.825Q39.534374 327.825 40.05 328.10626Q40.58125 328.3875 40.925 328.91876Q41.26875 329.4344 41.45625 330.1844Q41.64375 330.9344 41.64375 332.21564Q41.64375 333.73126 41.33125 334.65314Q41.034374 335.575 40.409374 336.09064Q39.8 336.59064 38.846874 336.59064Q37.6125 336.59064 36.89375 335.7Q36.05 334.6375 36.05 332.21564ZM37.128124 332.21564Q37.128124 334.325 37.628124 335.02814Q38.128124 335.73126 38.846874 335.73126Q39.58125 335.73126 40.065624 335.02814Q40.565624 334.325 40.565624 332.21564Q40.565624 330.09064 40.065624 329.40314Q39.58125 328.7 38.83125 328.7Q38.1125 328.7 37.675 329.3094Q37.128124 330.09064 37.128124 332.21564Z" fill-rule="nonzero"/><path fill="#000000" d="M19.05 264.5823Q19.05 263.05106 19.3625 262.12918Q19.675 261.19168 20.284374 260.69168Q20.909374 260.19168 21.846874 260.19168Q22.534374 260.19168 23.05 260.47293Q23.58125 260.75418 23.925 261.28543Q24.26875 261.80106 24.45625 262.55106Q24.64375 263.30106 24.64375 264.5823Q24.64375 266.09793 24.33125 267.0198Q24.034374 267.94168 23.409374 268.4573Q22.8 268.9573 21.846874 268.9573Q20.6125 268.9573 19.89375 268.06668Q19.05 267.00418 19.05 264.5823ZM20.128124 264.5823Q20.128124 266.69168 20.628124 267.3948Q21.128124 268.09793 21.846874 268.09793Q22.58125 268.09793 23.065624 267.3948Q23.565624 266.69168 23.565624 264.5823Q23.565624 262.4573 23.065624 261.7698Q22.58125 261.06668 21.83125 261.06668Q21.1125 261.06668 20.675 261.67606Q20.128124 262.4573 20.128124 264.5823ZM26.64375 268.81668L26.64375 267.61356L27.846874 267.61356L27.846874 268.81668L26.64375 268.81668ZM34.596874 267.80106L34.596874 268.81668L28.909374 268.81668Q28.909374 268.44168 29.034374 268.0823Q29.253124 267.50418 29.721874 266.94168Q30.20625 266.37918 31.1125 265.6448Q32.51875 264.48856 33.003124 263.81668Q33.503124 263.1448 33.503124 262.55106Q33.503124 261.92606 33.05 261.50418Q32.596874 261.06668 31.878124 261.06668Q31.1125 261.06668 30.659374 261.5198Q30.20625 261.97293 30.190624 262.78543L29.1125 262.67606Q29.221874 261.4573 29.940624 260.8323Q30.675 260.19168 31.909374 260.19168Q33.14375 260.19168 33.8625 260.87918Q34.58125 261.56668 34.58125 262.5823Q34.58125 263.09793 34.3625 263.59793Q34.159374 264.0823 33.659374 264.6448Q33.175 265.19168 32.05 266.1448Q31.096874 266.94168 30.815624 267.23856Q30.55 267.5198 30.378124 267.80106L34.596874 267.80106ZM36.05 266.56668L37.159374 266.47293Q37.284374 267.28543 37.721874 267.69168Q38.175 268.09793 38.815624 268.09793Q39.565624 268.09793 40.096874 267.5198Q40.628124 266.94168 40.628124 266.00418Q40.628124 265.09793 40.1125 264.5823Q39.6125 264.05106 38.784374 264.05106Q38.284374 264.05106 37.8625 264.28543Q37.45625 264.5198 37.221874 264.87918L36.2375 264.75418L37.065624 260.34793L41.346874 260.34793L41.346874 261.34793L37.909374 261.34793L37.45625 263.66043Q38.221874 263.11356 39.065624 263.11356Q40.190624 263.11356 40.95625 263.8948Q41.7375 264.67606 41.7375 265.91043Q41.7375 267.06668 41.065624 267.92606Q40.2375 268.9573 38.815624 268.9573Q37.64375 268.9573 36.89375 268.30106Q36.159374 267.6448 36.05 266.56668Z" fill-rule="nonzero"/><path fill="#000000" d="M19.05 196.94896Q19.05 195.41771 19.3625 194.49583Q19.675 193.55833 20.284374 193.05833Q20.909374 192.55833 21.846874 192.55833Q22.534374 192.55833 23.05 192.83958Q23.58125 193.12083 23.925 193.65208Q24.26875 194.16771 24.45625 194.91771Q24.64375 195.66771 24.64375 196.94896Q24.64375 198.46458 24.33125 199.38646Q24.034374 200.30833 23.409374 200.82396Q22.8 201.32396 21.846874 201.32396Q20.6125 201.32396 19.89375 200.43333Q19.05 199.37083 19.05 196.94896ZM20.128124 196.94896Q20.128124 199.05833 20.628124 199.76146Q21.128124 200.46458 21.846874 200.46458Q22.58125 200.46458 23.065624 199.76146Q23.565624 199.05833 23.565624 196.94896Q23.565624 194.82396 23.065624 194.13646Q22.58125 193.43333 21.83125 193.43333Q21.1125 193.43333 20.675 194.04271Q20.128124 194.82396 20.128124 196.94896ZM26.64375 201.18333L26.64375 199.98021L27.846874 199.98021L27.846874 201.18333L26.64375 201.18333ZM29.05 198.93333L30.159374 198.83958Q30.284374 199.65208 30.721874 200.05833Q31.175 200.46458 31.815624 200.46458Q32.565624 200.46458 33.096874 199.88646Q33.628124 199.30833 33.628124 198.37083Q33.628124 197.46458 33.1125 196.94896Q32.6125 196.41771 31.784374 196.41771Q31.284374 196.41771 30.8625 196.65208Q30.45625 196.88646 30.221874 197.24583L29.2375 197.12083L30.065624 192.71458L34.346874 192.71458L34.346874 193.71458L30.909374 193.71458L30.45625 196.02708Q31.221874 195.48021 32.065624 195.48021Q33.190624 195.48021 33.95625 196.26146Q34.7375 197.04271 34.7375 198.27708Q34.7375 199.43333 34.065624 200.29271Q33.2375 201.32396 31.815624 201.32396Q30.64375 201.32396 29.89375 200.66771Q29.159374 200.01146 29.05 198.93333ZM36.05 196.94896Q36.05 195.41771 36.3625 194.49583Q36.675 193.55833 37.284374 193.05833Q37.909374 192.55833 38.846874 192.55833Q39.534374 192.55833 40.05 192.83958Q40.58125 193.12083 40.925 193.65208Q41.26875 194.16771 41.45625 194.91771Q41.64375 195.66771 41.64375 196.94896Q41.64375 198.46458 41.33125 199.38646Q41.034374 200.30833 40.409374 200.82396Q39.8 201.32396 38.846874 201.32396Q37.6125 201.32396 36.89375 200.43333Q36.05 199.37083 36.05 196.94896ZM37.128124 196.94896Q37.128124 199.05833 37.628124 199.76146Q38.128124 200.46458 38.846874 200.46458Q39.58125 200.46458 40.065624 199.76146Q40.565624 199.05833 40.565624 196.94896Q40.565624 194.82396 40.065624 194.13646Q39.58125 193.43333 38.83125 193.43333Q38.1125 193.43333 37.675 194.04271Q37.128124 194.82396 37.128124 196.94896Z" fill-rule="nonzero"/><path fill="#000000" d="M19.05 129.31563Q19.05 127.78438 19.3625 126.8625Q19.675 125.925 20.284374 125.425Q20.909374 124.925 21.846874 124.925Q22.534374 124.925 23.05 125.20625Q23.58125 125.4875 23.925 126.01875Q24.26875 126.53438 24.45625 127.28438Q24.64375 128.03438 24.64375 129.31563Q24.64375 130.83125 24.33125 131.75313Q24.034374 132.675 23.409374 133.19063Q22.8 133.69063 21.846874 133.69063Q20.6125 133.69063 19.89375 132.8Q19.05 131.7375 19.05 129.31563ZM20.128124 129.31563Q20.128124 131.425 20.628124 132.12813Q21.128124 132.83125 21.846874 132.83125Q22.58125 132.83125 23.065624 132.12813Q23.565624 131.425 23.565624 129.31563Q23.565624 127.19063 23.065624 126.50313Q22.58125 125.8 21.83125 125.8Q21.1125 125.8 20.675 126.40938Q20.128124 127.19063 20.128124 129.31563ZM26.64375 133.55L26.64375 132.34688L27.846874 132.34688L27.846874 133.55L26.64375 133.55ZM29.1125 126.08125L29.1125 125.06563L34.675 125.06563L34.675 125.89375Q33.8625 126.76875 33.05 128.22188Q32.253124 129.65938 31.815624 131.19063Q31.4875 132.26875 31.409374 133.55L30.315624 133.55Q30.33125 132.53438 30.70625 131.09688Q31.096874 129.65938 31.8 128.33125Q32.51875 127.00313 33.33125 126.08125L29.1125 126.08125ZM36.05 131.3L37.159374 131.20625Q37.284374 132.01875 37.721874 132.425Q38.175 132.83125 38.815624 132.83125Q39.565624 132.83125 40.096874 132.25313Q40.628124 131.675 40.628124 130.7375Q40.628124 129.83125 40.1125 129.31563Q39.6125 128.78438 38.784374 128.78438Q38.284374 128.78438 37.8625 129.01875Q37.45625 129.25313 37.221874 129.6125L36.2375 129.4875L37.065624 125.08125L41.346874 125.08125L41.346874 126.08125L37.909374 126.08125L37.45625 128.39375Q38.221874 127.84688 39.065624 127.84688Q40.190624 127.84688 40.95625 128.62813Q41.7375 129.40938 41.7375 130.64375Q41.7375 131.8 41.065624 132.65938Q40.2375 133.69063 38.815624 133.69063Q37.64375 133.69063 36.89375 133.03438Q36.159374 132.37813 36.05 131.3Z" fill-rule="nonzero"/><path fill="#000000" d="M23.01875 65.916664L21.971874 65.916664L21.971874 59.197914Q21.58125 59.55729 20.95625 59.93229Q20.346874 60.291664 19.8625 60.46354L19.8625 59.447914Q20.7375 59.02604 21.39375 58.447914Q22.065624 57.854164 22.346874 57.291664L23.01875 57.291664L23.01875 65.916664ZM26.64375 65.916664L26.64375 64.71354L27.846874 64.71354L27.846874 65.916664L26.64375 65.916664ZM29.05 61.68229Q29.05 60.15104 29.3625 59.229164Q29.675 58.291664 30.284374 57.791664Q30.909374 57.291664 31.846874 57.291664Q32.534374 57.291664 33.05 57.572914Q33.58125 57.854164 33.925 58.385414Q34.26875 58.90104 34.45625 59.65104Q34.64375 60.40104 34.64375 61.68229Q34.64375 63.197914 34.33125 64.11979Q34.034374 65.041664 33.409374 65.55729Q32.8 66.05729 31.846874 66.05729Q30.6125 66.05729 29.89375 65.166664Q29.05 64.104164 29.05 61.68229ZM30.128124 61.68229Q30.128124 63.791664 30.628124 64.49479Q31.128124 65.197914 31.846874 65.197914Q32.58125 65.197914 33.065624 64.49479Q33.565624 63.791664 33.565624 61.68229Q33.565624 59.55729 33.065624 58.86979Q32.58125 58.166664 31.83125 58.166664Q31.1125 58.166664 30.675 58.77604Q30.128124 59.55729 30.128124 61.68229ZM36.05 61.68229Q36.05 60.15104 36.3625 59.229164Q36.675 58.291664 37.284374 57.791664Q37.909374 57.291664 38.846874 57.291664Q39.534374 57.291664 40.05 57.572914Q40.58125 57.854164 40.925 58.385414Q41.26875 58.90104 41.45625 59.65104Q41.64375 60.40104 41.64375 61.68229Q41.64375 63.197914 41.33125 64.11979Q41.034374 65.041664 40.409374 65.55729Q39.8 66.05729 38.846874 66.05729Q37.6125 66.05729 36.89375 65.166664Q36.05 64.104164 36.05 61.68229ZM37.128124 61.68229Q37.128124 63.791664 37.628124 64.49479Q38.128124 65.197914 38.846874 65.197914Q39.58125 65.197914 40.065624 64.49479Q40.565624 63.791664 40.565624 61.68229Q40.565624 59.55729 40.065624 58.86979Q39.58125 58.166664 38.83125 58.166664Q38.1125 58.166664 37.675 58.77604Q37.128124 59.55729 37.128124 61.68229Z" fill-rule="nonzero"/><path fill="#000000" d="M131.84724 349.45L131.84724 340.85626L134.816 340.85626Q135.816 340.85626 136.34724 340.98126Q137.08162 341.15314 137.59724 341.59064Q138.28474 342.16876 138.61287 343.075Q138.95662 343.96564 138.95662 345.10626Q138.95662 346.09064 138.72224 346.84064Q138.5035 347.59064 138.14412 348.09064Q137.78474 348.59064 137.34724 348.8719Q136.92537 349.15314 136.33162 349.3094Q135.73787 349.45 134.95662 349.45L131.84724 349.45ZM132.98787 348.4344L134.816 348.4344Q135.67537 348.4344 136.15974 348.27814Q136.64412 348.1219 136.92537 347.825Q137.33162 347.4344 137.55037 346.7469Q137.78474 346.0594 137.78474 345.09064Q137.78474 343.7469 137.33162 343.02814Q136.89412 342.29376 136.26912 342.04376Q135.80037 341.8719 134.80037 341.8719L132.98787 341.8719L132.98787 348.4344ZM144.97224 347.45L146.066 347.575Q145.816 348.52814 145.11287 349.0594Q144.40974 349.59064 143.33162 349.59064Q141.97224 349.59064 141.15974 348.7469Q140.36287 347.90314 140.36287 346.3875Q140.36287 344.825 141.17537 343.96564Q141.98787 343.09064 143.26912 343.09064Q144.51912 343.09064 145.30037 343.9344Q146.09724 344.77814 146.09724 346.325Q146.09724 346.41876 146.09724 346.60626L141.45662 346.60626Q141.51912 347.6375 142.03474 348.1844Q142.55037 348.71564 143.33162 348.71564Q143.90974 348.71564 144.316 348.41876Q144.73787 348.10626 144.97224 347.45ZM141.51912 345.7469L144.98787 345.7469Q144.92537 344.95 144.59724 344.5594Q144.08162 343.95 143.28474 343.95Q142.55037 343.95 142.05037 344.4344Q141.566 344.91876 141.51912 345.7469ZM147.72224 349.45L147.72224 343.23126L148.65974 343.23126L148.65974 344.10626Q149.34724 343.09064 150.64412 343.09064Q151.20662 343.09064 151.67537 343.29376Q152.15974 343.4969 152.39412 343.825Q152.6285 344.15314 152.72224 344.59064Q152.76912 344.8875 152.76912 345.6219L152.76912 349.45L151.72224 349.45L151.72224 345.66876Q151.72224 345.0125 151.59724 344.7Q151.47224 344.3875 151.15974 344.2Q150.84724 343.9969 150.42537 343.9969Q149.7535 343.9969 149.2535 344.4344Q148.76912 344.85626 148.76912 346.04376L148.76912 349.45L147.72224 349.45ZM154.72224 349.45L154.72224 343.23126L155.65974 343.23126L155.65974 344.10626Q155.95662 343.6375 156.441 343.3719Q156.92537 343.09064 157.55037 343.09064Q158.23787 343.09064 158.67537 343.3719Q159.1285 343.65314 159.30037 344.16876Q160.05037 343.09064 161.22224 343.09064Q162.15974 343.09064 162.64412 343.60626Q163.14412 344.10626 163.14412 345.1844L163.14412 349.45L162.09724 349.45L162.09724 345.52814Q162.09724 344.90314 161.98787 344.6219Q161.89412 344.34064 161.6285 344.16876Q161.36287 343.9969 160.98787 343.9969Q160.33162 343.9969 159.89412 344.4344Q159.47224 344.8719 159.47224 345.84064L159.47224 349.45L158.40974 349.45L158.40974 345.40314Q158.40974 344.7 158.14412 344.35626Q157.89412 343.9969 157.316 343.9969Q156.86287 343.9969 156.48787 344.23126Q156.11287 344.46564 155.941 344.91876Q155.76912 345.3719 155.76912 346.21564L155.76912 349.45L154.72224 349.45ZM168.78474 348.6844Q168.191 349.1844 167.64412 349.3875Q167.11287 349.59064 166.48787 349.59064Q165.45662 349.59064 164.90974 349.09064Q164.36287 348.59064 164.36287 347.8094Q164.36287 347.35626 164.566 346.98126Q164.76912 346.59064 165.11287 346.3719Q165.45662 346.1375 165.8785 346.02814Q166.17537 345.9344 166.816 345.85626Q168.08162 345.71564 168.691 345.4969Q168.691 345.27814 168.691 345.23126Q168.691 344.575 168.39412 344.3094Q167.98787 343.96564 167.191 343.96564Q166.45662 343.96564 166.09724 344.23126Q165.73787 344.48126 165.566 345.1375L164.53474 344.9969Q164.67537 344.34064 165.0035 343.9344Q165.33162 343.52814 165.941 343.3094Q166.55037 343.09064 167.34724 343.09064Q168.14412 343.09064 168.64412 343.27814Q169.14412 343.46564 169.3785 343.7469Q169.61287 344.02814 169.70662 344.46564Q169.7535 344.73126 169.7535 345.4344L169.7535 346.84064Q169.7535 348.3094 169.816 348.7Q169.89412 349.09064 170.09724 349.45L168.98787 349.45Q168.83162 349.1219 168.78474 348.6844ZM168.691 346.325Q168.11287 346.5594 166.97224 346.73126Q166.316 346.825 166.05037 346.95Q165.78474 347.0594 165.6285 347.27814Q165.48787 347.4969 165.48787 347.77814Q165.48787 348.2 165.80037 348.48126Q166.1285 348.7625 166.73787 348.7625Q167.34724 348.7625 167.816 348.4969Q168.30037 348.23126 168.51912 347.7625Q168.691 347.40314 168.691 346.71564L168.691 346.325ZM171.70662 349.45L171.70662 343.23126L172.65974 343.23126L172.65974 344.16876Q173.01912 343.5125 173.316 343.3094Q173.6285 343.09064 174.0035 343.09064Q174.53474 343.09064 175.08162 343.41876L174.72224 344.40314Q174.33162 344.16876 173.95662 344.16876Q173.59724 344.16876 173.316 344.3875Q173.05037 344.59064 172.941 344.96564Q172.7535 345.52814 172.7535 346.1844L172.7535 349.45L171.70662 349.45ZM175.72224 349.45L175.72224 340.85626L176.78474 340.85626L176.78474 345.7625L179.26912 343.23126L180.64412 343.23126L178.2535 345.52814L180.8785 349.45L179.58162 349.45L177.51912 346.2625L176.78474 346.98126L176.78474 349.45L175.72224 349.45Z" fill-rule="nonzero"/><path fill="#000000" d="M295.48438 349.45L295.48438 340.85626L301.28125 340.85626L301.28125 341.8719L296.625 341.8719L296.625 344.52814L300.65625 344.52814L300.65625 345.54376L296.625 345.54376L296.625 349.45L295.48438 349.45ZM302.29688 342.075L302.29688 340.85626L303.35938 340.85626L303.35938 342.075L302.29688 342.075ZM302.29688 349.45L302.29688 343.23126L303.35938 343.23126L303.35938 349.45L302.29688 349.45ZM305.29688 349.45L305.29688 343.23126L306.23438 343.23126L306.23438 344.10626Q306.92188 343.09064 308.21875 343.09064Q308.78125 343.09064 309.25 343.29376Q309.73438 343.4969 309.96875 343.825Q310.20312 344.15314 310.29688 344.59064Q310.34375 344.8875 310.34375 345.6219L310.34375 349.45L309.29688 349.45L309.29688 345.66876Q309.29688 345.0125 309.17188 344.7Q309.04688 344.3875 308.73438 344.2Q308.42188 343.9969 308.0 343.9969Q307.32812 343.9969 306.82812 344.4344Q306.34375 344.85626 306.34375 346.04376L306.34375 349.45L305.29688 349.45ZM312.26562 349.45L312.26562 340.85626L313.32812 340.85626L313.32812 349.45L312.26562 349.45ZM319.35938 348.6844Q318.76562 349.1844 318.21875 349.3875Q317.6875 349.59064 317.0625 349.59064Q316.03125 349.59064 315.48438 349.09064Q314.9375 348.59064 314.9375 347.8094Q314.9375 347.35626 315.14062 346.98126Q315.34375 346.59064 315.6875 346.3719Q316.03125 346.1375 316.45312 346.02814Q316.75 345.9344 317.39062 345.85626Q318.65625 345.71564 319.26562 345.4969Q319.26562 345.27814 319.26562 345.23126Q319.26562 344.575 318.96875 344.3094Q318.5625 343.96564 317.76562 343.96564Q317.03125 343.96564 316.67188 344.23126Q316.3125 344.48126 316.14062 345.1375L315.10938 344.9969Q315.25 344.34064 315.57812 343.9344Q315.90625 343.52814 316.51562 343.3094Q317.125 343.09064 317.92188 343.09064Q318.71875 343.09064 319.21875 343.27814Q319.71875 343.46564 319.95312 343.7469Q320.1875 344.02814 320.28125 344.46564Q320.32812 344.73126 320.32812 345.4344L320.32812 346.84064Q320.32812 348.3094 320.39062 348.7Q320.46875 349.09064 320.67188 349.45L319.5625 349.45Q319.40625 349.1219 319.35938 348.6844ZM319.26562 346.325Q318.6875 346.5594 317.54688 346.73126Q316.89062 346.825 316.625 346.95Q316.35938 347.0594 316.20312 347.27814Q316.0625 347.4969 316.0625 347.77814Q316.0625 348.2 316.375 348.48126Q316.70312 348.7625 317.3125 348.7625Q317.92188 348.7625 318.39062 348.4969Q318.875 348.23126 319.09375 347.7625Q319.26562 347.40314 319.26562 346.71564L319.26562 346.325ZM322.29688 349.45L322.29688 343.23126L323.23438 343.23126L323.23438 344.10626Q323.92188 343.09064 325.21875 343.09064Q325.78125 343.09064 326.25 343.29376Q326.73438 343.4969 326.96875 343.825Q327.20312 344.15314 327.29688 344.59064Q327.34375 344.8875 327.34375 345.6219L327.34375 349.45L326.29688 349.45L326.29688 345.66876Q326.29688 345.0125 326.17188 344.7Q326.04688 344.3875 325.73438 344.2Q325.42188 343.9969 325.0 343.9969Q324.32812 343.9969 323.82812 344.4344Q323.34375 344.85626 323.34375 346.04376L323.34375 349.45L322.29688 349.45ZM333.32812 349.45L333.32812 348.66876Q332.73438 349.59064 331.59375 349.59064Q330.84375 349.59064 330.21875 349.1844Q329.59375 348.7625 329.25 348.02814Q328.90625 347.29376 328.90625 346.34064Q328.90625 345.41876 329.21875 344.65314Q329.53125 343.8875 330.15625 343.4969Q330.78125 343.09064 331.54688 343.09064Q332.10938 343.09064 332.54688 343.325Q332.98438 343.5594 333.26562 343.9344L333.26562 340.85626L334.3125 340.85626L334.3125 349.45L333.32812 349.45ZM330.0 346.34064Q330.0 347.54376 330.5 348.1375Q331.0 348.71564 331.6875 348.71564Q332.375 348.71564 332.85938 348.15314Q333.34375 347.59064 333.34375 346.4344Q333.34375 345.15314 332.84375 344.5594Q332.35938 343.96564 331.64062 343.96564Q330.9375 343.96564 330.46875 344.54376Q330.0 345.10626 330.0 346.34064Z" fill-rule="nonzero"/><path fill="#000000" d="M453.9965 349.45L453.9965 340.85626L455.15274 340.85626L459.66837 347.60626L459.66837 340.85626L460.76212 340.85626L460.76212 349.45L459.59024 349.45L455.07462 342.7L455.07462 349.45L453.9965 349.45ZM462.48087 346.34064Q462.48087 344.60626 463.434 343.77814Q464.23087 343.09064 465.38712 343.09064Q466.66837 343.09064 467.48087 343.9344Q468.309 344.7625 468.309 346.2469Q468.309 347.45 467.94962 348.1375Q467.59024 348.825 466.88712 349.21564Q466.19962 349.59064 465.38712 349.59064Q464.09024 349.59064 463.27774 348.7625Q462.48087 347.91876 462.48087 346.34064ZM463.559 346.34064Q463.559 347.52814 464.07462 348.1219Q464.60587 348.71564 465.38712 348.71564Q466.184 348.71564 466.69962 348.1219Q467.21524 347.52814 467.21524 346.3094Q467.21524 345.15314 466.684 344.5594Q466.16837 343.96564 465.38712 343.96564Q464.60587 343.96564 464.07462 344.5594Q463.559 345.1375 463.559 346.34064ZM469.85587 349.45L469.85587 343.23126L470.809 343.23126L470.809 344.16876Q471.16837 343.5125 471.46524 343.3094Q471.77774 343.09064 472.15274 343.09064Q472.684 343.09064 473.23087 343.41876L472.8715 344.40314Q472.48087 344.16876 472.10587 344.16876Q471.7465 344.16876 471.46524 344.3875Q471.19962 344.59064 471.09024 344.96564Q470.90274 345.52814 470.90274 346.1844L470.90274 349.45L469.85587 349.45ZM475.01212 349.45L473.10587 343.23126L474.19962 343.23126L475.184 346.825L475.559 348.15314Q475.59024 348.0594 475.88712 346.8719L476.8715 343.23126L477.94962 343.23126L478.88712 346.84064L479.19962 348.02814L479.559 346.825L480.6215 343.23126L481.65274 343.23126L479.69962 349.45L478.60587 349.45L477.6215 345.71564L477.3715 344.66876L476.1215 349.45L475.01212 349.45ZM486.934 348.6844Q486.34024 349.1844 485.79337 349.3875Q485.26212 349.59064 484.63712 349.59064Q483.60587 349.59064 483.059 349.09064Q482.51212 348.59064 482.51212 347.8094Q482.51212 347.35626 482.71524 346.98126Q482.91837 346.59064 483.26212 346.3719Q483.60587 346.1375 484.02774 346.02814Q484.32462 345.9344 484.96524 345.85626Q486.23087 345.71564 486.84024 345.4969Q486.84024 345.27814 486.84024 345.23126Q486.84024 344.575 486.54337 344.3094Q486.13712 343.96564 485.34024 343.96564Q484.60587 343.96564 484.2465 344.23126Q483.88712 344.48126 483.71524 345.1375L482.684 344.9969Q482.82462 344.34064 483.15274 343.9344Q483.48087 343.52814 484.09024 343.3094Q484.69962 343.09064 485.4965 343.09064Q486.29337 343.09064 486.79337 343.27814Q487.29337 343.46564 487.52774 343.7469Q487.76212 344.02814 487.85587 344.46564Q487.90274 344.73126 487.90274 345.4344L487.90274 346.84064Q487.90274 348.3094 487.96524 348.7Q488.04337 349.09064 488.2465 349.45L487.13712 349.45Q486.98087 349.1219 486.934 348.6844ZM486.84024 346.325Q486.26212 346.5594 485.1215 346.73126Q484.46524 346.825 484.19962 346.95Q483.934 347.0594 483.77774 347.27814Q483.63712 347.4969 483.63712 347.77814Q483.63712 348.2 483.94962 348.48126Q484.27774 348.7625 484.88712 348.7625Q485.4965 348.7625 485.96524 348.4969Q486.44962 348.23126 486.66837 347.7625Q486.84024 347.40314 486.84024 346.71564L486.84024 346.325ZM489.82462 351.84064L489.69962 350.85626Q490.04337 350.95 490.309 350.95Q490.65274 350.95 490.85587 350.825Q491.07462 350.71564 491.21524 350.5125Q491.309 350.34064 491.54337 349.71564Q491.559 349.6375 491.63712 349.46564L489.26212 343.23126L490.40274 343.23126L491.69962 346.825Q491.94962 347.5125 492.15274 348.27814Q492.34024 347.54376 492.59024 346.85626L493.91837 343.23126L494.96524 343.23126L492.60587 349.5594Q492.21524 350.575 492.01212 350.96564Q491.73087 351.4969 491.35587 351.73126Q490.9965 351.98126 490.4965 351.98126Q490.19962 351.98126 489.82462 351.84064Z" fill-rule="nonzero"/><path fill="#757575" d="M19.128124 33.4875L20.83125 33.253124Q20.909374 34.89375 21.45625 35.503124Q22.003124 36.096874 22.971874 36.096874Q23.675 36.096874 24.190624 35.784374Q24.70625 35.45625 24.89375 34.89375Q25.096874 34.33125 25.096874 33.096874L25.096874 23.2375L27.003124 23.2375L27.003124 32.9875Q27.003124 34.784374 26.565624 35.76875Q26.128124 36.753124 25.175 37.284374Q24.2375 37.8 22.971874 37.8Q21.096874 37.8 20.08125 36.721874Q19.08125 35.628124 19.128124 33.4875ZM36.64375 36.26875Q35.659374 37.096874 34.753124 37.440624Q33.846874 37.784374 32.815624 37.784374Q31.1125 37.784374 30.190624 36.95625Q29.26875 36.1125 29.26875 34.815624Q29.26875 34.05 29.6125 33.425Q29.971874 32.8 30.534374 32.425Q31.096874 32.034374 31.8 31.83125Q32.315624 31.70625 33.3625 31.565624Q35.4875 31.315624 36.4875 30.971874Q36.503124 30.6125 36.503124 30.503124Q36.503124 29.440624 36.003124 28.9875Q35.33125 28.39375 34.003124 28.39375Q32.753124 28.39375 32.159374 28.83125Q31.58125 29.26875 31.3 30.378124L29.58125 30.14375Q29.815624 29.034374 30.346874 28.3625Q30.878124 27.675 31.89375 27.315624Q32.909374 26.940624 34.253124 26.940624Q35.58125 26.940624 36.409374 27.253124Q37.2375 27.565624 37.628124 28.05Q38.01875 28.51875 38.175 29.2375Q38.26875 29.690624 38.26875 30.8625L38.26875 33.20625Q38.26875 35.659374 38.378124 36.315624Q38.4875 36.95625 38.83125 37.55L36.9875 37.55Q36.721874 37.003124 36.64375 36.26875ZM36.4875 32.346874Q35.534374 32.7375 33.6125 33.003124Q32.534374 33.159374 32.08125 33.3625Q31.64375 33.55 31.39375 33.925Q31.14375 34.3 31.14375 34.76875Q31.14375 35.471874 31.675 35.940624Q32.20625 36.409374 33.2375 36.409374Q34.253124 36.409374 35.034374 35.971874Q35.83125 35.51875 36.20625 34.753124Q36.4875 34.14375 36.4875 32.9875L36.4875 32.346874ZM40.8625 37.55L40.8625 27.175L42.45625 27.175L42.45625 28.659374Q43.596874 26.940624 45.753124 26.940624Q46.690624 26.940624 47.471874 27.284374Q48.26875 27.6125 48.659374 28.159374Q49.05 28.70625 49.20625 29.45625Q49.3 29.95625 49.3 31.175L49.3 37.55L47.534374 37.55L47.534374 31.2375Q47.534374 30.159374 47.33125 29.628124Q47.128124 29.096874 46.596874 28.784374Q46.08125 28.471874 45.378124 28.471874Q44.253124 28.471874 43.440624 29.190624Q42.628124 29.89375 42.628124 31.878124L42.628124 37.55L40.8625 37.55ZM58.659374 37.55L58.659374 36.01875Q57.45625 37.784374 55.378124 37.784374Q54.45625 37.784374 53.659374 37.440624Q52.8625 37.08125 52.471874 36.55Q52.096874 36.01875 51.940624 35.2375Q51.83125 34.721874 51.83125 33.596874L51.83125 27.175L53.58125 27.175L53.58125 32.925Q53.58125 34.3 53.690624 34.784374Q53.8625 35.471874 54.39375 35.878124Q54.940624 36.26875 55.721874 36.26875Q56.51875 36.26875 57.20625 35.8625Q57.909374 35.45625 58.190624 34.76875Q58.4875 34.065624 58.4875 32.7375L58.4875 27.175L60.2375 27.175L60.2375 37.55L58.659374 37.55ZM69.64375 36.26875Q68.65938 37.096874 67.75313 37.440624Q66.84688 37.784374 65.81563 37.784374Q64.1125 37.784374 63.190624 36.95625Q62.26875 36.1125 62.26875 34.815624Q62.26875 34.05 62.6125 33.425Q62.971874 32.8 63.534374 32.425Q64.09688 32.034374 64.8 31.83125Q65.31563 31.70625 66.3625 31.565624Q68.4875 31.315624 69.4875 30.971874Q69.50313 30.6125 69.50313 30.503124Q69.50313 29.440624 69.00313 28.9875Q68.33125 28.39375 67.00313 28.39375Q65.75313 28.39375 65.15938 28.83125Q64.58125 29.26875 64.3 30.378124L62.58125 30.14375Q62.815624 29.034374 63.346874 28.3625Q63.878124 27.675 64.89375 27.315624Q65.90938 26.940624 67.25313 26.940624Q68.58125 26.940624 69.40938 27.253124Q70.2375 27.565624 70.62813 28.05Q71.01875 28.51875 71.175 29.2375Q71.26875 29.690624 71.26875 30.8625L71.26875 33.20625Q71.26875 35.659374 71.37813 36.315624Q71.4875 36.95625 71.83125 37.55L69.9875 37.55Q69.72188 37.003124 69.64375 36.26875ZM69.4875 32.346874Q68.53438 32.7375 66.6125 33.003124Q65.53438 33.159374 65.08125 33.3625Q64.64375 33.55 64.39375 33.925Q64.14375 34.3 64.14375 34.76875Q64.14375 35.471874 64.675 35.940624Q65.20625 36.409374 66.2375 36.409374Q67.25313 36.409374 68.03438 35.971874Q68.83125 35.51875 69.20625 34.753124Q69.4875 34.14375 69.4875 32.9875L69.4875 32.346874ZM73.84688 37.55L73.84688 27.175L75.425 27.175L75.425 28.753124Q76.03438 27.64375 76.55 27.3Q77.06563 26.940624 77.675 26.940624Q78.56563 26.940624 79.4875 27.503124L78.87813 29.14375Q78.2375 28.753124 77.59688 28.753124Q77.01875 28.753124 76.55 29.1125Q76.09688 29.45625 75.89375 30.065624Q75.6125 31.003124 75.6125 32.1125L75.6125 37.55L73.84688 37.55ZM80.78438 41.55L80.59688 39.89375Q81.175 40.05 81.59688 40.05Q82.19063 40.05 82.53438 39.846874Q82.89375 39.659374 83.1125 39.315624Q83.28438 39.05 83.65938 38.003124Q83.70625 37.846874 83.81563 37.565624L79.87813 27.175L81.76875 27.175L83.925 33.190624Q84.34688 34.33125 84.675 35.58125Q84.9875 34.378124 85.39375 33.221874L87.6125 27.175L89.37813 27.175L85.425 37.721874Q84.8 39.440624 84.44063 40.08125Q83.97188 40.95625 83.3625 41.346874Q82.76875 41.753124 81.925 41.753124Q81.40938 41.753124 80.78438 41.55ZM103.64375 33.753124L105.3625 33.971874Q105.08125 35.76875 103.90938 36.784374Q102.75313 37.784374 101.05 37.784374Q98.925 37.784374 97.62813 36.39375Q96.33125 35.003124 96.33125 32.409374Q96.33125 30.721874 96.87813 29.471874Q97.44063 28.20625 98.58125 27.58125Q99.72188 26.940624 101.06563 26.940624Q102.75313 26.940624 103.81563 27.8Q104.89375 28.659374 105.20625 30.221874L103.4875 30.4875Q103.25313 29.440624 102.62813 28.925Q102.00313 28.39375 101.12813 28.39375Q99.8 28.39375 98.97188 29.346874Q98.14375 30.3 98.14375 32.346874Q98.14375 34.440624 98.94063 35.39375Q99.7375 36.33125 101.03438 36.33125Q102.06563 36.33125 102.75313 35.70625Q103.45625 35.065624 103.64375 33.753124ZM113.64375 36.26875Q112.65938 37.096874 111.75313 37.440624Q110.84688 37.784374 109.81563 37.784374Q108.1125 37.784374 107.19063 36.95625Q106.26875 36.1125 106.26875 34.815624Q106.26875 34.05 106.6125 33.425Q106.97188 32.8 107.53438 32.425Q108.09688 32.034374 108.8 31.83125Q109.31563 31.70625 110.3625 31.565624Q112.4875 31.315624 113.4875 30.971874Q113.50313 30.6125 113.50313 30.503124Q113.50313 29.440624 113.00313 28.9875Q112.33125 28.39375 111.00313 28.39375Q109.75313 28.39375 109.15938 28.83125Q108.58125 29.26875 108.3 30.378124L106.58125 30.14375Q106.81563 29.034374 107.34688 28.3625Q107.87813 27.675 108.89375 27.315624Q109.90938 26.940624 111.25313 26.940624Q112.58125 26.940624 113.40938 27.253124Q114.2375 27.565624 114.62813 28.05Q115.01875 28.51875 115.175 29.2375Q115.26875 29.690624 115.26875 30.8625L115.26875 33.20625Q115.26875 35.659374 115.37813 36.315624Q115.4875 36.95625 115.83125 37.55L113.9875 37.55Q113.72188 37.003124 113.64375 36.26875ZM113.4875 32.346874Q112.53438 32.7375 110.6125 33.003124Q109.53438 33.159374 109.08125 33.3625Q108.64375 33.55 108.39375 33.925Q108.14375 34.3 108.14375 34.76875Q108.14375 35.471874 108.675 35.940624Q109.20625 36.409374 110.2375 36.409374Q111.25313 36.409374 112.03438 35.971874Q112.83125 35.51875 113.20625 34.753124Q113.4875 34.14375 113.4875 32.9875L113.4875 32.346874ZM117.15938 34.45625L118.90938 34.175Q119.05 35.221874 119.72188 35.784374Q120.39375 36.33125 121.59688 36.33125Q122.8 36.33125 123.37813 35.846874Q123.97188 35.346874 123.97188 34.690624Q123.97188 34.096874 123.45625 33.753124Q123.09688 33.51875 121.65938 33.159374Q119.72188 32.659374 118.97188 32.315624Q118.2375 31.95625 117.84688 31.33125Q117.45625 30.690624 117.45625 29.925Q117.45625 29.2375 117.76875 28.64375Q118.09688 28.05 118.64375 27.659374Q119.05 27.3625 119.75313 27.159374Q120.47188 26.940624 121.28438 26.940624Q122.50313 26.940624 123.425 27.3Q124.34688 27.64375 124.78438 28.253124Q125.22188 28.846874 125.39375 29.846874L123.675 30.08125Q123.55 29.284374 122.9875 28.846874Q122.425 28.39375 121.40938 28.39375Q120.19063 28.39375 119.675 28.8Q119.15938 29.190624 119.15938 29.721874Q119.15938 30.065624 119.37813 30.346874Q119.58125 30.628124 120.05 30.815624Q120.31563 30.909374 121.59688 31.253124Q123.47188 31.753124 124.20625 32.08125Q124.94063 32.39375 125.3625 33.003124Q125.78438 33.596874 125.78438 34.503124Q125.78438 35.378124 125.26875 36.159374Q124.75313 36.940624 123.78438 37.3625Q122.81563 37.784374 121.59688 37.784374Q119.58125 37.784374 118.51875 36.940624Q117.45625 36.096874 117.15938 34.45625ZM134.97188 34.20625L136.78438 34.440624Q136.3625 36.01875 135.19063 36.909374Q134.03438 37.784374 132.22188 37.784374Q129.95625 37.784374 128.6125 36.39375Q127.28438 34.9875 127.28438 32.45625Q127.28438 29.83125 128.62813 28.39375Q129.97188 26.940624 132.12813 26.940624Q134.20625 26.940624 135.51875 28.3625Q136.84688 29.76875 136.84688 32.346874Q136.84688 32.503124 136.83125 32.815624L129.09688 32.815624Q129.19063 34.51875 130.06563 35.425Q130.94063 36.33125 132.2375 36.33125Q133.20625 36.33125 133.87813 35.83125Q134.56563 35.315624 134.97188 34.20625ZM129.19063 31.3625L134.9875 31.3625Q134.87813 30.065624 134.33125 29.409374Q133.4875 28.39375 132.14375 28.39375Q130.94063 28.39375 130.1125 29.20625Q129.28438 30.003124 129.19063 31.3625ZM138.15938 34.45625L139.90938 34.175Q140.05 35.221874 140.72188 35.784374Q141.39375 36.33125 142.59688 36.33125Q143.8 36.33125 144.37813 35.846874Q144.97188 35.346874 144.97188 34.690624Q144.97188 34.096874 144.45625 33.753124Q144.09688 33.51875 142.65938 33.159374Q140.72188 32.659374 139.97188 32.315624Q139.2375 31.95625 138.84688 31.33125Q138.45625 30.690624 138.45625 29.925Q138.45625 29.2375 138.76875 28.64375Q139.09688 28.05 139.64375 27.659374Q140.05 27.3625 140.75313 27.159374Q141.47188 26.940624 142.28438 26.940624Q143.50313 26.940624 144.425 27.3Q145.34688 27.64375 145.78438 28.253124Q146.22188 28.846874 146.39375 29.846874L144.675 30.08125Q144.55 29.284374 143.9875 28.846874Q143.425 28.39375 142.40938 28.39375Q141.19063 28.39375 140.675 28.8Q140.15938 29.190624 140.15938 29.721874Q140.15938 30.065624 140.37813 30.346874Q140.58125 30.628124 141.05 30.815624Q141.31563 30.909374 142.59688 31.253124Q144.47188 31.753124 145.20625 32.08125Q145.94063 32.39375 146.3625 33.003124Q146.78438 33.596874 146.78438 34.503124Q146.78438 35.378124 146.26875 36.159374Q145.75313 36.940624 144.78438 37.3625Q143.81563 37.784374 142.59688 37.784374Q140.58125 37.784374 139.51875 36.940624Q138.45625 36.096874 138.15938 34.45625ZM154.87813 25.253124L154.87813 23.2375L156.64375 23.2375L156.64375 25.253124L154.87813 25.253124ZM154.87813 37.55L154.87813 27.175L156.64375 27.175L156.64375 37.55L154.87813 37.55ZM158.8625 37.55L158.8625 27.175L160.45625 27.175L160.45625 28.659374Q161.59688 26.940624 163.75313 26.940624Q164.69063 26.940624 165.47188 27.284374Q166.26875 27.6125 166.65938 28.159374Q167.05 28.70625 167.20625 29.45625Q167.3 29.95625 167.3 31.175L167.3 37.55L165.53438 37.55L165.53438 31.2375Q165.53438 30.159374 165.33125 29.628124Q165.12813 29.096874 164.59688 28.784374Q164.08125 28.471874 163.37813 28.471874Q162.25313 28.471874 161.44063 29.190624Q160.62813 29.89375 160.62813 31.878124L160.62813 37.55L158.8625 37.55ZM182.64375 36.26875Q181.65938 37.096874 180.75313 37.440624Q179.84688 37.784374 178.81563 37.784374Q177.1125 37.784374 176.19063 36.95625Q175.26875 36.1125 175.26875 34.815624Q175.26875 34.05 175.6125 33.425Q175.97188 32.8 176.53438 32.425Q177.09688 32.034374 177.8 31.83125Q178.31563 31.70625 179.3625 31.565624Q181.4875 31.315624 182.4875 30.971874Q182.50313 30.6125 182.50313 30.503124Q182.50313 29.440624 182.00313 28.9875Q181.33125 28.39375 180.00313 28.39375Q178.75313 28.39375 178.15938 28.83125Q177.58125 29.26875 177.3 30.378124L175.58125 30.14375Q175.81563 29.034374 176.34688 28.3625Q176.87813 27.675 177.89375 27.315624Q178.90938 26.940624 180.25313 26.940624Q181.58125 26.940624 182.40938 27.253124Q183.2375 27.565624 183.62813 28.05Q184.01875 28.51875 184.175 29.2375Q184.26875 29.690624 184.26875 30.8625L184.26875 33.20625Q184.26875 35.659374 184.37813 36.315624Q184.4875 36.95625 184.83125 37.55L182.9875 37.55Q182.72188 37.003124 182.64375 36.26875ZM182.4875 32.346874Q181.53438 32.7375 179.6125 33.003124Q178.53438 33.159374 178.08125 33.3625Q177.64375 33.55 177.39375 33.925Q177.14375 34.3 177.14375 34.76875Q177.14375 35.471874 177.675 35.940624Q178.20625 36.409374 179.2375 36.409374Q180.25313 36.409374 181.03438 35.971874Q181.83125 35.51875 182.20625 34.753124Q182.4875 34.14375 182.4875 32.9875L182.4875 32.346874ZM199.64375 33.753124L201.3625 33.971874Q201.08125 35.76875 199.90938 36.784374Q198.75313 37.784374 197.05 37.784374Q194.925 37.784374 193.62813 36.39375Q192.33125 35.003124 192.33125 32.409374Q192.33125 30.721874 192.87813 29.471874Q193.44063 28.20625 194.58125 27.58125Q195.72188 26.940624 197.06563 26.940624Q198.75313 26.940624 199.81563 27.8Q200.89375 28.659374 201.20625 30.221874L199.4875 30.4875Q199.25313 29.440624 198.62813 28.925Q198.00313 28.39375 197.12813 28.39375Q195.8 28.39375 194.97188 29.346874Q194.14375 30.3 194.14375 32.346874Q194.14375 34.440624 194.94063 35.39375Q195.7375 36.33125 197.03438 36.33125Q198.06563 36.33125 198.75313 35.70625Q199.45625 35.065624 199.64375 33.753124ZM209.64375 36.26875Q208.65938 37.096874 207.75313 37.440624Q206.84688 37.784374 205.81563 37.784374Q204.1125 37.784374 203.19063 36.95625Q202.26875 36.1125 202.26875 34.815624Q202.26875 34.05 202.6125 33.425Q202.97188 32.8 203.53438 32.425Q204.09688 32.034374 204.8 31.83125Q205.31563 31.70625 206.3625 31.565624Q208.4875 31.315624 209.4875 30.971874Q209.50313 30.6125 209.50313 30.503124Q209.50313 29.440624 209.00313 28.9875Q208.33125 28.39375 207.00313 28.39375Q205.75313 28.39375 205.15938 28.83125Q204.58125 29.26875 204.3 30.378124L202.58125 30.14375Q202.81563 29.034374 203.34688 28.3625Q203.87813 27.675 204.89375 27.315624Q205.90938 26.940624 207.25313 26.940624Q208.58125 26.940624 209.40938 27.253124Q210.2375 27.565624 210.62813 28.05Q211.01875 28.51875 211.175 29.2375Q211.26875 29.690624 211.26875 30.8625L211.26875 33.20625Q211.26875 35.659374 211.37813 36.315624Q211.4875 36.95625 211.83125 37.55L209.9875 37.55Q209.72188 37.003124 209.64375 36.26875ZM209.4875 32.346874Q208.53438 32.7375 206.6125 33.003124Q205.53438 33.159374 205.08125 33.3625Q204.64375 33.55 204.39375 33.925Q204.14375 34.3 204.14375 34.76875Q204.14375 35.471874 204.675 35.940624Q205.20625 36.409374 206.2375 36.409374Q207.25313 36.409374 208.03438 35.971874Q208.83125 35.51875 209.20625 34.753124Q209.4875 34.14375 209.4875 32.9875L209.4875 32.346874ZM213.8625 37.55L213.8625 27.175L215.45625 27.175L215.45625 28.659374Q216.59688 26.940624 218.75313 26.940624Q219.69063 26.940624 220.47188 27.284374Q221.26875 27.6125 221.65938 28.159374Q222.05 28.70625 222.20625 29.45625Q222.3 29.95625 222.3 31.175L222.3 37.55L220.53438 37.55L220.53438 31.2375Q220.53438 30.159374 220.33125 29.628124Q220.12813 29.096874 219.59688 28.784374Q219.08125 28.471874 218.37813 28.471874Q217.25313 28.471874 216.44063 29.190624Q215.62813 29.89375 215.62813 31.878124L215.62813 37.55L213.8625 37.55ZM231.59688 37.55L231.59688 36.2375Q230.6125 37.784374 228.69063 37.784374Q227.45625 37.784374 226.40938 37.096874Q225.37813 36.409374 224.8 35.190624Q224.2375 33.971874 224.2375 32.378124Q224.2375 30.815624 224.75313 29.55Q225.26875 28.284374 226.3 27.6125Q227.34688 26.940624 228.6125 26.940624Q229.55 26.940624 230.28438 27.346874Q231.01875 27.7375 231.4875 28.3625L231.4875 23.2375L233.22188 23.2375L233.22188 37.55L231.59688 37.55ZM226.03438 32.378124Q226.03438 34.3625 226.87813 35.346874Q227.72188 36.33125 228.8625 36.33125Q230.01875 36.33125 230.81563 35.39375Q231.62813 34.45625 231.62813 32.51875Q231.62813 30.39375 230.8 29.39375Q229.9875 28.39375 228.78438 28.39375Q227.6125 28.39375 226.81563 29.3625Q226.03438 30.315624 226.03438 32.378124ZM235.83125 37.55L235.83125 23.2375L237.58125 23.2375L237.58125 37.55L235.83125 37.55ZM246.97188 34.20625L248.78438 34.440624Q248.3625 36.01875 247.19063 36.909374Q246.03438 37.784374 244.22188 37.784374Q241.95625 37.784374 240.6125 36.39375Q239.28438 34.9875 239.28438 32.45625Q239.28438 29.83125 240.62813 28.39375Q241.97188 26.940624 244.12813 26.940624Q246.20625 26.940624 247.51875 28.3625Q248.84688 29.76875 248.84688 32.346874Q248.84688 32.503124 248.83125 32.815624L241.09688 32.815624Q241.19063 34.51875 242.06563 35.425Q242.94063 36.33125 244.2375 36.33125Q245.20625 36.33125 245.87813 35.83125Q246.56563 35.315624 246.97188 34.20625ZM241.19063 31.3625L246.9875 31.3625Q246.87813 30.065624 246.33125 29.409374Q245.4875 28.39375 244.14375 28.39375Q242.94063 28.39375 242.1125 29.20625Q241.28438 30.003124 241.19063 31.3625ZM250.15938 34.45625L251.90938 34.175Q252.05 35.221874 252.72188 35.784374Q253.39375 36.33125 254.59688 36.33125Q255.8 36.33125 256.3781 35.846874Q256.97186 35.346874 256.97186 34.690624Q256.97186 34.096874 256.45624 33.753124Q256.09686 33.51875 254.65938 33.159374Q252.72188 32.659374 251.97188 32.315624Q251.2375 31.95625 250.84688 31.33125Q250.45625 30.690624 250.45625 29.925Q250.45625 29.2375 250.76875 28.64375Q251.09688 28.05 251.64375 27.659374Q252.05 27.3625 252.75313 27.159374Q253.47188 26.940624 254.28438 26.940624Q255.50313 26.940624 256.425 27.3Q257.34686 27.64375 257.78436 28.253124Q258.22186 28.846874 258.39374 29.846874L256.675 30.08125Q256.55 29.284374 255.9875 28.846874Q255.425 28.39375 254.40938 28.39375Q253.19063 28.39375 252.675 28.8Q252.15938 29.190624 252.15938 29.721874Q252.15938 30.065624 252.37813 30.346874Q252.58125 30.628124 253.05 30.815624Q253.31563 30.909374 254.59688 31.253124Q256.47186 31.753124 257.20624 32.08125Q257.9406 32.39375 258.3625 33.003124Q258.78436 33.596874 258.78436 34.503124Q258.78436 35.378124 258.26874 36.159374Q257.7531 36.940624 256.78436 37.3625Q255.81563 37.784374 254.59688 37.784374Q252.58125 37.784374 251.51875 36.940624Q250.45625 36.096874 250.15938 34.45625ZM264.70624 35.971874L264.95624 37.534374Q264.22186 37.690624 263.6281 37.690624Q262.675 37.690624 262.14374 37.39375Q261.6281 37.08125 261.40936 36.596874Q261.1906 36.096874 261.1906 34.51875L261.1906 28.55L259.90936 28.55L259.90936 27.175L261.1906 27.175L261.1906 24.6125L262.9406 23.55L262.9406 27.175L264.70624 27.175L264.70624 28.55L262.9406 28.55L262.9406 34.6125Q262.9406 35.3625 263.03436 35.58125Q263.1281 35.784374 263.33124 35.925Q263.55 36.05 263.9406 36.05Q264.22186 36.05 264.70624 35.971874ZM266.8781 25.253124L266.8781 23.2375L268.64374 23.2375L268.64374 25.253124L266.8781 25.253124ZM266.8781 37.55L266.8781 27.175L268.64374 27.175L268.64374 37.55L266.8781 37.55ZM277.64374 33.753124L279.3625 33.971874Q279.08124 35.76875 277.90936 36.784374Q276.7531 37.784374 275.05 37.784374Q272.925 37.784374 271.6281 36.39375Q270.33124 35.003124 270.33124 32.409374Q270.33124 30.721874 270.8781 29.471874Q271.4406 28.20625 272.58124 27.58125Q273.72186 26.940624 275.0656 26.940624Q276.7531 26.940624 277.8156 27.8Q278.89374 28.659374 279.20624 30.221874L277.4875 30.4875Q277.2531 29.440624 276.6281 28.925Q276.0031 28.39375 275.1281 28.39375Q273.8 28.39375 272.97186 29.346874Q272.14374 30.3 272.14374 32.346874Q272.14374 34.440624 272.9406 35.39375Q273.7375 36.33125 275.03436 36.33125Q276.0656 36.33125 276.7531 35.70625Q277.45624 35.065624 277.64374 33.753124ZM280.8781 37.55L280.8781 23.2375L282.64374 23.2375L282.64374 31.39375L286.8 27.175L289.0656 27.175L285.1125 31.01875L289.47186 37.55L287.3 37.55L283.8781 32.253124L282.64374 33.440624L282.64374 37.55L280.8781 37.55ZM303.64374 33.753124L305.3625 33.971874Q305.08124 35.76875 303.90936 36.784374Q302.7531 37.784374 301.05 37.784374Q298.925 37.784374 297.6281 36.39375Q296.33124 35.003124 296.33124 32.409374Q296.33124 30.721874 296.8781 29.471874Q297.4406 28.20625 298.58124 27.58125Q299.72186 26.940624 301.0656 26.940624Q302.7531 26.940624 303.8156 27.8Q304.89374 28.659374 305.20624 30.221874L303.4875 30.4875Q303.2531 29.440624 302.6281 28.925Q302.0031 28.39375 301.1281 28.39375Q299.8 28.39375 298.97186 29.346874Q298.14374 30.3 298.14374 32.346874Q298.14374 34.440624 298.9406 35.39375Q299.7375 36.33125 301.03436 36.33125Q302.0656 36.33125 302.7531 35.70625Q303.45624 35.065624 303.64374 33.753124ZM306.8625 37.55L306.8625 23.2375L308.6281 23.2375L308.6281 28.3625Q309.8625 26.940624 311.7375 26.940624Q312.8781 26.940624 313.72186 27.39375Q314.58124 27.846874 314.9406 28.659374Q315.3156 29.45625 315.3156 30.971874L315.3156 37.55L313.5656 37.55L313.5656 30.971874Q313.5656 29.659374 312.9875 29.065624Q312.40936 28.45625 311.3781 28.45625Q310.59686 28.45625 309.89374 28.8625Q309.20624 29.26875 308.90936 29.971874Q308.6281 30.659374 308.6281 31.878124L308.6281 37.55L306.8625 37.55ZM324.64374 36.26875Q323.65936 37.096874 322.7531 37.440624Q321.84686 37.784374 320.8156 37.784374Q319.1125 37.784374 318.1906 36.95625Q317.26874 36.1125 317.26874 34.815624Q317.26874 34.05 317.6125 33.425Q317.97186 32.8 318.53436 32.425Q319.09686 32.034374 319.8 31.83125Q320.3156 31.70625 321.3625 31.565624Q323.4875 31.315624 324.4875 30.971874Q324.5031 30.6125 324.5031 30.503124Q324.5031 29.440624 324.0031 28.9875Q323.33124 28.39375 322.0031 28.39375Q320.7531 28.39375 320.15936 28.83125Q319.58124 29.26875 319.3 30.378124L317.58124 30.14375Q317.8156 29.034374 318.34686 28.3625Q318.8781 27.675 319.89374 27.315624Q320.90936 26.940624 322.2531 26.940624Q323.58124 26.940624 324.40936 27.253124Q325.2375 27.565624 325.6281 28.05Q326.01874 28.51875 326.175 29.2375Q326.26874 29.690624 326.26874 30.8625L326.26874 33.20625Q326.26874 35.659374 326.3781 36.315624Q326.4875 36.95625 326.83124 37.55L324.9875 37.55Q324.72186 37.003124 324.64374 36.26875ZM324.4875 32.346874Q323.53436 32.7375 321.6125 33.003124Q320.53436 33.159374 320.08124 33.3625Q319.64374 33.55 319.39374 33.925Q319.14374 34.3 319.14374 34.76875Q319.14374 35.471874 319.675 35.940624Q320.20624 36.409374 321.2375 36.409374Q322.2531 36.409374 323.03436 35.971874Q323.83124 35.51875 324.20624 34.753124Q324.4875 34.14375 324.4875 32.9875L324.4875 32.346874ZM328.84686 37.55L328.84686 27.175L330.425 27.175L330.425 28.753124Q331.03436 27.64375 331.55 27.3Q332.0656 26.940624 332.675 26.940624Q333.5656 26.940624 334.4875 27.503124L333.8781 29.14375Q333.2375 28.753124 332.59686 28.753124Q332.01874 28.753124 331.55 29.1125Q331.09686 29.45625 330.89374 30.065624Q330.6125 31.003124 330.6125 32.1125L330.6125 37.55L328.84686 37.55ZM339.70624 35.971874L339.95624 37.534374Q339.22186 37.690624 338.6281 37.690624Q337.675 37.690624 337.14374 37.39375Q336.6281 37.08125 336.40936 36.596874Q336.1906 36.096874 336.1906 34.51875L336.1906 28.55L334.90936 28.55L334.90936 27.175L336.1906 27.175L336.1906 24.6125L337.9406 23.55L337.9406 27.175L339.70624 27.175L339.70624 28.55L337.9406 28.55L337.9406 34.6125Q337.9406 35.3625 338.03436 35.58125Q338.1281 35.784374 338.33124 35.925Q338.55 36.05 338.9406 36.05Q339.22186 36.05 339.70624 35.971874Z" fill-rule="nonzero"/></svg>