<svg version="1.1" viewBox="0.0 0.0 600.0 371.0" fill="none" stroke="none" stroke-linecap="square" stroke-miterlimit="10" width="600" height="371" xmlns:xlink="http://www.w3.org/1999/xlink" xmlns="http://www.w3.org/2000/svg"><path fill="#ffffff" d="M0 0L600.0 0L600.0 371.0L0 371.0L0 0Z" fill-rule="nonzero"/><path stroke="#333333" stroke-width="1.0" stroke-linecap="butt" d="M52.5 332.5L581.5 332.5" fill-rule="nonzero"/><path stroke="#cccccc" stroke-width="1.0" stroke-linecap="butt" d="M52.5 242.5L581.5 242.5" fill-rule="nonzero"/><path stroke="#cccccc" stroke-width="1.0" stroke-linecap="butt" d="M52.5 152.5L581.5 152.5" fill-rule="nonzero"/><path stroke="#cccccc" stroke-width="1.0" stroke-linecap="butt" d="M52.5 61.5L581.5 61.5" fill-rule="nonzero"/><clipPath id="id_0"><path d="M52.55 61.916668L581.45 61.916668L581.45 332.45L52.55 332.45L52.55 61.916668Z" clip-rule="nonzero"/></clipPath><path stroke="#4285f4" stroke-width="2.0" stroke-linecap="butt" clip-path="url(#id_0)" d="M159.1194 66.2452L159.1194 261.7506" fill-rule="nonzero"/><path stroke="#4285f4" stroke-width="2.0" stroke-linecap="butt" clip-path="url(#id_0)" d="M159.1194 332.45L159.1194 281.04868" fill-rule="nonzero"/><path stroke="#4285f4" stroke-width="2.0" stroke-linecap="butt" clip-path="url(#id_0)" d="M107.80821 261.7506L210.4306 261.7506" fill-rule="nonzero"/><path stroke="#4285f4" stroke-width="2.0" stroke-linecap="butt" clip-path="url(#id_0)" d="M107.80821 281.04868L107.80821 261.7506" fill-rule="nonzero"/><path stroke="#4285f4" stroke-width="2.0" stroke-linecap="butt" clip-path="url(#id_0)" d="M210.4306 261.7506L210.4306 281.04868" fill-rule="nonzero"/><path stroke="#4285f4" stroke-width="2.0" stroke-linecap="butt" clip-path="url(#id_0)" d="M210.4306 281.04868L107.80821 281.04868" fill-rule="nonzero"/><path stroke="#4285f4" stroke-width="2.0" stroke-linecap="butt" clip-path="url(#id_0)" d="M265.6888 303.95383L368.3112 303.95383" fill-rule="nonzero"/><path stroke="#4285f4" stroke-width="2.0" stroke-linecap="butt" clip-path="url(#id_0)" d="M265.6888 330.8268L265.6888 303.95383" fill-rule="nonzero"/><path stroke="#4285f4" stroke-width="2.0" stroke-linecap="butt" clip-path="url(#id_0)" d="M368.3112 303.95383L368.3112 330.8268" fill-rule="nonzero"/><path stroke="#4285f4" stroke-width="2.0" stroke-linecap="butt" clip-path="url(#id_0)" d="M368.3112 330.8268L265.6888 330.8268" fill-rule="nonzero"/><path stroke="#4285f4" stroke-width="2.0" stroke-linecap="butt" clip-path="url(#id_0)" d="M474.88058 279.78616L474.88058 316.218" fill-rule="nonzero"/><path stroke="#4285f4" stroke-width="2.0" stroke-linecap="butt" clip-path="url(#id_0)" d="M474.88058 332.45L474.88058 314.2341" fill-rule="nonzero"/><path fill="#4285f4" clip-path="url(#id_0)" d="M422.5694 313.2341L527.1918 313.2341L527.1918 317.21802L422.5694 317.21802L422.5694 313.2341Z" fill-rule="nonzero"/><path fill="#000000" d="M40.05 332.21564Q40.05 330.6844 40.3625 329.7625Q40.675 328.825 41.284374 328.325Q41.909374 327.825 42.846874 327.825Q43.534374 327.825 44.05 328.10626Q44.58125 328.3875 44.925 328.91876Q45.26875 329.4344 45.45625 330.1844Q45.64375 330.9344 45.64375 332.21564Q45.64375 333.73126 45.33125 334.65314Q45.034374 335.575 44.409374 336.09064Q43.8 336.59064 42.846874 336.59064Q41.6125 336.59064 40.89375 335.7Q40.05 334.6375 40.05 332.21564ZM41.128124 332.21564Q41.128124 334.325 41.628124 335.02814Q42.128124 335.73126 42.846874 335.73126Q43.58125 335.73126 44.065624 335.02814Q44.565624 334.325 44.565624 332.21564Q44.565624 330.09064 44.065624 329.40314Q43.58125 328.7 42.83125 328.7Q42.1125 328.7 41.675 329.3094Q41.128124 330.09064 41.128124 332.21564Z" fill-rule="nonzero"/><path fill="#000000" d="M26.05 244.02222L27.159374 243.92847Q27.284374 244.74097 27.721874 245.14722Q28.175 245.55347 28.815624 245.55347Q29.565624 245.55347 30.096874 244.97534Q30.628124 244.39722 30.628124 243.45972Q30.628124 242.55347 30.1125 242.03784Q29.6125 241.50659 28.784374 241.50659Q28.284374 241.50659 27.8625 241.74097Q27.45625 241.97534 27.221874 242.33472L26.2375 242.20972L27.065624 237.80347L31.346874 237.80347L31.346874 238.80347L27.909374 238.80347L27.45625 241.11597Q28.221874 240.56909 29.065624 240.56909Q30.190624 240.56909 30.95625 241.35034Q31.7375 242.13159 31.7375 243.36597Q31.7375 244.52222 31.065624 245.38159Q30.2375 246.41284 28.815624 246.41284Q27.64375 246.41284 26.89375 245.75659Q26.159374 245.10034 26.05 244.02222ZM33.05 242.03784Q33.05 240.50659 33.3625 239.58472Q33.675 238.64722 34.284374 238.14722Q34.909374 237.64722 35.846874 237.64722Q36.534374 237.64722 37.05 237.92847Q37.58125 238.20972 37.925 238.74097Q38.26875 239.25659 38.45625 240.00659Q38.64375 240.75659 38.64375 242.03784Q38.64375 243.55347 38.33125 244.47534Q38.034374 245.39722 37.409374 245.91284Q36.8 246.41284 35.846874 246.41284Q34.6125 246.41284 33.89375 245.52222Q33.05 244.45972 33.05 242.03784ZM34.128124 242.03784Q34.128124 244.14722 34.628124 244.85034Q35.128124 245.55347 35.846874 245.55347Q36.58125 245.55347 37.065624 244.85034Q37.565624 244.14722 37.565624 242.03784Q37.565624 239.91284 37.065624 239.22534Q36.58125 238.52222 35.83125 238.52222Q35.1125 238.52222 34.675 239.13159Q34.128124 239.91284 34.128124 242.03784ZM40.05 242.03784Q40.05 240.50659 40.3625 239.58472Q40.675 238.64722 41.284374 238.14722Q41.909374 237.64722 42.846874 237.64722Q43.534374 237.64722 44.05 237.92847Q44.58125 238.20972 44.925 238.74097Q45.26875 239.25659 45.45625 240.00659Q45.64375 240.75659 45.64375 242.03784Q45.64375 243.55347 45.33125 244.47534Q45.034374 245.39722 44.409374 245.91284Q43.8 246.41284 42.846874 246.41284Q41.6125 246.41284 40.89375 245.52222Q40.05 244.45972 40.05 242.03784ZM41.128124 242.03784Q41.128124 244.14722 41.628124 244.85034Q42.128124 245.55347 42.846874 245.55347Q43.58125 245.55347 44.065624 244.85034Q44.565624 244.14722 44.565624 242.03784Q44.565624 239.91284 44.065624 239.22534Q43.58125 238.52222 42.83125 238.52222Q42.1125 238.52222 41.675 239.13159Q41.128124 239.91284 41.128124 242.03784Z" fill-rule="nonzero"/><path fill="#000000" d="M23.01875 156.09445L21.971874 156.09445L21.971874 149.3757Q21.58125 149.73508 20.95625 150.11008Q20.346874 150.46945 19.8625 150.64133L19.8625 149.6257Q20.7375 149.20383 21.39375 148.6257Q22.065624 148.03195 22.346874 147.46945L23.01875 147.46945L23.01875 156.09445ZM26.05 151.86008Q26.05 150.32883 26.3625 149.40695Q26.675 148.46945 27.284374 147.96945Q27.909374 147.46945 28.846874 147.46945Q29.534374 147.46945 30.05 147.7507Q30.58125 148.03195 30.925 148.5632Q31.26875 149.07883 31.45625 149.82883Q31.64375 150.57883 31.64375 151.86008Q31.64375 153.3757 31.33125 154.29758Q31.034374 155.21945 30.409374 155.73508Q29.8 156.23508 28.846874 156.23508Q27.6125 156.23508 26.89375 155.34445Q26.05 154.28195 26.05 151.86008ZM27.128124 151.86008Q27.128124 153.96945 27.628124 154.67258Q28.128124 155.3757 28.846874 155.3757Q29.58125 155.3757 30.065624 154.67258Q30.565624 153.96945 30.565624 151.86008Q30.565624 149.73508 30.065624 149.04758Q29.58125 148.34445 28.83125 148.34445Q28.1125 148.34445 27.675 148.95383Q27.128124 149.73508 27.128124 151.86008ZM33.05 151.86008Q33.05 150.32883 33.3625 149.40695Q33.675 148.46945 34.284374 147.96945Q34.909374 147.46945 35.846874 147.46945Q36.534374 147.46945 37.05 147.7507Q37.58125 148.03195 37.925 148.5632Q38.26875 149.07883 38.45625 149.82883Q38.64375 150.57883 38.64375 151.86008Q38.64375 153.3757 38.33125 154.29758Q38.034374 155.21945 37.409374 155.73508Q36.8 156.23508 35.846874 156.23508Q34.6125 156.23508 33.89375 155.34445Q33.05 154.28195 33.05 151.86008ZM34.128124 151.86008Q34.128124 153.96945 34.628124 154.67258Q35.128124 155.3757 35.846874 155.3757Q36.58125 155.3757 37.065624 154.67258Q37.565624 153.96945 37.565624 151.86008Q37.565624 149.73508 37.065624 149.04758Q36.58125 148.34445 35.83125 148.34445Q35.1125 148.34445 34.675 148.95383Q34.128124 149.73508 34.128124 151.86008ZM40.05 151.86008Q40.05 150.32883 40.3625 149.40695Q40.675 148.46945 41.284374 147.96945Q41.909374 147.46945 42.846874 147.46945Q43.534374 147.46945 44.05 147.7507Q44.58125 148.03195 44.925 148.5632Q45.26875 149.07883 45.45625 149.82883Q45.64375 150.57883 45.64375 151.86008Q45.64375 153.3757 45.33125 154.29758Q45.034374 155.21945 44.409374 155.73508Q43.8 156.23508 42.846874 156.23508Q41.6125 156.23508 40.89375 155.34445Q40.05 154.28195 40.05 151.86008ZM41.128124 151.86008Q41.128124 153.96945 41.628124 154.67258Q42.128124 155.3757 42.846874 155.3757Q43.58125 155.3757 44.065624 154.67258Q44.565624 153.96945 44.565624 151.86008Q44.565624 149.73508 44.065624 149.04758Q43.58125 148.34445 42.83125 148.34445Q42.1125 148.34445 41.675 148.95383Q41.128124 149.73508 41.128124 151.86008Z" fill-rule="nonzero"/><path fill="#000000" d="M23.01875 65.916664L21.971874 65.916664L21.971874 59.197914Q21.58125 59.55729 20.95625 59.93229Q20.346874 60.291664 19.8625 60.46354L19.8625 59.447914Q20.7375 59.02604 21.39375 58.447914Q22.065624 57.854164 22.346874 57.291664L23.01875 57.291664L23.01875 65.916664ZM26.05 63.666664L27.159374 63.572914Q27.284374 64.385414 27.721874 64.791664Q28.175 65.197914 28.815624 65.197914Q29.565624 65.197914 30.096874 64.61979Q30.628124 64.041664 30.628124 63.104164Q30.628124 62.197914 30.1125 61.68229Q29.6125 61.15104 28.784374 61.15104Q28.284374 61.15104 27.8625 61.385414Q27.45625 61.61979 27.221874 61.979164L26.2375 61.854164L27.065624 57.447914L31.346874 57.447914L31.346874 58.447914L27.909374 58.447914L27.45625 60.760414Q28.221874 60.21354 29.065624 60.21354Q30.190624 60.21354 30.95625 60.99479Q31.7375 61.77604 31.7375 63.010414Q31.7375 64.166664 31.065624 65.02604Q30.2375 66.05729 28.815624 66.05729Q27.64375 66.05729 26.89375 65.40104Q26.159374 64.74479 26.05 63.666664ZM33.05 61.68229Q33.05 60.15104 33.3625 59.229164Q33.675 58.291664 34.284374 57.791664Q34.909374 57.291664 35.846874 57.291664Q36.534374 57.291664 37.05 57.572914Q37.58125 57.854164 37.925 58.385414Q38.26875 58.90104 38.45625 59.65104Q38.64375 60.40104 38.64375 61.68229Q38.64375 63.197914 38.33125 64.11979Q38.034374 65.041664 37.409374 65.55729Q36.8 66.05729 35.846874 66.05729Q34.6125 66.05729 33.89375 65.166664Q33.05 64.104164 33.05 61.68229ZM34.128124 61.68229Q34.128124 63.791664 34.628124 64.49479Q35.128124 65.197914 35.846874 65.197914Q36.58125 65.197914 37.065624 64.49479Q37.565624 63.791664 37.565624 61.68229Q37.565624 59.55729 37.065624 58.86979Q36.58125 58.166664 35.83125 58.166664Q35.1125 58.166664 34.675 58.77604Q34.128124 59.55729 34.128124 61.68229ZM40.05 61.68229Q40.05 60.15104 40.3625 59.229164Q40.675 58.291664 41.284374 57.791664Q41.909374 57.291664 42.846874 57.291664Q43.534374 57.291664 44.05 57.572914Q44.58125 57.854164 44.925 58.385414Q45.26875 58.90104 45.45625 59.65104Q45.64375 60.40104 45.64375 61.68229Q45.64375 63.197914 45.33125 64.11979Q45.034374 65.041664 44.409374 65.55729Q43.8 66.05729 42.846874 66.05729Q41.6125 66.05729 40.89375 65.166664Q40.05 64.104164 40.05 61.68229ZM41.128124 61.68229Q41.128124 63.791664 41.628124 64.49479Q42.128124 65.197914 42.846874 65.197914Q43.58125 65.197914 44.065624 64.49479Q44.565624 63.791664 44.565624 61.68229Q44.565624 59.55729 44.065624 58.86979Q43.58125 58.166664 42.83125 58.166664Q42.1125 58.166664 41.675 58.77604Q41.128124 59.55729 41.128124 61.68229Z" fill-rule="nonzero"/><path fill="#000000" d="M135.04128 349.45L135.04128 340.85626L138.01003 340.85626Q139.01003 340.85626 139.54128 340.98126Q140.27565 341.15314 140.79128 341.59064Q141.47878 342.16876 141.8069 343.075Q142.15065 343.96564 142.15065 345.10626Q142.15065 346.09064 141.91628 346.84064Q141.69753 347.59064 141.33815 348.09064Q140.97878 348.59064 140.54128 348.8719Q140.1194 349.15314 139.52565 349.3094Q138.9319 349.45 138.15065 349.45L135.04128 349.45ZM136.1819 348.4344L138.01003 348.4344Q138.8694 348.4344 139.35378 348.27814Q139.83815 348.1219 140.1194 347.825Q140.52565 347.4344 140.7444 346.7469Q140.97878 346.0594 140.97878 345.09064Q140.97878 343.7469 140.52565 343.02814Q140.08815 342.29376 139.46315 342.04376Q138.9944 341.8719 137.9944 341.8719L136.1819 341.8719L136.1819 348.4344ZM148.16628 347.45L149.26003 347.575Q149.01003 348.52814 148.3069 349.0594Q147.60378 349.59064 146.52565 349.59064Q145.16628 349.59064 144.35378 348.7469Q143.5569 347.90314 143.5569 346.3875Q143.5569 344.825 144.3694 343.96564Q145.1819 343.09064 146.46315 343.09064Q147.71315 343.09064 148.4944 343.9344Q149.29128 344.77814 149.29128 346.325Q149.29128 346.41876 149.29128 346.60626L144.65065 346.60626Q144.71315 347.6375 145.22878 348.1844Q145.7444 348.71564 146.52565 348.71564Q147.10378 348.71564 147.51003 348.41876Q147.9319 348.10626 148.16628 347.45ZM144.71315 345.7469L148.1819 345.7469Q148.1194 344.95 147.79128 344.5594Q147.27565 343.95 146.47878 343.95Q145.7444 343.95 145.2444 344.4344Q144.76003 344.91876 144.71315 345.7469ZM150.91628 349.45L150.91628 343.23126L151.85378 343.23126L151.85378 344.10626Q152.54128 343.09064 153.83815 343.09064Q154.40065 343.09064 154.8694 343.29376Q155.35378 343.4969 155.58815 343.825Q155.82253 344.15314 155.91628 344.59064Q155.96315 344.8875 155.96315 345.6219L155.96315 349.45L154.91628 349.45L154.91628 345.66876Q154.91628 345.0125 154.79128 344.7Q154.66628 344.3875 154.35378 344.2Q154.04128 343.9969 153.6194 343.9969Q152.94753 343.9969 152.44753 344.4344Q151.96315 344.85626 151.96315 346.04376L151.96315 349.45L150.91628 349.45ZM157.91628 349.45L157.91628 343.23126L158.85378 343.23126L158.85378 344.10626Q159.15065 343.6375 159.63503 343.3719Q160.1194 343.09064 160.7444 343.09064Q161.4319 343.09064 161.8694 343.3719Q162.32253 343.65314 162.4944 344.16876Q163.2444 343.09064 164.41628 343.09064Q165.35378 343.09064 165.83815 343.60626Q166.33815 344.10626 166.33815 345.1844L166.33815 349.45L165.29128 349.45L165.29128 345.52814Q165.29128 344.90314 165.1819 344.6219Q165.08815 344.34064 164.82253 344.16876Q164.5569 343.9969 164.1819 343.9969Q163.52565 343.9969 163.08815 344.4344Q162.66628 344.8719 162.66628 345.84064L162.66628 349.45L161.60378 349.45L161.60378 345.40314Q161.60378 344.7 161.33815 344.35626Q161.08815 343.9969 160.51003 343.9969Q160.0569 343.9969 159.6819 344.23126Q159.3069 344.46564 159.13503 344.91876Q158.96315 345.3719 158.96315 346.21564L158.96315 349.45L157.91628 349.45ZM171.97878 348.6844Q171.38503 349.1844 170.83815 349.3875Q170.3069 349.59064 169.6819 349.59064Q168.65065 349.59064 168.10378 349.09064Q167.5569 348.59064 167.5569 347.8094Q167.5569 347.35626 167.76003 346.98126Q167.96315 346.59064 168.3069 346.3719Q168.65065 346.1375 169.07253 346.02814Q169.3694 345.9344 170.01003 345.85626Q171.27565 345.71564 171.88503 345.4969Q171.88503 345.27814 171.88503 345.23126Q171.88503 344.575 171.58815 344.3094Q171.1819 343.96564 170.38503 343.96564Q169.65065 343.96564 169.29128 344.23126Q168.9319 344.48126 168.76003 345.1375L167.72878 344.9969Q167.8694 344.34064 168.19753 343.9344Q168.52565 343.52814 169.13503 343.3094Q169.7444 343.09064 170.54128 343.09064Q171.33815 343.09064 171.83815 343.27814Q172.33815 343.46564 172.57253 343.7469Q172.8069 344.02814 172.90065 344.46564Q172.94753 344.73126 172.94753 345.4344L172.94753 346.84064Q172.94753 348.3094 173.01003 348.7Q173.08815 349.09064 173.29128 349.45L172.1819 349.45Q172.02565 349.1219 171.97878 348.6844ZM171.88503 346.325Q171.3069 346.5594 170.16628 346.73126Q169.51003 346.825 169.2444 346.95Q168.97878 347.0594 168.82253 347.27814Q168.6819 347.4969 168.6819 347.77814Q168.6819 348.2 168.9944 348.48126Q169.32253 348.7625 169.9319 348.7625Q170.54128 348.7625 171.01003 348.4969Q171.4944 348.23126 171.71315 347.7625Q171.88503 347.40314 171.88503 346.71564L171.88503 346.325ZM174.90065 349.45L174.90065 343.23126L175.85378 343.23126L175.85378 344.16876Q176.21315 343.5125 176.51003 343.3094Q176.82253 343.09064 177.19753 343.09064Q177.72878 343.09064 178.27565 343.41876L177.91628 344.40314Q177.52565 344.16876 177.15065 344.16876Q176.79128 344.16876 176.51003 344.3875Q176.2444 344.59064 176.13503 344.96564Q175.94753 345.52814 175.94753 346.1844L175.94753 349.45L174.90065 349.45ZM178.91628 349.45L178.91628 340.85626L179.97878 340.85626L179.97878 345.7625L182.46315 343.23126L183.83815 343.23126L181.44753 345.52814L184.07253 349.45L182.77565 349.45L180.71315 346.2625L179.97878 346.98126L179.97878 349.45L178.91628 349.45Z" fill-rule="nonzero"/><path fill="#000000" d="M297.48438 349.45L297.48438 340.85626L303.28125 340.85626L303.28125 341.8719L298.625 341.8719L298.625 344.52814L302.65625 344.52814L302.65625 345.54376L298.625 345.54376L298.625 349.45L297.48438 349.45ZM304.29688 342.075L304.29688 340.85626L305.35938 340.85626L305.35938 342.075L304.29688 342.075ZM304.29688 349.45L304.29688 343.23126L305.35938 343.23126L305.35938 349.45L304.29688 349.45ZM307.29688 349.45L307.29688 343.23126L308.23438 343.23126L308.23438 344.10626Q308.92188 343.09064 310.21875 343.09064Q310.78125 343.09064 311.25 343.29376Q311.73438 343.4969 311.96875 343.825Q312.20312 344.15314 312.29688 344.59064Q312.34375 344.8875 312.34375 345.6219L312.34375 349.45L311.29688 349.45L311.29688 345.66876Q311.29688 345.0125 311.17188 344.7Q311.04688 344.3875 310.73438 344.2Q310.42188 343.9969 310.0 343.9969Q309.32812 343.9969 308.82812 344.4344Q308.34375 344.85626 308.34375 346.04376L308.34375 349.45L307.29688 349.45ZM314.26562 349.45L314.26562 340.85626L315.32812 340.85626L315.32812 349.45L314.26562 349.45ZM321.35938 348.6844Q320.76562 349.1844 320.21875 349.3875Q319.6875 349.59064 319.0625 349.59064Q318.03125 349.59064 317.48438 349.09064Q316.9375 348.59064 316.9375 347.8094Q316.9375 347.35626 317.14062 346.98126Q317.34375 346.59064 317.6875 346.3719Q318.03125 346.1375 318.45312 346.02814Q318.75 345.9344 319.39062 345.85626Q320.65625 345.71564 321.26562 345.4969Q321.26562 345.27814 321.26562 345.23126Q321.26562 344.575 320.96875 344.3094Q320.5625 343.96564 319.76562 343.96564Q319.03125 343.96564 318.67188 344.23126Q318.3125 344.48126 318.14062 345.1375L317.10938 344.9969Q317.25 344.34064 317.57812 343.9344Q317.90625 343.52814 318.51562 343.3094Q319.125 343.09064 319.92188 343.09064Q320.71875 343.09064 321.21875 343.27814Q321.71875 343.46564 321.95312 343.7469Q322.1875 344.02814 322.28125 344.46564Q322.32812 344.73126 322.32812 345.4344L322.32812 346.84064Q322.32812 348.3094 322.39062 348.7Q322.46875 349.09064 322.67188 349.45L321.5625 349.45Q321.40625 349.1219 321.35938 348.6844ZM321.26562 346.325Q320.6875 346.5594 319.54688 346.73126Q318.89062 346.825 318.625 346.95Q318.35938 347.0594 318.20312 347.27814Q318.0625 347.4969 318.0625 347.77814Q318.0625 348.2 318.375 348.48126Q318.70312 348.7625 319.3125 348.7625Q319.92188 348.7625 320.39062 348.4969Q320.875 348.23126 321.09375 347.7625Q321.26562 347.40314 321.26562 346.71564L321.26562 346.325ZM324.29688 349.45L324.29688 343.23126L325.23438 343.23126L325.23438 344.10626Q325.92188 343.09064 327.21875 343.09064Q327.78125 343.09064 328.25 343.29376Q328.73438 343.4969 328.96875 343.825Q329.20312 344.15314 329.29688 344.59064Q329.34375 344.8875 329.34375 345.6219L329.34375 349.45L328.29688 349.45L328.29688 345.66876Q328.29688 345.0125 328.17188 344.7Q328.04688 344.3875 327.73438 344.2Q327.42188 343.9969 327.0 343.9969Q326.32812 343.9969 325.82812 344.4344Q325.34375 344.85626 325.34375 346.04376L325.34375 349.45L324.29688 349.45ZM335.32812 349.45L335.32812 348.66876Q334.73438 349.59064 333.59375 349.59064Q332.84375 349.59064 332.21875 349.1844Q331.59375 348.7625 331.25 348.02814Q330.90625 347.29376 330.90625 346.34064Q330.90625 345.41876 331.21875 344.65314Q331.53125 343.8875 332.15625 343.4969Q332.78125 343.09064 333.54688 343.09064Q334.10938 343.09064 334.54688 343.325Q334.98438 343.5594 335.26562 343.9344L335.26562 340.85626L336.3125 340.85626L336.3125 349.45L335.32812 349.45ZM332.0 346.34064Q332.0 347.54376 332.5 348.1375Q333.0 348.71564 333.6875 348.71564Q334.375 348.71564 334.85938 348.15314Q335.34375 347.59064 335.34375 346.4344Q335.34375 345.15314 334.84375 344.5594Q334.35938 343.96564 333.64062 343.96564Q332.9375 343.96564 332.46875 344.54376Q332.0 345.10626 332.0 346.34064Z" fill-rule="nonzero"/><path fill="#000000" d="M454.80246 349.45L454.80246 340.85626L455.9587 340.85626L460.47433 347.60626L460.47433 340.85626L461.56808 340.85626L461.56808 349.45L460.3962 349.45L455.88058 342.7L455.88058 349.45L454.80246 349.45ZM463.28683 346.34064Q463.28683 344.60626 464.23996 343.77814Q465.03683 343.09064 466.19308 343.09064Q467.47433 343.09064 468.28683 343.9344Q469.11496 344.7625 469.11496 346.2469Q469.11496 347.45 468.75558 348.1375Q468.3962 348.825 467.69308 349.21564Q467.00558 349.59064 466.19308 349.59064Q464.8962 349.59064 464.0837 348.7625Q463.28683 347.91876 463.28683 346.34064ZM464.36496 346.34064Q464.36496 347.52814 464.88058 348.1219Q465.41183 348.71564 466.19308 348.71564Q466.98996 348.71564 467.50558 348.1219Q468.0212 347.52814 468.0212 346.3094Q468.0212 345.15314 467.48996 344.5594Q466.97433 343.96564 466.19308 343.96564Q465.41183 343.96564 464.88058 344.5594Q464.36496 345.1375 464.36496 346.34064ZM470.66183 349.45L470.66183 343.23126L471.61496 343.23126L471.61496 344.16876Q471.97433 343.5125 472.2712 343.3094Q472.5837 343.09064 472.9587 343.09064Q473.48996 343.09064 474.03683 343.41876L473.67746 344.40314Q473.28683 344.16876 472.91183 344.16876Q472.55246 344.16876 472.2712 344.3875Q472.00558 344.59064 471.8962 344.96564Q471.7087 345.52814 471.7087 346.1844L471.7087 349.45L470.66183 349.45ZM475.81808 349.45L473.91183 343.23126L475.00558 343.23126L475.98996 346.825L476.36496 348.15314Q476.3962 348.0594 476.69308 346.8719L477.67746 343.23126L478.75558 343.23126L479.69308 346.84064L480.00558 348.02814L480.36496 346.825L481.42746 343.23126L482.4587 343.23126L480.50558 349.45L479.41183 349.45L478.42746 345.71564L478.17746 344.66876L476.92746 349.45L475.81808 349.45ZM487.73996 348.6844Q487.1462 349.1844 486.59933 349.3875Q486.06808 349.59064 485.44308 349.59064Q484.41183 349.59064 483.86496 349.09064Q483.31808 348.59064 483.31808 347.8094Q483.31808 347.35626 483.5212 346.98126Q483.72433 346.59064 484.06808 346.3719Q484.41183 346.1375 484.8337 346.02814Q485.13058 345.9344 485.7712 345.85626Q487.03683 345.71564 487.6462 345.4969Q487.6462 345.27814 487.6462 345.23126Q487.6462 344.575 487.34933 344.3094Q486.94308 343.96564 486.1462 343.96564Q485.41183 343.96564 485.05246 344.23126Q484.69308 344.48126 484.5212 345.1375L483.48996 344.9969Q483.63058 344.34064 483.9587 343.9344Q484.28683 343.52814 484.8962 343.3094Q485.50558 343.09064 486.30246 343.09064Q487.09933 343.09064 487.59933 343.27814Q488.09933 343.46564 488.3337 343.7469Q488.56808 344.02814 488.66183 344.46564Q488.7087 344.73126 488.7087 345.4344L488.7087 346.84064Q488.7087 348.3094 488.7712 348.7Q488.84933 349.09064 489.05246 349.45L487.94308 349.45Q487.78683 349.1219 487.73996 348.6844ZM487.6462 346.325Q487.06808 346.5594 485.92746 346.73126Q485.2712 346.825 485.00558 346.95Q484.73996 347.0594 484.5837 347.27814Q484.44308 347.4969 484.44308 347.77814Q484.44308 348.2 484.75558 348.48126Q485.0837 348.7625 485.69308 348.7625Q486.30246 348.7625 486.7712 348.4969Q487.25558 348.23126 487.47433 347.7625Q487.6462 347.40314 487.6462 346.71564L487.6462 346.325ZM490.63058 351.84064L490.50558 350.85626Q490.84933 350.95 491.11496 350.95Q491.4587 350.95 491.66183 350.825Q491.88058 350.71564 492.0212 350.5125Q492.11496 350.34064 492.34933 349.71564Q492.36496 349.6375 492.44308 349.46564L490.06808 343.23126L491.2087 343.23126L492.50558 346.825Q492.75558 347.5125 492.9587 348.27814Q493.1462 347.54376 493.3962 346.85626L494.72433 343.23126L495.7712 343.23126L493.41183 349.5594Q493.0212 350.575 492.81808 350.96564Q492.53683 351.4969 492.16183 351.73126Q491.80246 351.98126 491.30246 351.98126Q491.00558 351.98126 490.63058 351.84064Z" fill-rule="nonzero"/><path fill="#757575" d="M19.45625 32.95625L21.2375 32.8Q21.3625 33.8625 21.815624 34.55Q22.284374 35.2375 23.253124 35.675Q24.2375 36.096874 25.471874 36.096874Q26.55 36.096874 27.378124 35.784374Q28.20625 35.45625 28.6125 34.89375Q29.01875 34.33125 29.01875 33.659374Q29.01875 32.9875 28.628124 32.4875Q28.2375 31.9875 27.346874 31.64375Q26.76875 31.409374 24.784374 30.940624Q22.815624 30.471874 22.034374 30.05Q21.003124 29.51875 20.503124 28.721874Q20.003124 27.925 20.003124 26.940624Q20.003124 25.846874 20.6125 24.909374Q21.221874 23.971874 22.409374 23.4875Q23.596874 22.9875 25.034374 22.9875Q26.628124 22.9875 27.846874 23.503124Q29.065624 24.01875 29.70625 25.01875Q30.3625 26.003124 30.409374 27.26875L28.596874 27.409374Q28.45625 26.05 27.6125 25.3625Q26.76875 24.659374 25.1125 24.659374Q23.39375 24.659374 22.596874 25.3Q21.815624 25.925 21.815624 26.8Q21.815624 27.58125 22.378124 28.08125Q22.925 28.58125 25.2375 29.096874Q27.55 29.6125 28.409374 30.003124Q29.659374 30.58125 30.253124 31.471874Q30.846874 32.346874 30.846874 33.503124Q30.846874 34.64375 30.190624 35.659374Q29.534374 36.675 28.3 37.2375Q27.08125 37.8 25.55 37.8Q23.6125 37.8 22.3 37.2375Q20.9875 36.659374 20.2375 35.51875Q19.4875 34.378124 19.45625 32.95625ZM39.971874 34.20625L41.784374 34.440624Q41.3625 36.01875 40.190624 36.909374Q39.034374 37.784374 37.221874 37.784374Q34.95625 37.784374 33.6125 36.39375Q32.284374 34.9875 32.284374 32.45625Q32.284374 29.83125 33.628124 28.39375Q34.971874 26.940624 37.128124 26.940624Q39.20625 26.940624 40.51875 28.3625Q41.846874 29.76875 41.846874 32.346874Q41.846874 32.503124 41.83125 32.815624L34.096874 32.815624Q34.190624 34.51875 35.065624 35.425Q35.940624 36.33125 37.2375 36.33125Q38.20625 36.33125 38.878124 35.83125Q39.565624 35.315624 39.971874 34.20625ZM34.190624 31.3625L39.9875 31.3625Q39.878124 30.065624 39.33125 29.409374Q38.4875 28.39375 37.14375 28.39375Q35.940624 28.39375 35.1125 29.20625Q34.284374 30.003124 34.190624 31.3625ZM43.8625 41.51875L43.8625 27.175L45.471874 27.175L45.471874 28.51875Q46.034374 27.7375 46.7375 27.346874Q47.45625 26.940624 48.471874 26.940624Q49.8 26.940624 50.815624 27.628124Q51.83125 28.315624 52.346874 29.565624Q52.878124 30.8 52.878124 32.284374Q52.878124 33.878124 52.3 35.159374Q51.7375 36.425 50.64375 37.1125Q49.55 37.784374 48.346874 37.784374Q47.471874 37.784374 46.76875 37.409374Q46.08125 37.034374 45.628124 36.471874L45.628124 41.51875L43.8625 41.51875ZM45.45625 32.425Q45.45625 34.425 46.26875 35.378124Q47.08125 36.33125 48.2375 36.33125Q49.409374 36.33125 50.2375 35.346874Q51.08125 34.3625 51.08125 32.26875Q51.08125 30.3 50.253124 29.315624Q49.440624 28.315624 48.315624 28.315624Q47.190624 28.315624 46.315624 29.378124Q45.45625 30.425 45.45625 32.425ZM58.70625 35.971874L58.95625 37.534374Q58.221874 37.690624 57.628124 37.690624Q56.675 37.690624 56.14375 37.39375Q55.628124 37.08125 55.409374 36.596874Q55.190624 36.096874 55.190624 34.51875L55.190624 28.55L53.909374 28.55L53.909374 27.175L55.190624 27.175L55.190624 24.6125L56.940624 23.55L56.940624 27.175L58.70625 27.175L58.70625 28.55L56.940624 28.55L56.940624 34.6125Q56.940624 35.3625 57.034374 35.58125Q57.128124 35.784374 57.33125 35.925Q57.55 36.05 57.940624 36.05Q58.221874 36.05 58.70625 35.971874ZM67.97188 34.20625L69.78438 34.440624Q69.3625 36.01875 68.19063 36.909374Q67.03438 37.784374 65.22188 37.784374Q62.95625 37.784374 61.6125 36.39375Q60.284374 34.9875 60.284374 32.45625Q60.284374 29.83125 61.628124 28.39375Q62.971874 26.940624 65.12813 26.940624Q67.20625 26.940624 68.51875 28.3625Q69.84688 29.76875 69.84688 32.346874Q69.84688 32.503124 69.83125 32.815624L62.096874 32.815624Q62.190624 34.51875 63.065624 35.425Q63.940624 36.33125 65.2375 36.33125Q66.20625 36.33125 66.87813 35.83125Q67.56563 35.315624 67.97188 34.20625ZM62.190624 31.3625L67.9875 31.3625Q67.87813 30.065624 67.33125 29.409374Q66.4875 28.39375 65.14375 28.39375Q63.940624 28.39375 63.1125 29.20625Q62.284374 30.003124 62.190624 31.3625ZM71.8625 37.55L71.8625 27.175L73.44063 27.175L73.44063 28.628124Q73.925 27.878124 74.7375 27.409374Q75.55 26.940624 76.58125 26.940624Q77.7375 26.940624 78.47188 27.425Q79.20625 27.89375 79.51875 28.753124Q80.75313 26.940624 82.72188 26.940624Q84.26875 26.940624 85.09688 27.8Q85.925 28.659374 85.925 30.425L85.925 37.55L84.175 37.55L84.175 31.01875Q84.175 29.95625 84.00313 29.503124Q83.83125 29.034374 83.37813 28.753124Q82.94063 28.471874 82.33125 28.471874Q81.2375 28.471874 80.50313 29.20625Q79.78438 29.925 79.78438 31.51875L79.78438 37.55L78.03438 37.55L78.03438 30.815624Q78.03438 29.64375 77.59688 29.065624Q77.175 28.471874 76.19063 28.471874Q75.45625 28.471874 74.81563 28.8625Q74.19063 29.253124 73.90938 30.003124Q73.62813 30.753124 73.62813 32.175L73.62813 37.55L71.8625 37.55ZM90.4875 37.55L88.8625 37.55L88.8625 23.2375L90.6125 23.2375L90.6125 28.346874Q91.7375 26.940624 93.45625 26.940624Q94.40938 26.940624 95.26875 27.33125Q96.12813 27.721874 96.675 28.425Q97.22188 29.1125 97.53438 30.096874Q97.84688 31.08125 97.84688 32.20625Q97.84688 34.878124 96.53438 36.33125Q95.22188 37.784374 93.37813 37.784374Q91.53438 37.784374 90.4875 36.253124L90.4875 37.55ZM90.47188 32.284374Q90.47188 34.14375 90.97188 34.9875Q91.81563 36.33125 93.22188 36.33125Q94.37813 36.33125 95.20625 35.33125Q96.05 34.33125 96.05 32.346874Q96.05 30.315624 95.2375 29.3625Q94.44063 28.39375 93.3 28.39375Q92.14375 28.39375 91.3 29.39375Q90.47188 30.39375 90.47188 32.284374ZM106.97188 34.20625L108.78438 34.440624Q108.3625 36.01875 107.19063 36.909374Q106.03438 37.784374 104.22188 37.784374Q101.95625 37.784374 100.6125 36.39375Q99.28438 34.9875 99.28438 32.45625Q99.28438 29.83125 100.62813 28.39375Q101.97188 26.940624 104.12813 26.940624Q106.20625 26.940624 107.51875 28.3625Q108.84688 29.76875 108.84688 32.346874Q108.84688 32.503124 108.83125 32.815624L101.09688 32.815624Q101.19063 34.51875 102.06563 35.425Q102.94063 36.33125 104.2375 36.33125Q105.20625 36.33125 105.87813 35.83125Q106.56563 35.315624 106.97188 34.20625ZM101.19063 31.3625L106.9875 31.3625Q106.87813 30.065624 106.33125 29.409374Q105.4875 28.39375 104.14375 28.39375Q102.94063 28.39375 102.1125 29.20625Q101.28438 30.003124 101.19063 31.3625ZM110.84688 37.55L110.84688 27.175L112.425 27.175L112.425 28.753124Q113.03438 27.64375 113.55 27.3Q114.06563 26.940624 114.675 26.940624Q115.56563 26.940624 116.4875 27.503124L115.87813 29.14375Q115.2375 28.753124 114.59688 28.753124Q114.01875 28.753124 113.55 29.1125Q113.09688 29.45625 112.89375 30.065624Q112.6125 31.003124 112.6125 32.1125L112.6125 37.55L110.84688 37.55ZM130.64375 33.753124L132.3625 33.971874Q132.08125 35.76875 130.90938 36.784374Q129.75313 37.784374 128.05 37.784374Q125.925 37.784374 124.62813 36.39375Q123.33125 35.003124 123.33125 32.409374Q123.33125 30.721874 123.87813 29.471874Q124.44063 28.20625 125.58125 27.58125Q126.72188 26.940624 128.06563 26.940624Q129.75313 26.940624 130.81563 27.8Q131.89375 28.659374 132.20625 30.221874L130.4875 30.4875Q130.25313 29.440624 129.62813 28.925Q129.00313 28.39375 128.12813 28.39375Q126.8 28.39375 125.97188 29.346874Q125.14375 30.3 125.14375 32.346874Q125.14375 34.440624 125.94063 35.39375Q126.7375 36.33125 128.03438 36.33125Q129.06563 36.33125 129.75313 35.70625Q130.45625 35.065624 130.64375 33.753124ZM140.64375 36.26875Q139.65938 37.096874 138.75313 37.440624Q137.84688 37.784374 136.81563 37.784374Q135.1125 37.784374 134.19063 36.95625Q133.26875 36.1125 133.26875 34.815624Q133.26875 34.05 133.6125 33.425Q133.97188 32.8 134.53438 32.425Q135.09688 32.034374 135.8 31.83125Q136.31563 31.70625 137.3625 31.565624Q139.4875 31.315624 140.4875 30.971874Q140.50313 30.6125 140.50313 30.503124Q140.50313 29.440624 140.00313 28.9875Q139.33125 28.39375 138.00313 28.39375Q136.75313 28.39375 136.15938 28.83125Q135.58125 29.26875 135.3 30.378124L133.58125 30.14375Q133.81563 29.034374 134.34688 28.3625Q134.87813 27.675 135.89375 27.315624Q136.90938 26.940624 138.25313 26.940624Q139.58125 26.940624 140.40938 27.253124Q141.2375 27.565624 141.62813 28.05Q142.01875 28.51875 142.175 29.2375Q142.26875 29.690624 142.26875 30.8625L142.26875 33.20625Q142.26875 35.659374 142.37813 36.315624Q142.4875 36.95625 142.83125 37.55L140.9875 37.55Q140.72188 37.003124 140.64375 36.26875ZM140.4875 32.346874Q139.53438 32.7375 137.6125 33.003124Q136.53438 33.159374 136.08125 33.3625Q135.64375 33.55 135.39375 33.925Q135.14375 34.3 135.14375 34.76875Q135.14375 35.471874 135.675 35.940624Q136.20625 36.409374 137.2375 36.409374Q138.25313 36.409374 139.03438 35.971874Q139.83125 35.51875 140.20625 34.753124Q140.4875 34.14375 140.4875 32.9875L140.4875 32.346874ZM144.15938 34.45625L145.90938 34.175Q146.05 35.221874 146.72188 35.784374Q147.39375 36.33125 148.59688 36.33125Q149.8 36.33125 150.37813 35.846874Q150.97188 35.346874 150.97188 34.690624Q150.97188 34.096874 150.45625 33.753124Q150.09688 33.51875 148.65938 33.159374Q146.72188 32.659374 145.97188 32.315624Q145.2375 31.95625 144.84688 31.33125Q144.45625 30.690624 144.45625 29.925Q144.45625 29.2375 144.76875 28.64375Q145.09688 28.05 145.64375 27.659374Q146.05 27.3625 146.75313 27.159374Q147.47188 26.940624 148.28438 26.940624Q149.50313 26.940624 150.425 27.3Q151.34688 27.64375 151.78438 28.253124Q152.22188 28.846874 152.39375 29.846874L150.675 30.08125Q150.55 29.284374 149.9875 28.846874Q149.425 28.39375 148.40938 28.39375Q147.19063 28.39375 146.675 28.8Q146.15938 29.190624 146.15938 29.721874Q146.15938 30.065624 146.37813 30.346874Q146.58125 30.628124 147.05 30.815624Q147.31563 30.909374 148.59688 31.253124Q150.47188 31.753124 151.20625 32.08125Q151.94063 32.39375 152.3625 33.003124Q152.78438 33.596874 152.78438 34.503124Q152.78438 35.378124 152.26875 36.159374Q151.75313 36.940624 150.78438 37.3625Q149.81563 37.784374 148.59688 37.784374Q146.58125 37.784374 145.51875 36.940624Q144.45625 36.096874 144.15938 34.45625ZM161.97188 34.20625L163.78438 34.440624Q163.3625 36.01875 162.19063 36.909374Q161.03438 37.784374 159.22188 37.784374Q156.95625 37.784374 155.6125 36.39375Q154.28438 34.9875 154.28438 32.45625Q154.28438 29.83125 155.62813 28.39375Q156.97188 26.940624 159.12813 26.940624Q161.20625 26.940624 162.51875 28.3625Q163.84688 29.76875 163.84688 32.346874Q163.84688 32.503124 163.83125 32.815624L156.09688 32.815624Q156.19063 34.51875 157.06563 35.425Q157.94063 36.33125 159.2375 36.33125Q160.20625 36.33125 160.87813 35.83125Q161.56563 35.315624 161.97188 34.20625ZM156.19063 31.3625L161.9875 31.3625Q161.87813 30.065624 161.33125 29.409374Q160.4875 28.39375 159.14375 28.39375Q157.94063 28.39375 157.1125 29.20625Q156.28438 30.003124 156.19063 31.3625ZM165.15938 34.45625L166.90938 34.175Q167.05 35.221874 167.72188 35.784374Q168.39375 36.33125 169.59688 36.33125Q170.8 36.33125 171.37813 35.846874Q171.97188 35.346874 171.97188 34.690624Q171.97188 34.096874 171.45625 33.753124Q171.09688 33.51875 169.65938 33.159374Q167.72188 32.659374 166.97188 32.315624Q166.2375 31.95625 165.84688 31.33125Q165.45625 30.690624 165.45625 29.925Q165.45625 29.2375 165.76875 28.64375Q166.09688 28.05 166.64375 27.659374Q167.05 27.3625 167.75313 27.159374Q168.47188 26.940624 169.28438 26.940624Q170.50313 26.940624 171.425 27.3Q172.34688 27.64375 172.78438 28.253124Q173.22188 28.846874 173.39375 29.846874L171.675 30.08125Q171.55 29.284374 170.9875 28.846874Q170.425 28.39375 169.40938 28.39375Q168.19063 28.39375 167.675 28.8Q167.15938 29.190624 167.15938 29.721874Q167.15938 30.065624 167.37813 30.346874Q167.58125 30.628124 168.05 30.815624Q168.31563 30.909374 169.59688 31.253124Q171.47188 31.753124 172.20625 32.08125Q172.94063 32.39375 173.3625 33.003124Q173.78438 33.596874 173.78438 34.503124Q173.78438 35.378124 173.26875 36.159374Q172.75313 36.940624 171.78438 37.3625Q170.81563 37.784374 169.59688 37.784374Q167.58125 37.784374 166.51875 36.940624Q165.45625 36.096874 165.15938 34.45625ZM181.87813 25.253124L181.87813 23.2375L183.64375 23.2375L183.64375 25.253124L181.87813 25.253124ZM181.87813 37.55L181.87813 27.175L183.64375 27.175L183.64375 37.55L181.87813 37.55ZM185.8625 37.55L185.8625 27.175L187.45625 27.175L187.45625 28.659374Q188.59688 26.940624 190.75313 26.940624Q191.69063 26.940624 192.47188 27.284374Q193.26875 27.6125 193.65938 28.159374Q194.05 28.70625 194.20625 29.45625Q194.3 29.95625 194.3 31.175L194.3 37.55L192.53438 37.55L192.53438 31.2375Q192.53438 30.159374 192.33125 29.628124Q192.12813 29.096874 191.59688 28.784374Q191.08125 28.471874 190.37813 28.471874Q189.25313 28.471874 188.44063 29.190624Q187.62813 29.89375 187.62813 31.878124L187.62813 37.55L185.8625 37.55ZM209.64375 36.26875Q208.65938 37.096874 207.75313 37.440624Q206.84688 37.784374 205.81563 37.784374Q204.1125 37.784374 203.19063 36.95625Q202.26875 36.1125 202.26875 34.815624Q202.26875 34.05 202.6125 33.425Q202.97188 32.8 203.53438 32.425Q204.09688 32.034374 204.8 31.83125Q205.31563 31.70625 206.3625 31.565624Q208.4875 31.315624 209.4875 30.971874Q209.50313 30.6125 209.50313 30.503124Q209.50313 29.440624 209.00313 28.9875Q208.33125 28.39375 207.00313 28.39375Q205.75313 28.39375 205.15938 28.83125Q204.58125 29.26875 204.3 30.378124L202.58125 30.14375Q202.81563 29.034374 203.34688 28.3625Q203.87813 27.675 204.89375 27.315624Q205.90938 26.940624 207.25313 26.940624Q208.58125 26.940624 209.40938 27.253124Q210.2375 27.565624 210.62813 28.05Q211.01875 28.51875 211.175 29.2375Q211.26875 29.690624 211.26875 30.8625L211.26875 33.20625Q211.26875 35.659374 211.37813 36.315624Q211.4875 36.95625 211.83125 37.55L209.9875 37.55Q209.72188 37.003124 209.64375 36.26875ZM209.4875 32.346874Q208.53438 32.7375 206.6125 33.003124Q205.53438 33.159374 205.08125 33.3625Q204.64375 33.55 204.39375 33.925Q204.14375 34.3 204.14375 34.76875Q204.14375 35.471874 204.675 35.940624Q205.20625 36.409374 206.2375 36.409374Q207.25313 36.409374 208.03438 35.971874Q208.83125 35.51875 209.20625 34.753124Q209.4875 34.14375 209.4875 32.9875L209.4875 32.346874ZM226.64375 33.753124L228.3625 33.971874Q228.08125 35.76875 226.90938 36.784374Q225.75313 37.784374 224.05 37.784374Q221.925 37.784374 220.62813 36.39375Q219.33125 35.003124 219.33125 32.409374Q219.33125 30.721874 219.87813 29.471874Q220.44063 28.20625 221.58125 27.58125Q222.72188 26.940624 224.06563 26.940624Q225.75313 26.940624 226.81563 27.8Q227.89375 28.659374 228.20625 30.221874L226.4875 30.4875Q226.25313 29.440624 225.62813 28.925Q225.00313 28.39375 224.12813 28.39375Q222.8 28.39375 221.97188 29.346874Q221.14375 30.3 221.14375 32.346874Q221.14375 34.440624 221.94063 35.39375Q222.7375 36.33125 224.03438 36.33125Q225.06563 36.33125 225.75313 35.70625Q226.45625 35.065624 226.64375 33.753124ZM236.64375 36.26875Q235.65938 37.096874 234.75313 37.440624Q233.84688 37.784374 232.81563 37.784374Q231.1125 37.784374 230.19063 36.95625Q229.26875 36.1125 229.26875 34.815624Q229.26875 34.05 229.6125 33.425Q229.97188 32.8 230.53438 32.425Q231.09688 32.034374 231.8 31.83125Q232.31563 31.70625 233.3625 31.565624Q235.4875 31.315624 236.4875 30.971874Q236.50313 30.6125 236.50313 30.503124Q236.50313 29.440624 236.00313 28.9875Q235.33125 28.39375 234.00313 28.39375Q232.75313 28.39375 232.15938 28.83125Q231.58125 29.26875 231.3 30.378124L229.58125 30.14375Q229.81563 29.034374 230.34688 28.3625Q230.87813 27.675 231.89375 27.315624Q232.90938 26.940624 234.25313 26.940624Q235.58125 26.940624 236.40938 27.253124Q237.2375 27.565624 237.62813 28.05Q238.01875 28.51875 238.175 29.2375Q238.26875 29.690624 238.26875 30.8625L238.26875 33.20625Q238.26875 35.659374 238.37813 36.315624Q238.4875 36.95625 238.83125 37.55L236.9875 37.55Q236.72188 37.003124 236.64375 36.26875ZM236.4875 32.346874Q235.53438 32.7375 233.6125 33.003124Q232.53438 33.159374 232.08125 33.3625Q231.64375 33.55 231.39375 33.925Q231.14375 34.3 231.14375 34.76875Q231.14375 35.471874 231.675 35.940624Q232.20625 36.409374 233.2375 36.409374Q234.25313 36.409374 235.03438 35.971874Q235.83125 35.51875 236.20625 34.753124Q236.4875 34.14375 236.4875 32.9875L236.4875 32.346874ZM240.8625 37.55L240.8625 27.175L242.45625 27.175L242.45625 28.659374Q243.59688 26.940624 245.75313 26.940624Q246.69063 26.940624 247.47188 27.284374Q248.26875 27.6125 248.65938 28.159374Q249.05 28.70625 249.20625 29.45625Q249.3 29.95625 249.3 31.175L249.3 37.55L247.53438 37.55L247.53438 31.2375Q247.53438 30.159374 247.33125 29.628124Q247.12813 29.096874 246.59688 28.784374Q246.08125 28.471874 245.37813 28.471874Q244.25313 28.471874 243.44063 29.190624Q242.62813 29.89375 242.62813 31.878124L242.62813 37.55L240.8625 37.55ZM258.59686 37.55L258.59686 36.2375Q257.6125 37.784374 255.69063 37.784374Q254.45625 37.784374 253.40938 37.096874Q252.37813 36.409374 251.8 35.190624Q251.2375 33.971874 251.2375 32.378124Q251.2375 30.815624 251.75313 29.55Q252.26875 28.284374 253.3 27.6125Q254.34688 26.940624 255.6125 26.940624Q256.55 26.940624 257.28436 27.346874Q258.01874 27.7375 258.4875 28.3625L258.4875 23.2375L260.22186 23.2375L260.22186 37.55L258.59686 37.55ZM253.03438 32.378124Q253.03438 34.3625 253.87813 35.346874Q254.72188 36.33125 255.8625 36.33125Q257.01874 36.33125 257.8156 35.39375Q258.6281 34.45625 258.6281 32.51875Q258.6281 30.39375 257.8 29.39375Q256.9875 28.39375 255.78438 28.39375Q254.6125 28.39375 253.81563 29.3625Q253.03438 30.315624 253.03438 32.378124ZM262.83124 37.55L262.83124 23.2375L264.58124 23.2375L264.58124 37.55L262.83124 37.55ZM273.97186 34.20625L275.78436 34.440624Q275.3625 36.01875 274.1906 36.909374Q273.03436 37.784374 271.22186 37.784374Q268.95624 37.784374 267.6125 36.39375Q266.28436 34.9875 266.28436 32.45625Q266.28436 29.83125 267.6281 28.39375Q268.97186 26.940624 271.1281 26.940624Q273.20624 26.940624 274.51874 28.3625Q275.84686 29.76875 275.84686 32.346874Q275.84686 32.503124 275.83124 32.815624L268.09686 32.815624Q268.1906 34.51875 269.0656 35.425Q269.9406 36.33125 271.2375 36.33125Q272.20624 36.33125 272.8781 35.83125Q273.5656 35.315624 273.97186 34.20625ZM268.1906 31.3625L273.9875 31.3625Q273.8781 30.065624 273.33124 29.409374Q272.4875 28.39375 271.14374 28.39375Q269.9406 28.39375 269.1125 29.20625Q268.28436 30.003124 268.1906 31.3625ZM277.15936 34.45625L278.90936 34.175Q279.05 35.221874 279.72186 35.784374Q280.39374 36.33125 281.59686 36.33125Q282.8 36.33125 283.3781 35.846874Q283.97186 35.346874 283.97186 34.690624Q283.97186 34.096874 283.45624 33.753124Q283.09686 33.51875 281.65936 33.159374Q279.72186 32.659374 278.97186 32.315624Q278.2375 31.95625 277.84686 31.33125Q277.45624 30.690624 277.45624 29.925Q277.45624 29.2375 277.76874 28.64375Q278.09686 28.05 278.64374 27.659374Q279.05 27.3625 279.7531 27.159374Q280.47186 26.940624 281.28436 26.940624Q282.5031 26.940624 283.425 27.3Q284.34686 27.64375 284.78436 28.253124Q285.22186 28.846874 285.39374 29.846874L283.675 30.08125Q283.55 29.284374 282.9875 28.846874Q282.425 28.39375 281.40936 28.39375Q280.1906 28.39375 279.675 28.8Q279.15936 29.190624 279.15936 29.721874Q279.15936 30.065624 279.3781 30.346874Q279.58124 30.628124 280.05 30.815624Q280.3156 30.909374 281.59686 31.253124Q283.47186 31.753124 284.20624 32.08125Q284.9406 32.39375 285.3625 33.003124Q285.78436 33.596874 285.78436 34.503124Q285.78436 35.378124 285.26874 36.159374Q284.7531 36.940624 283.78436 37.3625Q282.8156 37.784374 281.59686 37.784374Q279.58124 37.784374 278.51874 36.940624Q277.45624 36.096874 277.15936 34.45625ZM291.70624 35.971874L291.95624 37.534374Q291.22186 37.690624 290.6281 37.690624Q289.675 37.690624 289.14374 37.39375Q288.6281 37.08125 288.40936 36.596874Q288.1906 36.096874 288.1906 34.51875L288.1906 28.55L286.90936 28.55L286.90936 27.175L288.1906 27.175L288.1906 24.6125L289.9406 23.55L289.9406 27.175L291.70624 27.175L291.70624 28.55L289.9406 28.55L289.9406 34.6125Q289.9406 35.3625 290.03436 35.58125Q290.1281 35.784374 290.33124 35.925Q290.55 36.05 290.9406 36.05Q291.22186 36.05 291.70624 35.971874ZM293.8781 25.253124L293.8781 23.2375L295.64374 23.2375L295.64374 25.253124L293.8781 25.253124ZM293.8781 37.55L293.8781 27.175L295.64374 27.175L295.64374 37.55L293.8781 37.55ZM304.64374 33.753124L306.3625 33.971874Q306.08124 35.76875 304.90936 36.784374Q303.7531 37.784374 302.05 37.784374Q299.925 37.784374 298.6281 36.39375Q297.33124 35.003124 297.33124 32.409374Q297.33124 30.721874 297.8781 29.471874Q298.4406 28.20625 299.58124 27.58125Q300.72186 26.940624 302.0656 26.940624Q303.7531 26.940624 304.8156 27.8Q305.89374 28.659374 306.20624 30.221874L304.4875 30.4875Q304.2531 29.440624 303.6281 28.925Q303.0031 28.39375 302.1281 28.39375Q300.8 28.39375 299.97186 29.346874Q299.14374 30.3 299.14374 32.346874Q299.14374 34.440624 299.9406 35.39375Q300.7375 36.33125 302.03436 36.33125Q303.0656 36.33125 303.7531 35.70625Q304.45624 35.065624 304.64374 33.753124ZM307.8781 37.55L307.8781 23.2375L309.64374 23.2375L309.64374 31.39375L313.8 27.175L316.0656 27.175L312.1125 31.01875L316.47186 37.55L314.3 37.55L310.8781 32.253124L309.64374 33.440624L309.64374 37.55L307.8781 37.55ZM330.64374 33.753124L332.3625 33.971874Q332.08124 35.76875 330.90936 36.784374Q329.7531 37.784374 328.05 37.784374Q325.925 37.784374 324.6281 36.39375Q323.33124 35.003124 323.33124 32.409374Q323.33124 30.721874 323.8781 29.471874Q324.4406 28.20625 325.58124 27.58125Q326.72186 26.940624 328.0656 26.940624Q329.7531 26.940624 330.8156 27.8Q331.89374 28.659374 332.20624 30.221874L330.4875 30.4875Q330.2531 29.440624 329.6281 28.925Q329.0031 28.39375 328.1281 28.39375Q326.8 28.39375 325.97186 29.346874Q325.14374 30.3 325.14374 32.346874Q325.14374 34.440624 325.9406 35.39375Q326.7375 36.33125 328.03436 36.33125Q329.0656 36.33125 329.7531 35.70625Q330.45624 35.065624 330.64374 33.753124ZM333.8625 37.55L333.8625 23.2375L335.6281 23.2375L335.6281 28.3625Q336.8625 26.940624 338.7375 26.940624Q339.8781 26.940624 340.72186 27.39375Q341.58124 27.846874 341.9406 28.659374Q342.3156 29.45625 342.3156 30.971874L342.3156 37.55L340.5656 37.55L340.5656 30.971874Q340.5656 29.659374 339.9875 29.065624Q339.40936 28.45625 338.3781 28.45625Q337.59686 28.45625 336.89374 28.8625Q336.20624 29.26875 335.90936 29.971874Q335.6281 30.659374 335.6281 31.878124L335.6281 37.55L333.8625 37.55ZM351.64374 36.26875Q350.65936 37.096874 349.7531 37.440624Q348.84686 37.784374 347.8156 37.784374Q346.1125 37.784374 345.1906 36.95625Q344.26874 36.1125 344.26874 34.815624Q344.26874 34.05 344.6125 33.425Q344.97186 32.8 345.53436 32.425Q346.09686 32.034374 346.8 31.83125Q347.3156 31.70625 348.3625 31.565624Q350.4875 31.315624 351.4875 30.971874Q351.5031 30.6125 351.5031 30.503124Q351.5031 29.440624 351.0031 28.9875Q350.33124 28.39375 349.0031 28.39375Q347.7531 28.39375 347.15936 28.83125Q346.58124 29.26875 346.3 30.378124L344.58124 30.14375Q344.8156 29.034374 345.34686 28.3625Q345.8781 27.675 346.89374 27.315624Q347.90936 26.940624 349.2531 26.940624Q350.58124 26.940624 351.40936 27.253124Q352.2375 27.565624 352.6281 28.05Q353.01874 28.51875 353.175 29.2375Q353.26874 29.690624 353.26874 30.8625L353.26874 33.20625Q353.26874 35.659374 353.3781 36.315624Q353.4875 36.95625 353.83124 37.55L351.9875 37.55Q351.72186 37.003124 351.64374 36.26875ZM351.4875 32.346874Q350.53436 32.7375 348.6125 33.003124Q347.53436 33.159374 347.08124 33.3625Q346.64374 33.55 346.39374 33.925Q346.14374 34.3 346.14374 34.76875Q346.14374 35.471874 346.675 35.940624Q347.20624 36.409374 348.2375 36.409374Q349.2531 36.409374 350.03436 35.971874Q350.83124 35.51875 351.20624 34.753124Q351.4875 34.14375 351.4875 32.9875L351.4875 32.346874ZM355.84686 37.55L355.84686 27.175L357.425 27.175L357.425 28.753124Q358.03436 27.64375 358.55 27.3Q359.0656 26.940624 359.675 26.940624Q360.5656 26.940624 361.4875 27.503124L360.8781 29.14375Q360.2375 28.753124 359.59686 28.753124Q359.01874 28.753124 358.55 29.1125Q358.09686 29.45625 357.89374 30.065624Q357.6125 31.003124 357.6125 32.1125L357.6125 37.55L355.84686 37.55ZM366.70624 35.971874L366.95624 37.534374Q366.22186 37.690624 365.6281 37.690624Q364.675 37.690624 364.14374 37.39375Q363.6281 37.08125 363.40936 36.596874Q363.1906 36.096874 363.1906 34.51875L363.1906 28.55L361.90936 28.55L361.90936 27.175L363.1906 27.175L363.1906 24.6125L364.9406 23.55L364.9406 27.175L366.70624 27.175L366.70624 28.55L364.9406 28.55L364.9406 34.6125Q364.9406 35.3625 365.03436 35.58125Q365.1281 35.784374 365.33124 35.925Q365.55 36.05 365.9406 36.05Q366.22186 36.05 366.70624 35.971874Z" fill-rule="nonzero"/></svg>