<svg version="1.1" viewBox="0.0 0.0 600.0 371.0" fill="none" stroke="none" stroke-linecap="square" stroke-miterlimit="10" width="600" height="371" xmlns:xlink="http://www.w3.org/1999/xlink" xmlns="http://www.w3.org/2000/svg"><path fill="#ffffff" d="M0 0L600.0 0L600.0 371.0L0 371.0L0 0Z" fill-rule="nonzero"/><path stroke="#333333" stroke-width="1.0" stroke-linecap="butt" d="M45.5 332.5L581.5 332.5" fill-rule="nonzero"/><path stroke="#cccccc" stroke-width="1.0" stroke-linecap="butt" d="M45.5 242.5L581.5 242.5" fill-rule="nonzero"/><path stroke="#cccccc" stroke-width="1.0" stroke-linecap="butt" d="M45.5 152.5L581.5 152.5" fill-rule="nonzero"/><path stroke="#cccccc" stroke-width="1.0" stroke-linecap="butt" d="M45.5 61.5L581.5 61.5" fill-rule="nonzero"/><clipPath id="id_0"><path d="M45.55 61.916668L581.45 61.916668L581.45 332.45L45.55 332.45L45.55 61.916668Z" clip-rule="nonzero"/></clipPath><path stroke="#4285f4" stroke-width="2.0" stroke-linecap="butt" clip-path="url(#id_0)" d="M101.53955 242.27222L205.52016 242.27222" fill-rule="nonzero"/><path stroke="#4285f4" stroke-width="2.0" stroke-linecap="butt" clip-path="url(#id_0)" d="M101.53955 332.45L101.53955 242.27222" fill-rule="nonzero"/><path stroke="#4285f4" stroke-width="2.0" stroke-linecap="butt" clip-path="url(#id_0)" d="M205.52016 242.27222L205.52016 332.45" fill-rule="nonzero"/><path stroke="#4285f4" stroke-width="2.0" stroke-linecap="butt" clip-path="url(#id_0)" d="M205.52016 332.45L101.53955 332.45" fill-rule="nonzero"/><path stroke="#4285f4" stroke-width="2.0" stroke-linecap="butt" clip-path="url(#id_0)" d="M261.5097 242.27222L365.4903 242.27222" fill-rule="nonzero"/><path stroke="#4285f4" stroke-width="2.0" stroke-linecap="butt" clip-path="url(#id_0)" d="M261.5097 332.45L261.5097 242.27222" fill-rule="nonzero"/><path stroke="#4285f4" stroke-width="2.0" stroke-linecap="butt" clip-path="url(#id_0)" d="M365.4903 242.27222L365.4903 332.45" fill-rule="nonzero"/><path stroke="#4285f4" stroke-width="2.0" stroke-linecap="butt" clip-path="url(#id_0)" d="M365.4903 332.45L261.5097 332.45" fill-rule="nonzero"/><path stroke="#4285f4" stroke-width="2.0" stroke-linecap="butt" clip-path="url(#id_0)" d="M473.47015 61.916668L473.47015 152.09445" fill-rule="nonzero"/><path stroke="#4285f4" stroke-width="2.0" stroke-linecap="butt" clip-path="url(#id_0)" d="M421.47986 152.09445L525.46045 152.09445" fill-rule="nonzero"/><path stroke="#4285f4" stroke-width="2.0" stroke-linecap="butt" clip-path="url(#id_0)" d="M421.47986 332.45L421.47986 152.09445" fill-rule="nonzero"/><path stroke="#4285f4" stroke-width="2.0" stroke-linecap="butt" clip-path="url(#id_0)" d="M525.46045 152.09445L525.46045 332.45" fill-rule="nonzero"/><path stroke="#4285f4" stroke-width="2.0" stroke-linecap="butt" clip-path="url(#id_0)" d="M525.46045 332.45L421.47986 332.45" fill-rule="nonzero"/><path fill="#000000" d="M33.05 332.21564Q33.05 330.6844 33.3625 329.7625Q33.675 328.825 34.284374 328.325Q34.909374 327.825 35.846874 327.825Q36.534374 327.825 37.05 328.10626Q37.58125 328.3875 37.925 328.91876Q38.26875 329.4344 38.45625 330.1844Q38.64375 330.9344 38.64375 332.21564Q38.64375 333.73126 38.33125 334.65314Q38.034374 335.575 37.409374 336.09064Q36.8 336.59064 35.846874 336.59064Q34.6125 336.59064 33.89375 335.7Q33.05 334.6375 33.05 332.21564ZM34.128124 332.21564Q34.128124 334.325 34.628124 335.02814Q35.128124 335.73126 35.846874 335.73126Q36.58125 335.73126 37.065624 335.02814Q37.565624 334.325 37.565624 332.21564Q37.565624 330.09064 37.065624 329.40314Q36.58125 328.7 35.83125 328.7Q35.1125 328.7 34.675 329.3094Q34.128124 330.09064 34.128124 332.21564Z" fill-rule="nonzero"/><path fill="#000000" d="M37.01875 246.27222L35.971874 246.27222L35.971874 239.55347Q35.58125 239.91284 34.95625 240.28784Q34.346874 240.64722 33.8625 240.81909L33.8625 239.80347Q34.7375 239.38159 35.39375 238.80347Q36.065624 238.20972 36.346874 237.64722L37.01875 237.64722L37.01875 246.27222Z" fill-rule="nonzero"/><path fill="#000000" d="M38.596874 155.07883L38.596874 156.09445L32.909374 156.09445Q32.909374 155.71945 33.034374 155.36008Q33.253124 154.78195 33.721874 154.21945Q34.20625 153.65695 35.1125 152.92258Q36.51875 151.76633 37.003124 151.09445Q37.503124 150.42258 37.503124 149.82883Q37.503124 149.20383 37.05 148.78195Q36.596874 148.34445 35.878124 148.34445Q35.1125 148.34445 34.659374 148.79758Q34.20625 149.2507 34.190624 150.0632L33.1125 149.95383Q33.221874 148.73508 33.940624 148.11008Q34.675 147.46945 35.909374 147.46945Q37.14375 147.46945 37.8625 148.15695Q38.58125 148.84445 38.58125 149.86008Q38.58125 150.3757 38.3625 150.8757Q38.159374 151.36008 37.659374 151.92258Q37.175 152.46945 36.05 153.42258Q35.096874 154.21945 34.815624 154.51633Q34.55 154.79758 34.378124 155.07883L38.596874 155.07883Z" fill-rule="nonzero"/><path fill="#000000" d="M33.05 63.65104L34.1125 63.510414Q34.284374 64.40104 34.721874 64.80729Q35.159374 65.197914 35.784374 65.197914Q36.534374 65.197914 37.05 64.68229Q37.565624 64.166664 37.565624 63.40104Q37.565624 62.68229 37.08125 62.21354Q36.6125 61.729164 35.878124 61.729164Q35.58125 61.729164 35.128124 61.854164L35.253124 60.916664Q35.3625 60.93229 35.425 60.93229Q36.096874 60.93229 36.628124 60.58854Q37.175 60.229164 37.175 59.49479Q37.175 58.916664 36.784374 58.541664Q36.39375 58.15104 35.76875 58.15104Q35.159374 58.15104 34.7375 58.541664Q34.33125 58.93229 34.221874 59.697914L33.159374 59.510414Q33.346874 58.46354 34.034374 57.885414Q34.721874 57.291664 35.7375 57.291664Q36.440624 57.291664 37.034374 57.604164Q37.628124 57.90104 37.940624 58.416664Q38.253124 58.93229 38.253124 59.52604Q38.253124 60.072914 37.95625 60.541664Q37.659374 60.99479 37.08125 61.260414Q37.83125 61.43229 38.253124 61.99479Q38.675 62.541664 38.675 63.385414Q38.675 64.510414 37.846874 65.291664Q37.034374 66.072914 35.784374 66.072914Q34.659374 66.072914 33.909374 65.40104Q33.159374 64.71354 33.05 63.65104Z" fill-rule="nonzero"/><path fill="#000000" d="M129.45172 349.45L129.45172 340.85626L132.42047 340.85626Q133.42047 340.85626 133.95172 340.98126Q134.6861 341.15314 135.20172 341.59064Q135.88922 342.16876 136.21735 343.075Q136.5611 343.96564 136.5611 345.10626Q136.5611 346.09064 136.32672 346.84064Q136.10797 347.59064 135.7486 348.09064Q135.38922 348.59064 134.95172 348.8719Q134.52985 349.15314 133.9361 349.3094Q133.34235 349.45 132.5611 349.45L129.45172 349.45ZM130.59235 348.4344L132.42047 348.4344Q133.27985 348.4344 133.76422 348.27814Q134.2486 348.1219 134.52985 347.825Q134.9361 347.4344 135.15485 346.7469Q135.38922 346.0594 135.38922 345.09064Q135.38922 343.7469 134.9361 343.02814Q134.4986 342.29376 133.8736 342.04376Q133.40485 341.8719 132.40485 341.8719L130.59235 341.8719L130.59235 348.4344ZM142.57672 347.45L143.67047 347.575Q143.42047 348.52814 142.71735 349.0594Q142.01422 349.59064 140.9361 349.59064Q139.57672 349.59064 138.76422 348.7469Q137.96735 347.90314 137.96735 346.3875Q137.96735 344.825 138.77985 343.96564Q139.59235 343.09064 140.8736 343.09064Q142.1236 343.09064 142.90485 343.9344Q143.70172 344.77814 143.70172 346.325Q143.70172 346.41876 143.70172 346.60626L139.0611 346.60626Q139.1236 347.6375 139.63922 348.1844Q140.15485 348.71564 140.9361 348.71564Q141.51422 348.71564 141.92047 348.41876Q142.34235 348.10626 142.57672 347.45ZM139.1236 345.7469L142.59235 345.7469Q142.52985 344.95 142.20172 344.5594Q141.6861 343.95 140.88922 343.95Q140.15485 343.95 139.65485 344.4344Q139.17047 344.91876 139.1236 345.7469ZM145.32672 349.45L145.32672 343.23126L146.26422 343.23126L146.26422 344.10626Q146.95172 343.09064 148.2486 343.09064Q148.8111 343.09064 149.27985 343.29376Q149.76422 343.4969 149.9986 343.825Q150.23297 344.15314 150.32672 344.59064Q150.3736 344.8875 150.3736 345.6219L150.3736 349.45L149.32672 349.45L149.32672 345.66876Q149.32672 345.0125 149.20172 344.7Q149.07672 344.3875 148.76422 344.2Q148.45172 343.9969 148.02985 343.9969Q147.35797 343.9969 146.85797 344.4344Q146.3736 344.85626 146.3736 346.04376L146.3736 349.45L145.32672 349.45ZM152.32672 349.45L152.32672 343.23126L153.26422 343.23126L153.26422 344.10626Q153.5611 343.6375 154.04547 343.3719Q154.52985 343.09064 155.15485 343.09064Q155.84235 343.09064 156.27985 343.3719Q156.73297 343.65314 156.90485 344.16876Q157.65485 343.09064 158.82672 343.09064Q159.76422 343.09064 160.2486 343.60626Q160.7486 344.10626 160.7486 345.1844L160.7486 349.45L159.70172 349.45L159.70172 345.52814Q159.70172 344.90314 159.59235 344.6219Q159.4986 344.34064 159.23297 344.16876Q158.96735 343.9969 158.59235 343.9969Q157.9361 343.9969 157.4986 344.4344Q157.07672 344.8719 157.07672 345.84064L157.07672 349.45L156.01422 349.45L156.01422 345.40314Q156.01422 344.7 155.7486 344.35626Q155.4986 343.9969 154.92047 343.9969Q154.46735 343.9969 154.09235 344.23126Q153.71735 344.46564 153.54547 344.91876Q153.3736 345.3719 153.3736 346.21564L153.3736 349.45L152.32672 349.45ZM166.38922 348.6844Q165.79547 349.1844 165.2486 349.3875Q164.71735 349.59064 164.09235 349.59064Q163.0611 349.59064 162.51422 349.09064Q161.96735 348.59064 161.96735 347.8094Q161.96735 347.35626 162.17047 346.98126Q162.3736 346.59064 162.71735 346.3719Q163.0611 346.1375 163.48297 346.02814Q163.77985 345.9344 164.42047 345.85626Q165.6861 345.71564 166.29547 345.4969Q166.29547 345.27814 166.29547 345.23126Q166.29547 344.575 165.9986 344.3094Q165.59235 343.96564 164.79547 343.96564Q164.0611 343.96564 163.70172 344.23126Q163.34235 344.48126 163.17047 345.1375L162.13922 344.9969Q162.27985 344.34064 162.60797 343.9344Q162.9361 343.52814 163.54547 343.3094Q164.15485 343.09064 164.95172 343.09064Q165.7486 343.09064 166.2486 343.27814Q166.7486 343.46564 166.98297 343.7469Q167.21735 344.02814 167.3111 344.46564Q167.35797 344.73126 167.35797 345.4344L167.35797 346.84064Q167.35797 348.3094 167.42047 348.7Q167.4986 349.09064 167.70172 349.45L166.59235 349.45Q166.4361 349.1219 166.38922 348.6844ZM166.29547 346.325Q165.71735 346.5594 164.57672 346.73126Q163.92047 346.825 163.65485 346.95Q163.38922 347.0594 163.23297 347.27814Q163.09235 347.4969 163.09235 347.77814Q163.09235 348.2 163.40485 348.48126Q163.73297 348.7625 164.34235 348.7625Q164.95172 348.7625 165.42047 348.4969Q165.90485 348.23126 166.1236 347.7625Q166.29547 347.40314 166.29547 346.71564L166.29547 346.325ZM169.3111 349.45L169.3111 343.23126L170.26422 343.23126L170.26422 344.16876Q170.6236 343.5125 170.92047 343.3094Q171.23297 343.09064 171.60797 343.09064Q172.13922 343.09064 172.6861 343.41876L172.32672 344.40314Q171.9361 344.16876 171.5611 344.16876Q171.20172 344.16876 170.92047 344.3875Q170.65485 344.59064 170.54547 344.96564Q170.35797 345.52814 170.35797 346.1844L170.35797 349.45L169.3111 349.45ZM173.32672 349.45L173.32672 340.85626L174.38922 340.85626L174.38922 345.7625L176.8736 343.23126L178.2486 343.23126L175.85797 345.52814L178.48297 349.45L177.1861 349.45L175.1236 346.2625L174.38922 346.98126L174.38922 349.45L173.32672 349.45Z" fill-rule="nonzero"/><path fill="#000000" d="M293.98438 349.45L293.98438 340.85626L299.78125 340.85626L299.78125 341.8719L295.125 341.8719L295.125 344.52814L299.15625 344.52814L299.15625 345.54376L295.125 345.54376L295.125 349.45L293.98438 349.45ZM300.79688 342.075L300.79688 340.85626L301.85938 340.85626L301.85938 342.075L300.79688 342.075ZM300.79688 349.45L300.79688 343.23126L301.85938 343.23126L301.85938 349.45L300.79688 349.45ZM303.79688 349.45L303.79688 343.23126L304.73438 343.23126L304.73438 344.10626Q305.42188 343.09064 306.71875 343.09064Q307.28125 343.09064 307.75 343.29376Q308.23438 343.4969 308.46875 343.825Q308.70312 344.15314 308.79688 344.59064Q308.84375 344.8875 308.84375 345.6219L308.84375 349.45L307.79688 349.45L307.79688 345.66876Q307.79688 345.0125 307.67188 344.7Q307.54688 344.3875 307.23438 344.2Q306.92188 343.9969 306.5 343.9969Q305.82812 343.9969 305.32812 344.4344Q304.84375 344.85626 304.84375 346.04376L304.84375 349.45L303.79688 349.45ZM310.76562 349.45L310.76562 340.85626L311.82812 340.85626L311.82812 349.45L310.76562 349.45ZM317.85938 348.6844Q317.26562 349.1844 316.71875 349.3875Q316.1875 349.59064 315.5625 349.59064Q314.53125 349.59064 313.98438 349.09064Q313.4375 348.59064 313.4375 347.8094Q313.4375 347.35626 313.64062 346.98126Q313.84375 346.59064 314.1875 346.3719Q314.53125 346.1375 314.95312 346.02814Q315.25 345.9344 315.89062 345.85626Q317.15625 345.71564 317.76562 345.4969Q317.76562 345.27814 317.76562 345.23126Q317.76562 344.575 317.46875 344.3094Q317.0625 343.96564 316.26562 343.96564Q315.53125 343.96564 315.17188 344.23126Q314.8125 344.48126 314.64062 345.1375L313.60938 344.9969Q313.75 344.34064 314.07812 343.9344Q314.40625 343.52814 315.01562 343.3094Q315.625 343.09064 316.42188 343.09064Q317.21875 343.09064 317.71875 343.27814Q318.21875 343.46564 318.45312 343.7469Q318.6875 344.02814 318.78125 344.46564Q318.82812 344.73126 318.82812 345.4344L318.82812 346.84064Q318.82812 348.3094 318.89062 348.7Q318.96875 349.09064 319.17188 349.45L318.0625 349.45Q317.90625 349.1219 317.85938 348.6844ZM317.76562 346.325Q317.1875 346.5594 316.04688 346.73126Q315.39062 346.825 315.125 346.95Q314.85938 347.0594 314.70312 347.27814Q314.5625 347.4969 314.5625 347.77814Q314.5625 348.2 314.875 348.48126Q315.20312 348.7625 315.8125 348.7625Q316.42188 348.7625 316.89062 348.4969Q317.375 348.23126 317.59375 347.7625Q317.76562 347.40314 317.76562 346.71564L317.76562 346.325ZM320.79688 349.45L320.79688 343.23126L321.73438 343.23126L321.73438 344.10626Q322.42188 343.09064 323.71875 343.09064Q324.28125 343.09064 324.75 343.29376Q325.23438 343.4969 325.46875 343.825Q325.70312 344.15314 325.79688 344.59064Q325.84375 344.8875 325.84375 345.6219L325.84375 349.45L324.79688 349.45L324.79688 345.66876Q324.79688 345.0125 324.67188 344.7Q324.54688 344.3875 324.23438 344.2Q323.92188 343.9969 323.5 343.9969Q322.82812 343.9969 322.32812 344.4344Q321.84375 344.85626 321.84375 346.04376L321.84375 349.45L320.79688 349.45ZM331.82812 349.45L331.82812 348.66876Q331.23438 349.59064 330.09375 349.59064Q329.34375 349.59064 328.71875 349.1844Q328.09375 348.7625 327.75 348.02814Q327.40625 347.29376 327.40625 346.34064Q327.40625 345.41876 327.71875 344.65314Q328.03125 343.8875 328.65625 343.4969Q329.28125 343.09064 330.04688 343.09064Q330.60938 343.09064 331.04688 343.325Q331.48438 343.5594 331.76562 343.9344L331.76562 340.85626L332.8125 340.85626L332.8125 349.45L331.82812 349.45ZM328.5 346.34064Q328.5 347.54376 329.0 348.1375Q329.5 348.71564 330.1875 348.71564Q330.875 348.71564 331.35938 348.15314Q331.84375 347.59064 331.84375 346.4344Q331.84375 345.15314 331.34375 344.5594Q330.85938 343.96564 330.14062 343.96564Q329.4375 343.96564 328.96875 344.54376Q328.5 345.10626 328.5 346.34064Z" fill-rule="nonzero"/><path fill="#000000" d="M453.39203 349.45L453.39203 340.85626L454.54828 340.85626L459.0639 347.60626L459.0639 340.85626L460.15765 340.85626L460.15765 349.45L458.98578 349.45L454.47015 342.7L454.47015 349.45L453.39203 349.45ZM461.8764 346.34064Q461.8764 344.60626 462.82953 343.77814Q463.6264 343.09064 464.78265 343.09064Q466.0639 343.09064 466.8764 343.9344Q467.70453 344.7625 467.70453 346.2469Q467.70453 347.45 467.34515 348.1375Q466.98578 348.825 466.28265 349.21564Q465.59515 349.59064 464.78265 349.59064Q463.48578 349.59064 462.67328 348.7625Q461.8764 347.91876 461.8764 346.34064ZM462.95453 346.34064Q462.95453 347.52814 463.47015 348.1219Q464.0014 348.71564 464.78265 348.71564Q465.57953 348.71564 466.09515 348.1219Q466.61078 347.52814 466.61078 346.3094Q466.61078 345.15314 466.07953 344.5594Q465.5639 343.96564 464.78265 343.96564Q464.0014 343.96564 463.47015 344.5594Q462.95453 345.1375 462.95453 346.34064ZM469.2514 349.45L469.2514 343.23126L470.20453 343.23126L470.20453 344.16876Q470.5639 343.5125 470.86078 343.3094Q471.17328 343.09064 471.54828 343.09064Q472.07953 343.09064 472.6264 343.41876L472.26703 344.40314Q471.8764 344.16876 471.5014 344.16876Q471.14203 344.16876 470.86078 344.3875Q470.59515 344.59064 470.48578 344.96564Q470.29828 345.52814 470.29828 346.1844L470.29828 349.45L469.2514 349.45ZM474.40765 349.45L472.5014 343.23126L473.59515 343.23126L474.57953 346.825L474.95453 348.15314Q474.98578 348.0594 475.28265 346.8719L476.26703 343.23126L477.34515 343.23126L478.28265 346.84064L478.59515 348.02814L478.95453 346.825L480.01703 343.23126L481.04828 343.23126L479.09515 349.45L478.0014 349.45L477.01703 345.71564L476.76703 344.66876L475.51703 349.45L474.40765 349.45ZM486.32953 348.6844Q485.73578 349.1844 485.1889 349.3875Q484.65765 349.59064 484.03265 349.59064Q483.0014 349.59064 482.45453 349.09064Q481.90765 348.59064 481.90765 347.8094Q481.90765 347.35626 482.11078 346.98126Q482.3139 346.59064 482.65765 346.3719Q483.0014 346.1375 483.42328 346.02814Q483.72015 345.9344 484.36078 345.85626Q485.6264 345.71564 486.23578 345.4969Q486.23578 345.27814 486.23578 345.23126Q486.23578 344.575 485.9389 344.3094Q485.53265 343.96564 484.73578 343.96564Q484.0014 343.96564 483.64203 344.23126Q483.28265 344.48126 483.11078 345.1375L482.07953 344.9969Q482.22015 344.34064 482.54828 343.9344Q482.8764 343.52814 483.48578 343.3094Q484.09515 343.09064 484.89203 343.09064Q485.6889 343.09064 486.1889 343.27814Q486.6889 343.46564 486.92328 343.7469Q487.15765 344.02814 487.2514 344.46564Q487.29828 344.73126 487.29828 345.4344L487.29828 346.84064Q487.29828 348.3094 487.36078 348.7Q487.4389 349.09064 487.64203 349.45L486.53265 349.45Q486.3764 349.1219 486.32953 348.6844ZM486.23578 346.325Q485.65765 346.5594 484.51703 346.73126Q483.86078 346.825 483.59515 346.95Q483.32953 347.0594 483.17328 347.27814Q483.03265 347.4969 483.03265 347.77814Q483.03265 348.2 483.34515 348.48126Q483.67328 348.7625 484.28265 348.7625Q484.89203 348.7625 485.36078 348.4969Q485.84515 348.23126 486.0639 347.7625Q486.23578 347.40314 486.23578 346.71564L486.23578 346.325ZM489.22015 351.84064L489.09515 350.85626Q489.4389 350.95 489.70453 350.95Q490.04828 350.95 490.2514 350.825Q490.47015 350.71564 490.61078 350.5125Q490.70453 350.34064 490.9389 349.71564Q490.95453 349.6375 491.03265 349.46564L488.65765 343.23126L489.79828 343.23126L491.09515 346.825Q491.34515 347.5125 491.54828 348.27814Q491.73578 347.54376 491.98578 346.85626L493.3139 343.23126L494.36078 343.23126L492.0014 349.5594Q491.61078 350.575 491.40765 350.96564Q491.1264 351.4969 490.7514 351.73126Q490.39203 351.98126 489.89203 351.98126Q489.59515 351.98126 489.22015 351.84064Z" fill-rule="nonzero"/><path fill="#757575" d="M20.190624 37.55L20.190624 23.2375L29.846874 23.2375L29.846874 24.925L22.08125 24.925L22.08125 29.3625L28.8 29.3625L28.8 31.05L22.08125 31.05L22.08125 37.55L20.190624 37.55ZM38.971874 34.20625L40.784374 34.440624Q40.3625 36.01875 39.190624 36.909374Q38.034374 37.784374 36.221874 37.784374Q33.95625 37.784374 32.6125 36.39375Q31.284374 34.9875 31.284374 32.45625Q31.284374 29.83125 32.628124 28.39375Q33.971874 26.940624 36.128124 26.940624Q38.20625 26.940624 39.51875 28.3625Q40.846874 29.76875 40.846874 32.346874Q40.846874 32.503124 40.83125 32.815624L33.096874 32.815624Q33.190624 34.51875 34.065624 35.425Q34.940624 36.33125 36.2375 36.33125Q37.20625 36.33125 37.878124 35.83125Q38.565624 35.315624 38.971874 34.20625ZM33.190624 31.3625L38.9875 31.3625Q38.878124 30.065624 38.33125 29.409374Q37.4875 28.39375 36.14375 28.39375Q34.940624 28.39375 34.1125 29.20625Q33.284374 30.003124 33.190624 31.3625ZM44.4875 37.55L42.8625 37.55L42.8625 23.2375L44.6125 23.2375L44.6125 28.346874Q45.7375 26.940624 47.45625 26.940624Q48.409374 26.940624 49.26875 27.33125Q50.128124 27.721874 50.675 28.425Q51.221874 29.1125 51.534374 30.096874Q51.846874 31.08125 51.846874 32.20625Q51.846874 34.878124 50.534374 36.33125Q49.221874 37.784374 47.378124 37.784374Q45.534374 37.784374 44.4875 36.253124L44.4875 37.55ZM44.471874 32.284374Q44.471874 34.14375 44.971874 34.9875Q45.815624 36.33125 47.221874 36.33125Q48.378124 36.33125 49.20625 35.33125Q50.05 34.33125 50.05 32.346874Q50.05 30.315624 49.2375 29.3625Q48.440624 28.39375 47.3 28.39375Q46.14375 28.39375 45.3 29.39375Q44.471874 30.39375 44.471874 32.284374ZM53.846874 37.55L53.846874 27.175L55.425 27.175L55.425 28.753124Q56.034374 27.64375 56.55 27.3Q57.065624 26.940624 57.675 26.940624Q58.565624 26.940624 59.4875 27.503124L58.878124 29.14375Q58.2375 28.753124 57.596874 28.753124Q57.01875 28.753124 56.55 29.1125Q56.096874 29.45625 55.89375 30.065624Q55.6125 31.003124 55.6125 32.1125L55.6125 37.55L53.846874 37.55ZM67.65938 37.55L67.65938 36.01875Q66.45625 37.784374 64.37813 37.784374Q63.45625 37.784374 62.659374 37.440624Q61.8625 37.08125 61.471874 36.55Q61.096874 36.01875 60.940624 35.2375Q60.83125 34.721874 60.83125 33.596874L60.83125 27.175L62.58125 27.175L62.58125 32.925Q62.58125 34.3 62.690624 34.784374Q62.8625 35.471874 63.39375 35.878124Q63.940624 36.26875 64.72188 36.26875Q65.51875 36.26875 66.20625 35.8625Q66.90938 35.45625 67.19063 34.76875Q67.4875 34.065624 67.4875 32.7375L67.4875 27.175L69.2375 27.175L69.2375 37.55L67.65938 37.55ZM78.64375 36.26875Q77.65938 37.096874 76.75313 37.440624Q75.84688 37.784374 74.81563 37.784374Q73.1125 37.784374 72.19063 36.95625Q71.26875 36.1125 71.26875 34.815624Q71.26875 34.05 71.6125 33.425Q71.97188 32.8 72.53438 32.425Q73.09688 32.034374 73.8 31.83125Q74.31563 31.70625 75.3625 31.565624Q77.4875 31.315624 78.4875 30.971874Q78.50313 30.6125 78.50313 30.503124Q78.50313 29.440624 78.00313 28.9875Q77.33125 28.39375 76.00313 28.39375Q74.75313 28.39375 74.15938 28.83125Q73.58125 29.26875 73.3 30.378124L71.58125 30.14375Q71.81563 29.034374 72.34688 28.3625Q72.87813 27.675 73.89375 27.315624Q74.90938 26.940624 76.25313 26.940624Q77.58125 26.940624 78.40938 27.253124Q79.2375 27.565624 79.62813 28.05Q80.01875 28.51875 80.175 29.2375Q80.26875 29.690624 80.26875 30.8625L80.26875 33.20625Q80.26875 35.659374 80.37813 36.315624Q80.4875 36.95625 80.83125 37.55L78.9875 37.55Q78.72188 37.003124 78.64375 36.26875ZM78.4875 32.346874Q77.53438 32.7375 75.6125 33.003124Q74.53438 33.159374 74.08125 33.3625Q73.64375 33.55 73.39375 33.925Q73.14375 34.3 73.14375 34.76875Q73.14375 35.471874 73.675 35.940624Q74.20625 36.409374 75.2375 36.409374Q76.25313 36.409374 77.03438 35.971874Q77.83125 35.51875 78.20625 34.753124Q78.4875 34.14375 78.4875 32.9875L78.4875 32.346874ZM82.84688 37.55L82.84688 27.175L84.425 27.175L84.425 28.753124Q85.03438 27.64375 85.55 27.3Q86.06563 26.940624 86.675 26.940624Q87.56563 26.940624 88.4875 27.503124L87.87813 29.14375Q87.2375 28.753124 86.59688 28.753124Q86.01875 28.753124 85.55 29.1125Q85.09688 29.45625 84.89375 30.065624Q84.6125 31.003124 84.6125 32.1125L84.6125 37.55L82.84688 37.55ZM89.78438 41.55L89.59688 39.89375Q90.175 40.05 90.59688 40.05Q91.19063 40.05 91.53438 39.846874Q91.89375 39.659374 92.1125 39.315624Q92.28438 39.05 92.65938 38.003124Q92.70625 37.846874 92.81563 37.565624L88.87813 27.175L90.76875 27.175L92.925 33.190624Q93.34688 34.33125 93.675 35.58125Q93.9875 34.378124 94.39375 33.221874L96.6125 27.175L98.37813 27.175L94.425 37.721874Q93.8 39.440624 93.44063 40.08125Q92.97188 40.95625 92.3625 41.346874Q91.76875 41.753124 90.925 41.753124Q90.40938 41.753124 89.78438 41.55ZM112.64375 33.753124L114.3625 33.971874Q114.08125 35.76875 112.90938 36.784374Q111.75313 37.784374 110.05 37.784374Q107.925 37.784374 106.62813 36.39375Q105.33125 35.003124 105.33125 32.409374Q105.33125 30.721874 105.87813 29.471874Q106.44063 28.20625 107.58125 27.58125Q108.72188 26.940624 110.06563 26.940624Q111.75313 26.940624 112.81563 27.8Q113.89375 28.659374 114.20625 30.221874L112.4875 30.4875Q112.25313 29.440624 111.62813 28.925Q111.00313 28.39375 110.12813 28.39375Q108.8 28.39375 107.97188 29.346874Q107.14375 30.3 107.14375 32.346874Q107.14375 34.440624 107.94063 35.39375Q108.7375 36.33125 110.03438 36.33125Q111.06563 36.33125 111.75313 35.70625Q112.45625 35.065624 112.64375 33.753124ZM122.64375 36.26875Q121.65938 37.096874 120.75313 37.440624Q119.84688 37.784374 118.81563 37.784374Q117.1125 37.784374 116.19063 36.95625Q115.26875 36.1125 115.26875 34.815624Q115.26875 34.05 115.6125 33.425Q115.97188 32.8 116.53438 32.425Q117.09688 32.034374 117.8 31.83125Q118.31563 31.70625 119.3625 31.565624Q121.4875 31.315624 122.4875 30.971874Q122.50313 30.6125 122.50313 30.503124Q122.50313 29.440624 122.00313 28.9875Q121.33125 28.39375 120.00313 28.39375Q118.75313 28.39375 118.15938 28.83125Q117.58125 29.26875 117.3 30.378124L115.58125 30.14375Q115.81563 29.034374 116.34688 28.3625Q116.87813 27.675 117.89375 27.315624Q118.90938 26.940624 120.25313 26.940624Q121.58125 26.940624 122.40938 27.253124Q123.2375 27.565624 123.62813 28.05Q124.01875 28.51875 124.175 29.2375Q124.26875 29.690624 124.26875 30.8625L124.26875 33.20625Q124.26875 35.659374 124.37813 36.315624Q124.4875 36.95625 124.83125 37.55L122.9875 37.55Q122.72188 37.003124 122.64375 36.26875ZM122.4875 32.346874Q121.53438 32.7375 119.6125 33.003124Q118.53438 33.159374 118.08125 33.3625Q117.64375 33.55 117.39375 33.925Q117.14375 34.3 117.14375 34.76875Q117.14375 35.471874 117.675 35.940624Q118.20625 36.409374 119.2375 36.409374Q120.25313 36.409374 121.03438 35.971874Q121.83125 35.51875 122.20625 34.753124Q122.4875 34.14375 122.4875 32.9875L122.4875 32.346874ZM126.15938 34.45625L127.90938 34.175Q128.05 35.221874 128.72188 35.784374Q129.39375 36.33125 130.59688 36.33125Q131.8 36.33125 132.37813 35.846874Q132.97188 35.346874 132.97188 34.690624Q132.97188 34.096874 132.45625 33.753124Q132.09688 33.51875 130.65938 33.159374Q128.72188 32.659374 127.97188 32.315624Q127.2375 31.95625 126.84688 31.33125Q126.45625 30.690624 126.45625 29.925Q126.45625 29.2375 126.76875 28.64375Q127.09688 28.05 127.64375 27.659374Q128.05 27.3625 128.75313 27.159374Q129.47188 26.940624 130.28438 26.940624Q131.50313 26.940624 132.425 27.3Q133.34688 27.64375 133.78438 28.253124Q134.22188 28.846874 134.39375 29.846874L132.675 30.08125Q132.55 29.284374 131.9875 28.846874Q131.425 28.39375 130.40938 28.39375Q129.19063 28.39375 128.675 28.8Q128.15938 29.190624 128.15938 29.721874Q128.15938 30.065624 128.37813 30.346874Q128.58125 30.628124 129.05 30.815624Q129.31563 30.909374 130.59688 31.253124Q132.47188 31.753124 133.20625 32.08125Q133.94063 32.39375 134.3625 33.003124Q134.78438 33.596874 134.78438 34.503124Q134.78438 35.378124 134.26875 36.159374Q133.75313 36.940624 132.78438 37.3625Q131.81563 37.784374 130.59688 37.784374Q128.58125 37.784374 127.51875 36.940624Q126.45625 36.096874 126.15938 34.45625ZM143.97188 34.20625L145.78438 34.440624Q145.3625 36.01875 144.19063 36.909374Q143.03438 37.784374 141.22188 37.784374Q138.95625 37.784374 137.6125 36.39375Q136.28438 34.9875 136.28438 32.45625Q136.28438 29.83125 137.62813 28.39375Q138.97188 26.940624 141.12813 26.940624Q143.20625 26.940624 144.51875 28.3625Q145.84688 29.76875 145.84688 32.346874Q145.84688 32.503124 145.83125 32.815624L138.09688 32.815624Q138.19063 34.51875 139.06563 35.425Q139.94063 36.33125 141.2375 36.33125Q142.20625 36.33125 142.87813 35.83125Q143.56563 35.315624 143.97188 34.20625ZM138.19063 31.3625L143.9875 31.3625Q143.87813 30.065624 143.33125 29.409374Q142.4875 28.39375 141.14375 28.39375Q139.94063 28.39375 139.1125 29.20625Q138.28438 30.003124 138.19063 31.3625ZM147.15938 34.45625L148.90938 34.175Q149.05 35.221874 149.72188 35.784374Q150.39375 36.33125 151.59688 36.33125Q152.8 36.33125 153.37813 35.846874Q153.97188 35.346874 153.97188 34.690624Q153.97188 34.096874 153.45625 33.753124Q153.09688 33.51875 151.65938 33.159374Q149.72188 32.659374 148.97188 32.315624Q148.2375 31.95625 147.84688 31.33125Q147.45625 30.690624 147.45625 29.925Q147.45625 29.2375 147.76875 28.64375Q148.09688 28.05 148.64375 27.659374Q149.05 27.3625 149.75313 27.159374Q150.47188 26.940624 151.28438 26.940624Q152.50313 26.940624 153.425 27.3Q154.34688 27.64375 154.78438 28.253124Q155.22188 28.846874 155.39375 29.846874L153.675 30.08125Q153.55 29.284374 152.9875 28.846874Q152.425 28.39375 151.40938 28.39375Q150.19063 28.39375 149.675 28.8Q149.15938 29.190624 149.15938 29.721874Q149.15938 30.065624 149.37813 30.346874Q149.58125 30.628124 150.05 30.815624Q150.31563 30.909374 151.59688 31.253124Q153.47188 31.753124 154.20625 32.08125Q154.94063 32.39375 155.3625 33.003124Q155.78438 33.596874 155.78438 34.503124Q155.78438 35.378124 155.26875 36.159374Q154.75313 36.940624 153.78438 37.3625Q152.81563 37.784374 151.59688 37.784374Q149.58125 37.784374 148.51875 36.940624Q147.45625 36.096874 147.15938 34.45625ZM163.87813 25.253124L163.87813 23.2375L165.64375 23.2375L165.64375 25.253124L163.87813 25.253124ZM163.87813 37.55L163.87813 27.175L165.64375 27.175L165.64375 37.55L163.87813 37.55ZM167.8625 37.55L167.8625 27.175L169.45625 27.175L169.45625 28.659374Q170.59688 26.940624 172.75313 26.940624Q173.69063 26.940624 174.47188 27.284374Q175.26875 27.6125 175.65938 28.159374Q176.05 28.70625 176.20625 29.45625Q176.3 29.95625 176.3 31.175L176.3 37.55L174.53438 37.55L174.53438 31.2375Q174.53438 30.159374 174.33125 29.628124Q174.12813 29.096874 173.59688 28.784374Q173.08125 28.471874 172.37813 28.471874Q171.25313 28.471874 170.44063 29.190624Q169.62813 29.89375 169.62813 31.878124L169.62813 37.55L167.8625 37.55ZM191.64375 36.26875Q190.65938 37.096874 189.75313 37.440624Q188.84688 37.784374 187.81563 37.784374Q186.1125 37.784374 185.19063 36.95625Q184.26875 36.1125 184.26875 34.815624Q184.26875 34.05 184.6125 33.425Q184.97188 32.8 185.53438 32.425Q186.09688 32.034374 186.8 31.83125Q187.31563 31.70625 188.3625 31.565624Q190.4875 31.315624 191.4875 30.971874Q191.50313 30.6125 191.50313 30.503124Q191.50313 29.440624 191.00313 28.9875Q190.33125 28.39375 189.00313 28.39375Q187.75313 28.39375 187.15938 28.83125Q186.58125 29.26875 186.3 30.378124L184.58125 30.14375Q184.81563 29.034374 185.34688 28.3625Q185.87813 27.675 186.89375 27.315624Q187.90938 26.940624 189.25313 26.940624Q190.58125 26.940624 191.40938 27.253124Q192.2375 27.565624 192.62813 28.05Q193.01875 28.51875 193.175 29.2375Q193.26875 29.690624 193.26875 30.8625L193.26875 33.20625Q193.26875 35.659374 193.37813 36.315624Q193.4875 36.95625 193.83125 37.55L191.9875 37.55Q191.72188 37.003124 191.64375 36.26875ZM191.4875 32.346874Q190.53438 32.7375 188.6125 33.003124Q187.53438 33.159374 187.08125 33.3625Q186.64375 33.55 186.39375 33.925Q186.14375 34.3 186.14375 34.76875Q186.14375 35.471874 186.675 35.940624Q187.20625 36.409374 188.2375 36.409374Q189.25313 36.409374 190.03438 35.971874Q190.83125 35.51875 191.20625 34.753124Q191.4875 34.14375 191.4875 32.9875L191.4875 32.346874ZM208.64375 33.753124L210.3625 33.971874Q210.08125 35.76875 208.90938 36.784374Q207.75313 37.784374 206.05 37.784374Q203.925 37.784374 202.62813 36.39375Q201.33125 35.003124 201.33125 32.409374Q201.33125 30.721874 201.87813 29.471874Q202.44063 28.20625 203.58125 27.58125Q204.72188 26.940624 206.06563 26.940624Q207.75313 26.940624 208.81563 27.8Q209.89375 28.659374 210.20625 30.221874L208.4875 30.4875Q208.25313 29.440624 207.62813 28.925Q207.00313 28.39375 206.12813 28.39375Q204.8 28.39375 203.97188 29.346874Q203.14375 30.3 203.14375 32.346874Q203.14375 34.440624 203.94063 35.39375Q204.7375 36.33125 206.03438 36.33125Q207.06563 36.33125 207.75313 35.70625Q208.45625 35.065624 208.64375 33.753124ZM218.64375 36.26875Q217.65938 37.096874 216.75313 37.440624Q215.84688 37.784374 214.81563 37.784374Q213.1125 37.784374 212.19063 36.95625Q211.26875 36.1125 211.26875 34.815624Q211.26875 34.05 211.6125 33.425Q211.97188 32.8 212.53438 32.425Q213.09688 32.034374 213.8 31.83125Q214.31563 31.70625 215.3625 31.565624Q217.4875 31.315624 218.4875 30.971874Q218.50313 30.6125 218.50313 30.503124Q218.50313 29.440624 218.00313 28.9875Q217.33125 28.39375 216.00313 28.39375Q214.75313 28.39375 214.15938 28.83125Q213.58125 29.26875 213.3 30.378124L211.58125 30.14375Q211.81563 29.034374 212.34688 28.3625Q212.87813 27.675 213.89375 27.315624Q214.90938 26.940624 216.25313 26.940624Q217.58125 26.940624 218.40938 27.253124Q219.2375 27.565624 219.62813 28.05Q220.01875 28.51875 220.175 29.2375Q220.26875 29.690624 220.26875 30.8625L220.26875 33.20625Q220.26875 35.659374 220.37813 36.315624Q220.4875 36.95625 220.83125 37.55L218.9875 37.55Q218.72188 37.003124 218.64375 36.26875ZM218.4875 32.346874Q217.53438 32.7375 215.6125 33.003124Q214.53438 33.159374 214.08125 33.3625Q213.64375 33.55 213.39375 33.925Q213.14375 34.3 213.14375 34.76875Q213.14375 35.471874 213.675 35.940624Q214.20625 36.409374 215.2375 36.409374Q216.25313 36.409374 217.03438 35.971874Q217.83125 35.51875 218.20625 34.753124Q218.4875 34.14375 218.4875 32.9875L218.4875 32.346874ZM222.8625 37.55L222.8625 27.175L224.45625 27.175L224.45625 28.659374Q225.59688 26.940624 227.75313 26.940624Q228.69063 26.940624 229.47188 27.284374Q230.26875 27.6125 230.65938 28.159374Q231.05 28.70625 231.20625 29.45625Q231.3 29.95625 231.3 31.175L231.3 37.55L229.53438 37.55L229.53438 31.2375Q229.53438 30.159374 229.33125 29.628124Q229.12813 29.096874 228.59688 28.784374Q228.08125 28.471874 227.37813 28.471874Q226.25313 28.471874 225.44063 29.190624Q224.62813 29.89375 224.62813 31.878124L224.62813 37.55L222.8625 37.55ZM240.59688 37.55L240.59688 36.2375Q239.6125 37.784374 237.69063 37.784374Q236.45625 37.784374 235.40938 37.096874Q234.37813 36.409374 233.8 35.190624Q233.2375 33.971874 233.2375 32.378124Q233.2375 30.815624 233.75313 29.55Q234.26875 28.284374 235.3 27.6125Q236.34688 26.940624 237.6125 26.940624Q238.55 26.940624 239.28438 27.346874Q240.01875 27.7375 240.4875 28.3625L240.4875 23.2375L242.22188 23.2375L242.22188 37.55L240.59688 37.55ZM235.03438 32.378124Q235.03438 34.3625 235.87813 35.346874Q236.72188 36.33125 237.8625 36.33125Q239.01875 36.33125 239.81563 35.39375Q240.62813 34.45625 240.62813 32.51875Q240.62813 30.39375 239.8 29.39375Q238.9875 28.39375 237.78438 28.39375Q236.6125 28.39375 235.81563 29.3625Q235.03438 30.315624 235.03438 32.378124ZM244.83125 37.55L244.83125 23.2375L246.58125 23.2375L246.58125 37.55L244.83125 37.55ZM255.97188 34.20625L257.78436 34.440624Q257.3625 36.01875 256.1906 36.909374Q255.03438 37.784374 253.22188 37.784374Q250.95625 37.784374 249.6125 36.39375Q248.28438 34.9875 248.28438 32.45625Q248.28438 29.83125 249.62813 28.39375Q250.97188 26.940624 253.12813 26.940624Q255.20625 26.940624 256.51874 28.3625Q257.84686 29.76875 257.84686 32.346874Q257.84686 32.503124 257.83124 32.815624L250.09688 32.815624Q250.19063 34.51875 251.06563 35.425Q251.94063 36.33125 253.2375 36.33125Q254.20625 36.33125 254.87813 35.83125Q255.56563 35.315624 255.97188 34.20625ZM250.19063 31.3625L255.9875 31.3625Q255.87813 30.065624 255.33125 29.409374Q254.4875 28.39375 253.14375 28.39375Q251.94063 28.39375 251.1125 29.20625Q250.28438 30.003124 250.19063 31.3625ZM259.15936 34.45625L260.90936 34.175Q261.05 35.221874 261.72186 35.784374Q262.39374 36.33125 263.59686 36.33125Q264.8 36.33125 265.3781 35.846874Q265.97186 35.346874 265.97186 34.690624Q265.97186 34.096874 265.45624 33.753124Q265.09686 33.51875 263.65936 33.159374Q261.72186 32.659374 260.97186 32.315624Q260.2375 31.95625 259.84686 31.33125Q259.45624 30.690624 259.45624 29.925Q259.45624 29.2375 259.76874 28.64375Q260.09686 28.05 260.64374 27.659374Q261.05 27.3625 261.7531 27.159374Q262.47186 26.940624 263.28436 26.940624Q264.5031 26.940624 265.425 27.3Q266.34686 27.64375 266.78436 28.253124Q267.22186 28.846874 267.39374 29.846874L265.675 30.08125Q265.55 29.284374 264.9875 28.846874Q264.425 28.39375 263.40936 28.39375Q262.1906 28.39375 261.675 28.8Q261.15936 29.190624 261.15936 29.721874Q261.15936 30.065624 261.3781 30.346874Q261.58124 30.628124 262.05 30.815624Q262.3156 30.909374 263.59686 31.253124Q265.47186 31.753124 266.20624 32.08125Q266.9406 32.39375 267.3625 33.003124Q267.78436 33.596874 267.78436 34.503124Q267.78436 35.378124 267.26874 36.159374Q266.7531 36.940624 265.78436 37.3625Q264.8156 37.784374 263.59686 37.784374Q261.58124 37.784374 260.51874 36.940624Q259.45624 36.096874 259.15936 34.45625ZM273.70624 35.971874L273.95624 37.534374Q273.22186 37.690624 272.6281 37.690624Q271.675 37.690624 271.14374 37.39375Q270.6281 37.08125 270.40936 36.596874Q270.1906 36.096874 270.1906 34.51875L270.1906 28.55L268.90936 28.55L268.90936 27.175L270.1906 27.175L270.1906 24.6125L271.9406 23.55L271.9406 27.175L273.70624 27.175L273.70624 28.55L271.9406 28.55L271.9406 34.6125Q271.9406 35.3625 272.03436 35.58125Q272.1281 35.784374 272.33124 35.925Q272.55 36.05 272.9406 36.05Q273.22186 36.05 273.70624 35.971874ZM275.8781 25.253124L275.8781 23.2375L277.64374 23.2375L277.64374 25.253124L275.8781 25.253124ZM275.8781 37.55L275.8781 27.175L277.64374 27.175L277.64374 37.55L275.8781 37.55ZM286.64374 33.753124L288.3625 33.971874Q288.08124 35.76875 286.90936 36.784374Q285.7531 37.784374 284.05 37.784374Q281.925 37.784374 280.6281 36.39375Q279.33124 35.003124 279.33124 32.409374Q279.33124 30.721874 279.8781 29.471874Q280.4406 28.20625 281.58124 27.58125Q282.72186 26.940624 284.0656 26.940624Q285.7531 26.940624 286.8156 27.8Q287.89374 28.659374 288.20624 30.221874L286.4875 30.4875Q286.2531 29.440624 285.6281 28.925Q285.0031 28.39375 284.1281 28.39375Q282.8 28.39375 281.97186 29.346874Q281.14374 30.3 281.14374 32.346874Q281.14374 34.440624 281.9406 35.39375Q282.7375 36.33125 284.03436 36.33125Q285.0656 36.33125 285.7531 35.70625Q286.45624 35.065624 286.64374 33.753124ZM289.8781 37.55L289.8781 23.2375L291.64374 23.2375L291.64374 31.39375L295.8 27.175L298.0656 27.175L294.1125 31.01875L298.47186 37.55L296.3 37.55L292.8781 32.253124L291.64374 33.440624L291.64374 37.55L289.8781 37.55ZM312.64374 33.753124L314.3625 33.971874Q314.08124 35.76875 312.90936 36.784374Q311.7531 37.784374 310.05 37.784374Q307.925 37.784374 306.6281 36.39375Q305.33124 35.003124 305.33124 32.409374Q305.33124 30.721874 305.8781 29.471874Q306.4406 28.20625 307.58124 27.58125Q308.72186 26.940624 310.0656 26.940624Q311.7531 26.940624 312.8156 27.8Q313.89374 28.659374 314.20624 30.221874L312.4875 30.4875Q312.2531 29.440624 311.6281 28.925Q311.0031 28.39375 310.1281 28.39375Q308.8 28.39375 307.97186 29.346874Q307.14374 30.3 307.14374 32.346874Q307.14374 34.440624 307.9406 35.39375Q308.7375 36.33125 310.03436 36.33125Q311.0656 36.33125 311.7531 35.70625Q312.45624 35.065624 312.64374 33.753124ZM315.8625 37.55L315.8625 23.2375L317.6281 23.2375L317.6281 28.3625Q318.8625 26.940624 320.7375 26.940624Q321.8781 26.940624 322.72186 27.39375Q323.58124 27.846874 323.9406 28.659374Q324.3156 29.45625 324.3156 30.971874L324.3156 37.55L322.5656 37.55L322.5656 30.971874Q322.5656 29.659374 321.9875 29.065624Q321.40936 28.45625 320.3781 28.45625Q319.59686 28.45625 318.89374 28.8625Q318.20624 29.26875 317.90936 29.971874Q317.6281 30.659374 317.6281 31.878124L317.6281 37.55L315.8625 37.55ZM333.64374 36.26875Q332.65936 37.096874 331.7531 37.440624Q330.84686 37.784374 329.8156 37.784374Q328.1125 37.784374 327.1906 36.95625Q326.26874 36.1125 326.26874 34.815624Q326.26874 34.05 326.6125 33.425Q326.97186 32.8 327.53436 32.425Q328.09686 32.034374 328.8 31.83125Q329.3156 31.70625 330.3625 31.565624Q332.4875 31.315624 333.4875 30.971874Q333.5031 30.6125 333.5031 30.503124Q333.5031 29.440624 333.0031 28.9875Q332.33124 28.39375 331.0031 28.39375Q329.7531 28.39375 329.15936 28.83125Q328.58124 29.26875 328.3 30.378124L326.58124 30.14375Q326.8156 29.034374 327.34686 28.3625Q327.8781 27.675 328.89374 27.315624Q329.90936 26.940624 331.2531 26.940624Q332.58124 26.940624 333.40936 27.253124Q334.2375 27.565624 334.6281 28.05Q335.01874 28.51875 335.175 29.2375Q335.26874 29.690624 335.26874 30.8625L335.26874 33.20625Q335.26874 35.659374 335.3781 36.315624Q335.4875 36.95625 335.83124 37.55L333.9875 37.55Q333.72186 37.003124 333.64374 36.26875ZM333.4875 32.346874Q332.53436 32.7375 330.6125 33.003124Q329.53436 33.159374 329.08124 33.3625Q328.64374 33.55 328.39374 33.925Q328.14374 34.3 328.14374 34.76875Q328.14374 35.471874 328.675 35.940624Q329.20624 36.409374 330.2375 36.409374Q331.2531 36.409374 332.03436 35.971874Q332.83124 35.51875 333.20624 34.753124Q333.4875 34.14375 333.4875 32.9875L333.4875 32.346874ZM337.84686 37.55L337.84686 27.175L339.425 27.175L339.425 28.753124Q340.03436 27.64375 340.55 27.3Q341.0656 26.940624 341.675 26.940624Q342.5656 26.940624 343.4875 27.503124L342.8781 29.14375Q342.2375 28.753124 341.59686 28.753124Q341.01874 28.753124 340.55 29.1125Q340.09686 29.45625 339.89374 30.065624Q339.6125 31.003124 339.6125 32.1125L339.6125 37.55L337.84686 37.55ZM348.70624 35.971874L348.95624 37.534374Q348.22186 37.690624 347.6281 37.690624Q346.675 37.690624 346.14374 37.39375Q345.6281 37.08125 345.40936 36.596874Q345.1906 36.096874 345.1906 34.51875L345.1906 28.55L343.90936 28.55L343.90936 27.175L345.1906 27.175L345.1906 24.6125L346.9406 23.55L346.9406 27.175L348.70624 27.175L348.70624 28.55L346.9406 28.55L346.9406 34.6125Q346.9406 35.3625 347.03436 35.58125Q347.1281 35.784374 347.33124 35.925Q347.55 36.05 347.9406 36.05Q348.22186 36.05 348.70624 35.971874Z" fill-rule="nonzero"/></svg>