<svg version="1.1" viewBox="0.0 0.0 600.0 371.0" fill="none" stroke="none" stroke-linecap="square" stroke-miterlimit="10" width="600" height="371" xmlns:xlink="http://www.w3.org/1999/xlink" xmlns="http://www.w3.org/2000/svg"><path fill="#ffffff" d="M0 0L600.0 0L600.0 371.0L0 371.0L0 0Z" fill-rule="nonzero"/><path stroke="#333333" stroke-width="1.0" stroke-linecap="butt" d="M45.5 332.5L581.5 332.5" fill-rule="nonzero"/><path stroke="#cccccc" stroke-width="1.0" stroke-linecap="butt" d="M45.5 278.5L581.5 278.5" fill-rule="nonzero"/><path stroke="#cccccc" stroke-width="1.0" stroke-linecap="butt" d="M45.5 224.5L581.5 224.5" fill-rule="nonzero"/><path stroke="#cccccc" stroke-width="1.0" stroke-linecap="butt" d="M45.5 170.5L581.5 170.5" fill-rule="nonzero"/><path stroke="#cccccc" stroke-width="1.0" stroke-linecap="butt" d="M45.5 116.5L581.5 116.5" fill-rule="nonzero"/><path stroke="#cccccc" stroke-width="1.0" stroke-linecap="butt" d="M45.5 61.5L581.5 61.5" fill-rule="nonzero"/><clipPath id="id_0"><path d="M45.55 61.916668L581.45 61.916668L581.45 332.45L45.55 332.45L45.55 61.916668Z" clip-rule="nonzero"/></clipPath><path stroke="#4285f4" stroke-width="2.0" stroke-linecap="butt" clip-path="url(#id_0)" d="M153.52985 96.54494L153.52985 135.50174" fill-rule="nonzero"/><path stroke="#4285f4" stroke-width="2.0" stroke-linecap="butt" clip-path="url(#id_0)" d="M153.52985 332.45L153.52985 295.65747" fill-rule="nonzero"/><path stroke="#4285f4" stroke-width="2.0" stroke-linecap="butt" clip-path="url(#id_0)" d="M101.53955 135.50174L205.52016 135.50174" fill-rule="nonzero"/><path stroke="#4285f4" stroke-width="2.0" stroke-linecap="butt" clip-path="url(#id_0)" d="M101.53955 295.65747L101.53955 135.50174" fill-rule="nonzero"/><path stroke="#4285f4" stroke-width="2.0" stroke-linecap="butt" clip-path="url(#id_0)" d="M205.52016 135.50174L205.52016 295.65747" fill-rule="nonzero"/><path stroke="#4285f4" stroke-width="2.0" stroke-linecap="butt" clip-path="url(#id_0)" d="M205.52016 295.65747L101.53955 295.65747" fill-rule="nonzero"/><path stroke="#4285f4" stroke-width="2.0" stroke-linecap="butt" clip-path="url(#id_0)" d="M313.5 271.85052L313.5 312.9716" fill-rule="nonzero"/><path stroke="#4285f4" stroke-width="2.0" stroke-linecap="butt" clip-path="url(#id_0)" d="M313.5 332.45L313.5 321.62866" fill-rule="nonzero"/><path stroke="#4285f4" stroke-width="2.0" stroke-linecap="butt" clip-path="url(#id_0)" d="M261.5097 312.9716L365.4903 312.9716" fill-rule="nonzero"/><path stroke="#4285f4" stroke-width="2.0" stroke-linecap="butt" clip-path="url(#id_0)" d="M261.5097 321.62866L261.5097 312.9716" fill-rule="nonzero"/><path stroke="#4285f4" stroke-width="2.0" stroke-linecap="butt" clip-path="url(#id_0)" d="M365.4903 312.9716L365.4903 321.62866" fill-rule="nonzero"/><path stroke="#4285f4" stroke-width="2.0" stroke-linecap="butt" clip-path="url(#id_0)" d="M365.4903 321.62866L261.5097 321.62866" fill-rule="nonzero"/><path stroke="#4285f4" stroke-width="2.0" stroke-linecap="butt" clip-path="url(#id_0)" d="M473.47015 256.70065L473.47015 284.83612" fill-rule="nonzero"/><path stroke="#4285f4" stroke-width="2.0" stroke-linecap="butt" clip-path="url(#id_0)" d="M473.47015 332.45L473.47015 310.80734" fill-rule="nonzero"/><path stroke="#4285f4" stroke-width="2.0" stroke-linecap="butt" clip-path="url(#id_0)" d="M421.47986 284.83612L525.46045 284.83612" fill-rule="nonzero"/><path stroke="#4285f4" stroke-width="2.0" stroke-linecap="butt" clip-path="url(#id_0)" d="M421.47986 310.80734L421.47986 284.83612" fill-rule="nonzero"/><path stroke="#4285f4" stroke-width="2.0" stroke-linecap="butt" clip-path="url(#id_0)" d="M525.46045 284.83612L525.46045 310.80734" fill-rule="nonzero"/><path stroke="#4285f4" stroke-width="2.0" stroke-linecap="butt" clip-path="url(#id_0)" d="M525.46045 310.80734L421.47986 310.80734" fill-rule="nonzero"/><path fill="#000000" d="M33.05 332.21564Q33.05 330.6844 33.3625 329.7625Q33.675 328.825 34.284374 328.325Q34.909374 327.825 35.846874 327.825Q36.534374 327.825 37.05 328.10626Q37.58125 328.3875 37.925 328.91876Q38.26875 329.4344 38.45625 330.1844Q38.64375 330.9344 38.64375 332.21564Q38.64375 333.73126 38.33125 334.65314Q38.034374 335.575 37.409374 336.09064Q36.8 336.59064 35.846874 336.59064Q34.6125 336.59064 33.89375 335.7Q33.05 334.6375 33.05 332.21564ZM34.128124 332.21564Q34.128124 334.325 34.628124 335.02814Q35.128124 335.73126 35.846874 335.73126Q36.58125 335.73126 37.065624 335.02814Q37.565624 334.325 37.565624 332.21564Q37.565624 330.09064 37.065624 329.40314Q36.58125 328.7 35.83125 328.7Q35.1125 328.7 34.675 329.3094Q34.128124 330.09064 34.128124 332.21564Z" fill-rule="nonzero"/><path fill="#000000" d="M31.596874 281.3277L31.596874 282.34332L25.909374 282.34332Q25.909374 281.96832 26.034374 281.60895Q26.253124 281.03082 26.721874 280.46832Q27.20625 279.90582 28.1125 279.17145Q29.51875 278.0152 30.003124 277.34332Q30.503124 276.67145 30.503124 276.0777Q30.503124 275.4527 30.05 275.03082Q29.596874 274.59332 28.878124 274.59332Q28.1125 274.59332 27.659374 275.04645Q27.20625 275.49957 27.190624 276.31207L26.1125 276.2027Q26.221874 274.98395 26.940624 274.35895Q27.675 273.71832 28.909374 273.71832Q30.14375 273.71832 30.8625 274.40582Q31.58125 275.09332 31.58125 276.10895Q31.58125 276.62457 31.3625 277.12457Q31.159374 277.60895 30.659374 278.17145Q30.175 278.71832 29.05 279.67145Q28.096874 280.46832 27.815624 280.7652Q27.55 281.04645 27.378124 281.3277L31.596874 281.3277ZM33.05 280.09332L34.159374 279.99957Q34.284374 280.81207 34.721874 281.21832Q35.175 281.62457 35.815624 281.62457Q36.565624 281.62457 37.096874 281.04645Q37.628124 280.46832 37.628124 279.53082Q37.628124 278.62457 37.1125 278.10895Q36.6125 277.5777 35.784374 277.5777Q35.284374 277.5777 34.8625 277.81207Q34.45625 278.04645 34.221874 278.40582L33.2375 278.28082L34.065624 273.87457L38.346874 273.87457L38.346874 274.87457L34.909374 274.87457L34.45625 277.18707Q35.221874 276.6402 36.065624 276.6402Q37.190624 276.6402 37.95625 277.42145Q38.7375 278.2027 38.7375 279.43707Q38.7375 280.59332 38.065624 281.4527Q37.2375 282.48395 35.815624 282.48395Q34.64375 282.48395 33.89375 281.8277Q33.159374 281.17145 33.05 280.09332Z" fill-rule="nonzero"/><path fill="#000000" d="M26.05 225.98666L27.159374 225.89291Q27.284374 226.70541 27.721874 227.11166Q28.175 227.51791 28.815624 227.51791Q29.565624 227.51791 30.096874 226.93979Q30.628124 226.36166 30.628124 225.42416Q30.628124 224.51791 30.1125 224.00229Q29.6125 223.47104 28.784374 223.47104Q28.284374 223.47104 27.8625 223.70541Q27.45625 223.93979 27.221874 224.29916L26.2375 224.17416L27.065624 219.76791L31.346874 219.76791L31.346874 220.76791L27.909374 220.76791L27.45625 223.08041Q28.221874 222.53354 29.065624 222.53354Q30.190624 222.53354 30.95625 223.31479Q31.7375 224.09604 31.7375 225.33041Q31.7375 226.48666 31.065624 227.34604Q30.2375 228.37729 28.815624 228.37729Q27.64375 228.37729 26.89375 227.72104Q26.159374 227.06479 26.05 225.98666ZM33.05 224.00229Q33.05 222.47104 33.3625 221.54916Q33.675 220.61166 34.284374 220.11166Q34.909374 219.61166 35.846874 219.61166Q36.534374 219.61166 37.05 219.89291Q37.58125 220.17416 37.925 220.70541Q38.26875 221.22104 38.45625 221.97104Q38.64375 222.72104 38.64375 224.00229Q38.64375 225.51791 38.33125 226.43979Q38.034374 227.36166 37.409374 227.87729Q36.8 228.37729 35.846874 228.37729Q34.6125 228.37729 33.89375 227.48666Q33.05 226.42416 33.05 224.00229ZM34.128124 224.00229Q34.128124 226.11166 34.628124 226.81479Q35.128124 227.51791 35.846874 227.51791Q36.58125 227.51791 37.065624 226.81479Q37.565624 226.11166 37.565624 224.00229Q37.565624 221.87729 37.065624 221.18979Q36.58125 220.48666 35.83125 220.48666Q35.1125 220.48666 34.675 221.09604Q34.128124 221.87729 34.128124 224.00229Z" fill-rule="nonzero"/><path fill="#000000" d="M26.1125 166.66125L26.1125 165.64563L31.675 165.64563L31.675 166.47375Q30.8625 167.34875 30.05 168.80188Q29.253124 170.23938 28.815624 171.77063Q28.4875 172.84875 28.409374 174.13L27.315624 174.13Q27.33125 173.11438 27.70625 171.67688Q28.096874 170.23938 28.8 168.91125Q29.51875 167.58313 30.33125 166.66125L26.1125 166.66125ZM33.05 171.88L34.159374 171.78625Q34.284374 172.59875 34.721874 173.005Q35.175 173.41125 35.815624 173.41125Q36.565624 173.41125 37.096874 172.83313Q37.628124 172.255 37.628124 171.3175Q37.628124 170.41125 37.1125 169.89563Q36.6125 169.36438 35.784374 169.36438Q35.284374 169.36438 34.8625 169.59875Q34.45625 169.83313 34.221874 170.1925L33.2375 170.0675L34.065624 165.66125L38.346874 165.66125L38.346874 166.66125L34.909374 166.66125L34.45625 168.97375Q35.221874 168.42688 36.065624 168.42688Q37.190624 168.42688 37.95625 169.20813Q38.7375 169.98938 38.7375 171.22375Q38.7375 172.38 38.065624 173.23938Q37.2375 174.27063 35.815624 174.27063Q34.64375 174.27063 33.89375 173.61438Q33.159374 172.95813 33.05 171.88Z" fill-rule="nonzero"/><path fill="#000000" d="M23.01875 120.02333L21.971874 120.02333L21.971874 113.30458Q21.58125 113.663956 20.95625 114.038956Q20.346874 114.39833 19.8625 114.570206L19.8625 113.55458Q20.7375 113.132706 21.39375 112.55458Q22.065624 111.96083 22.346874 111.39833L23.01875 111.39833L23.01875 120.02333ZM26.05 115.788956Q26.05 114.257706 26.3625 113.33583Q26.675 112.39833 27.284374 111.89833Q27.909374 111.39833 28.846874 111.39833Q29.534374 111.39833 30.05 111.67958Q30.58125 111.96083 30.925 112.49208Q31.26875 113.007706 31.45625 113.757706Q31.64375 114.507706 31.64375 115.788956Q31.64375 117.30458 31.33125 118.226456Q31.034374 119.14833 30.409374 119.663956Q29.8 120.163956 28.846874 120.163956Q27.6125 120.163956 26.89375 119.27333Q26.05 118.21083 26.05 115.788956ZM27.128124 115.788956Q27.128124 117.89833 27.628124 118.601456Q28.128124 119.30458 28.846874 119.30458Q29.58125 119.30458 30.065624 118.601456Q30.565624 117.89833 30.565624 115.788956Q30.565624 113.663956 30.065624 112.976456Q29.58125 112.27333 28.83125 112.27333Q28.1125 112.27333 27.675 112.882706Q27.128124 113.663956 27.128124 115.788956ZM33.05 115.788956Q33.05 114.257706 33.3625 113.33583Q33.675 112.39833 34.284374 111.89833Q34.909374 111.39833 35.846874 111.39833Q36.534374 111.39833 37.05 111.67958Q37.58125 111.96083 37.925 112.49208Q38.26875 113.007706 38.45625 113.757706Q38.64375 114.507706 38.64375 115.788956Q38.64375 117.30458 38.33125 118.226456Q38.034374 119.14833 37.409374 119.663956Q36.8 120.163956 35.846874 120.163956Q34.6125 120.163956 33.89375 119.27333Q33.05 118.21083 33.05 115.788956ZM34.128124 115.788956Q34.128124 117.89833 34.628124 118.601456Q35.128124 119.30458 35.846874 119.30458Q36.58125 119.30458 37.065624 118.601456Q37.565624 117.89833 37.565624 115.788956Q37.565624 113.663956 37.065624 112.976456Q36.58125 112.27333 35.83125 112.27333Q35.1125 112.27333 34.675 112.882706Q34.128124 113.663956 34.128124 115.788956Z" fill-rule="nonzero"/><path fill="#000000" d="M23.01875 65.916664L21.971874 65.916664L21.971874 59.197914Q21.58125 59.55729 20.95625 59.93229Q20.346874 60.291664 19.8625 60.46354L19.8625 59.447914Q20.7375 59.02604 21.39375 58.447914Q22.065624 57.854164 22.346874 57.291664L23.01875 57.291664L23.01875 65.916664ZM31.596874 64.90104L31.596874 65.916664L25.909374 65.916664Q25.909374 65.541664 26.034374 65.18229Q26.253124 64.604164 26.721874 64.041664Q27.20625 63.479164 28.1125 62.74479Q29.51875 61.58854 30.003124 60.916664Q30.503124 60.24479 30.503124 59.65104Q30.503124 59.02604 30.05 58.604164Q29.596874 58.166664 28.878124 58.166664Q28.1125 58.166664 27.659374 58.61979Q27.20625 59.072914 27.190624 59.885414L26.1125 59.77604Q26.221874 58.55729 26.940624 57.93229Q27.675 57.291664 28.909374 57.291664Q30.14375 57.291664 30.8625 57.979164Q31.58125 58.666664 31.58125 59.68229Q31.58125 60.197914 31.3625 60.697914Q31.159374 61.18229 30.659374 61.74479Q30.175 62.291664 29.05 63.24479Q28.096874 64.041664 27.815624 64.33854Q27.55 64.61979 27.378124 64.90104L31.596874 64.90104ZM33.05 63.666664L34.159374 63.572914Q34.284374 64.385414 34.721874 64.791664Q35.175 65.197914 35.815624 65.197914Q36.565624 65.197914 37.096874 64.61979Q37.628124 64.041664 37.628124 63.104164Q37.628124 62.197914 37.1125 61.68229Q36.6125 61.15104 35.784374 61.15104Q35.284374 61.15104 34.8625 61.385414Q34.45625 61.61979 34.221874 61.979164L33.2375 61.854164L34.065624 57.447914L38.346874 57.447914L38.346874 58.447914L34.909374 58.447914L34.45625 60.760414Q35.221874 60.21354 36.065624 60.21354Q37.190624 60.21354 37.95625 60.99479Q38.7375 61.77604 38.7375 63.010414Q38.7375 64.166664 38.065624 65.02604Q37.2375 66.05729 35.815624 66.05729Q34.64375 66.05729 33.89375 65.40104Q33.159374 64.74479 33.05 63.666664Z" fill-rule="nonzero"/><path fill="#000000" d="M129.45172 349.45L129.45172 340.85626L132.42047 340.85626Q133.42047 340.85626 133.95172 340.98126Q134.6861 341.15314 135.20172 341.59064Q135.88922 342.16876 136.21735 343.075Q136.5611 343.96564 136.5611 345.10626Q136.5611 346.09064 136.32672 346.84064Q136.10797 347.59064 135.7486 348.09064Q135.38922 348.59064 134.95172 348.8719Q134.52985 349.15314 133.9361 349.3094Q133.34235 349.45 132.5611 349.45L129.45172 349.45ZM130.59235 348.4344L132.42047 348.4344Q133.27985 348.4344 133.76422 348.27814Q134.2486 348.1219 134.52985 347.825Q134.9361 347.4344 135.15485 346.7469Q135.38922 346.0594 135.38922 345.09064Q135.38922 343.7469 134.9361 343.02814Q134.4986 342.29376 133.8736 342.04376Q133.40485 341.8719 132.40485 341.8719L130.59235 341.8719L130.59235 348.4344ZM142.57672 347.45L143.67047 347.575Q143.42047 348.52814 142.71735 349.0594Q142.01422 349.59064 140.9361 349.59064Q139.57672 349.59064 138.76422 348.7469Q137.96735 347.90314 137.96735 346.3875Q137.96735 344.825 138.77985 343.96564Q139.59235 343.09064 140.8736 343.09064Q142.1236 343.09064 142.90485 343.9344Q143.70172 344.77814 143.70172 346.325Q143.70172 346.41876 143.70172 346.60626L139.0611 346.60626Q139.1236 347.6375 139.63922 348.1844Q140.15485 348.71564 140.9361 348.71564Q141.51422 348.71564 141.92047 348.41876Q142.34235 348.10626 142.57672 347.45ZM139.1236 345.7469L142.59235 345.7469Q142.52985 344.95 142.20172 344.5594Q141.6861 343.95 140.88922 343.95Q140.15485 343.95 139.65485 344.4344Q139.17047 344.91876 139.1236 345.7469ZM145.32672 349.45L145.32672 343.23126L146.26422 343.23126L146.26422 344.10626Q146.95172 343.09064 148.2486 343.09064Q148.8111 343.09064 149.27985 343.29376Q149.76422 343.4969 149.9986 343.825Q150.23297 344.15314 150.32672 344.59064Q150.3736 344.8875 150.3736 345.6219L150.3736 349.45L149.32672 349.45L149.32672 345.66876Q149.32672 345.0125 149.20172 344.7Q149.07672 344.3875 148.76422 344.2Q148.45172 343.9969 148.02985 343.9969Q147.35797 343.9969 146.85797 344.4344Q146.3736 344.85626 146.3736 346.04376L146.3736 349.45L145.32672 349.45ZM152.32672 349.45L152.32672 343.23126L153.26422 343.23126L153.26422 344.10626Q153.5611 343.6375 154.04547 343.3719Q154.52985 343.09064 155.15485 343.09064Q155.84235 343.09064 156.27985 343.3719Q156.73297 343.65314 156.90485 344.16876Q157.65485 343.09064 158.82672 343.09064Q159.76422 343.09064 160.2486 343.60626Q160.7486 344.10626 160.7486 345.1844L160.7486 349.45L159.70172 349.45L159.70172 345.52814Q159.70172 344.90314 159.59235 344.6219Q159.4986 344.34064 159.23297 344.16876Q158.96735 343.9969 158.59235 343.9969Q157.9361 343.9969 157.4986 344.4344Q157.07672 344.8719 157.07672 345.84064L157.07672 349.45L156.01422 349.45L156.01422 345.40314Q156.01422 344.7 155.7486 344.35626Q155.4986 343.9969 154.92047 343.9969Q154.46735 343.9969 154.09235 344.23126Q153.71735 344.46564 153.54547 344.91876Q153.3736 345.3719 153.3736 346.21564L153.3736 349.45L152.32672 349.45ZM166.38922 348.6844Q165.79547 349.1844 165.2486 349.3875Q164.71735 349.59064 164.09235 349.59064Q163.0611 349.59064 162.51422 349.09064Q161.96735 348.59064 161.96735 347.8094Q161.96735 347.35626 162.17047 346.98126Q162.3736 346.59064 162.71735 346.3719Q163.0611 346.1375 163.48297 346.02814Q163.77985 345.9344 164.42047 345.85626Q165.6861 345.71564 166.29547 345.4969Q166.29547 345.27814 166.29547 345.23126Q166.29547 344.575 165.9986 344.3094Q165.59235 343.96564 164.79547 343.96564Q164.0611 343.96564 163.70172 344.23126Q163.34235 344.48126 163.17047 345.1375L162.13922 344.9969Q162.27985 344.34064 162.60797 343.9344Q162.9361 343.52814 163.54547 343.3094Q164.15485 343.09064 164.95172 343.09064Q165.7486 343.09064 166.2486 343.27814Q166.7486 343.46564 166.98297 343.7469Q167.21735 344.02814 167.3111 344.46564Q167.35797 344.73126 167.35797 345.4344L167.35797 346.84064Q167.35797 348.3094 167.42047 348.7Q167.4986 349.09064 167.70172 349.45L166.59235 349.45Q166.4361 349.1219 166.38922 348.6844ZM166.29547 346.325Q165.71735 346.5594 164.57672 346.73126Q163.92047 346.825 163.65485 346.95Q163.38922 347.0594 163.23297 347.27814Q163.09235 347.4969 163.09235 347.77814Q163.09235 348.2 163.40485 348.48126Q163.73297 348.7625 164.34235 348.7625Q164.95172 348.7625 165.42047 348.4969Q165.90485 348.23126 166.1236 347.7625Q166.29547 347.40314 166.29547 346.71564L166.29547 346.325ZM169.3111 349.45L169.3111 343.23126L170.26422 343.23126L170.26422 344.16876Q170.6236 343.5125 170.92047 343.3094Q171.23297 343.09064 171.60797 343.09064Q172.13922 343.09064 172.6861 343.41876L172.32672 344.40314Q171.9361 344.16876 171.5611 344.16876Q171.20172 344.16876 170.92047 344.3875Q170.65485 344.59064 170.54547 344.96564Q170.35797 345.52814 170.35797 346.1844L170.35797 349.45L169.3111 349.45ZM173.32672 349.45L173.32672 340.85626L174.38922 340.85626L174.38922 345.7625L176.8736 343.23126L178.2486 343.23126L175.85797 345.52814L178.48297 349.45L177.1861 349.45L175.1236 346.2625L174.38922 346.98126L174.38922 349.45L173.32672 349.45Z" fill-rule="nonzero"/><path fill="#000000" d="M293.98438 349.45L293.98438 340.85626L299.78125 340.85626L299.78125 341.8719L295.125 341.8719L295.125 344.52814L299.15625 344.52814L299.15625 345.54376L295.125 345.54376L295.125 349.45L293.98438 349.45ZM300.79688 342.075L300.79688 340.85626L301.85938 340.85626L301.85938 342.075L300.79688 342.075ZM300.79688 349.45L300.79688 343.23126L301.85938 343.23126L301.85938 349.45L300.79688 349.45ZM303.79688 349.45L303.79688 343.23126L304.73438 343.23126L304.73438 344.10626Q305.42188 343.09064 306.71875 343.09064Q307.28125 343.09064 307.75 343.29376Q308.23438 343.4969 308.46875 343.825Q308.70312 344.15314 308.79688 344.59064Q308.84375 344.8875 308.84375 345.6219L308.84375 349.45L307.79688 349.45L307.79688 345.66876Q307.79688 345.0125 307.67188 344.7Q307.54688 344.3875 307.23438 344.2Q306.92188 343.9969 306.5 343.9969Q305.82812 343.9969 305.32812 344.4344Q304.84375 344.85626 304.84375 346.04376L304.84375 349.45L303.79688 349.45ZM310.76562 349.45L310.76562 340.85626L311.82812 340.85626L311.82812 349.45L310.76562 349.45ZM317.85938 348.6844Q317.26562 349.1844 316.71875 349.3875Q316.1875 349.59064 315.5625 349.59064Q314.53125 349.59064 313.98438 349.09064Q313.4375 348.59064 313.4375 347.8094Q313.4375 347.35626 313.64062 346.98126Q313.84375 346.59064 314.1875 346.3719Q314.53125 346.1375 314.95312 346.02814Q315.25 345.9344 315.89062 345.85626Q317.15625 345.71564 317.76562 345.4969Q317.76562 345.27814 317.76562 345.23126Q317.76562 344.575 317.46875 344.3094Q317.0625 343.96564 316.26562 343.96564Q315.53125 343.96564 315.17188 344.23126Q314.8125 344.48126 314.64062 345.1375L313.60938 344.9969Q313.75 344.34064 314.07812 343.9344Q314.40625 343.52814 315.01562 343.3094Q315.625 343.09064 316.42188 343.09064Q317.21875 343.09064 317.71875 343.27814Q318.21875 343.46564 318.45312 343.7469Q318.6875 344.02814 318.78125 344.46564Q318.82812 344.73126 318.82812 345.4344L318.82812 346.84064Q318.82812 348.3094 318.89062 348.7Q318.96875 349.09064 319.17188 349.45L318.0625 349.45Q317.90625 349.1219 317.85938 348.6844ZM317.76562 346.325Q317.1875 346.5594 316.04688 346.73126Q315.39062 346.825 315.125 346.95Q314.85938 347.0594 314.70312 347.27814Q314.5625 347.4969 314.5625 347.77814Q314.5625 348.2 314.875 348.48126Q315.20312 348.7625 315.8125 348.7625Q316.42188 348.7625 316.89062 348.4969Q317.375 348.23126 317.59375 347.7625Q317.76562 347.40314 317.76562 346.71564L317.76562 346.325ZM320.79688 349.45L320.79688 343.23126L321.73438 343.23126L321.73438 344.10626Q322.42188 343.09064 323.71875 343.09064Q324.28125 343.09064 324.75 343.29376Q325.23438 343.4969 325.46875 343.825Q325.70312 344.15314 325.79688 344.59064Q325.84375 344.8875 325.84375 345.6219L325.84375 349.45L324.79688 349.45L324.79688 345.66876Q324.79688 345.0125 324.67188 344.7Q324.54688 344.3875 324.23438 344.2Q323.92188 343.9969 323.5 343.9969Q322.82812 343.9969 322.32812 344.4344Q321.84375 344.85626 321.84375 346.04376L321.84375 349.45L320.79688 349.45ZM331.82812 349.45L331.82812 348.66876Q331.23438 349.59064 330.09375 349.59064Q329.34375 349.59064 328.71875 349.1844Q328.09375 348.7625 327.75 348.02814Q327.40625 347.29376 327.40625 346.34064Q327.40625 345.41876 327.71875 344.65314Q328.03125 343.8875 328.65625 343.4969Q329.28125 343.09064 330.04688 343.09064Q330.60938 343.09064 331.04688 343.325Q331.48438 343.5594 331.76562 343.9344L331.76562 340.85626L332.8125 340.85626L332.8125 349.45L331.82812 349.45ZM328.5 346.34064Q328.5 347.54376 329.0 348.1375Q329.5 348.71564 330.1875 348.71564Q330.875 348.71564 331.35938 348.15314Q331.84375 347.59064 331.84375 346.4344Q331.84375 345.15314 331.34375 344.5594Q330.85938 343.96564 330.14062 343.96564Q329.4375 343.96564 328.96875 344.54376Q328.5 345.10626 328.5 346.34064Z" fill-rule="nonzero"/><path fill="#000000" d="M453.39203 349.45L453.39203 340.85626L454.54828 340.85626L459.0639 347.60626L459.0639 340.85626L460.15765 340.85626L460.15765 349.45L458.98578 349.45L454.47015 342.7L454.47015 349.45L453.39203 349.45ZM461.8764 346.34064Q461.8764 344.60626 462.82953 343.77814Q463.6264 343.09064 464.78265 343.09064Q466.0639 343.09064 466.8764 343.9344Q467.70453 344.7625 467.70453 346.2469Q467.70453 347.45 467.34515 348.1375Q466.98578 348.825 466.28265 349.21564Q465.59515 349.59064 464.78265 349.59064Q463.48578 349.59064 462.67328 348.7625Q461.8764 347.91876 461.8764 346.34064ZM462.95453 346.34064Q462.95453 347.52814 463.47015 348.1219Q464.0014 348.71564 464.78265 348.71564Q465.57953 348.71564 466.09515 348.1219Q466.61078 347.52814 466.61078 346.3094Q466.61078 345.15314 466.07953 344.5594Q465.5639 343.96564 464.78265 343.96564Q464.0014 343.96564 463.47015 344.5594Q462.95453 345.1375 462.95453 346.34064ZM469.2514 349.45L469.2514 343.23126L470.20453 343.23126L470.20453 344.16876Q470.5639 343.5125 470.86078 343.3094Q471.17328 343.09064 471.54828 343.09064Q472.07953 343.09064 472.6264 343.41876L472.26703 344.40314Q471.8764 344.16876 471.5014 344.16876Q471.14203 344.16876 470.86078 344.3875Q470.59515 344.59064 470.48578 344.96564Q470.29828 345.52814 470.29828 346.1844L470.29828 349.45L469.2514 349.45ZM474.40765 349.45L472.5014 343.23126L473.59515 343.23126L474.57953 346.825L474.95453 348.15314Q474.98578 348.0594 475.28265 346.8719L476.26703 343.23126L477.34515 343.23126L478.28265 346.84064L478.59515 348.02814L478.95453 346.825L480.01703 343.23126L481.04828 343.23126L479.09515 349.45L478.0014 349.45L477.01703 345.71564L476.76703 344.66876L475.51703 349.45L474.40765 349.45ZM486.32953 348.6844Q485.73578 349.1844 485.1889 349.3875Q484.65765 349.59064 484.03265 349.59064Q483.0014 349.59064 482.45453 349.09064Q481.90765 348.59064 481.90765 347.8094Q481.90765 347.35626 482.11078 346.98126Q482.3139 346.59064 482.65765 346.3719Q483.0014 346.1375 483.42328 346.02814Q483.72015 345.9344 484.36078 345.85626Q485.6264 345.71564 486.23578 345.4969Q486.23578 345.27814 486.23578 345.23126Q486.23578 344.575 485.9389 344.3094Q485.53265 343.96564 484.73578 343.96564Q484.0014 343.96564 483.64203 344.23126Q483.28265 344.48126 483.11078 345.1375L482.07953 344.9969Q482.22015 344.34064 482.54828 343.9344Q482.8764 343.52814 483.48578 343.3094Q484.09515 343.09064 484.89203 343.09064Q485.6889 343.09064 486.1889 343.27814Q486.6889 343.46564 486.92328 343.7469Q487.15765 344.02814 487.2514 344.46564Q487.29828 344.73126 487.29828 345.4344L487.29828 346.84064Q487.29828 348.3094 487.36078 348.7Q487.4389 349.09064 487.64203 349.45L486.53265 349.45Q486.3764 349.1219 486.32953 348.6844ZM486.23578 346.325Q485.65765 346.5594 484.51703 346.73126Q483.86078 346.825 483.59515 346.95Q483.32953 347.0594 483.17328 347.27814Q483.03265 347.4969 483.03265 347.77814Q483.03265 348.2 483.34515 348.48126Q483.67328 348.7625 484.28265 348.7625Q484.89203 348.7625 485.36078 348.4969Q485.84515 348.23126 486.0639 347.7625Q486.23578 347.40314 486.23578 346.71564L486.23578 346.325ZM489.22015 351.84064L489.09515 350.85626Q489.4389 350.95 489.70453 350.95Q490.04828 350.95 490.2514 350.825Q490.47015 350.71564 490.61078 350.5125Q490.70453 350.34064 490.9389 349.71564Q490.95453 349.6375 491.03265 349.46564L488.65765 343.23126L489.79828 343.23126L491.09515 346.825Q491.34515 347.5125 491.54828 348.27814Q491.73578 347.54376 491.98578 346.85626L493.3139 343.23126L494.36078 343.23126L492.0014 349.5594Q491.61078 350.575 491.40765 350.96564Q491.1264 351.4969 490.7514 351.73126Q490.39203 351.98126 489.89203 351.98126Q489.59515 351.98126 489.22015 351.84064Z" fill-rule="nonzero"/><path fill="#757575" d="M19.128124 33.4875L20.83125 33.253124Q20.909374 34.89375 21.45625 35.503124Q22.003124 36.096874 22.971874 36.096874Q23.675 36.096874 24.190624 35.784374Q24.70625 35.45625 24.89375 34.89375Q25.096874 34.33125 25.096874 33.096874L25.096874 23.2375L27.003124 23.2375L27.003124 32.9875Q27.003124 34.784374 26.565624 35.76875Q26.128124 36.753124 25.175 37.284374Q24.2375 37.8 22.971874 37.8Q21.096874 37.8 20.08125 36.721874Q19.08125 35.628124 19.128124 33.4875ZM36.659374 37.55L36.659374 36.01875Q35.45625 37.784374 33.378124 37.784374Q32.45625 37.784374 31.659374 37.440624Q30.8625 37.08125 30.471874 36.55Q30.096874 36.01875 29.940624 35.2375Q29.83125 34.721874 29.83125 33.596874L29.83125 27.175L31.58125 27.175L31.58125 32.925Q31.58125 34.3 31.690624 34.784374Q31.8625 35.471874 32.39375 35.878124Q32.940624 36.26875 33.721874 36.26875Q34.51875 36.26875 35.20625 35.8625Q35.909374 35.45625 36.190624 34.76875Q36.4875 34.065624 36.4875 32.7375L36.4875 27.175L38.2375 27.175L38.2375 37.55L36.659374 37.55ZM40.83125 37.55L40.83125 23.2375L42.58125 23.2375L42.58125 37.55L40.83125 37.55ZM44.784374 41.55L44.596874 39.89375Q45.175 40.05 45.596874 40.05Q46.190624 40.05 46.534374 39.846874Q46.89375 39.659374 47.1125 39.315624Q47.284374 39.05 47.659374 38.003124Q47.70625 37.846874 47.815624 37.565624L43.878124 27.175L45.76875 27.175L47.925 33.190624Q48.346874 34.33125 48.675 35.58125Q48.9875 34.378124 49.39375 33.221874L51.6125 27.175L53.378124 27.175L49.425 37.721874Q48.8 39.440624 48.440624 40.08125Q47.971874 40.95625 47.3625 41.346874Q46.76875 41.753124 45.925 41.753124Q45.409374 41.753124 44.784374 41.55ZM67.64375 33.753124L69.3625 33.971874Q69.08125 35.76875 67.90938 36.784374Q66.75313 37.784374 65.05 37.784374Q62.925 37.784374 61.628124 36.39375Q60.33125 35.003124 60.33125 32.409374Q60.33125 30.721874 60.878124 29.471874Q61.440624 28.20625 62.58125 27.58125Q63.721874 26.940624 65.06563 26.940624Q66.75313 26.940624 67.81563 27.8Q68.89375 28.659374 69.20625 30.221874L67.4875 30.4875Q67.25313 29.440624 66.62813 28.925Q66.00313 28.39375 65.12813 28.39375Q63.8 28.39375 62.971874 29.346874Q62.14375 30.3 62.14375 32.346874Q62.14375 34.440624 62.940624 35.39375Q63.7375 36.33125 65.03438 36.33125Q66.06563 36.33125 66.75313 35.70625Q67.45625 35.065624 67.64375 33.753124ZM77.64375 36.26875Q76.65938 37.096874 75.75313 37.440624Q74.84688 37.784374 73.81563 37.784374Q72.1125 37.784374 71.19063 36.95625Q70.26875 36.1125 70.26875 34.815624Q70.26875 34.05 70.6125 33.425Q70.97188 32.8 71.53438 32.425Q72.09688 32.034374 72.8 31.83125Q73.31563 31.70625 74.3625 31.565624Q76.4875 31.315624 77.4875 30.971874Q77.50313 30.6125 77.50313 30.503124Q77.50313 29.440624 77.00313 28.9875Q76.33125 28.39375 75.00313 28.39375Q73.75313 28.39375 73.15938 28.83125Q72.58125 29.26875 72.3 30.378124L70.58125 30.14375Q70.81563 29.034374 71.34688 28.3625Q71.87813 27.675 72.89375 27.315624Q73.90938 26.940624 75.25313 26.940624Q76.58125 26.940624 77.40938 27.253124Q78.2375 27.565624 78.62813 28.05Q79.01875 28.51875 79.175 29.2375Q79.26875 29.690624 79.26875 30.8625L79.26875 33.20625Q79.26875 35.659374 79.37813 36.315624Q79.4875 36.95625 79.83125 37.55L77.9875 37.55Q77.72188 37.003124 77.64375 36.26875ZM77.4875 32.346874Q76.53438 32.7375 74.6125 33.003124Q73.53438 33.159374 73.08125 33.3625Q72.64375 33.55 72.39375 33.925Q72.14375 34.3 72.14375 34.76875Q72.14375 35.471874 72.675 35.940624Q73.20625 36.409374 74.2375 36.409374Q75.25313 36.409374 76.03438 35.971874Q76.83125 35.51875 77.20625 34.753124Q77.4875 34.14375 77.4875 32.9875L77.4875 32.346874ZM81.15938 34.45625L82.90938 34.175Q83.05 35.221874 83.72188 35.784374Q84.39375 36.33125 85.59688 36.33125Q86.8 36.33125 87.37813 35.846874Q87.97188 35.346874 87.97188 34.690624Q87.97188 34.096874 87.45625 33.753124Q87.09688 33.51875 85.65938 33.159374Q83.72188 32.659374 82.97188 32.315624Q82.2375 31.95625 81.84688 31.33125Q81.45625 30.690624 81.45625 29.925Q81.45625 29.2375 81.76875 28.64375Q82.09688 28.05 82.64375 27.659374Q83.05 27.3625 83.75313 27.159374Q84.47188 26.940624 85.28438 26.940624Q86.50313 26.940624 87.425 27.3Q88.34688 27.64375 88.78438 28.253124Q89.22188 28.846874 89.39375 29.846874L87.675 30.08125Q87.55 29.284374 86.9875 28.846874Q86.425 28.39375 85.40938 28.39375Q84.19063 28.39375 83.675 28.8Q83.15938 29.190624 83.15938 29.721874Q83.15938 30.065624 83.37813 30.346874Q83.58125 30.628124 84.05 30.815624Q84.31563 30.909374 85.59688 31.253124Q87.47188 31.753124 88.20625 32.08125Q88.94063 32.39375 89.3625 33.003124Q89.78438 33.596874 89.78438 34.503124Q89.78438 35.378124 89.26875 36.159374Q88.75313 36.940624 87.78438 37.3625Q86.81563 37.784374 85.59688 37.784374Q83.58125 37.784374 82.51875 36.940624Q81.45625 36.096874 81.15938 34.45625ZM98.97188 34.20625L100.78438 34.440624Q100.3625 36.01875 99.19063 36.909374Q98.03438 37.784374 96.22188 37.784374Q93.95625 37.784374 92.6125 36.39375Q91.28438 34.9875 91.28438 32.45625Q91.28438 29.83125 92.62813 28.39375Q93.97188 26.940624 96.12813 26.940624Q98.20625 26.940624 99.51875 28.3625Q100.84688 29.76875 100.84688 32.346874Q100.84688 32.503124 100.83125 32.815624L93.09688 32.815624Q93.19063 34.51875 94.06563 35.425Q94.94063 36.33125 96.2375 36.33125Q97.20625 36.33125 97.87813 35.83125Q98.56563 35.315624 98.97188 34.20625ZM93.19063 31.3625L98.9875 31.3625Q98.87813 30.065624 98.33125 29.409374Q97.4875 28.39375 96.14375 28.39375Q94.94063 28.39375 94.1125 29.20625Q93.28438 30.003124 93.19063 31.3625ZM102.15938 34.45625L103.90938 34.175Q104.05 35.221874 104.72188 35.784374Q105.39375 36.33125 106.59688 36.33125Q107.8 36.33125 108.37813 35.846874Q108.97188 35.346874 108.97188 34.690624Q108.97188 34.096874 108.45625 33.753124Q108.09688 33.51875 106.65938 33.159374Q104.72188 32.659374 103.97188 32.315624Q103.2375 31.95625 102.84688 31.33125Q102.45625 30.690624 102.45625 29.925Q102.45625 29.2375 102.76875 28.64375Q103.09688 28.05 103.64375 27.659374Q104.05 27.3625 104.75313 27.159374Q105.47188 26.940624 106.28438 26.940624Q107.50313 26.940624 108.425 27.3Q109.34688 27.64375 109.78438 28.253124Q110.22188 28.846874 110.39375 29.846874L108.675 30.08125Q108.55 29.284374 107.9875 28.846874Q107.425 28.39375 106.40938 28.39375Q105.19063 28.39375 104.675 28.8Q104.15938 29.190624 104.15938 29.721874Q104.15938 30.065624 104.37813 30.346874Q104.58125 30.628124 105.05 30.815624Q105.31563 30.909374 106.59688 31.253124Q108.47188 31.753124 109.20625 32.08125Q109.94063 32.39375 110.3625 33.003124Q110.78438 33.596874 110.78438 34.503124Q110.78438 35.378124 110.26875 36.159374Q109.75313 36.940624 108.78438 37.3625Q107.81563 37.784374 106.59688 37.784374Q104.58125 37.784374 103.51875 36.940624Q102.45625 36.096874 102.15938 34.45625ZM118.87813 25.253124L118.87813 23.2375L120.64375 23.2375L120.64375 25.253124L118.87813 25.253124ZM118.87813 37.55L118.87813 27.175L120.64375 27.175L120.64375 37.55L118.87813 37.55ZM122.8625 37.55L122.8625 27.175L124.45625 27.175L124.45625 28.659374Q125.59688 26.940624 127.75313 26.940624Q128.69063 26.940624 129.47188 27.284374Q130.26875 27.6125 130.65938 28.159374Q131.05 28.70625 131.20625 29.45625Q131.3 29.95625 131.3 31.175L131.3 37.55L129.53438 37.55L129.53438 31.2375Q129.53438 30.159374 129.33125 29.628124Q129.12813 29.096874 128.59688 28.784374Q128.08125 28.471874 127.37813 28.471874Q126.25313 28.471874 125.44063 29.190624Q124.62813 29.89375 124.62813 31.878124L124.62813 37.55L122.8625 37.55ZM146.64375 36.26875Q145.65938 37.096874 144.75313 37.440624Q143.84688 37.784374 142.81563 37.784374Q141.1125 37.784374 140.19063 36.95625Q139.26875 36.1125 139.26875 34.815624Q139.26875 34.05 139.6125 33.425Q139.97188 32.8 140.53438 32.425Q141.09688 32.034374 141.8 31.83125Q142.31563 31.70625 143.3625 31.565624Q145.4875 31.315624 146.4875 30.971874Q146.50313 30.6125 146.50313 30.503124Q146.50313 29.440624 146.00313 28.9875Q145.33125 28.39375 144.00313 28.39375Q142.75313 28.39375 142.15938 28.83125Q141.58125 29.26875 141.3 30.378124L139.58125 30.14375Q139.81563 29.034374 140.34688 28.3625Q140.87813 27.675 141.89375 27.315624Q142.90938 26.940624 144.25313 26.940624Q145.58125 26.940624 146.40938 27.253124Q147.2375 27.565624 147.62813 28.05Q148.01875 28.51875 148.175 29.2375Q148.26875 29.690624 148.26875 30.8625L148.26875 33.20625Q148.26875 35.659374 148.37813 36.315624Q148.4875 36.95625 148.83125 37.55L146.9875 37.55Q146.72188 37.003124 146.64375 36.26875ZM146.4875 32.346874Q145.53438 32.7375 143.6125 33.003124Q142.53438 33.159374 142.08125 33.3625Q141.64375 33.55 141.39375 33.925Q141.14375 34.3 141.14375 34.76875Q141.14375 35.471874 141.675 35.940624Q142.20625 36.409374 143.2375 36.409374Q144.25313 36.409374 145.03438 35.971874Q145.83125 35.51875 146.20625 34.753124Q146.4875 34.14375 146.4875 32.9875L146.4875 32.346874ZM163.64375 33.753124L165.3625 33.971874Q165.08125 35.76875 163.90938 36.784374Q162.75313 37.784374 161.05 37.784374Q158.925 37.784374 157.62813 36.39375Q156.33125 35.003124 156.33125 32.409374Q156.33125 30.721874 156.87813 29.471874Q157.44063 28.20625 158.58125 27.58125Q159.72188 26.940624 161.06563 26.940624Q162.75313 26.940624 163.81563 27.8Q164.89375 28.659374 165.20625 30.221874L163.4875 30.4875Q163.25313 29.440624 162.62813 28.925Q162.00313 28.39375 161.12813 28.39375Q159.8 28.39375 158.97188 29.346874Q158.14375 30.3 158.14375 32.346874Q158.14375 34.440624 158.94063 35.39375Q159.7375 36.33125 161.03438 36.33125Q162.06563 36.33125 162.75313 35.70625Q163.45625 35.065624 163.64375 33.753124ZM173.64375 36.26875Q172.65938 37.096874 171.75313 37.440624Q170.84688 37.784374 169.81563 37.784374Q168.1125 37.784374 167.19063 36.95625Q166.26875 36.1125 166.26875 34.815624Q166.26875 34.05 166.6125 33.425Q166.97188 32.8 167.53438 32.425Q168.09688 32.034374 168.8 31.83125Q169.31563 31.70625 170.3625 31.565624Q172.4875 31.315624 173.4875 30.971874Q173.50313 30.6125 173.50313 30.503124Q173.50313 29.440624 173.00313 28.9875Q172.33125 28.39375 171.00313 28.39375Q169.75313 28.39375 169.15938 28.83125Q168.58125 29.26875 168.3 30.378124L166.58125 30.14375Q166.81563 29.034374 167.34688 28.3625Q167.87813 27.675 168.89375 27.315624Q169.90938 26.940624 171.25313 26.940624Q172.58125 26.940624 173.40938 27.253124Q174.2375 27.565624 174.62813 28.05Q175.01875 28.51875 175.175 29.2375Q175.26875 29.690624 175.26875 30.8625L175.26875 33.20625Q175.26875 35.659374 175.37813 36.315624Q175.4875 36.95625 175.83125 37.55L173.9875 37.55Q173.72188 37.003124 173.64375 36.26875ZM173.4875 32.346874Q172.53438 32.7375 170.6125 33.003124Q169.53438 33.159374 169.08125 33.3625Q168.64375 33.55 168.39375 33.925Q168.14375 34.3 168.14375 34.76875Q168.14375 35.471874 168.675 35.940624Q169.20625 36.409374 170.2375 36.409374Q171.25313 36.409374 172.03438 35.971874Q172.83125 35.51875 173.20625 34.753124Q173.4875 34.14375 173.4875 32.9875L173.4875 32.346874ZM177.8625 37.55L177.8625 27.175L179.45625 27.175L179.45625 28.659374Q180.59688 26.940624 182.75313 26.940624Q183.69063 26.940624 184.47188 27.284374Q185.26875 27.6125 185.65938 28.159374Q186.05 28.70625 186.20625 29.45625Q186.3 29.95625 186.3 31.175L186.3 37.55L184.53438 37.55L184.53438 31.2375Q184.53438 30.159374 184.33125 29.628124Q184.12813 29.096874 183.59688 28.784374Q183.08125 28.471874 182.37813 28.471874Q181.25313 28.471874 180.44063 29.190624Q179.62813 29.89375 179.62813 31.878124L179.62813 37.55L177.8625 37.55ZM195.59688 37.55L195.59688 36.2375Q194.6125 37.784374 192.69063 37.784374Q191.45625 37.784374 190.40938 37.096874Q189.37813 36.409374 188.8 35.190624Q188.2375 33.971874 188.2375 32.378124Q188.2375 30.815624 188.75313 29.55Q189.26875 28.284374 190.3 27.6125Q191.34688 26.940624 192.6125 26.940624Q193.55 26.940624 194.28438 27.346874Q195.01875 27.7375 195.4875 28.3625L195.4875 23.2375L197.22188 23.2375L197.22188 37.55L195.59688 37.55ZM190.03438 32.378124Q190.03438 34.3625 190.87813 35.346874Q191.72188 36.33125 192.8625 36.33125Q194.01875 36.33125 194.81563 35.39375Q195.62813 34.45625 195.62813 32.51875Q195.62813 30.39375 194.8 29.39375Q193.9875 28.39375 192.78438 28.39375Q191.6125 28.39375 190.81563 29.3625Q190.03438 30.315624 190.03438 32.378124ZM199.83125 37.55L199.83125 23.2375L201.58125 23.2375L201.58125 37.55L199.83125 37.55ZM210.97188 34.20625L212.78438 34.440624Q212.3625 36.01875 211.19063 36.909374Q210.03438 37.784374 208.22188 37.784374Q205.95625 37.784374 204.6125 36.39375Q203.28438 34.9875 203.28438 32.45625Q203.28438 29.83125 204.62813 28.39375Q205.97188 26.940624 208.12813 26.940624Q210.20625 26.940624 211.51875 28.3625Q212.84688 29.76875 212.84688 32.346874Q212.84688 32.503124 212.83125 32.815624L205.09688 32.815624Q205.19063 34.51875 206.06563 35.425Q206.94063 36.33125 208.2375 36.33125Q209.20625 36.33125 209.87813 35.83125Q210.56563 35.315624 210.97188 34.20625ZM205.19063 31.3625L210.9875 31.3625Q210.87813 30.065624 210.33125 29.409374Q209.4875 28.39375 208.14375 28.39375Q206.94063 28.39375 206.1125 29.20625Q205.28438 30.003124 205.19063 31.3625ZM214.15938 34.45625L215.90938 34.175Q216.05 35.221874 216.72188 35.784374Q217.39375 36.33125 218.59688 36.33125Q219.8 36.33125 220.37813 35.846874Q220.97188 35.346874 220.97188 34.690624Q220.97188 34.096874 220.45625 33.753124Q220.09688 33.51875 218.65938 33.159374Q216.72188 32.659374 215.97188 32.315624Q215.2375 31.95625 214.84688 31.33125Q214.45625 30.690624 214.45625 29.925Q214.45625 29.2375 214.76875 28.64375Q215.09688 28.05 215.64375 27.659374Q216.05 27.3625 216.75313 27.159374Q217.47188 26.940624 218.28438 26.940624Q219.50313 26.940624 220.425 27.3Q221.34688 27.64375 221.78438 28.253124Q222.22188 28.846874 222.39375 29.846874L220.675 30.08125Q220.55 29.284374 219.9875 28.846874Q219.425 28.39375 218.40938 28.39375Q217.19063 28.39375 216.675 28.8Q216.15938 29.190624 216.15938 29.721874Q216.15938 30.065624 216.37813 30.346874Q216.58125 30.628124 217.05 30.815624Q217.31563 30.909374 218.59688 31.253124Q220.47188 31.753124 221.20625 32.08125Q221.94063 32.39375 222.3625 33.003124Q222.78438 33.596874 222.78438 34.503124Q222.78438 35.378124 222.26875 36.159374Q221.75313 36.940624 220.78438 37.3625Q219.81563 37.784374 218.59688 37.784374Q216.58125 37.784374 215.51875 36.940624Q214.45625 36.096874 214.15938 34.45625ZM228.70625 35.971874L228.95625 37.534374Q228.22188 37.690624 227.62813 37.690624Q226.675 37.690624 226.14375 37.39375Q225.62813 37.08125 225.40938 36.596874Q225.19063 36.096874 225.19063 34.51875L225.19063 28.55L223.90938 28.55L223.90938 27.175L225.19063 27.175L225.19063 24.6125L226.94063 23.55L226.94063 27.175L228.70625 27.175L228.70625 28.55L226.94063 28.55L226.94063 34.6125Q226.94063 35.3625 227.03438 35.58125Q227.12813 35.784374 227.33125 35.925Q227.55 36.05 227.94063 36.05Q228.22188 36.05 228.70625 35.971874ZM230.87813 25.253124L230.87813 23.2375L232.64375 23.2375L232.64375 25.253124L230.87813 25.253124ZM230.87813 37.55L230.87813 27.175L232.64375 27.175L232.64375 37.55L230.87813 37.55ZM241.64375 33.753124L243.3625 33.971874Q243.08125 35.76875 241.90938 36.784374Q240.75313 37.784374 239.05 37.784374Q236.925 37.784374 235.62813 36.39375Q234.33125 35.003124 234.33125 32.409374Q234.33125 30.721874 234.87813 29.471874Q235.44063 28.20625 236.58125 27.58125Q237.72188 26.940624 239.06563 26.940624Q240.75313 26.940624 241.81563 27.8Q242.89375 28.659374 243.20625 30.221874L241.4875 30.4875Q241.25313 29.440624 240.62813 28.925Q240.00313 28.39375 239.12813 28.39375Q237.8 28.39375 236.97188 29.346874Q236.14375 30.3 236.14375 32.346874Q236.14375 34.440624 236.94063 35.39375Q237.7375 36.33125 239.03438 36.33125Q240.06563 36.33125 240.75313 35.70625Q241.45625 35.065624 241.64375 33.753124ZM244.87813 37.55L244.87813 23.2375L246.64375 23.2375L246.64375 31.39375L250.8 27.175L253.06563 27.175L249.1125 31.01875L253.47188 37.55L251.3 37.55L247.87813 32.253124L246.64375 33.440624L246.64375 37.55L244.87813 37.55ZM267.64374 33.753124L269.3625 33.971874Q269.08124 35.76875 267.90936 36.784374Q266.7531 37.784374 265.05 37.784374Q262.925 37.784374 261.6281 36.39375Q260.33124 35.003124 260.33124 32.409374Q260.33124 30.721874 260.8781 29.471874Q261.4406 28.20625 262.58124 27.58125Q263.72186 26.940624 265.0656 26.940624Q266.7531 26.940624 267.8156 27.8Q268.89374 28.659374 269.20624 30.221874L267.4875 30.4875Q267.2531 29.440624 266.6281 28.925Q266.0031 28.39375 265.1281 28.39375Q263.8 28.39375 262.97186 29.346874Q262.14374 30.3 262.14374 32.346874Q262.14374 34.440624 262.9406 35.39375Q263.7375 36.33125 265.03436 36.33125Q266.0656 36.33125 266.7531 35.70625Q267.45624 35.065624 267.64374 33.753124ZM270.8625 37.55L270.8625 23.2375L272.6281 23.2375L272.6281 28.3625Q273.8625 26.940624 275.7375 26.940624Q276.8781 26.940624 277.72186 27.39375Q278.58124 27.846874 278.9406 28.659374Q279.3156 29.45625 279.3156 30.971874L279.3156 37.55L277.5656 37.55L277.5656 30.971874Q277.5656 29.659374 276.9875 29.065624Q276.40936 28.45625 275.3781 28.45625Q274.59686 28.45625 273.89374 28.8625Q273.20624 29.26875 272.90936 29.971874Q272.6281 30.659374 272.6281 31.878124L272.6281 37.55L270.8625 37.55ZM288.64374 36.26875Q287.65936 37.096874 286.7531 37.440624Q285.84686 37.784374 284.8156 37.784374Q283.1125 37.784374 282.1906 36.95625Q281.26874 36.1125 281.26874 34.815624Q281.26874 34.05 281.6125 33.425Q281.97186 32.8 282.53436 32.425Q283.09686 32.034374 283.8 31.83125Q284.3156 31.70625 285.3625 31.565624Q287.4875 31.315624 288.4875 30.971874Q288.5031 30.6125 288.5031 30.503124Q288.5031 29.440624 288.0031 28.9875Q287.33124 28.39375 286.0031 28.39375Q284.7531 28.39375 284.15936 28.83125Q283.58124 29.26875 283.3 30.378124L281.58124 30.14375Q281.8156 29.034374 282.34686 28.3625Q282.8781 27.675 283.89374 27.315624Q284.90936 26.940624 286.2531 26.940624Q287.58124 26.940624 288.40936 27.253124Q289.2375 27.565624 289.6281 28.05Q290.01874 28.51875 290.175 29.2375Q290.26874 29.690624 290.26874 30.8625L290.26874 33.20625Q290.26874 35.659374 290.3781 36.315624Q290.4875 36.95625 290.83124 37.55L288.9875 37.55Q288.72186 37.003124 288.64374 36.26875ZM288.4875 32.346874Q287.53436 32.7375 285.6125 33.003124Q284.53436 33.159374 284.08124 33.3625Q283.64374 33.55 283.39374 33.925Q283.14374 34.3 283.14374 34.76875Q283.14374 35.471874 283.675 35.940624Q284.20624 36.409374 285.2375 36.409374Q286.2531 36.409374 287.03436 35.971874Q287.83124 35.51875 288.20624 34.753124Q288.4875 34.14375 288.4875 32.9875L288.4875 32.346874ZM292.84686 37.55L292.84686 27.175L294.425 27.175L294.425 28.753124Q295.03436 27.64375 295.55 27.3Q296.0656 26.940624 296.675 26.940624Q297.5656 26.940624 298.4875 27.503124L297.8781 29.14375Q297.2375 28.753124 296.59686 28.753124Q296.01874 28.753124 295.55 29.1125Q295.09686 29.45625 294.89374 30.065624Q294.6125 31.003124 294.6125 32.1125L294.6125 37.55L292.84686 37.55ZM303.70624 35.971874L303.95624 37.534374Q303.22186 37.690624 302.6281 37.690624Q301.675 37.690624 301.14374 37.39375Q300.6281 37.08125 300.40936 36.596874Q300.1906 36.096874 300.1906 34.51875L300.1906 28.55L298.90936 28.55L298.90936 27.175L300.1906 27.175L300.1906 24.6125L301.9406 23.55L301.9406 27.175L303.70624 27.175L303.70624 28.55L301.9406 28.55L301.9406 34.6125Q301.9406 35.3625 302.03436 35.58125Q302.1281 35.784374 302.33124 35.925Q302.55 36.05 302.9406 36.05Q303.22186 36.05 303.70624 35.971874Z" fill-rule="nonzero"/></svg>