<svg version="1.1" viewBox="0.0 0.0 600.0 371.0" fill="none" stroke="none" stroke-linecap="square" stroke-miterlimit="10" width="600" height="371" xmlns:xlink="http://www.w3.org/1999/xlink" xmlns="http://www.w3.org/2000/svg"><path fill="#ffffff" d="M0 0L600.0 0L600.0 371.0L0 371.0L0 0Z" fill-rule="nonzero"/><path stroke="#333333" stroke-width="1.0" stroke-linecap="butt" d="M45.5 332.5L581.5 332.5" fill-rule="nonzero"/><path stroke="#cccccc" stroke-width="1.0" stroke-linecap="butt" d="M45.5 278.5L581.5 278.5" fill-rule="nonzero"/><path stroke="#cccccc" stroke-width="1.0" stroke-linecap="butt" d="M45.5 224.5L581.5 224.5" fill-rule="nonzero"/><path stroke="#cccccc" stroke-width="1.0" stroke-linecap="butt" d="M45.5 170.5L581.5 170.5" fill-rule="nonzero"/><path stroke="#cccccc" stroke-width="1.0" stroke-linecap="butt" d="M45.5 116.5L581.5 116.5" fill-rule="nonzero"/><path stroke="#cccccc" stroke-width="1.0" stroke-linecap="butt" d="M45.5 61.5L581.5 61.5" fill-rule="nonzero"/><clipPath id="id_0"><path d="M45.55 61.916668L581.45 61.916668L581.45 332.45L45.55 332.45L45.55 61.916668Z" clip-rule="nonzero"/></clipPath><path stroke="#4285f4" stroke-width="2.0" stroke-linecap="butt" clip-path="url(#id_0)" d="M153.52985 196.1012L153.52985 233.97586" fill-rule="nonzero"/><path stroke="#4285f4" stroke-width="2.0" stroke-linecap="butt" clip-path="url(#id_0)" d="M101.53955 233.97586L205.52016 233.97586" fill-rule="nonzero"/><path stroke="#4285f4" stroke-width="2.0" stroke-linecap="butt" clip-path="url(#id_0)" d="M101.53955 331.90894L101.53955 233.97586" fill-rule="nonzero"/><path stroke="#4285f4" stroke-width="2.0" stroke-linecap="butt" clip-path="url(#id_0)" d="M205.52016 233.97586L205.52016 331.90894" fill-rule="nonzero"/><path stroke="#4285f4" stroke-width="2.0" stroke-linecap="butt" clip-path="url(#id_0)" d="M205.52016 331.90894L101.53955 331.90894" fill-rule="nonzero"/><path stroke="#4285f4" stroke-width="2.0" stroke-linecap="butt" clip-path="url(#id_0)" d="M313.5 228.02414L313.5 281.04868" fill-rule="nonzero"/><path stroke="#4285f4" stroke-width="2.0" stroke-linecap="butt" clip-path="url(#id_0)" d="M261.5097 281.04868L365.4903 281.04868" fill-rule="nonzero"/><path stroke="#4285f4" stroke-width="2.0" stroke-linecap="butt" clip-path="url(#id_0)" d="M261.5097 332.45L261.5097 281.04868" fill-rule="nonzero"/><path stroke="#4285f4" stroke-width="2.0" stroke-linecap="butt" clip-path="url(#id_0)" d="M365.4903 281.04868L365.4903 332.45" fill-rule="nonzero"/><path stroke="#4285f4" stroke-width="2.0" stroke-linecap="butt" clip-path="url(#id_0)" d="M365.4903 332.45L261.5097 332.45" fill-rule="nonzero"/><path stroke="#4285f4" stroke-width="2.0" stroke-linecap="butt" clip-path="url(#id_0)" d="M473.47015 102.496666L473.47015 265.35773" fill-rule="nonzero"/><path stroke="#4285f4" stroke-width="2.0" stroke-linecap="butt" clip-path="url(#id_0)" d="M473.47015 332.45L473.47015 327.5804" fill-rule="nonzero"/><path stroke="#4285f4" stroke-width="2.0" stroke-linecap="butt" clip-path="url(#id_0)" d="M421.47986 265.35773L525.46045 265.35773" fill-rule="nonzero"/><path stroke="#4285f4" stroke-width="2.0" stroke-linecap="butt" clip-path="url(#id_0)" d="M421.47986 327.5804L421.47986 265.35773" fill-rule="nonzero"/><path stroke="#4285f4" stroke-width="2.0" stroke-linecap="butt" clip-path="url(#id_0)" d="M525.46045 265.35773L525.46045 327.5804" fill-rule="nonzero"/><path stroke="#4285f4" stroke-width="2.0" stroke-linecap="butt" clip-path="url(#id_0)" d="M525.46045 327.5804L421.47986 327.5804" fill-rule="nonzero"/><path fill="#000000" d="M33.05 332.21564Q33.05 330.6844 33.3625 329.7625Q33.675 328.825 34.284374 328.325Q34.909374 327.825 35.846874 327.825Q36.534374 327.825 37.05 328.10626Q37.58125 328.3875 37.925 328.91876Q38.26875 329.4344 38.45625 330.1844Q38.64375 330.9344 38.64375 332.21564Q38.64375 333.73126 38.33125 334.65314Q38.034374 335.575 37.409374 336.09064Q36.8 336.59064 35.846874 336.59064Q34.6125 336.59064 33.89375 335.7Q33.05 334.6375 33.05 332.21564ZM34.128124 332.21564Q34.128124 334.325 34.628124 335.02814Q35.128124 335.73126 35.846874 335.73126Q36.58125 335.73126 37.065624 335.02814Q37.565624 334.325 37.565624 332.21564Q37.565624 330.09064 37.065624 329.40314Q36.58125 328.7 35.83125 328.7Q35.1125 328.7 34.675 329.3094Q34.128124 330.09064 34.128124 332.21564Z" fill-rule="nonzero"/><path fill="#000000" d="M23.01875 282.34332L21.971874 282.34332L21.971874 275.62457Q21.58125 275.98395 20.95625 276.35895Q20.346874 276.71832 19.8625 276.8902L19.8625 275.87457Q20.7375 275.4527 21.39375 274.87457Q22.065624 274.28082 22.346874 273.71832L23.01875 273.71832L23.01875 282.34332ZM26.05 278.10895Q26.05 276.5777 26.3625 275.65582Q26.675 274.71832 27.284374 274.21832Q27.909374 273.71832 28.846874 273.71832Q29.534374 273.71832 30.05 273.99957Q30.58125 274.28082 30.925 274.81207Q31.26875 275.3277 31.45625 276.0777Q31.64375 276.8277 31.64375 278.10895Q31.64375 279.62457 31.33125 280.54645Q31.034374 281.46832 30.409374 281.98395Q29.8 282.48395 28.846874 282.48395Q27.6125 282.48395 26.89375 281.59332Q26.05 280.53082 26.05 278.10895ZM27.128124 278.10895Q27.128124 280.21832 27.628124 280.92145Q28.128124 281.62457 28.846874 281.62457Q29.58125 281.62457 30.065624 280.92145Q30.565624 280.21832 30.565624 278.10895Q30.565624 275.98395 30.065624 275.29645Q29.58125 274.59332 28.83125 274.59332Q28.1125 274.59332 27.675 275.2027Q27.128124 275.98395 27.128124 278.10895ZM33.05 278.10895Q33.05 276.5777 33.3625 275.65582Q33.675 274.71832 34.284374 274.21832Q34.909374 273.71832 35.846874 273.71832Q36.534374 273.71832 37.05 273.99957Q37.58125 274.28082 37.925 274.81207Q38.26875 275.3277 38.45625 276.0777Q38.64375 276.8277 38.64375 278.10895Q38.64375 279.62457 38.33125 280.54645Q38.034374 281.46832 37.409374 281.98395Q36.8 282.48395 35.846874 282.48395Q34.6125 282.48395 33.89375 281.59332Q33.05 280.53082 33.05 278.10895ZM34.128124 278.10895Q34.128124 280.21832 34.628124 280.92145Q35.128124 281.62457 35.846874 281.62457Q36.58125 281.62457 37.065624 280.92145Q37.565624 280.21832 37.565624 278.10895Q37.565624 275.98395 37.065624 275.29645Q36.58125 274.59332 35.83125 274.59332Q35.1125 274.59332 34.675 275.2027Q34.128124 275.98395 34.128124 278.10895Z" fill-rule="nonzero"/><path fill="#000000" d="M24.596874 227.22104L24.596874 228.23666L18.909374 228.23666Q18.909374 227.86166 19.034374 227.50229Q19.253124 226.92416 19.721874 226.36166Q20.20625 225.79916 21.1125 225.06479Q22.51875 223.90854 23.003124 223.23666Q23.503124 222.56479 23.503124 221.97104Q23.503124 221.34604 23.05 220.92416Q22.596874 220.48666 21.878124 220.48666Q21.1125 220.48666 20.659374 220.93979Q20.20625 221.39291 20.190624 222.20541L19.1125 222.09604Q19.221874 220.87729 19.940624 220.25229Q20.675 219.61166 21.909374 219.61166Q23.14375 219.61166 23.8625 220.29916Q24.58125 220.98666 24.58125 222.00229Q24.58125 222.51791 24.3625 223.01791Q24.159374 223.50229 23.659374 224.06479Q23.175 224.61166 22.05 225.56479Q21.096874 226.36166 20.815624 226.65854Q20.55 226.93979 20.378124 227.22104L24.596874 227.22104ZM26.05 224.00229Q26.05 222.47104 26.3625 221.54916Q26.675 220.61166 27.284374 220.11166Q27.909374 219.61166 28.846874 219.61166Q29.534374 219.61166 30.05 219.89291Q30.58125 220.17416 30.925 220.70541Q31.26875 221.22104 31.45625 221.97104Q31.64375 222.72104 31.64375 224.00229Q31.64375 225.51791 31.33125 226.43979Q31.034374 227.36166 30.409374 227.87729Q29.8 228.37729 28.846874 228.37729Q27.6125 228.37729 26.89375 227.48666Q26.05 226.42416 26.05 224.00229ZM27.128124 224.00229Q27.128124 226.11166 27.628124 226.81479Q28.128124 227.51791 28.846874 227.51791Q29.58125 227.51791 30.065624 226.81479Q30.565624 226.11166 30.565624 224.00229Q30.565624 221.87729 30.065624 221.18979Q29.58125 220.48666 28.83125 220.48666Q28.1125 220.48666 27.675 221.09604Q27.128124 221.87729 27.128124 224.00229ZM33.05 224.00229Q33.05 222.47104 33.3625 221.54916Q33.675 220.61166 34.284374 220.11166Q34.909374 219.61166 35.846874 219.61166Q36.534374 219.61166 37.05 219.89291Q37.58125 220.17416 37.925 220.70541Q38.26875 221.22104 38.45625 221.97104Q38.64375 222.72104 38.64375 224.00229Q38.64375 225.51791 38.33125 226.43979Q38.034374 227.36166 37.409374 227.87729Q36.8 228.37729 35.846874 228.37729Q34.6125 228.37729 33.89375 227.48666Q33.05 226.42416 33.05 224.00229ZM34.128124 224.00229Q34.128124 226.11166 34.628124 226.81479Q35.128124 227.51791 35.846874 227.51791Q36.58125 227.51791 37.065624 226.81479Q37.565624 226.11166 37.565624 224.00229Q37.565624 221.87729 37.065624 221.18979Q36.58125 220.48666 35.83125 220.48666Q35.1125 220.48666 34.675 221.09604Q34.128124 221.87729 34.128124 224.00229Z" fill-rule="nonzero"/><path fill="#000000" d="M19.05 171.86438L20.1125 171.72375Q20.284374 172.61438 20.721874 173.02063Q21.159374 173.41125 21.784374 173.41125Q22.534374 173.41125 23.05 172.89563Q23.565624 172.38 23.565624 171.61438Q23.565624 170.89563 23.08125 170.42688Q22.6125 169.9425 21.878124 169.9425Q21.58125 169.9425 21.128124 170.0675L21.253124 169.13Q21.3625 169.14563 21.425 169.14563Q22.096874 169.14563 22.628124 168.80188Q23.175 168.4425 23.175 167.70813Q23.175 167.13 22.784374 166.755Q22.39375 166.36438 21.76875 166.36438Q21.159374 166.36438 20.7375 166.755Q20.33125 167.14563 20.221874 167.91125L19.159374 167.72375Q19.346874 166.67688 20.034374 166.09875Q20.721874 165.505 21.7375 165.505Q22.440624 165.505 23.034374 165.8175Q23.628124 166.11438 23.940624 166.63Q24.253124 167.14563 24.253124 167.73938Q24.253124 168.28625 23.95625 168.755Q23.659374 169.20813 23.08125 169.47375Q23.83125 169.64563 24.253124 170.20813Q24.675 170.755 24.675 171.59875Q24.675 172.72375 23.846874 173.505Q23.034374 174.28625 21.784374 174.28625Q20.659374 174.28625 19.909374 173.61438Q19.159374 172.92688 19.05 171.86438ZM26.05 169.89563Q26.05 168.36438 26.3625 167.4425Q26.675 166.505 27.284374 166.005Q27.909374 165.505 28.846874 165.505Q29.534374 165.505 30.05 165.78625Q30.58125 166.0675 30.925 166.59875Q31.26875 167.11438 31.45625 167.86438Q31.64375 168.61438 31.64375 169.89563Q31.64375 171.41125 31.33125 172.33313Q31.034374 173.255 30.409374 173.77063Q29.8 174.27063 28.846874 174.27063Q27.6125 174.27063 26.89375 173.38Q26.05 172.3175 26.05 169.89563ZM27.128124 169.89563Q27.128124 172.005 27.628124 172.70813Q28.128124 173.41125 28.846874 173.41125Q29.58125 173.41125 30.065624 172.70813Q30.565624 172.005 30.565624 169.89563Q30.565624 167.77063 30.065624 167.08313Q29.58125 166.38 28.83125 166.38Q28.1125 166.38 27.675 166.98938Q27.128124 167.77063 27.128124 169.89563ZM33.05 169.89563Q33.05 168.36438 33.3625 167.4425Q33.675 166.505 34.284374 166.005Q34.909374 165.505 35.846874 165.505Q36.534374 165.505 37.05 165.78625Q37.58125 166.0675 37.925 166.59875Q38.26875 167.11438 38.45625 167.86438Q38.64375 168.61438 38.64375 169.89563Q38.64375 171.41125 38.33125 172.33313Q38.034374 173.255 37.409374 173.77063Q36.8 174.27063 35.846874 174.27063Q34.6125 174.27063 33.89375 173.38Q33.05 172.3175 33.05 169.89563ZM34.128124 169.89563Q34.128124 172.005 34.628124 172.70813Q35.128124 173.41125 35.846874 173.41125Q36.58125 173.41125 37.065624 172.70813Q37.565624 172.005 37.565624 169.89563Q37.565624 167.77063 37.065624 167.08313Q36.58125 166.38 35.83125 166.38Q35.1125 166.38 34.675 166.98938Q34.128124 167.77063 34.128124 169.89563Z" fill-rule="nonzero"/><path fill="#000000" d="M22.425 120.02333L22.425 117.96083L18.70625 117.96083L18.70625 116.99208L22.628124 111.42958L23.4875 111.42958L23.4875 116.99208L24.64375 116.99208L24.64375 117.96083L23.4875 117.96083L23.4875 120.02333L22.425 120.02333ZM22.425 116.99208L22.425 113.132706L19.7375 116.99208L22.425 116.99208ZM26.05 115.788956Q26.05 114.257706 26.3625 113.33583Q26.675 112.39833 27.284374 111.89833Q27.909374 111.39833 28.846874 111.39833Q29.534374 111.39833 30.05 111.67958Q30.58125 111.96083 30.925 112.49208Q31.26875 113.007706 31.45625 113.757706Q31.64375 114.507706 31.64375 115.788956Q31.64375 117.30458 31.33125 118.226456Q31.034374 119.14833 30.409374 119.663956Q29.8 120.163956 28.846874 120.163956Q27.6125 120.163956 26.89375 119.27333Q26.05 118.21083 26.05 115.788956ZM27.128124 115.788956Q27.128124 117.89833 27.628124 118.601456Q28.128124 119.30458 28.846874 119.30458Q29.58125 119.30458 30.065624 118.601456Q30.565624 117.89833 30.565624 115.788956Q30.565624 113.663956 30.065624 112.976456Q29.58125 112.27333 28.83125 112.27333Q28.1125 112.27333 27.675 112.882706Q27.128124 113.663956 27.128124 115.788956ZM33.05 115.788956Q33.05 114.257706 33.3625 113.33583Q33.675 112.39833 34.284374 111.89833Q34.909374 111.39833 35.846874 111.39833Q36.534374 111.39833 37.05 111.67958Q37.58125 111.96083 37.925 112.49208Q38.26875 113.007706 38.45625 113.757706Q38.64375 114.507706 38.64375 115.788956Q38.64375 117.30458 38.33125 118.226456Q38.034374 119.14833 37.409374 119.663956Q36.8 120.163956 35.846874 120.163956Q34.6125 120.163956 33.89375 119.27333Q33.05 118.21083 33.05 115.788956ZM34.128124 115.788956Q34.128124 117.89833 34.628124 118.601456Q35.128124 119.30458 35.846874 119.30458Q36.58125 119.30458 37.065624 118.601456Q37.565624 117.89833 37.565624 115.788956Q37.565624 113.663956 37.065624 112.976456Q36.58125 112.27333 35.83125 112.27333Q35.1125 112.27333 34.675 112.882706Q34.128124 113.663956 34.128124 115.788956Z" fill-rule="nonzero"/><path fill="#000000" d="M19.05 63.666664L20.159374 63.572914Q20.284374 64.385414 20.721874 64.791664Q21.175 65.197914 21.815624 65.197914Q22.565624 65.197914 23.096874 64.61979Q23.628124 64.041664 23.628124 63.104164Q23.628124 62.197914 23.1125 61.68229Q22.6125 61.15104 21.784374 61.15104Q21.284374 61.15104 20.8625 61.385414Q20.45625 61.61979 20.221874 61.979164L19.2375 61.854164L20.065624 57.447914L24.346874 57.447914L24.346874 58.447914L20.909374 58.447914L20.45625 60.760414Q21.221874 60.21354 22.065624 60.21354Q23.190624 60.21354 23.95625 60.99479Q24.7375 61.77604 24.7375 63.010414Q24.7375 64.166664 24.065624 65.02604Q23.2375 66.05729 21.815624 66.05729Q20.64375 66.05729 19.89375 65.40104Q19.159374 64.74479 19.05 63.666664ZM26.05 61.68229Q26.05 60.15104 26.3625 59.229164Q26.675 58.291664 27.284374 57.791664Q27.909374 57.291664 28.846874 57.291664Q29.534374 57.291664 30.05 57.572914Q30.58125 57.854164 30.925 58.385414Q31.26875 58.90104 31.45625 59.65104Q31.64375 60.40104 31.64375 61.68229Q31.64375 63.197914 31.33125 64.11979Q31.034374 65.041664 30.409374 65.55729Q29.8 66.05729 28.846874 66.05729Q27.6125 66.05729 26.89375 65.166664Q26.05 64.104164 26.05 61.68229ZM27.128124 61.68229Q27.128124 63.791664 27.628124 64.49479Q28.128124 65.197914 28.846874 65.197914Q29.58125 65.197914 30.065624 64.49479Q30.565624 63.791664 30.565624 61.68229Q30.565624 59.55729 30.065624 58.86979Q29.58125 58.166664 28.83125 58.166664Q28.1125 58.166664 27.675 58.77604Q27.128124 59.55729 27.128124 61.68229ZM33.05 61.68229Q33.05 60.15104 33.3625 59.229164Q33.675 58.291664 34.284374 57.791664Q34.909374 57.291664 35.846874 57.291664Q36.534374 57.291664 37.05 57.572914Q37.58125 57.854164 37.925 58.385414Q38.26875 58.90104 38.45625 59.65104Q38.64375 60.40104 38.64375 61.68229Q38.64375 63.197914 38.33125 64.11979Q38.034374 65.041664 37.409374 65.55729Q36.8 66.05729 35.846874 66.05729Q34.6125 66.05729 33.89375 65.166664Q33.05 64.104164 33.05 61.68229ZM34.128124 61.68229Q34.128124 63.791664 34.628124 64.49479Q35.128124 65.197914 35.846874 65.197914Q36.58125 65.197914 37.065624 64.49479Q37.565624 63.791664 37.565624 61.68229Q37.565624 59.55729 37.065624 58.86979Q36.58125 58.166664 35.83125 58.166664Q35.1125 58.166664 34.675 58.77604Q34.128124 59.55729 34.128124 61.68229Z" fill-rule="nonzero"/><path fill="#000000" d="M129.45172 349.45L129.45172 340.85626L132.42047 340.85626Q133.42047 340.85626 133.95172 340.98126Q134.6861 341.15314 135.20172 341.59064Q135.88922 342.16876 136.21735 343.075Q136.5611 343.96564 136.5611 345.10626Q136.5611 346.09064 136.32672 346.84064Q136.10797 347.59064 135.7486 348.09064Q135.38922 348.59064 134.95172 348.8719Q134.52985 349.15314 133.9361 349.3094Q133.34235 349.45 132.5611 349.45L129.45172 349.45ZM130.59235 348.4344L132.42047 348.4344Q133.27985 348.4344 133.76422 348.27814Q134.2486 348.1219 134.52985 347.825Q134.9361 347.4344 135.15485 346.7469Q135.38922 346.0594 135.38922 345.09064Q135.38922 343.7469 134.9361 343.02814Q134.4986 342.29376 133.8736 342.04376Q133.40485 341.8719 132.40485 341.8719L130.59235 341.8719L130.59235 348.4344ZM142.57672 347.45L143.67047 347.575Q143.42047 348.52814 142.71735 349.0594Q142.01422 349.59064 140.9361 349.59064Q139.57672 349.59064 138.76422 348.7469Q137.96735 347.90314 137.96735 346.3875Q137.96735 344.825 138.77985 343.96564Q139.59235 343.09064 140.8736 343.09064Q142.1236 343.09064 142.90485 343.9344Q143.70172 344.77814 143.70172 346.325Q143.70172 346.41876 143.70172 346.60626L139.0611 346.60626Q139.1236 347.6375 139.63922 348.1844Q140.15485 348.71564 140.9361 348.71564Q141.51422 348.71564 141.92047 348.41876Q142.34235 348.10626 142.57672 347.45ZM139.1236 345.7469L142.59235 345.7469Q142.52985 344.95 142.20172 344.5594Q141.6861 343.95 140.88922 343.95Q140.15485 343.95 139.65485 344.4344Q139.17047 344.91876 139.1236 345.7469ZM145.32672 349.45L145.32672 343.23126L146.26422 343.23126L146.26422 344.10626Q146.95172 343.09064 148.2486 343.09064Q148.8111 343.09064 149.27985 343.29376Q149.76422 343.4969 149.9986 343.825Q150.23297 344.15314 150.32672 344.59064Q150.3736 344.8875 150.3736 345.6219L150.3736 349.45L149.32672 349.45L149.32672 345.66876Q149.32672 345.0125 149.20172 344.7Q149.07672 344.3875 148.76422 344.2Q148.45172 343.9969 148.02985 343.9969Q147.35797 343.9969 146.85797 344.4344Q146.3736 344.85626 146.3736 346.04376L146.3736 349.45L145.32672 349.45ZM152.32672 349.45L152.32672 343.23126L153.26422 343.23126L153.26422 344.10626Q153.5611 343.6375 154.04547 343.3719Q154.52985 343.09064 155.15485 343.09064Q155.84235 343.09064 156.27985 343.3719Q156.73297 343.65314 156.90485 344.16876Q157.65485 343.09064 158.82672 343.09064Q159.76422 343.09064 160.2486 343.60626Q160.7486 344.10626 160.7486 345.1844L160.7486 349.45L159.70172 349.45L159.70172 345.52814Q159.70172 344.90314 159.59235 344.6219Q159.4986 344.34064 159.23297 344.16876Q158.96735 343.9969 158.59235 343.9969Q157.9361 343.9969 157.4986 344.4344Q157.07672 344.8719 157.07672 345.84064L157.07672 349.45L156.01422 349.45L156.01422 345.40314Q156.01422 344.7 155.7486 344.35626Q155.4986 343.9969 154.92047 343.9969Q154.46735 343.9969 154.09235 344.23126Q153.71735 344.46564 153.54547 344.91876Q153.3736 345.3719 153.3736 346.21564L153.3736 349.45L152.32672 349.45ZM166.38922 348.6844Q165.79547 349.1844 165.2486 349.3875Q164.71735 349.59064 164.09235 349.59064Q163.0611 349.59064 162.51422 349.09064Q161.96735 348.59064 161.96735 347.8094Q161.96735 347.35626 162.17047 346.98126Q162.3736 346.59064 162.71735 346.3719Q163.0611 346.1375 163.48297 346.02814Q163.77985 345.9344 164.42047 345.85626Q165.6861 345.71564 166.29547 345.4969Q166.29547 345.27814 166.29547 345.23126Q166.29547 344.575 165.9986 344.3094Q165.59235 343.96564 164.79547 343.96564Q164.0611 343.96564 163.70172 344.23126Q163.34235 344.48126 163.17047 345.1375L162.13922 344.9969Q162.27985 344.34064 162.60797 343.9344Q162.9361 343.52814 163.54547 343.3094Q164.15485 343.09064 164.95172 343.09064Q165.7486 343.09064 166.2486 343.27814Q166.7486 343.46564 166.98297 343.7469Q167.21735 344.02814 167.3111 344.46564Q167.35797 344.73126 167.35797 345.4344L167.35797 346.84064Q167.35797 348.3094 167.42047 348.7Q167.4986 349.09064 167.70172 349.45L166.59235 349.45Q166.4361 349.1219 166.38922 348.6844ZM166.29547 346.325Q165.71735 346.5594 164.57672 346.73126Q163.92047 346.825 163.65485 346.95Q163.38922 347.0594 163.23297 347.27814Q163.09235 347.4969 163.09235 347.77814Q163.09235 348.2 163.40485 348.48126Q163.73297 348.7625 164.34235 348.7625Q164.95172 348.7625 165.42047 348.4969Q165.90485 348.23126 166.1236 347.7625Q166.29547 347.40314 166.29547 346.71564L166.29547 346.325ZM169.3111 349.45L169.3111 343.23126L170.26422 343.23126L170.26422 344.16876Q170.6236 343.5125 170.92047 343.3094Q171.23297 343.09064 171.60797 343.09064Q172.13922 343.09064 172.6861 343.41876L172.32672 344.40314Q171.9361 344.16876 171.5611 344.16876Q171.20172 344.16876 170.92047 344.3875Q170.65485 344.59064 170.54547 344.96564Q170.35797 345.52814 170.35797 346.1844L170.35797 349.45L169.3111 349.45ZM173.32672 349.45L173.32672 340.85626L174.38922 340.85626L174.38922 345.7625L176.8736 343.23126L178.2486 343.23126L175.85797 345.52814L178.48297 349.45L177.1861 349.45L175.1236 346.2625L174.38922 346.98126L174.38922 349.45L173.32672 349.45Z" fill-rule="nonzero"/><path fill="#000000" d="M293.98438 349.45L293.98438 340.85626L299.78125 340.85626L299.78125 341.8719L295.125 341.8719L295.125 344.52814L299.15625 344.52814L299.15625 345.54376L295.125 345.54376L295.125 349.45L293.98438 349.45ZM300.79688 342.075L300.79688 340.85626L301.85938 340.85626L301.85938 342.075L300.79688 342.075ZM300.79688 349.45L300.79688 343.23126L301.85938 343.23126L301.85938 349.45L300.79688 349.45ZM303.79688 349.45L303.79688 343.23126L304.73438 343.23126L304.73438 344.10626Q305.42188 343.09064 306.71875 343.09064Q307.28125 343.09064 307.75 343.29376Q308.23438 343.4969 308.46875 343.825Q308.70312 344.15314 308.79688 344.59064Q308.84375 344.8875 308.84375 345.6219L308.84375 349.45L307.79688 349.45L307.79688 345.66876Q307.79688 345.0125 307.67188 344.7Q307.54688 344.3875 307.23438 344.2Q306.92188 343.9969 306.5 343.9969Q305.82812 343.9969 305.32812 344.4344Q304.84375 344.85626 304.84375 346.04376L304.84375 349.45L303.79688 349.45ZM310.76562 349.45L310.76562 340.85626L311.82812 340.85626L311.82812 349.45L310.76562 349.45ZM317.85938 348.6844Q317.26562 349.1844 316.71875 349.3875Q316.1875 349.59064 315.5625 349.59064Q314.53125 349.59064 313.98438 349.09064Q313.4375 348.59064 313.4375 347.8094Q313.4375 347.35626 313.64062 346.98126Q313.84375 346.59064 314.1875 346.3719Q314.53125 346.1375 314.95312 346.02814Q315.25 345.9344 315.89062 345.85626Q317.15625 345.71564 317.76562 345.4969Q317.76562 345.27814 317.76562 345.23126Q317.76562 344.575 317.46875 344.3094Q317.0625 343.96564 316.26562 343.96564Q315.53125 343.96564 315.17188 344.23126Q314.8125 344.48126 314.64062 345.1375L313.60938 344.9969Q313.75 344.34064 314.07812 343.9344Q314.40625 343.52814 315.01562 343.3094Q315.625 343.09064 316.42188 343.09064Q317.21875 343.09064 317.71875 343.27814Q318.21875 343.46564 318.45312 343.7469Q318.6875 344.02814 318.78125 344.46564Q318.82812 344.73126 318.82812 345.4344L318.82812 346.84064Q318.82812 348.3094 318.89062 348.7Q318.96875 349.09064 319.17188 349.45L318.0625 349.45Q317.90625 349.1219 317.85938 348.6844ZM317.76562 346.325Q317.1875 346.5594 316.04688 346.73126Q315.39062 346.825 315.125 346.95Q314.85938 347.0594 314.70312 347.27814Q314.5625 347.4969 314.5625 347.77814Q314.5625 348.2 314.875 348.48126Q315.20312 348.7625 315.8125 348.7625Q316.42188 348.7625 316.89062 348.4969Q317.375 348.23126 317.59375 347.7625Q317.76562 347.40314 317.76562 346.71564L317.76562 346.325ZM320.79688 349.45L320.79688 343.23126L321.73438 343.23126L321.73438 344.10626Q322.42188 343.09064 323.71875 343.09064Q324.28125 343.09064 324.75 343.29376Q325.23438 343.4969 325.46875 343.825Q325.70312 344.15314 325.79688 344.59064Q325.84375 344.8875 325.84375 345.6219L325.84375 349.45L324.79688 349.45L324.79688 345.66876Q324.79688 345.0125 324.67188 344.7Q324.54688 344.3875 324.23438 344.2Q323.92188 343.9969 323.5 343.9969Q322.82812 343.9969 322.32812 344.4344Q321.84375 344.85626 321.84375 346.04376L321.84375 349.45L320.79688 349.45ZM331.82812 349.45L331.82812 348.66876Q331.23438 349.59064 330.09375 349.59064Q329.34375 349.59064 328.71875 349.1844Q328.09375 348.7625 327.75 348.02814Q327.40625 347.29376 327.40625 346.34064Q327.40625 345.41876 327.71875 344.65314Q328.03125 343.8875 328.65625 343.4969Q329.28125 343.09064 330.04688 343.09064Q330.60938 343.09064 331.04688 343.325Q331.48438 343.5594 331.76562 343.9344L331.76562 340.85626L332.8125 340.85626L332.8125 349.45L331.82812 349.45ZM328.5 346.34064Q328.5 347.54376 329.0 348.1375Q329.5 348.71564 330.1875 348.71564Q330.875 348.71564 331.35938 348.15314Q331.84375 347.59064 331.84375 346.4344Q331.84375 345.15314 331.34375 344.5594Q330.85938 343.96564 330.14062 343.96564Q329.4375 343.96564 328.96875 344.54376Q328.5 345.10626 328.5 346.34064Z" fill-rule="nonzero"/><path fill="#000000" d="M453.39203 349.45L453.39203 340.85626L454.54828 340.85626L459.0639 347.60626L459.0639 340.85626L460.15765 340.85626L460.15765 349.45L458.98578 349.45L454.47015 342.7L454.47015 349.45L453.39203 349.45ZM461.8764 346.34064Q461.8764 344.60626 462.82953 343.77814Q463.6264 343.09064 464.78265 343.09064Q466.0639 343.09064 466.8764 343.9344Q467.70453 344.7625 467.70453 346.2469Q467.70453 347.45 467.34515 348.1375Q466.98578 348.825 466.28265 349.21564Q465.59515 349.59064 464.78265 349.59064Q463.48578 349.59064 462.67328 348.7625Q461.8764 347.91876 461.8764 346.34064ZM462.95453 346.34064Q462.95453 347.52814 463.47015 348.1219Q464.0014 348.71564 464.78265 348.71564Q465.57953 348.71564 466.09515 348.1219Q466.61078 347.52814 466.61078 346.3094Q466.61078 345.15314 466.07953 344.5594Q465.5639 343.96564 464.78265 343.96564Q464.0014 343.96564 463.47015 344.5594Q462.95453 345.1375 462.95453 346.34064ZM469.2514 349.45L469.2514 343.23126L470.20453 343.23126L470.20453 344.16876Q470.5639 343.5125 470.86078 343.3094Q471.17328 343.09064 471.54828 343.09064Q472.07953 343.09064 472.6264 343.41876L472.26703 344.40314Q471.8764 344.16876 471.5014 344.16876Q471.14203 344.16876 470.86078 344.3875Q470.59515 344.59064 470.48578 344.96564Q470.29828 345.52814 470.29828 346.1844L470.29828 349.45L469.2514 349.45ZM474.40765 349.45L472.5014 343.23126L473.59515 343.23126L474.57953 346.825L474.95453 348.15314Q474.98578 348.0594 475.28265 346.8719L476.26703 343.23126L477.34515 343.23126L478.28265 346.84064L478.59515 348.02814L478.95453 346.825L480.01703 343.23126L481.04828 343.23126L479.09515 349.45L478.0014 349.45L477.01703 345.71564L476.76703 344.66876L475.51703 349.45L474.40765 349.45ZM486.32953 348.6844Q485.73578 349.1844 485.1889 349.3875Q484.65765 349.59064 484.03265 349.59064Q483.0014 349.59064 482.45453 349.09064Q481.90765 348.59064 481.90765 347.8094Q481.90765 347.35626 482.11078 346.98126Q482.3139 346.59064 482.65765 346.3719Q483.0014 346.1375 483.42328 346.02814Q483.72015 345.9344 484.36078 345.85626Q485.6264 345.71564 486.23578 345.4969Q486.23578 345.27814 486.23578 345.23126Q486.23578 344.575 485.9389 344.3094Q485.53265 343.96564 484.73578 343.96564Q484.0014 343.96564 483.64203 344.23126Q483.28265 344.48126 483.11078 345.1375L482.07953 344.9969Q482.22015 344.34064 482.54828 343.9344Q482.8764 343.52814 483.48578 343.3094Q484.09515 343.09064 484.89203 343.09064Q485.6889 343.09064 486.1889 343.27814Q486.6889 343.46564 486.92328 343.7469Q487.15765 344.02814 487.2514 344.46564Q487.29828 344.73126 487.29828 345.4344L487.29828 346.84064Q487.29828 348.3094 487.36078 348.7Q487.4389 349.09064 487.64203 349.45L486.53265 349.45Q486.3764 349.1219 486.32953 348.6844ZM486.23578 346.325Q485.65765 346.5594 484.51703 346.73126Q483.86078 346.825 483.59515 346.95Q483.32953 347.0594 483.17328 347.27814Q483.03265 347.4969 483.03265 347.77814Q483.03265 348.2 483.34515 348.48126Q483.67328 348.7625 484.28265 348.7625Q484.89203 348.7625 485.36078 348.4969Q485.84515 348.23126 486.0639 347.7625Q486.23578 347.40314 486.23578 346.71564L486.23578 346.325ZM489.22015 351.84064L489.09515 350.85626Q489.4389 350.95 489.70453 350.95Q490.04828 350.95 490.2514 350.825Q490.47015 350.71564 490.61078 350.5125Q490.70453 350.34064 490.9389 349.71564Q490.95453 349.6375 491.03265 349.46564L488.65765 343.23126L489.79828 343.23126L491.09515 346.825Q491.34515 347.5125 491.54828 348.27814Q491.73578 347.54376 491.98578 346.85626L493.3139 343.23126L494.36078 343.23126L492.0014 349.5594Q491.61078 350.575 491.40765 350.96564Q491.1264 351.4969 490.7514 351.73126Q490.39203 351.98126 489.89203 351.98126Q489.59515 351.98126 489.22015 351.84064Z" fill-rule="nonzero"/><path fill="#757575" d="M20.034374 37.55L20.034374 23.2375L22.89375 23.2375L26.26875 33.3625Q26.7375 34.784374 26.95625 35.4875Q27.20625 34.70625 27.721874 33.190624L31.14375 23.2375L33.690624 23.2375L33.690624 37.55L31.878124 37.55L31.878124 25.565624L27.70625 37.55L26.003124 37.55L21.8625 25.3625L21.8625 37.55L20.034374 37.55ZM43.64375 36.26875Q42.659374 37.096874 41.753124 37.440624Q40.846874 37.784374 39.815624 37.784374Q38.1125 37.784374 37.190624 36.95625Q36.26875 36.1125 36.26875 34.815624Q36.26875 34.05 36.6125 33.425Q36.971874 32.8 37.534374 32.425Q38.096874 32.034374 38.8 31.83125Q39.315624 31.70625 40.3625 31.565624Q42.4875 31.315624 43.4875 30.971874Q43.503124 30.6125 43.503124 30.503124Q43.503124 29.440624 43.003124 28.9875Q42.33125 28.39375 41.003124 28.39375Q39.753124 28.39375 39.159374 28.83125Q38.58125 29.26875 38.3 30.378124L36.58125 30.14375Q36.815624 29.034374 37.346874 28.3625Q37.878124 27.675 38.89375 27.315624Q39.909374 26.940624 41.253124 26.940624Q42.58125 26.940624 43.409374 27.253124Q44.2375 27.565624 44.628124 28.05Q45.01875 28.51875 45.175 29.2375Q45.26875 29.690624 45.26875 30.8625L45.26875 33.20625Q45.26875 35.659374 45.378124 36.315624Q45.4875 36.95625 45.83125 37.55L43.9875 37.55Q43.721874 37.003124 43.64375 36.26875ZM43.4875 32.346874Q42.534374 32.7375 40.6125 33.003124Q39.534374 33.159374 39.08125 33.3625Q38.64375 33.55 38.39375 33.925Q38.14375 34.3 38.14375 34.76875Q38.14375 35.471874 38.675 35.940624Q39.20625 36.409374 40.2375 36.409374Q41.253124 36.409374 42.034374 35.971874Q42.83125 35.51875 43.20625 34.753124Q43.4875 34.14375 43.4875 32.9875L43.4875 32.346874ZM47.846874 37.55L47.846874 27.175L49.425 27.175L49.425 28.753124Q50.034374 27.64375 50.55 27.3Q51.065624 26.940624 51.675 26.940624Q52.565624 26.940624 53.4875 27.503124L52.878124 29.14375Q52.2375 28.753124 51.596874 28.753124Q51.01875 28.753124 50.55 29.1125Q50.096874 29.45625 49.89375 30.065624Q49.6125 31.003124 49.6125 32.1125L49.6125 37.55L47.846874 37.55ZM61.64375 33.753124L63.3625 33.971874Q63.08125 35.76875 61.909374 36.784374Q60.753124 37.784374 59.05 37.784374Q56.925 37.784374 55.628124 36.39375Q54.33125 35.003124 54.33125 32.409374Q54.33125 30.721874 54.878124 29.471874Q55.440624 28.20625 56.58125 27.58125Q57.721874 26.940624 59.065624 26.940624Q60.753124 26.940624 61.815624 27.8Q62.89375 28.659374 63.20625 30.221874L61.4875 30.4875Q61.253124 29.440624 60.628124 28.925Q60.003124 28.39375 59.128124 28.39375Q57.8 28.39375 56.971874 29.346874Q56.14375 30.3 56.14375 32.346874Q56.14375 34.440624 56.940624 35.39375Q57.7375 36.33125 59.034374 36.33125Q60.065624 36.33125 60.753124 35.70625Q61.45625 35.065624 61.64375 33.753124ZM64.8625 37.55L64.8625 23.2375L66.62813 23.2375L66.62813 28.3625Q67.8625 26.940624 69.7375 26.940624Q70.87813 26.940624 71.72188 27.39375Q72.58125 27.846874 72.94063 28.659374Q73.31563 29.45625 73.31563 30.971874L73.31563 37.55L71.56563 37.55L71.56563 30.971874Q71.56563 29.659374 70.9875 29.065624Q70.40938 28.45625 69.37813 28.45625Q68.59688 28.45625 67.89375 28.8625Q67.20625 29.26875 66.90938 29.971874Q66.62813 30.659374 66.62813 31.878124L66.62813 37.55L64.8625 37.55ZM88.64375 33.753124L90.3625 33.971874Q90.08125 35.76875 88.90938 36.784374Q87.75313 37.784374 86.05 37.784374Q83.925 37.784374 82.62813 36.39375Q81.33125 35.003124 81.33125 32.409374Q81.33125 30.721874 81.87813 29.471874Q82.44063 28.20625 83.58125 27.58125Q84.72188 26.940624 86.06563 26.940624Q87.75313 26.940624 88.81563 27.8Q89.89375 28.659374 90.20625 30.221874L88.4875 30.4875Q88.25313 29.440624 87.62813 28.925Q87.00313 28.39375 86.12813 28.39375Q84.8 28.39375 83.97188 29.346874Q83.14375 30.3 83.14375 32.346874Q83.14375 34.440624 83.94063 35.39375Q84.7375 36.33125 86.03438 36.33125Q87.06563 36.33125 87.75313 35.70625Q88.45625 35.065624 88.64375 33.753124ZM98.64375 36.26875Q97.65938 37.096874 96.75313 37.440624Q95.84688 37.784374 94.81563 37.784374Q93.1125 37.784374 92.19063 36.95625Q91.26875 36.1125 91.26875 34.815624Q91.26875 34.05 91.6125 33.425Q91.97188 32.8 92.53438 32.425Q93.09688 32.034374 93.8 31.83125Q94.31563 31.70625 95.3625 31.565624Q97.4875 31.315624 98.4875 30.971874Q98.50313 30.6125 98.50313 30.503124Q98.50313 29.440624 98.00313 28.9875Q97.33125 28.39375 96.00313 28.39375Q94.75313 28.39375 94.15938 28.83125Q93.58125 29.26875 93.3 30.378124L91.58125 30.14375Q91.81563 29.034374 92.34688 28.3625Q92.87813 27.675 93.89375 27.315624Q94.90938 26.940624 96.25313 26.940624Q97.58125 26.940624 98.40938 27.253124Q99.2375 27.565624 99.62813 28.05Q100.01875 28.51875 100.175 29.2375Q100.26875 29.690624 100.26875 30.8625L100.26875 33.20625Q100.26875 35.659374 100.37813 36.315624Q100.4875 36.95625 100.83125 37.55L98.9875 37.55Q98.72188 37.003124 98.64375 36.26875ZM98.4875 32.346874Q97.53438 32.7375 95.6125 33.003124Q94.53438 33.159374 94.08125 33.3625Q93.64375 33.55 93.39375 33.925Q93.14375 34.3 93.14375 34.76875Q93.14375 35.471874 93.675 35.940624Q94.20625 36.409374 95.2375 36.409374Q96.25313 36.409374 97.03438 35.971874Q97.83125 35.51875 98.20625 34.753124Q98.4875 34.14375 98.4875 32.9875L98.4875 32.346874ZM102.15938 34.45625L103.90938 34.175Q104.05 35.221874 104.72188 35.784374Q105.39375 36.33125 106.59688 36.33125Q107.8 36.33125 108.37813 35.846874Q108.97188 35.346874 108.97188 34.690624Q108.97188 34.096874 108.45625 33.753124Q108.09688 33.51875 106.65938 33.159374Q104.72188 32.659374 103.97188 32.315624Q103.2375 31.95625 102.84688 31.33125Q102.45625 30.690624 102.45625 29.925Q102.45625 29.2375 102.76875 28.64375Q103.09688 28.05 103.64375 27.659374Q104.05 27.3625 104.75313 27.159374Q105.47188 26.940624 106.28438 26.940624Q107.50313 26.940624 108.425 27.3Q109.34688 27.64375 109.78438 28.253124Q110.22188 28.846874 110.39375 29.846874L108.675 30.08125Q108.55 29.284374 107.9875 28.846874Q107.425 28.39375 106.40938 28.39375Q105.19063 28.39375 104.675 28.8Q104.15938 29.190624 104.15938 29.721874Q104.15938 30.065624 104.37813 30.346874Q104.58125 30.628124 105.05 30.815624Q105.31563 30.909374 106.59688 31.253124Q108.47188 31.753124 109.20625 32.08125Q109.94063 32.39375 110.3625 33.003124Q110.78438 33.596874 110.78438 34.503124Q110.78438 35.378124 110.26875 36.159374Q109.75313 36.940624 108.78438 37.3625Q107.81563 37.784374 106.59688 37.784374Q104.58125 37.784374 103.51875 36.940624Q102.45625 36.096874 102.15938 34.45625ZM119.97188 34.20625L121.78438 34.440624Q121.3625 36.01875 120.19063 36.909374Q119.03438 37.784374 117.22188 37.784374Q114.95625 37.784374 113.6125 36.39375Q112.28438 34.9875 112.28438 32.45625Q112.28438 29.83125 113.62813 28.39375Q114.97188 26.940624 117.12813 26.940624Q119.20625 26.940624 120.51875 28.3625Q121.84688 29.76875 121.84688 32.346874Q121.84688 32.503124 121.83125 32.815624L114.09688 32.815624Q114.19063 34.51875 115.06563 35.425Q115.94063 36.33125 117.2375 36.33125Q118.20625 36.33125 118.87813 35.83125Q119.56563 35.315624 119.97188 34.20625ZM114.19063 31.3625L119.9875 31.3625Q119.87813 30.065624 119.33125 29.409374Q118.4875 28.39375 117.14375 28.39375Q115.94063 28.39375 115.1125 29.20625Q114.28438 30.003124 114.19063 31.3625ZM123.15938 34.45625L124.90938 34.175Q125.05 35.221874 125.72188 35.784374Q126.39375 36.33125 127.59688 36.33125Q128.8 36.33125 129.37813 35.846874Q129.97188 35.346874 129.97188 34.690624Q129.97188 34.096874 129.45625 33.753124Q129.09688 33.51875 127.65938 33.159374Q125.72188 32.659374 124.97188 32.315624Q124.2375 31.95625 123.84688 31.33125Q123.45625 30.690624 123.45625 29.925Q123.45625 29.2375 123.76875 28.64375Q124.09688 28.05 124.64375 27.659374Q125.05 27.3625 125.75313 27.159374Q126.47188 26.940624 127.28438 26.940624Q128.50313 26.940624 129.425 27.3Q130.34688 27.64375 130.78438 28.253124Q131.22188 28.846874 131.39375 29.846874L129.675 30.08125Q129.55 29.284374 128.9875 28.846874Q128.425 28.39375 127.40938 28.39375Q126.19063 28.39375 125.675 28.8Q125.15938 29.190624 125.15938 29.721874Q125.15938 30.065624 125.37813 30.346874Q125.58125 30.628124 126.05 30.815624Q126.31563 30.909374 127.59688 31.253124Q129.47188 31.753124 130.20625 32.08125Q130.94063 32.39375 131.3625 33.003124Q131.78438 33.596874 131.78438 34.503124Q131.78438 35.378124 131.26875 36.159374Q130.75313 36.940624 129.78438 37.3625Q128.81563 37.784374 127.59688 37.784374Q125.58125 37.784374 124.51875 36.940624Q123.45625 36.096874 123.15938 34.45625ZM139.87813 25.253124L139.87813 23.2375L141.64375 23.2375L141.64375 25.253124L139.87813 25.253124ZM139.87813 37.55L139.87813 27.175L141.64375 27.175L141.64375 37.55L139.87813 37.55ZM143.8625 37.55L143.8625 27.175L145.45625 27.175L145.45625 28.659374Q146.59688 26.940624 148.75313 26.940624Q149.69063 26.940624 150.47188 27.284374Q151.26875 27.6125 151.65938 28.159374Q152.05 28.70625 152.20625 29.45625Q152.3 29.95625 152.3 31.175L152.3 37.55L150.53438 37.55L150.53438 31.2375Q150.53438 30.159374 150.33125 29.628124Q150.12813 29.096874 149.59688 28.784374Q149.08125 28.471874 148.37813 28.471874Q147.25313 28.471874 146.44063 29.190624Q145.62813 29.89375 145.62813 31.878124L145.62813 37.55L143.8625 37.55ZM167.64375 36.26875Q166.65938 37.096874 165.75313 37.440624Q164.84688 37.784374 163.81563 37.784374Q162.1125 37.784374 161.19063 36.95625Q160.26875 36.1125 160.26875 34.815624Q160.26875 34.05 160.6125 33.425Q160.97188 32.8 161.53438 32.425Q162.09688 32.034374 162.8 31.83125Q163.31563 31.70625 164.3625 31.565624Q166.4875 31.315624 167.4875 30.971874Q167.50313 30.6125 167.50313 30.503124Q167.50313 29.440624 167.00313 28.9875Q166.33125 28.39375 165.00313 28.39375Q163.75313 28.39375 163.15938 28.83125Q162.58125 29.26875 162.3 30.378124L160.58125 30.14375Q160.81563 29.034374 161.34688 28.3625Q161.87813 27.675 162.89375 27.315624Q163.90938 26.940624 165.25313 26.940624Q166.58125 26.940624 167.40938 27.253124Q168.2375 27.565624 168.62813 28.05Q169.01875 28.51875 169.175 29.2375Q169.26875 29.690624 169.26875 30.8625L169.26875 33.20625Q169.26875 35.659374 169.37813 36.315624Q169.4875 36.95625 169.83125 37.55L167.9875 37.55Q167.72188 37.003124 167.64375 36.26875ZM167.4875 32.346874Q166.53438 32.7375 164.6125 33.003124Q163.53438 33.159374 163.08125 33.3625Q162.64375 33.55 162.39375 33.925Q162.14375 34.3 162.14375 34.76875Q162.14375 35.471874 162.675 35.940624Q163.20625 36.409374 164.2375 36.409374Q165.25313 36.409374 166.03438 35.971874Q166.83125 35.51875 167.20625 34.753124Q167.4875 34.14375 167.4875 32.9875L167.4875 32.346874ZM184.64375 33.753124L186.3625 33.971874Q186.08125 35.76875 184.90938 36.784374Q183.75313 37.784374 182.05 37.784374Q179.925 37.784374 178.62813 36.39375Q177.33125 35.003124 177.33125 32.409374Q177.33125 30.721874 177.87813 29.471874Q178.44063 28.20625 179.58125 27.58125Q180.72188 26.940624 182.06563 26.940624Q183.75313 26.940624 184.81563 27.8Q185.89375 28.659374 186.20625 30.221874L184.4875 30.4875Q184.25313 29.440624 183.62813 28.925Q183.00313 28.39375 182.12813 28.39375Q180.8 28.39375 179.97188 29.346874Q179.14375 30.3 179.14375 32.346874Q179.14375 34.440624 179.94063 35.39375Q180.7375 36.33125 182.03438 36.33125Q183.06563 36.33125 183.75313 35.70625Q184.45625 35.065624 184.64375 33.753124ZM194.64375 36.26875Q193.65938 37.096874 192.75313 37.440624Q191.84688 37.784374 190.81563 37.784374Q189.1125 37.784374 188.19063 36.95625Q187.26875 36.1125 187.26875 34.815624Q187.26875 34.05 187.6125 33.425Q187.97188 32.8 188.53438 32.425Q189.09688 32.034374 189.8 31.83125Q190.31563 31.70625 191.3625 31.565624Q193.4875 31.315624 194.4875 30.971874Q194.50313 30.6125 194.50313 30.503124Q194.50313 29.440624 194.00313 28.9875Q193.33125 28.39375 192.00313 28.39375Q190.75313 28.39375 190.15938 28.83125Q189.58125 29.26875 189.3 30.378124L187.58125 30.14375Q187.81563 29.034374 188.34688 28.3625Q188.87813 27.675 189.89375 27.315624Q190.90938 26.940624 192.25313 26.940624Q193.58125 26.940624 194.40938 27.253124Q195.2375 27.565624 195.62813 28.05Q196.01875 28.51875 196.175 29.2375Q196.26875 29.690624 196.26875 30.8625L196.26875 33.20625Q196.26875 35.659374 196.37813 36.315624Q196.4875 36.95625 196.83125 37.55L194.9875 37.55Q194.72188 37.003124 194.64375 36.26875ZM194.4875 32.346874Q193.53438 32.7375 191.6125 33.003124Q190.53438 33.159374 190.08125 33.3625Q189.64375 33.55 189.39375 33.925Q189.14375 34.3 189.14375 34.76875Q189.14375 35.471874 189.675 35.940624Q190.20625 36.409374 191.2375 36.409374Q192.25313 36.409374 193.03438 35.971874Q193.83125 35.51875 194.20625 34.753124Q194.4875 34.14375 194.4875 32.9875L194.4875 32.346874ZM198.8625 37.55L198.8625 27.175L200.45625 27.175L200.45625 28.659374Q201.59688 26.940624 203.75313 26.940624Q204.69063 26.940624 205.47188 27.284374Q206.26875 27.6125 206.65938 28.159374Q207.05 28.70625 207.20625 29.45625Q207.3 29.95625 207.3 31.175L207.3 37.55L205.53438 37.55L205.53438 31.2375Q205.53438 30.159374 205.33125 29.628124Q205.12813 29.096874 204.59688 28.784374Q204.08125 28.471874 203.37813 28.471874Q202.25313 28.471874 201.44063 29.190624Q200.62813 29.89375 200.62813 31.878124L200.62813 37.55L198.8625 37.55ZM216.59688 37.55L216.59688 36.2375Q215.6125 37.784374 213.69063 37.784374Q212.45625 37.784374 211.40938 37.096874Q210.37813 36.409374 209.8 35.190624Q209.2375 33.971874 209.2375 32.378124Q209.2375 30.815624 209.75313 29.55Q210.26875 28.284374 211.3 27.6125Q212.34688 26.940624 213.6125 26.940624Q214.55 26.940624 215.28438 27.346874Q216.01875 27.7375 216.4875 28.3625L216.4875 23.2375L218.22188 23.2375L218.22188 37.55L216.59688 37.55ZM211.03438 32.378124Q211.03438 34.3625 211.87813 35.346874Q212.72188 36.33125 213.8625 36.33125Q215.01875 36.33125 215.81563 35.39375Q216.62813 34.45625 216.62813 32.51875Q216.62813 30.39375 215.8 29.39375Q214.9875 28.39375 213.78438 28.39375Q212.6125 28.39375 211.81563 29.3625Q211.03438 30.315624 211.03438 32.378124ZM220.83125 37.55L220.83125 23.2375L222.58125 23.2375L222.58125 37.55L220.83125 37.55ZM231.97188 34.20625L233.78438 34.440624Q233.3625 36.01875 232.19063 36.909374Q231.03438 37.784374 229.22188 37.784374Q226.95625 37.784374 225.6125 36.39375Q224.28438 34.9875 224.28438 32.45625Q224.28438 29.83125 225.62813 28.39375Q226.97188 26.940624 229.12813 26.940624Q231.20625 26.940624 232.51875 28.3625Q233.84688 29.76875 233.84688 32.346874Q233.84688 32.503124 233.83125 32.815624L226.09688 32.815624Q226.19063 34.51875 227.06563 35.425Q227.94063 36.33125 229.2375 36.33125Q230.20625 36.33125 230.87813 35.83125Q231.56563 35.315624 231.97188 34.20625ZM226.19063 31.3625L231.9875 31.3625Q231.87813 30.065624 231.33125 29.409374Q230.4875 28.39375 229.14375 28.39375Q227.94063 28.39375 227.1125 29.20625Q226.28438 30.003124 226.19063 31.3625ZM235.15938 34.45625L236.90938 34.175Q237.05 35.221874 237.72188 35.784374Q238.39375 36.33125 239.59688 36.33125Q240.8 36.33125 241.37813 35.846874Q241.97188 35.346874 241.97188 34.690624Q241.97188 34.096874 241.45625 33.753124Q241.09688 33.51875 239.65938 33.159374Q237.72188 32.659374 236.97188 32.315624Q236.2375 31.95625 235.84688 31.33125Q235.45625 30.690624 235.45625 29.925Q235.45625 29.2375 235.76875 28.64375Q236.09688 28.05 236.64375 27.659374Q237.05 27.3625 237.75313 27.159374Q238.47188 26.940624 239.28438 26.940624Q240.50313 26.940624 241.425 27.3Q242.34688 27.64375 242.78438 28.253124Q243.22188 28.846874 243.39375 29.846874L241.675 30.08125Q241.55 29.284374 240.9875 28.846874Q240.425 28.39375 239.40938 28.39375Q238.19063 28.39375 237.675 28.8Q237.15938 29.190624 237.15938 29.721874Q237.15938 30.065624 237.37813 30.346874Q237.58125 30.628124 238.05 30.815624Q238.31563 30.909374 239.59688 31.253124Q241.47188 31.753124 242.20625 32.08125Q242.94063 32.39375 243.3625 33.003124Q243.78438 33.596874 243.78438 34.503124Q243.78438 35.378124 243.26875 36.159374Q242.75313 36.940624 241.78438 37.3625Q240.81563 37.784374 239.59688 37.784374Q237.58125 37.784374 236.51875 36.940624Q235.45625 36.096874 235.15938 34.45625ZM249.70625 35.971874L249.95625 37.534374Q249.22188 37.690624 248.62813 37.690624Q247.675 37.690624 247.14375 37.39375Q246.62813 37.08125 246.40938 36.596874Q246.19063 36.096874 246.19063 34.51875L246.19063 28.55L244.90938 28.55L244.90938 27.175L246.19063 27.175L246.19063 24.6125L247.94063 23.55L247.94063 27.175L249.70625 27.175L249.70625 28.55L247.94063 28.55L247.94063 34.6125Q247.94063 35.3625 248.03438 35.58125Q248.12813 35.784374 248.33125 35.925Q248.55 36.05 248.94063 36.05Q249.22188 36.05 249.70625 35.971874ZM251.87813 25.253124L251.87813 23.2375L253.64375 23.2375L253.64375 25.253124L251.87813 25.253124ZM251.87813 37.55L251.87813 27.175L253.64375 27.175L253.64375 37.55L251.87813 37.55ZM262.64374 33.753124L264.3625 33.971874Q264.08124 35.76875 262.90936 36.784374Q261.7531 37.784374 260.05 37.784374Q257.925 37.784374 256.6281 36.39375Q255.33125 35.003124 255.33125 32.409374Q255.33125 30.721874 255.87813 29.471874Q256.4406 28.20625 257.58124 27.58125Q258.72186 26.940624 260.0656 26.940624Q261.7531 26.940624 262.8156 27.8Q263.89374 28.659374 264.20624 30.221874L262.4875 30.4875Q262.2531 29.440624 261.6281 28.925Q261.0031 28.39375 260.1281 28.39375Q258.8 28.39375 257.97186 29.346874Q257.14374 30.3 257.14374 32.346874Q257.14374 34.440624 257.9406 35.39375Q258.7375 36.33125 260.03436 36.33125Q261.0656 36.33125 261.7531 35.70625Q262.45624 35.065624 262.64374 33.753124ZM265.8781 37.55L265.8781 23.2375L267.64374 23.2375L267.64374 31.39375L271.8 27.175L274.0656 27.175L270.1125 31.01875L274.47186 37.55L272.3 37.55L268.8781 32.253124L267.64374 33.440624L267.64374 37.55L265.8781 37.55ZM288.64374 33.753124L290.3625 33.971874Q290.08124 35.76875 288.90936 36.784374Q287.7531 37.784374 286.05 37.784374Q283.925 37.784374 282.6281 36.39375Q281.33124 35.003124 281.33124 32.409374Q281.33124 30.721874 281.8781 29.471874Q282.4406 28.20625 283.58124 27.58125Q284.72186 26.940624 286.0656 26.940624Q287.7531 26.940624 288.8156 27.8Q289.89374 28.659374 290.20624 30.221874L288.4875 30.4875Q288.2531 29.440624 287.6281 28.925Q287.0031 28.39375 286.1281 28.39375Q284.8 28.39375 283.97186 29.346874Q283.14374 30.3 283.14374 32.346874Q283.14374 34.440624 283.9406 35.39375Q284.7375 36.33125 286.03436 36.33125Q287.0656 36.33125 287.7531 35.70625Q288.45624 35.065624 288.64374 33.753124ZM291.8625 37.55L291.8625 23.2375L293.6281 23.2375L293.6281 28.3625Q294.8625 26.940624 296.7375 26.940624Q297.8781 26.940624 298.72186 27.39375Q299.58124 27.846874 299.9406 28.659374Q300.3156 29.45625 300.3156 30.971874L300.3156 37.55L298.5656 37.55L298.5656 30.971874Q298.5656 29.659374 297.9875 29.065624Q297.40936 28.45625 296.3781 28.45625Q295.59686 28.45625 294.89374 28.8625Q294.20624 29.26875 293.90936 29.971874Q293.6281 30.659374 293.6281 31.878124L293.6281 37.55L291.8625 37.55ZM309.64374 36.26875Q308.65936 37.096874 307.7531 37.440624Q306.84686 37.784374 305.8156 37.784374Q304.1125 37.784374 303.1906 36.95625Q302.26874 36.1125 302.26874 34.815624Q302.26874 34.05 302.6125 33.425Q302.97186 32.8 303.53436 32.425Q304.09686 32.034374 304.8 31.83125Q305.3156 31.70625 306.3625 31.565624Q308.4875 31.315624 309.4875 30.971874Q309.5031 30.6125 309.5031 30.503124Q309.5031 29.440624 309.0031 28.9875Q308.33124 28.39375 307.0031 28.39375Q305.7531 28.39375 305.15936 28.83125Q304.58124 29.26875 304.3 30.378124L302.58124 30.14375Q302.8156 29.034374 303.34686 28.3625Q303.8781 27.675 304.89374 27.315624Q305.90936 26.940624 307.2531 26.940624Q308.58124 26.940624 309.40936 27.253124Q310.2375 27.565624 310.6281 28.05Q311.01874 28.51875 311.175 29.2375Q311.26874 29.690624 311.26874 30.8625L311.26874 33.20625Q311.26874 35.659374 311.3781 36.315624Q311.4875 36.95625 311.83124 37.55L309.9875 37.55Q309.72186 37.003124 309.64374 36.26875ZM309.4875 32.346874Q308.53436 32.7375 306.6125 33.003124Q305.53436 33.159374 305.08124 33.3625Q304.64374 33.55 304.39374 33.925Q304.14374 34.3 304.14374 34.76875Q304.14374 35.471874 304.675 35.940624Q305.20624 36.409374 306.2375 36.409374Q307.2531 36.409374 308.03436 35.971874Q308.83124 35.51875 309.20624 34.753124Q309.4875 34.14375 309.4875 32.9875L309.4875 32.346874ZM313.84686 37.55L313.84686 27.175L315.425 27.175L315.425 28.753124Q316.03436 27.64375 316.55 27.3Q317.0656 26.940624 317.675 26.940624Q318.5656 26.940624 319.4875 27.503124L318.8781 29.14375Q318.2375 28.753124 317.59686 28.753124Q317.01874 28.753124 316.55 29.1125Q316.09686 29.45625 315.89374 30.065624Q315.6125 31.003124 315.6125 32.1125L315.6125 37.55L313.84686 37.55ZM324.70624 35.971874L324.95624 37.534374Q324.22186 37.690624 323.6281 37.690624Q322.675 37.690624 322.14374 37.39375Q321.6281 37.08125 321.40936 36.596874Q321.1906 36.096874 321.1906 34.51875L321.1906 28.55L319.90936 28.55L319.90936 27.175L321.1906 27.175L321.1906 24.6125L322.9406 23.55L322.9406 27.175L324.70624 27.175L324.70624 28.55L322.9406 28.55L322.9406 34.6125Q322.9406 35.3625 323.03436 35.58125Q323.1281 35.784374 323.33124 35.925Q323.55 36.05 323.9406 36.05Q324.22186 36.05 324.70624 35.971874Z" fill-rule="nonzero"/></svg>