<svg version="1.1" viewBox="0.0 0.0 600.0 371.0" fill="none" stroke="none" stroke-linecap="square" stroke-miterlimit="10" width="600" height="371" xmlns:xlink="http://www.w3.org/1999/xlink" xmlns="http://www.w3.org/2000/svg"><path fill="#ffffff" d="M0 0L600.0 0L600.0 371.0L0 371.0L0 0Z" fill-rule="nonzero"/><path stroke="#333333" stroke-width="1.0" stroke-linecap="butt" d="M45.5 332.5L581.5 332.5" fill-rule="nonzero"/><path stroke="#cccccc" stroke-width="1.0" stroke-linecap="butt" d="M45.5 264.5L581.5 264.5" fill-rule="nonzero"/><path stroke="#cccccc" stroke-width="1.0" stroke-linecap="butt" d="M45.5 197.5L581.5 197.5" fill-rule="nonzero"/><path stroke="#cccccc" stroke-width="1.0" stroke-linecap="butt" d="M45.5 129.5L581.5 129.5" fill-rule="nonzero"/><path stroke="#cccccc" stroke-width="1.0" stroke-linecap="butt" d="M45.5 61.5L581.5 61.5" fill-rule="nonzero"/><clipPath id="id_0"><path d="M45.55 61.916668L581.45 61.916668L581.45 332.45L45.55 332.45L45.55 61.916668Z" clip-rule="nonzero"/></clipPath><path stroke="#4285f4" stroke-width="2.0" stroke-linecap="butt" clip-path="url(#id_0)" d="M153.52985 68.68L153.52985 226.26567" fill-rule="nonzero"/><path stroke="#4285f4" stroke-width="2.0" stroke-linecap="butt" clip-path="url(#id_0)" d="M153.52985 249.261L153.52985 141.04767" fill-rule="nonzero"/><path fill="#4285f4" clip-path="url(#id_0)" d="M100.53955 140.04767L206.52014 140.04767L206.52014 227.26567L100.53955 227.26567L100.53955 140.04767Z" fill-rule="nonzero"/><path stroke="#4285f4" stroke-width="2.0" stroke-linecap="butt" clip-path="url(#id_0)" d="M313.5 151.869L313.5 220.17867" fill-rule="nonzero"/><path stroke="#4285f4" stroke-width="2.0" stroke-linecap="butt" clip-path="url(#id_0)" d="M313.5 302.015L313.5 284.43033" fill-rule="nonzero"/><path stroke="#4285f4" stroke-width="2.0" stroke-linecap="butt" clip-path="url(#id_0)" d="M261.5097 220.17867L365.4903 220.17867" fill-rule="nonzero"/><path stroke="#4285f4" stroke-width="2.0" stroke-linecap="butt" clip-path="url(#id_0)" d="M261.5097 284.43033L261.5097 220.17867" fill-rule="nonzero"/><path stroke="#4285f4" stroke-width="2.0" stroke-linecap="butt" clip-path="url(#id_0)" d="M365.4903 220.17867L365.4903 284.43033" fill-rule="nonzero"/><path stroke="#4285f4" stroke-width="2.0" stroke-linecap="butt" clip-path="url(#id_0)" d="M365.4903 284.43033L261.5097 284.43033" fill-rule="nonzero"/><path stroke="#4285f4" stroke-width="2.0" stroke-linecap="butt" clip-path="url(#id_0)" d="M473.47015 128.19733L473.47015 290.51733" fill-rule="nonzero"/><path stroke="#4285f4" stroke-width="2.0" stroke-linecap="butt" clip-path="url(#id_0)" d="M473.47015 332.45L473.47015 182.98033" fill-rule="nonzero"/><path fill="#4285f4" clip-path="url(#id_0)" d="M420.47986 181.98033L526.46045 181.98033L526.46045 291.51733L420.47986 291.51733L420.47986 181.98033Z" fill-rule="nonzero"/><path fill="#000000" d="M33.05 332.21564Q33.05 330.6844 33.3625 329.7625Q33.675 328.825 34.284374 328.325Q34.909374 327.825 35.846874 327.825Q36.534374 327.825 37.05 328.10626Q37.58125 328.3875 37.925 328.91876Q38.26875 329.4344 38.45625 330.1844Q38.64375 330.9344 38.64375 332.21564Q38.64375 333.73126 38.33125 334.65314Q38.034374 335.575 37.409374 336.09064Q36.8 336.59064 35.846874 336.59064Q34.6125 336.59064 33.89375 335.7Q33.05 334.6375 33.05 332.21564ZM34.128124 332.21564Q34.128124 334.325 34.628124 335.02814Q35.128124 335.73126 35.846874 335.73126Q36.58125 335.73126 37.065624 335.02814Q37.565624 334.325 37.565624 332.21564Q37.565624 330.09064 37.065624 329.40314Q36.58125 328.7 35.83125 328.7Q35.1125 328.7 34.675 329.3094Q34.128124 330.09064 34.128124 332.21564Z" fill-rule="nonzero"/><path fill="#000000" d="M23.01875 268.81668L21.971874 268.81668L21.971874 262.09793Q21.58125 262.4573 20.95625 262.8323Q20.346874 263.19168 19.8625 263.36356L19.8625 262.34793Q20.7375 261.92606 21.39375 261.34793Q22.065624 260.75418 22.346874 260.19168L23.01875 260.19168L23.01875 268.81668ZM26.05 264.5823Q26.05 263.05106 26.3625 262.12918Q26.675 261.19168 27.284374 260.69168Q27.909374 260.19168 28.846874 260.19168Q29.534374 260.19168 30.05 260.47293Q30.58125 260.75418 30.925 261.28543Q31.26875 261.80106 31.45625 262.55106Q31.64375 263.30106 31.64375 264.5823Q31.64375 266.09793 31.33125 267.0198Q31.034374 267.94168 30.409374 268.4573Q29.8 268.9573 28.846874 268.9573Q27.6125 268.9573 26.89375 268.06668Q26.05 267.00418 26.05 264.5823ZM27.128124 264.5823Q27.128124 266.69168 27.628124 267.3948Q28.128124 268.09793 28.846874 268.09793Q29.58125 268.09793 30.065624 267.3948Q30.565624 266.69168 30.565624 264.5823Q30.565624 262.4573 30.065624 261.7698Q29.58125 261.06668 28.83125 261.06668Q28.1125 261.06668 27.675 261.67606Q27.128124 262.4573 27.128124 264.5823ZM33.05 264.5823Q33.05 263.05106 33.3625 262.12918Q33.675 261.19168 34.284374 260.69168Q34.909374 260.19168 35.846874 260.19168Q36.534374 260.19168 37.05 260.47293Q37.58125 260.75418 37.925 261.28543Q38.26875 261.80106 38.45625 262.55106Q38.64375 263.30106 38.64375 264.5823Q38.64375 266.09793 38.33125 267.0198Q38.034374 267.94168 37.409374 268.4573Q36.8 268.9573 35.846874 268.9573Q34.6125 268.9573 33.89375 268.06668Q33.05 267.00418 33.05 264.5823ZM34.128124 264.5823Q34.128124 266.69168 34.628124 267.3948Q35.128124 268.09793 35.846874 268.09793Q36.58125 268.09793 37.065624 267.3948Q37.565624 266.69168 37.565624 264.5823Q37.565624 262.4573 37.065624 261.7698Q36.58125 261.06668 35.83125 261.06668Q35.1125 261.06668 34.675 261.67606Q34.128124 262.4573 34.128124 264.5823Z" fill-rule="nonzero"/><path fill="#000000" d="M24.596874 200.16771L24.596874 201.18333L18.909374 201.18333Q18.909374 200.80833 19.034374 200.44896Q19.253124 199.87083 19.721874 199.30833Q20.20625 198.74583 21.1125 198.01146Q22.51875 196.85521 23.003124 196.18333Q23.503124 195.51146 23.503124 194.91771Q23.503124 194.29271 23.05 193.87083Q22.596874 193.43333 21.878124 193.43333Q21.1125 193.43333 20.659374 193.88646Q20.20625 194.33958 20.190624 195.15208L19.1125 195.04271Q19.221874 193.82396 19.940624 193.19896Q20.675 192.55833 21.909374 192.55833Q23.14375 192.55833 23.8625 193.24583Q24.58125 193.93333 24.58125 194.94896Q24.58125 195.46458 24.3625 195.96458Q24.159374 196.44896 23.659374 197.01146Q23.175 197.55833 22.05 198.51146Q21.096874 199.30833 20.815624 199.60521Q20.55 199.88646 20.378124 200.16771L24.596874 200.16771ZM26.05 196.94896Q26.05 195.41771 26.3625 194.49583Q26.675 193.55833 27.284374 193.05833Q27.909374 192.55833 28.846874 192.55833Q29.534374 192.55833 30.05 192.83958Q30.58125 193.12083 30.925 193.65208Q31.26875 194.16771 31.45625 194.91771Q31.64375 195.66771 31.64375 196.94896Q31.64375 198.46458 31.33125 199.38646Q31.034374 200.30833 30.409374 200.82396Q29.8 201.32396 28.846874 201.32396Q27.6125 201.32396 26.89375 200.43333Q26.05 199.37083 26.05 196.94896ZM27.128124 196.94896Q27.128124 199.05833 27.628124 199.76146Q28.128124 200.46458 28.846874 200.46458Q29.58125 200.46458 30.065624 199.76146Q30.565624 199.05833 30.565624 196.94896Q30.565624 194.82396 30.065624 194.13646Q29.58125 193.43333 28.83125 193.43333Q28.1125 193.43333 27.675 194.04271Q27.128124 194.82396 27.128124 196.94896ZM33.05 196.94896Q33.05 195.41771 33.3625 194.49583Q33.675 193.55833 34.284374 193.05833Q34.909374 192.55833 35.846874 192.55833Q36.534374 192.55833 37.05 192.83958Q37.58125 193.12083 37.925 193.65208Q38.26875 194.16771 38.45625 194.91771Q38.64375 195.66771 38.64375 196.94896Q38.64375 198.46458 38.33125 199.38646Q38.034374 200.30833 37.409374 200.82396Q36.8 201.32396 35.846874 201.32396Q34.6125 201.32396 33.89375 200.43333Q33.05 199.37083 33.05 196.94896ZM34.128124 196.94896Q34.128124 199.05833 34.628124 199.76146Q35.128124 200.46458 35.846874 200.46458Q36.58125 200.46458 37.065624 199.76146Q37.565624 199.05833 37.565624 196.94896Q37.565624 194.82396 37.065624 194.13646Q36.58125 193.43333 35.83125 193.43333Q35.1125 193.43333 34.675 194.04271Q34.128124 194.82396 34.128124 196.94896Z" fill-rule="nonzero"/><path fill="#000000" d="M19.05 131.28438L20.1125 131.14375Q20.284374 132.03438 20.721874 132.44063Q21.159374 132.83125 21.784374 132.83125Q22.534374 132.83125 23.05 132.31563Q23.565624 131.8 23.565624 131.03438Q23.565624 130.31563 23.08125 129.84688Q22.6125 129.3625 21.878124 129.3625Q21.58125 129.3625 21.128124 129.4875L21.253124 128.55Q21.3625 128.56563 21.425 128.56563Q22.096874 128.56563 22.628124 128.22188Q23.175 127.8625 23.175 127.12813Q23.175 126.55 22.784374 126.175Q22.39375 125.78438 21.76875 125.78438Q21.159374 125.78438 20.7375 126.175Q20.33125 126.56563 20.221874 127.33125L19.159374 127.14375Q19.346874 126.09688 20.034374 125.51875Q20.721874 124.925 21.7375 124.925Q22.440624 124.925 23.034374 125.2375Q23.628124 125.53438 23.940624 126.05Q24.253124 126.56563 24.253124 127.15938Q24.253124 127.70625 23.95625 128.175Q23.659374 128.62813 23.08125 128.89375Q23.83125 129.06563 24.253124 129.62813Q24.675 130.175 24.675 131.01875Q24.675 132.14375 23.846874 132.925Q23.034374 133.70625 21.784374 133.70625Q20.659374 133.70625 19.909374 133.03438Q19.159374 132.34688 19.05 131.28438ZM26.05 129.31563Q26.05 127.78438 26.3625 126.8625Q26.675 125.925 27.284374 125.425Q27.909374 124.925 28.846874 124.925Q29.534374 124.925 30.05 125.20625Q30.58125 125.4875 30.925 126.01875Q31.26875 126.53438 31.45625 127.28438Q31.64375 128.03438 31.64375 129.31563Q31.64375 130.83125 31.33125 131.75313Q31.034374 132.675 30.409374 133.19063Q29.8 133.69063 28.846874 133.69063Q27.6125 133.69063 26.89375 132.8Q26.05 131.7375 26.05 129.31563ZM27.128124 129.31563Q27.128124 131.425 27.628124 132.12813Q28.128124 132.83125 28.846874 132.83125Q29.58125 132.83125 30.065624 132.12813Q30.565624 131.425 30.565624 129.31563Q30.565624 127.19063 30.065624 126.50313Q29.58125 125.8 28.83125 125.8Q28.1125 125.8 27.675 126.40938Q27.128124 127.19063 27.128124 129.31563ZM33.05 129.31563Q33.05 127.78438 33.3625 126.8625Q33.675 125.925 34.284374 125.425Q34.909374 124.925 35.846874 124.925Q36.534374 124.925 37.05 125.20625Q37.58125 125.4875 37.925 126.01875Q38.26875 126.53438 38.45625 127.28438Q38.64375 128.03438 38.64375 129.31563Q38.64375 130.83125 38.33125 131.75313Q38.034374 132.675 37.409374 133.19063Q36.8 133.69063 35.846874 133.69063Q34.6125 133.69063 33.89375 132.8Q33.05 131.7375 33.05 129.31563ZM34.128124 129.31563Q34.128124 131.425 34.628124 132.12813Q35.128124 132.83125 35.846874 132.83125Q36.58125 132.83125 37.065624 132.12813Q37.565624 131.425 37.565624 129.31563Q37.565624 127.19063 37.065624 126.50313Q36.58125 125.8 35.83125 125.8Q35.1125 125.8 34.675 126.40938Q34.128124 127.19063 34.128124 129.31563Z" fill-rule="nonzero"/><path fill="#000000" d="M22.425 65.916664L22.425 63.854164L18.70625 63.854164L18.70625 62.885414L22.628124 57.322914L23.4875 57.322914L23.4875 62.885414L24.64375 62.885414L24.64375 63.854164L23.4875 63.854164L23.4875 65.916664L22.425 65.916664ZM22.425 62.885414L22.425 59.02604L19.7375 62.885414L22.425 62.885414ZM26.05 61.68229Q26.05 60.15104 26.3625 59.229164Q26.675 58.291664 27.284374 57.791664Q27.909374 57.291664 28.846874 57.291664Q29.534374 57.291664 30.05 57.572914Q30.58125 57.854164 30.925 58.385414Q31.26875 58.90104 31.45625 59.65104Q31.64375 60.40104 31.64375 61.68229Q31.64375 63.197914 31.33125 64.11979Q31.034374 65.041664 30.409374 65.55729Q29.8 66.05729 28.846874 66.05729Q27.6125 66.05729 26.89375 65.166664Q26.05 64.104164 26.05 61.68229ZM27.128124 61.68229Q27.128124 63.791664 27.628124 64.49479Q28.128124 65.197914 28.846874 65.197914Q29.58125 65.197914 30.065624 64.49479Q30.565624 63.791664 30.565624 61.68229Q30.565624 59.55729 30.065624 58.86979Q29.58125 58.166664 28.83125 58.166664Q28.1125 58.166664 27.675 58.77604Q27.128124 59.55729 27.128124 61.68229ZM33.05 61.68229Q33.05 60.15104 33.3625 59.229164Q33.675 58.291664 34.284374 57.791664Q34.909374 57.291664 35.846874 57.291664Q36.534374 57.291664 37.05 57.572914Q37.58125 57.854164 37.925 58.385414Q38.26875 58.90104 38.45625 59.65104Q38.64375 60.40104 38.64375 61.68229Q38.64375 63.197914 38.33125 64.11979Q38.034374 65.041664 37.409374 65.55729Q36.8 66.05729 35.846874 66.05729Q34.6125 66.05729 33.89375 65.166664Q33.05 64.104164 33.05 61.68229ZM34.128124 61.68229Q34.128124 63.791664 34.628124 64.49479Q35.128124 65.197914 35.846874 65.197914Q36.58125 65.197914 37.065624 64.49479Q37.565624 63.791664 37.565624 61.68229Q37.565624 59.55729 37.065624 58.86979Q36.58125 58.166664 35.83125 58.166664Q35.1125 58.166664 34.675 58.77604Q34.128124 59.55729 34.128124 61.68229Z" fill-rule="nonzero"/><path fill="#000000" d="M129.45172 349.45L129.45172 340.85626L132.42047 340.85626Q133.42047 340.85626 133.95172 340.98126Q134.6861 341.15314 135.20172 341.59064Q135.88922 342.16876 136.21735 343.075Q136.5611 343.96564 136.5611 345.10626Q136.5611 346.09064 136.32672 346.84064Q136.10797 347.59064 135.7486 348.09064Q135.38922 348.59064 134.95172 348.8719Q134.52985 349.15314 133.9361 349.3094Q133.34235 349.45 132.5611 349.45L129.45172 349.45ZM130.59235 348.4344L132.42047 348.4344Q133.27985 348.4344 133.76422 348.27814Q134.2486 348.1219 134.52985 347.825Q134.9361 347.4344 135.15485 346.7469Q135.38922 346.0594 135.38922 345.09064Q135.38922 343.7469 134.9361 343.02814Q134.4986 342.29376 133.8736 342.04376Q133.40485 341.8719 132.40485 341.8719L130.59235 341.8719L130.59235 348.4344ZM142.57672 347.45L143.67047 347.575Q143.42047 348.52814 142.71735 349.0594Q142.01422 349.59064 140.9361 349.59064Q139.57672 349.59064 138.76422 348.7469Q137.96735 347.90314 137.96735 346.3875Q137.96735 344.825 138.77985 343.96564Q139.59235 343.09064 140.8736 343.09064Q142.1236 343.09064 142.90485 343.9344Q143.70172 344.77814 143.70172 346.325Q143.70172 346.41876 143.70172 346.60626L139.0611 346.60626Q139.1236 347.6375 139.63922 348.1844Q140.15485 348.71564 140.9361 348.71564Q141.51422 348.71564 141.92047 348.41876Q142.34235 348.10626 142.57672 347.45ZM139.1236 345.7469L142.59235 345.7469Q142.52985 344.95 142.20172 344.5594Q141.6861 343.95 140.88922 343.95Q140.15485 343.95 139.65485 344.4344Q139.17047 344.91876 139.1236 345.7469ZM145.32672 349.45L145.32672 343.23126L146.26422 343.23126L146.26422 344.10626Q146.95172 343.09064 148.2486 343.09064Q148.8111 343.09064 149.27985 343.29376Q149.76422 343.4969 149.9986 343.825Q150.23297 344.15314 150.32672 344.59064Q150.3736 344.8875 150.3736 345.6219L150.3736 349.45L149.32672 349.45L149.32672 345.66876Q149.32672 345.0125 149.20172 344.7Q149.07672 344.3875 148.76422 344.2Q148.45172 343.9969 148.02985 343.9969Q147.35797 343.9969 146.85797 344.4344Q146.3736 344.85626 146.3736 346.04376L146.3736 349.45L145.32672 349.45ZM152.32672 349.45L152.32672 343.23126L153.26422 343.23126L153.26422 344.10626Q153.5611 343.6375 154.04547 343.3719Q154.52985 343.09064 155.15485 343.09064Q155.84235 343.09064 156.27985 343.3719Q156.73297 343.65314 156.90485 344.16876Q157.65485 343.09064 158.82672 343.09064Q159.76422 343.09064 160.2486 343.60626Q160.7486 344.10626 160.7486 345.1844L160.7486 349.45L159.70172 349.45L159.70172 345.52814Q159.70172 344.90314 159.59235 344.6219Q159.4986 344.34064 159.23297 344.16876Q158.96735 343.9969 158.59235 343.9969Q157.9361 343.9969 157.4986 344.4344Q157.07672 344.8719 157.07672 345.84064L157.07672 349.45L156.01422 349.45L156.01422 345.40314Q156.01422 344.7 155.7486 344.35626Q155.4986 343.9969 154.92047 343.9969Q154.46735 343.9969 154.09235 344.23126Q153.71735 344.46564 153.54547 344.91876Q153.3736 345.3719 153.3736 346.21564L153.3736 349.45L152.32672 349.45ZM166.38922 348.6844Q165.79547 349.1844 165.2486 349.3875Q164.71735 349.59064 164.09235 349.59064Q163.0611 349.59064 162.51422 349.09064Q161.96735 348.59064 161.96735 347.8094Q161.96735 347.35626 162.17047 346.98126Q162.3736 346.59064 162.71735 346.3719Q163.0611 346.1375 163.48297 346.02814Q163.77985 345.9344 164.42047 345.85626Q165.6861 345.71564 166.29547 345.4969Q166.29547 345.27814 166.29547 345.23126Q166.29547 344.575 165.9986 344.3094Q165.59235 343.96564 164.79547 343.96564Q164.0611 343.96564 163.70172 344.23126Q163.34235 344.48126 163.17047 345.1375L162.13922 344.9969Q162.27985 344.34064 162.60797 343.9344Q162.9361 343.52814 163.54547 343.3094Q164.15485 343.09064 164.95172 343.09064Q165.7486 343.09064 166.2486 343.27814Q166.7486 343.46564 166.98297 343.7469Q167.21735 344.02814 167.3111 344.46564Q167.35797 344.73126 167.35797 345.4344L167.35797 346.84064Q167.35797 348.3094 167.42047 348.7Q167.4986 349.09064 167.70172 349.45L166.59235 349.45Q166.4361 349.1219 166.38922 348.6844ZM166.29547 346.325Q165.71735 346.5594 164.57672 346.73126Q163.92047 346.825 163.65485 346.95Q163.38922 347.0594 163.23297 347.27814Q163.09235 347.4969 163.09235 347.77814Q163.09235 348.2 163.40485 348.48126Q163.73297 348.7625 164.34235 348.7625Q164.95172 348.7625 165.42047 348.4969Q165.90485 348.23126 166.1236 347.7625Q166.29547 347.40314 166.29547 346.71564L166.29547 346.325ZM169.3111 349.45L169.3111 343.23126L170.26422 343.23126L170.26422 344.16876Q170.6236 343.5125 170.92047 343.3094Q171.23297 343.09064 171.60797 343.09064Q172.13922 343.09064 172.6861 343.41876L172.32672 344.40314Q171.9361 344.16876 171.5611 344.16876Q171.20172 344.16876 170.92047 344.3875Q170.65485 344.59064 170.54547 344.96564Q170.35797 345.52814 170.35797 346.1844L170.35797 349.45L169.3111 349.45ZM173.32672 349.45L173.32672 340.85626L174.38922 340.85626L174.38922 345.7625L176.8736 343.23126L178.2486 343.23126L175.85797 345.52814L178.48297 349.45L177.1861 349.45L175.1236 346.2625L174.38922 346.98126L174.38922 349.45L173.32672 349.45Z" fill-rule="nonzero"/><path fill="#000000" d="M293.98438 349.45L293.98438 340.85626L299.78125 340.85626L299.78125 341.8719L295.125 341.8719L295.125 344.52814L299.15625 344.52814L299.15625 345.54376L295.125 345.54376L295.125 349.45L293.98438 349.45ZM300.79688 342.075L300.79688 340.85626L301.85938 340.85626L301.85938 342.075L300.79688 342.075ZM300.79688 349.45L300.79688 343.23126L301.85938 343.23126L301.85938 349.45L300.79688 349.45ZM303.79688 349.45L303.79688 343.23126L304.73438 343.23126L304.73438 344.10626Q305.42188 343.09064 306.71875 343.09064Q307.28125 343.09064 307.75 343.29376Q308.23438 343.4969 308.46875 343.825Q308.70312 344.15314 308.79688 344.59064Q308.84375 344.8875 308.84375 345.6219L308.84375 349.45L307.79688 349.45L307.79688 345.66876Q307.79688 345.0125 307.67188 344.7Q307.54688 344.3875 307.23438 344.2Q306.92188 343.9969 306.5 343.9969Q305.82812 343.9969 305.32812 344.4344Q304.84375 344.85626 304.84375 346.04376L304.84375 349.45L303.79688 349.45ZM310.76562 349.45L310.76562 340.85626L311.82812 340.85626L311.82812 349.45L310.76562 349.45ZM317.85938 348.6844Q317.26562 349.1844 316.71875 349.3875Q316.1875 349.59064 315.5625 349.59064Q314.53125 349.59064 313.98438 349.09064Q313.4375 348.59064 313.4375 347.8094Q313.4375 347.35626 313.64062 346.98126Q313.84375 346.59064 314.1875 346.3719Q314.53125 346.1375 314.95312 346.02814Q315.25 345.9344 315.89062 345.85626Q317.15625 345.71564 317.76562 345.4969Q317.76562 345.27814 317.76562 345.23126Q317.76562 344.575 317.46875 344.3094Q317.0625 343.96564 316.26562 343.96564Q315.53125 343.96564 315.17188 344.23126Q314.8125 344.48126 314.64062 345.1375L313.60938 344.9969Q313.75 344.34064 314.07812 343.9344Q314.40625 343.52814 315.01562 343.3094Q315.625 343.09064 316.42188 343.09064Q317.21875 343.09064 317.71875 343.27814Q318.21875 343.46564 318.45312 343.7469Q318.6875 344.02814 318.78125 344.46564Q318.82812 344.73126 318.82812 345.4344L318.82812 346.84064Q318.82812 348.3094 318.89062 348.7Q318.96875 349.09064 319.17188 349.45L318.0625 349.45Q317.90625 349.1219 317.85938 348.6844ZM317.76562 346.325Q317.1875 346.5594 316.04688 346.73126Q315.39062 346.825 315.125 346.95Q314.85938 347.0594 314.70312 347.27814Q314.5625 347.4969 314.5625 347.77814Q314.5625 348.2 314.875 348.48126Q315.20312 348.7625 315.8125 348.7625Q316.42188 348.7625 316.89062 348.4969Q317.375 348.23126 317.59375 347.7625Q317.76562 347.40314 317.76562 346.71564L317.76562 346.325ZM320.79688 349.45L320.79688 343.23126L321.73438 343.23126L321.73438 344.10626Q322.42188 343.09064 323.71875 343.09064Q324.28125 343.09064 324.75 343.29376Q325.23438 343.4969 325.46875 343.825Q325.70312 344.15314 325.79688 344.59064Q325.84375 344.8875 325.84375 345.6219L325.84375 349.45L324.79688 349.45L324.79688 345.66876Q324.79688 345.0125 324.67188 344.7Q324.54688 344.3875 324.23438 344.2Q323.92188 343.9969 323.5 343.9969Q322.82812 343.9969 322.32812 344.4344Q321.84375 344.85626 321.84375 346.04376L321.84375 349.45L320.79688 349.45ZM331.82812 349.45L331.82812 348.66876Q331.23438 349.59064 330.09375 349.59064Q329.34375 349.59064 328.71875 349.1844Q328.09375 348.7625 327.75 348.02814Q327.40625 347.29376 327.40625 346.34064Q327.40625 345.41876 327.71875 344.65314Q328.03125 343.8875 328.65625 343.4969Q329.28125 343.09064 330.04688 343.09064Q330.60938 343.09064 331.04688 343.325Q331.48438 343.5594 331.76562 343.9344L331.76562 340.85626L332.8125 340.85626L332.8125 349.45L331.82812 349.45ZM328.5 346.34064Q328.5 347.54376 329.0 348.1375Q329.5 348.71564 330.1875 348.71564Q330.875 348.71564 331.35938 348.15314Q331.84375 347.59064 331.84375 346.4344Q331.84375 345.15314 331.34375 344.5594Q330.85938 343.96564 330.14062 343.96564Q329.4375 343.96564 328.96875 344.54376Q328.5 345.10626 328.5 346.34064Z" fill-rule="nonzero"/><path fill="#000000" d="M453.39203 349.45L453.39203 340.85626L454.54828 340.85626L459.0639 347.60626L459.0639 340.85626L460.15765 340.85626L460.15765 349.45L458.98578 349.45L454.47015 342.7L454.47015 349.45L453.39203 349.45ZM461.8764 346.34064Q461.8764 344.60626 462.82953 343.77814Q463.6264 343.09064 464.78265 343.09064Q466.0639 343.09064 466.8764 343.9344Q467.70453 344.7625 467.70453 346.2469Q467.70453 347.45 467.34515 348.1375Q466.98578 348.825 466.28265 349.21564Q465.59515 349.59064 464.78265 349.59064Q463.48578 349.59064 462.67328 348.7625Q461.8764 347.91876 461.8764 346.34064ZM462.95453 346.34064Q462.95453 347.52814 463.47015 348.1219Q464.0014 348.71564 464.78265 348.71564Q465.57953 348.71564 466.09515 348.1219Q466.61078 347.52814 466.61078 346.3094Q466.61078 345.15314 466.07953 344.5594Q465.5639 343.96564 464.78265 343.96564Q464.0014 343.96564 463.47015 344.5594Q462.95453 345.1375 462.95453 346.34064ZM469.2514 349.45L469.2514 343.23126L470.20453 343.23126L470.20453 344.16876Q470.5639 343.5125 470.86078 343.3094Q471.17328 343.09064 471.54828 343.09064Q472.07953 343.09064 472.6264 343.41876L472.26703 344.40314Q471.8764 344.16876 471.5014 344.16876Q471.14203 344.16876 470.86078 344.3875Q470.59515 344.59064 470.48578 344.96564Q470.29828 345.52814 470.29828 346.1844L470.29828 349.45L469.2514 349.45ZM474.40765 349.45L472.5014 343.23126L473.59515 343.23126L474.57953 346.825L474.95453 348.15314Q474.98578 348.0594 475.28265 346.8719L476.26703 343.23126L477.34515 343.23126L478.28265 346.84064L478.59515 348.02814L478.95453 346.825L480.01703 343.23126L481.04828 343.23126L479.09515 349.45L478.0014 349.45L477.01703 345.71564L476.76703 344.66876L475.51703 349.45L474.40765 349.45ZM486.32953 348.6844Q485.73578 349.1844 485.1889 349.3875Q484.65765 349.59064 484.03265 349.59064Q483.0014 349.59064 482.45453 349.09064Q481.90765 348.59064 481.90765 347.8094Q481.90765 347.35626 482.11078 346.98126Q482.3139 346.59064 482.65765 346.3719Q483.0014 346.1375 483.42328 346.02814Q483.72015 345.9344 484.36078 345.85626Q485.6264 345.71564 486.23578 345.4969Q486.23578 345.27814 486.23578 345.23126Q486.23578 344.575 485.9389 344.3094Q485.53265 343.96564 484.73578 343.96564Q484.0014 343.96564 483.64203 344.23126Q483.28265 344.48126 483.11078 345.1375L482.07953 344.9969Q482.22015 344.34064 482.54828 343.9344Q482.8764 343.52814 483.48578 343.3094Q484.09515 343.09064 484.89203 343.09064Q485.6889 343.09064 486.1889 343.27814Q486.6889 343.46564 486.92328 343.7469Q487.15765 344.02814 487.2514 344.46564Q487.29828 344.73126 487.29828 345.4344L487.29828 346.84064Q487.29828 348.3094 487.36078 348.7Q487.4389 349.09064 487.64203 349.45L486.53265 349.45Q486.3764 349.1219 486.32953 348.6844ZM486.23578 346.325Q485.65765 346.5594 484.51703 346.73126Q483.86078 346.825 483.59515 346.95Q483.32953 347.0594 483.17328 347.27814Q483.03265 347.4969 483.03265 347.77814Q483.03265 348.2 483.34515 348.48126Q483.67328 348.7625 484.28265 348.7625Q484.89203 348.7625 485.36078 348.4969Q485.84515 348.23126 486.0639 347.7625Q486.23578 347.40314 486.23578 346.71564L486.23578 346.325ZM489.22015 351.84064L489.09515 350.85626Q489.4389 350.95 489.70453 350.95Q490.04828 350.95 490.2514 350.825Q490.47015 350.71564 490.61078 350.5125Q490.70453 350.34064 490.9389 349.71564Q490.95453 349.6375 491.03265 349.46564L488.65765 343.23126L489.79828 343.23126L491.09515 346.825Q491.34515 347.5125 491.54828 348.27814Q491.73578 347.54376 491.98578 346.85626L493.3139 343.23126L494.36078 343.23126L492.0014 349.5594Q491.61078 350.575 491.40765 350.96564Q491.1264 351.4969 490.7514 351.73126Q490.39203 351.98126 489.89203 351.98126Q489.59515 351.98126 489.22015 351.84064Z" fill-rule="nonzero"/><path fill="#757575" d="M18.51875 37.55L24.01875 23.2375L26.065624 23.2375L31.925 37.55L29.76875 37.55L28.096874 33.20625L22.1125 33.20625L20.534374 37.55L18.51875 37.55ZM22.659374 31.675L27.503124 31.675L26.01875 27.70625Q25.33125 25.89375 25.003124 24.7375Q24.721874 26.1125 24.221874 27.471874L22.659374 31.675ZM32.8625 41.51875L32.8625 27.175L34.471874 27.175L34.471874 28.51875Q35.034374 27.7375 35.7375 27.346874Q36.45625 26.940624 37.471874 26.940624Q38.8 26.940624 39.815624 27.628124Q40.83125 28.315624 41.346874 29.565624Q41.878124 30.8 41.878124 32.284374Q41.878124 33.878124 41.3 35.159374Q40.7375 36.425 39.64375 37.1125Q38.55 37.784374 37.346874 37.784374Q36.471874 37.784374 35.76875 37.409374Q35.08125 37.034374 34.628124 36.471874L34.628124 41.51875L32.8625 41.51875ZM34.45625 32.425Q34.45625 34.425 35.26875 35.378124Q36.08125 36.33125 37.2375 36.33125Q38.409374 36.33125 39.2375 35.346874Q40.08125 34.3625 40.08125 32.26875Q40.08125 30.3 39.253124 29.315624Q38.440624 28.315624 37.315624 28.315624Q36.190624 28.315624 35.315624 29.378124Q34.45625 30.425 34.45625 32.425ZM43.846874 37.55L43.846874 27.175L45.425 27.175L45.425 28.753124Q46.034374 27.64375 46.55 27.3Q47.065624 26.940624 47.675 26.940624Q48.565624 26.940624 49.4875 27.503124L48.878124 29.14375Q48.2375 28.753124 47.596874 28.753124Q47.01875 28.753124 46.55 29.1125Q46.096874 29.45625 45.89375 30.065624Q45.6125 31.003124 45.6125 32.1125L45.6125 37.55L43.846874 37.55ZM50.878124 25.253124L50.878124 23.2375L52.64375 23.2375L52.64375 25.253124L50.878124 25.253124ZM50.878124 37.55L50.878124 27.175L52.64375 27.175L52.64375 37.55L50.878124 37.55ZM54.83125 37.55L54.83125 23.2375L56.58125 23.2375L56.58125 37.55L54.83125 37.55ZM71.64375 33.753124L73.3625 33.971874Q73.08125 35.76875 71.90938 36.784374Q70.75313 37.784374 69.05 37.784374Q66.925 37.784374 65.62813 36.39375Q64.33125 35.003124 64.33125 32.409374Q64.33125 30.721874 64.87813 29.471874Q65.44063 28.20625 66.58125 27.58125Q67.72188 26.940624 69.06563 26.940624Q70.75313 26.940624 71.81563 27.8Q72.89375 28.659374 73.20625 30.221874L71.4875 30.4875Q71.25313 29.440624 70.62813 28.925Q70.00313 28.39375 69.12813 28.39375Q67.8 28.39375 66.97188 29.346874Q66.14375 30.3 66.14375 32.346874Q66.14375 34.440624 66.94063 35.39375Q67.7375 36.33125 69.03438 36.33125Q70.06563 36.33125 70.75313 35.70625Q71.45625 35.065624 71.64375 33.753124ZM81.64375 36.26875Q80.65938 37.096874 79.75313 37.440624Q78.84688 37.784374 77.81563 37.784374Q76.1125 37.784374 75.19063 36.95625Q74.26875 36.1125 74.26875 34.815624Q74.26875 34.05 74.6125 33.425Q74.97188 32.8 75.53438 32.425Q76.09688 32.034374 76.8 31.83125Q77.31563 31.70625 78.3625 31.565624Q80.4875 31.315624 81.4875 30.971874Q81.50313 30.6125 81.50313 30.503124Q81.50313 29.440624 81.00313 28.9875Q80.33125 28.39375 79.00313 28.39375Q77.75313 28.39375 77.15938 28.83125Q76.58125 29.26875 76.3 30.378124L74.58125 30.14375Q74.81563 29.034374 75.34688 28.3625Q75.87813 27.675 76.89375 27.315624Q77.90938 26.940624 79.25313 26.940624Q80.58125 26.940624 81.40938 27.253124Q82.2375 27.565624 82.62813 28.05Q83.01875 28.51875 83.175 29.2375Q83.26875 29.690624 83.26875 30.8625L83.26875 33.20625Q83.26875 35.659374 83.37813 36.315624Q83.4875 36.95625 83.83125 37.55L81.9875 37.55Q81.72188 37.003124 81.64375 36.26875ZM81.4875 32.346874Q80.53438 32.7375 78.6125 33.003124Q77.53438 33.159374 77.08125 33.3625Q76.64375 33.55 76.39375 33.925Q76.14375 34.3 76.14375 34.76875Q76.14375 35.471874 76.675 35.940624Q77.20625 36.409374 78.2375 36.409374Q79.25313 36.409374 80.03438 35.971874Q80.83125 35.51875 81.20625 34.753124Q81.4875 34.14375 81.4875 32.9875L81.4875 32.346874ZM85.15938 34.45625L86.90938 34.175Q87.05 35.221874 87.72188 35.784374Q88.39375 36.33125 89.59688 36.33125Q90.8 36.33125 91.37813 35.846874Q91.97188 35.346874 91.97188 34.690624Q91.97188 34.096874 91.45625 33.753124Q91.09688 33.51875 89.65938 33.159374Q87.72188 32.659374 86.97188 32.315624Q86.2375 31.95625 85.84688 31.33125Q85.45625 30.690624 85.45625 29.925Q85.45625 29.2375 85.76875 28.64375Q86.09688 28.05 86.64375 27.659374Q87.05 27.3625 87.75313 27.159374Q88.47188 26.940624 89.28438 26.940624Q90.50313 26.940624 91.425 27.3Q92.34688 27.64375 92.78438 28.253124Q93.22188 28.846874 93.39375 29.846874L91.675 30.08125Q91.55 29.284374 90.9875 28.846874Q90.425 28.39375 89.40938 28.39375Q88.19063 28.39375 87.675 28.8Q87.15938 29.190624 87.15938 29.721874Q87.15938 30.065624 87.37813 30.346874Q87.58125 30.628124 88.05 30.815624Q88.31563 30.909374 89.59688 31.253124Q91.47188 31.753124 92.20625 32.08125Q92.94063 32.39375 93.3625 33.003124Q93.78438 33.596874 93.78438 34.503124Q93.78438 35.378124 93.26875 36.159374Q92.75313 36.940624 91.78438 37.3625Q90.81563 37.784374 89.59688 37.784374Q87.58125 37.784374 86.51875 36.940624Q85.45625 36.096874 85.15938 34.45625ZM102.97188 34.20625L104.78438 34.440624Q104.3625 36.01875 103.19063 36.909374Q102.03438 37.784374 100.22188 37.784374Q97.95625 37.784374 96.6125 36.39375Q95.28438 34.9875 95.28438 32.45625Q95.28438 29.83125 96.62813 28.39375Q97.97188 26.940624 100.12813 26.940624Q102.20625 26.940624 103.51875 28.3625Q104.84688 29.76875 104.84688 32.346874Q104.84688 32.503124 104.83125 32.815624L97.09688 32.815624Q97.19063 34.51875 98.06563 35.425Q98.94063 36.33125 100.2375 36.33125Q101.20625 36.33125 101.87813 35.83125Q102.56563 35.315624 102.97188 34.20625ZM97.19063 31.3625L102.9875 31.3625Q102.87813 30.065624 102.33125 29.409374Q101.4875 28.39375 100.14375 28.39375Q98.94063 28.39375 98.1125 29.20625Q97.28438 30.003124 97.19063 31.3625ZM106.15938 34.45625L107.90938 34.175Q108.05 35.221874 108.72188 35.784374Q109.39375 36.33125 110.59688 36.33125Q111.8 36.33125 112.37813 35.846874Q112.97188 35.346874 112.97188 34.690624Q112.97188 34.096874 112.45625 33.753124Q112.09688 33.51875 110.65938 33.159374Q108.72188 32.659374 107.97188 32.315624Q107.2375 31.95625 106.84688 31.33125Q106.45625 30.690624 106.45625 29.925Q106.45625 29.2375 106.76875 28.64375Q107.09688 28.05 107.64375 27.659374Q108.05 27.3625 108.75313 27.159374Q109.47188 26.940624 110.28438 26.940624Q111.50313 26.940624 112.425 27.3Q113.34688 27.64375 113.78438 28.253124Q114.22188 28.846874 114.39375 29.846874L112.675 30.08125Q112.55 29.284374 111.9875 28.846874Q111.425 28.39375 110.40938 28.39375Q109.19063 28.39375 108.675 28.8Q108.15938 29.190624 108.15938 29.721874Q108.15938 30.065624 108.37813 30.346874Q108.58125 30.628124 109.05 30.815624Q109.31563 30.909374 110.59688 31.253124Q112.47188 31.753124 113.20625 32.08125Q113.94063 32.39375 114.3625 33.003124Q114.78438 33.596874 114.78438 34.503124Q114.78438 35.378124 114.26875 36.159374Q113.75313 36.940624 112.78438 37.3625Q111.81563 37.784374 110.59688 37.784374Q108.58125 37.784374 107.51875 36.940624Q106.45625 36.096874 106.15938 34.45625ZM122.87813 25.253124L122.87813 23.2375L124.64375 23.2375L124.64375 25.253124L122.87813 25.253124ZM122.87813 37.55L122.87813 27.175L124.64375 27.175L124.64375 37.55L122.87813 37.55ZM126.8625 37.55L126.8625 27.175L128.45625 27.175L128.45625 28.659374Q129.59688 26.940624 131.75313 26.940624Q132.69063 26.940624 133.47188 27.284374Q134.26875 27.6125 134.65938 28.159374Q135.05 28.70625 135.20625 29.45625Q135.3 29.95625 135.3 31.175L135.3 37.55L133.53438 37.55L133.53438 31.2375Q133.53438 30.159374 133.33125 29.628124Q133.12813 29.096874 132.59688 28.784374Q132.08125 28.471874 131.37813 28.471874Q130.25313 28.471874 129.44063 29.190624Q128.62813 29.89375 128.62813 31.878124L128.62813 37.55L126.8625 37.55ZM150.64375 36.26875Q149.65938 37.096874 148.75313 37.440624Q147.84688 37.784374 146.81563 37.784374Q145.1125 37.784374 144.19063 36.95625Q143.26875 36.1125 143.26875 34.815624Q143.26875 34.05 143.6125 33.425Q143.97188 32.8 144.53438 32.425Q145.09688 32.034374 145.8 31.83125Q146.31563 31.70625 147.3625 31.565624Q149.4875 31.315624 150.4875 30.971874Q150.50313 30.6125 150.50313 30.503124Q150.50313 29.440624 150.00313 28.9875Q149.33125 28.39375 148.00313 28.39375Q146.75313 28.39375 146.15938 28.83125Q145.58125 29.26875 145.3 30.378124L143.58125 30.14375Q143.81563 29.034374 144.34688 28.3625Q144.87813 27.675 145.89375 27.315624Q146.90938 26.940624 148.25313 26.940624Q149.58125 26.940624 150.40938 27.253124Q151.2375 27.565624 151.62813 28.05Q152.01875 28.51875 152.175 29.2375Q152.26875 29.690624 152.26875 30.8625L152.26875 33.20625Q152.26875 35.659374 152.37813 36.315624Q152.4875 36.95625 152.83125 37.55L150.9875 37.55Q150.72188 37.003124 150.64375 36.26875ZM150.4875 32.346874Q149.53438 32.7375 147.6125 33.003124Q146.53438 33.159374 146.08125 33.3625Q145.64375 33.55 145.39375 33.925Q145.14375 34.3 145.14375 34.76875Q145.14375 35.471874 145.675 35.940624Q146.20625 36.409374 147.2375 36.409374Q148.25313 36.409374 149.03438 35.971874Q149.83125 35.51875 150.20625 34.753124Q150.4875 34.14375 150.4875 32.9875L150.4875 32.346874ZM167.64375 33.753124L169.3625 33.971874Q169.08125 35.76875 167.90938 36.784374Q166.75313 37.784374 165.05 37.784374Q162.925 37.784374 161.62813 36.39375Q160.33125 35.003124 160.33125 32.409374Q160.33125 30.721874 160.87813 29.471874Q161.44063 28.20625 162.58125 27.58125Q163.72188 26.940624 165.06563 26.940624Q166.75313 26.940624 167.81563 27.8Q168.89375 28.659374 169.20625 30.221874L167.4875 30.4875Q167.25313 29.440624 166.62813 28.925Q166.00313 28.39375 165.12813 28.39375Q163.8 28.39375 162.97188 29.346874Q162.14375 30.3 162.14375 32.346874Q162.14375 34.440624 162.94063 35.39375Q163.7375 36.33125 165.03438 36.33125Q166.06563 36.33125 166.75313 35.70625Q167.45625 35.065624 167.64375 33.753124ZM177.64375 36.26875Q176.65938 37.096874 175.75313 37.440624Q174.84688 37.784374 173.81563 37.784374Q172.1125 37.784374 171.19063 36.95625Q170.26875 36.1125 170.26875 34.815624Q170.26875 34.05 170.6125 33.425Q170.97188 32.8 171.53438 32.425Q172.09688 32.034374 172.8 31.83125Q173.31563 31.70625 174.3625 31.565624Q176.4875 31.315624 177.4875 30.971874Q177.50313 30.6125 177.50313 30.503124Q177.50313 29.440624 177.00313 28.9875Q176.33125 28.39375 175.00313 28.39375Q173.75313 28.39375 173.15938 28.83125Q172.58125 29.26875 172.3 30.378124L170.58125 30.14375Q170.81563 29.034374 171.34688 28.3625Q171.87813 27.675 172.89375 27.315624Q173.90938 26.940624 175.25313 26.940624Q176.58125 26.940624 177.40938 27.253124Q178.2375 27.565624 178.62813 28.05Q179.01875 28.51875 179.175 29.2375Q179.26875 29.690624 179.26875 30.8625L179.26875 33.20625Q179.26875 35.659374 179.37813 36.315624Q179.4875 36.95625 179.83125 37.55L177.9875 37.55Q177.72188 37.003124 177.64375 36.26875ZM177.4875 32.346874Q176.53438 32.7375 174.6125 33.003124Q173.53438 33.159374 173.08125 33.3625Q172.64375 33.55 172.39375 33.925Q172.14375 34.3 172.14375 34.76875Q172.14375 35.471874 172.675 35.940624Q173.20625 36.409374 174.2375 36.409374Q175.25313 36.409374 176.03438 35.971874Q176.83125 35.51875 177.20625 34.753124Q177.4875 34.14375 177.4875 32.9875L177.4875 32.346874ZM181.8625 37.55L181.8625 27.175L183.45625 27.175L183.45625 28.659374Q184.59688 26.940624 186.75313 26.940624Q187.69063 26.940624 188.47188 27.284374Q189.26875 27.6125 189.65938 28.159374Q190.05 28.70625 190.20625 29.45625Q190.3 29.95625 190.3 31.175L190.3 37.55L188.53438 37.55L188.53438 31.2375Q188.53438 30.159374 188.33125 29.628124Q188.12813 29.096874 187.59688 28.784374Q187.08125 28.471874 186.37813 28.471874Q185.25313 28.471874 184.44063 29.190624Q183.62813 29.89375 183.62813 31.878124L183.62813 37.55L181.8625 37.55ZM199.59688 37.55L199.59688 36.2375Q198.6125 37.784374 196.69063 37.784374Q195.45625 37.784374 194.40938 37.096874Q193.37813 36.409374 192.8 35.190624Q192.2375 33.971874 192.2375 32.378124Q192.2375 30.815624 192.75313 29.55Q193.26875 28.284374 194.3 27.6125Q195.34688 26.940624 196.6125 26.940624Q197.55 26.940624 198.28438 27.346874Q199.01875 27.7375 199.4875 28.3625L199.4875 23.2375L201.22188 23.2375L201.22188 37.55L199.59688 37.55ZM194.03438 32.378124Q194.03438 34.3625 194.87813 35.346874Q195.72188 36.33125 196.8625 36.33125Q198.01875 36.33125 198.81563 35.39375Q199.62813 34.45625 199.62813 32.51875Q199.62813 30.39375 198.8 29.39375Q197.9875 28.39375 196.78438 28.39375Q195.6125 28.39375 194.81563 29.3625Q194.03438 30.315624 194.03438 32.378124ZM203.83125 37.55L203.83125 23.2375L205.58125 23.2375L205.58125 37.55L203.83125 37.55ZM214.97188 34.20625L216.78438 34.440624Q216.3625 36.01875 215.19063 36.909374Q214.03438 37.784374 212.22188 37.784374Q209.95625 37.784374 208.6125 36.39375Q207.28438 34.9875 207.28438 32.45625Q207.28438 29.83125 208.62813 28.39375Q209.97188 26.940624 212.12813 26.940624Q214.20625 26.940624 215.51875 28.3625Q216.84688 29.76875 216.84688 32.346874Q216.84688 32.503124 216.83125 32.815624L209.09688 32.815624Q209.19063 34.51875 210.06563 35.425Q210.94063 36.33125 212.2375 36.33125Q213.20625 36.33125 213.87813 35.83125Q214.56563 35.315624 214.97188 34.20625ZM209.19063 31.3625L214.9875 31.3625Q214.87813 30.065624 214.33125 29.409374Q213.4875 28.39375 212.14375 28.39375Q210.94063 28.39375 210.1125 29.20625Q209.28438 30.003124 209.19063 31.3625ZM218.15938 34.45625L219.90938 34.175Q220.05 35.221874 220.72188 35.784374Q221.39375 36.33125 222.59688 36.33125Q223.8 36.33125 224.37813 35.846874Q224.97188 35.346874 224.97188 34.690624Q224.97188 34.096874 224.45625 33.753124Q224.09688 33.51875 222.65938 33.159374Q220.72188 32.659374 219.97188 32.315624Q219.2375 31.95625 218.84688 31.33125Q218.45625 30.690624 218.45625 29.925Q218.45625 29.2375 218.76875 28.64375Q219.09688 28.05 219.64375 27.659374Q220.05 27.3625 220.75313 27.159374Q221.47188 26.940624 222.28438 26.940624Q223.50313 26.940624 224.425 27.3Q225.34688 27.64375 225.78438 28.253124Q226.22188 28.846874 226.39375 29.846874L224.675 30.08125Q224.55 29.284374 223.9875 28.846874Q223.425 28.39375 222.40938 28.39375Q221.19063 28.39375 220.675 28.8Q220.15938 29.190624 220.15938 29.721874Q220.15938 30.065624 220.37813 30.346874Q220.58125 30.628124 221.05 30.815624Q221.31563 30.909374 222.59688 31.253124Q224.47188 31.753124 225.20625 32.08125Q225.94063 32.39375 226.3625 33.003124Q226.78438 33.596874 226.78438 34.503124Q226.78438 35.378124 226.26875 36.159374Q225.75313 36.940624 224.78438 37.3625Q223.81563 37.784374 222.59688 37.784374Q220.58125 37.784374 219.51875 36.940624Q218.45625 36.096874 218.15938 34.45625ZM232.70625 35.971874L232.95625 37.534374Q232.22188 37.690624 231.62813 37.690624Q230.675 37.690624 230.14375 37.39375Q229.62813 37.08125 229.40938 36.596874Q229.19063 36.096874 229.19063 34.51875L229.19063 28.55L227.90938 28.55L227.90938 27.175L229.19063 27.175L229.19063 24.6125L230.94063 23.55L230.94063 27.175L232.70625 27.175L232.70625 28.55L230.94063 28.55L230.94063 34.6125Q230.94063 35.3625 231.03438 35.58125Q231.12813 35.784374 231.33125 35.925Q231.55 36.05 231.94063 36.05Q232.22188 36.05 232.70625 35.971874ZM234.87813 25.253124L234.87813 23.2375L236.64375 23.2375L236.64375 25.253124L234.87813 25.253124ZM234.87813 37.55L234.87813 27.175L236.64375 27.175L236.64375 37.55L234.87813 37.55ZM245.64375 33.753124L247.3625 33.971874Q247.08125 35.76875 245.90938 36.784374Q244.75313 37.784374 243.05 37.784374Q240.925 37.784374 239.62813 36.39375Q238.33125 35.003124 238.33125 32.409374Q238.33125 30.721874 238.87813 29.471874Q239.44063 28.20625 240.58125 27.58125Q241.72188 26.940624 243.06563 26.940624Q244.75313 26.940624 245.81563 27.8Q246.89375 28.659374 247.20625 30.221874L245.4875 30.4875Q245.25313 29.440624 244.62813 28.925Q244.00313 28.39375 243.12813 28.39375Q241.8 28.39375 240.97188 29.346874Q240.14375 30.3 240.14375 32.346874Q240.14375 34.440624 240.94063 35.39375Q241.7375 36.33125 243.03438 36.33125Q244.06563 36.33125 244.75313 35.70625Q245.45625 35.065624 245.64375 33.753124ZM248.87813 37.55L248.87813 23.2375L250.64375 23.2375L250.64375 31.39375L254.8 27.175L257.0656 27.175L253.1125 31.01875L257.47186 37.55L255.3 37.55L251.87813 32.253124L250.64375 33.440624L250.64375 37.55L248.87813 37.55ZM271.64374 33.753124L273.3625 33.971874Q273.08124 35.76875 271.90936 36.784374Q270.7531 37.784374 269.05 37.784374Q266.925 37.784374 265.6281 36.39375Q264.33124 35.003124 264.33124 32.409374Q264.33124 30.721874 264.8781 29.471874Q265.4406 28.20625 266.58124 27.58125Q267.72186 26.940624 269.0656 26.940624Q270.7531 26.940624 271.8156 27.8Q272.89374 28.659374 273.20624 30.221874L271.4875 30.4875Q271.2531 29.440624 270.6281 28.925Q270.0031 28.39375 269.1281 28.39375Q267.8 28.39375 266.97186 29.346874Q266.14374 30.3 266.14374 32.346874Q266.14374 34.440624 266.9406 35.39375Q267.7375 36.33125 269.03436 36.33125Q270.0656 36.33125 270.7531 35.70625Q271.45624 35.065624 271.64374 33.753124ZM274.8625 37.55L274.8625 23.2375L276.6281 23.2375L276.6281 28.3625Q277.8625 26.940624 279.7375 26.940624Q280.8781 26.940624 281.72186 27.39375Q282.58124 27.846874 282.9406 28.659374Q283.3156 29.45625 283.3156 30.971874L283.3156 37.55L281.5656 37.55L281.5656 30.971874Q281.5656 29.659374 280.9875 29.065624Q280.40936 28.45625 279.3781 28.45625Q278.59686 28.45625 277.89374 28.8625Q277.20624 29.26875 276.90936 29.971874Q276.6281 30.659374 276.6281 31.878124L276.6281 37.55L274.8625 37.55ZM292.64374 36.26875Q291.65936 37.096874 290.7531 37.440624Q289.84686 37.784374 288.8156 37.784374Q287.1125 37.784374 286.1906 36.95625Q285.26874 36.1125 285.26874 34.815624Q285.26874 34.05 285.6125 33.425Q285.97186 32.8 286.53436 32.425Q287.09686 32.034374 287.8 31.83125Q288.3156 31.70625 289.3625 31.565624Q291.4875 31.315624 292.4875 30.971874Q292.5031 30.6125 292.5031 30.503124Q292.5031 29.440624 292.0031 28.9875Q291.33124 28.39375 290.0031 28.39375Q288.7531 28.39375 288.15936 28.83125Q287.58124 29.26875 287.3 30.378124L285.58124 30.14375Q285.8156 29.034374 286.34686 28.3625Q286.8781 27.675 287.89374 27.315624Q288.90936 26.940624 290.2531 26.940624Q291.58124 26.940624 292.40936 27.253124Q293.2375 27.565624 293.6281 28.05Q294.01874 28.51875 294.175 29.2375Q294.26874 29.690624 294.26874 30.8625L294.26874 33.20625Q294.26874 35.659374 294.3781 36.315624Q294.4875 36.95625 294.83124 37.55L292.9875 37.55Q292.72186 37.003124 292.64374 36.26875ZM292.4875 32.346874Q291.53436 32.7375 289.6125 33.003124Q288.53436 33.159374 288.08124 33.3625Q287.64374 33.55 287.39374 33.925Q287.14374 34.3 287.14374 34.76875Q287.14374 35.471874 287.675 35.940624Q288.20624 36.409374 289.2375 36.409374Q290.2531 36.409374 291.03436 35.971874Q291.83124 35.51875 292.20624 34.753124Q292.4875 34.14375 292.4875 32.9875L292.4875 32.346874ZM296.84686 37.55L296.84686 27.175L298.425 27.175L298.425 28.753124Q299.03436 27.64375 299.55 27.3Q300.0656 26.940624 300.675 26.940624Q301.5656 26.940624 302.4875 27.503124L301.8781 29.14375Q301.2375 28.753124 300.59686 28.753124Q300.01874 28.753124 299.55 29.1125Q299.09686 29.45625 298.89374 30.065624Q298.6125 31.003124 298.6125 32.1125L298.6125 37.55L296.84686 37.55ZM307.70624 35.971874L307.95624 37.534374Q307.22186 37.690624 306.6281 37.690624Q305.675 37.690624 305.14374 37.39375Q304.6281 37.08125 304.40936 36.596874Q304.1906 36.096874 304.1906 34.51875L304.1906 28.55L302.90936 28.55L302.90936 27.175L304.1906 27.175L304.1906 24.6125L305.9406 23.55L305.9406 27.175L307.70624 27.175L307.70624 28.55L305.9406 28.55L305.9406 34.6125Q305.9406 35.3625 306.03436 35.58125Q306.1281 35.784374 306.33124 35.925Q306.55 36.05 306.9406 36.05Q307.22186 36.05 307.70624 35.971874Z" fill-rule="nonzero"/></svg>