<svg version="1.1" viewBox="0.0 0.0 600.0 371.0" fill="none" stroke="none" stroke-linecap="square" stroke-miterlimit="10" width="600" height="371" xmlns:xlink="http://www.w3.org/1999/xlink" xmlns="http://www.w3.org/2000/svg"><path fill="#ffffff" d="M0 0L600.0 0L600.0 371.0L0 371.0L0 0Z" fill-rule="nonzero"/><path stroke="#333333" stroke-width="1.0" stroke-linecap="butt" d="M45.5 332.5L581.5 332.5" fill-rule="nonzero"/><path stroke="#cccccc" stroke-width="1.0" stroke-linecap="butt" d="M45.5 264.5L581.5 264.5" fill-rule="nonzero"/><path stroke="#cccccc" stroke-width="1.0" stroke-linecap="butt" d="M45.5 197.5L581.5 197.5" fill-rule="nonzero"/><path stroke="#cccccc" stroke-width="1.0" stroke-linecap="butt" d="M45.5 129.5L581.5 129.5" fill-rule="nonzero"/><path stroke="#cccccc" stroke-width="1.0" stroke-linecap="butt" d="M45.5 61.5L581.5 61.5" fill-rule="nonzero"/><clipPath id="id_0"><path d="M45.55 61.916668L581.45 61.916668L581.45 332.45L45.55 332.45L45.55 61.916668Z" clip-rule="nonzero"/></clipPath><path stroke="#4285f4" stroke-width="2.0" stroke-linecap="butt" clip-path="url(#id_0)" d="M153.52985 80.177666L153.52985 332.45" fill-rule="nonzero"/><path stroke="#4285f4" stroke-width="2.0" stroke-linecap="butt" clip-path="url(#id_0)" d="M153.52985 332.45L153.52985 289.16467" fill-rule="nonzero"/><path fill="#4285f4" clip-path="url(#id_0)" d="M100.53955 288.16467L206.52014 288.16467L206.52014 333.45L100.53955 333.45L100.53955 288.16467Z" fill-rule="nonzero"/><path stroke="#4285f4" stroke-width="2.0" stroke-linecap="butt" clip-path="url(#id_0)" d="M313.5 303.36768L313.5 313.51266" fill-rule="nonzero"/><path stroke="#4285f4" stroke-width="2.0" stroke-linecap="butt" clip-path="url(#id_0)" d="M313.5 327.71567L313.5 326.363" fill-rule="nonzero"/><path stroke="#4285f4" stroke-width="2.0" stroke-linecap="butt" clip-path="url(#id_0)" d="M261.5097 313.51266L365.4903 313.51266" fill-rule="nonzero"/><path stroke="#4285f4" stroke-width="2.0" stroke-linecap="butt" clip-path="url(#id_0)" d="M261.5097 326.363L261.5097 313.51266" fill-rule="nonzero"/><path stroke="#4285f4" stroke-width="2.0" stroke-linecap="butt" clip-path="url(#id_0)" d="M365.4903 313.51266L365.4903 326.363" fill-rule="nonzero"/><path stroke="#4285f4" stroke-width="2.0" stroke-linecap="butt" clip-path="url(#id_0)" d="M365.4903 326.363L261.5097 326.363" fill-rule="nonzero"/><path stroke="#4285f4" stroke-width="2.0" stroke-linecap="butt" clip-path="url(#id_0)" d="M473.47015 217.47333L473.47015 332.45" fill-rule="nonzero"/><path stroke="#4285f4" stroke-width="2.0" stroke-linecap="butt" clip-path="url(#id_0)" d="M473.47015 332.45L473.47015 308.102" fill-rule="nonzero"/><path fill="#4285f4" clip-path="url(#id_0)" d="M420.47986 307.102L526.46045 307.102L526.46045 333.44998L420.47986 333.44998L420.47986 307.102Z" fill-rule="nonzero"/><path fill="#000000" d="M33.05 332.21564Q33.05 330.6844 33.3625 329.7625Q33.675 328.825 34.284374 328.325Q34.909374 327.825 35.846874 327.825Q36.534374 327.825 37.05 328.10626Q37.58125 328.3875 37.925 328.91876Q38.26875 329.4344 38.45625 330.1844Q38.64375 330.9344 38.64375 332.21564Q38.64375 333.73126 38.33125 334.65314Q38.034374 335.575 37.409374 336.09064Q36.8 336.59064 35.846874 336.59064Q34.6125 336.59064 33.89375 335.7Q33.05 334.6375 33.05 332.21564ZM34.128124 332.21564Q34.128124 334.325 34.628124 335.02814Q35.128124 335.73126 35.846874 335.73126Q36.58125 335.73126 37.065624 335.02814Q37.565624 334.325 37.565624 332.21564Q37.565624 330.09064 37.065624 329.40314Q36.58125 328.7 35.83125 328.7Q35.1125 328.7 34.675 329.3094Q34.128124 330.09064 34.128124 332.21564Z" fill-rule="nonzero"/><path fill="#000000" d="M23.01875 268.81668L21.971874 268.81668L21.971874 262.09793Q21.58125 262.4573 20.95625 262.8323Q20.346874 263.19168 19.8625 263.36356L19.8625 262.34793Q20.7375 261.92606 21.39375 261.34793Q22.065624 260.75418 22.346874 260.19168L23.01875 260.19168L23.01875 268.81668ZM26.05 264.5823Q26.05 263.05106 26.3625 262.12918Q26.675 261.19168 27.284374 260.69168Q27.909374 260.19168 28.846874 260.19168Q29.534374 260.19168 30.05 260.47293Q30.58125 260.75418 30.925 261.28543Q31.26875 261.80106 31.45625 262.55106Q31.64375 263.30106 31.64375 264.5823Q31.64375 266.09793 31.33125 267.0198Q31.034374 267.94168 30.409374 268.4573Q29.8 268.9573 28.846874 268.9573Q27.6125 268.9573 26.89375 268.06668Q26.05 267.00418 26.05 264.5823ZM27.128124 264.5823Q27.128124 266.69168 27.628124 267.3948Q28.128124 268.09793 28.846874 268.09793Q29.58125 268.09793 30.065624 267.3948Q30.565624 266.69168 30.565624 264.5823Q30.565624 262.4573 30.065624 261.7698Q29.58125 261.06668 28.83125 261.06668Q28.1125 261.06668 27.675 261.67606Q27.128124 262.4573 27.128124 264.5823ZM33.05 264.5823Q33.05 263.05106 33.3625 262.12918Q33.675 261.19168 34.284374 260.69168Q34.909374 260.19168 35.846874 260.19168Q36.534374 260.19168 37.05 260.47293Q37.58125 260.75418 37.925 261.28543Q38.26875 261.80106 38.45625 262.55106Q38.64375 263.30106 38.64375 264.5823Q38.64375 266.09793 38.33125 267.0198Q38.034374 267.94168 37.409374 268.4573Q36.8 268.9573 35.846874 268.9573Q34.6125 268.9573 33.89375 268.06668Q33.05 267.00418 33.05 264.5823ZM34.128124 264.5823Q34.128124 266.69168 34.628124 267.3948Q35.128124 268.09793 35.846874 268.09793Q36.58125 268.09793 37.065624 267.3948Q37.565624 266.69168 37.565624 264.5823Q37.565624 262.4573 37.065624 261.7698Q36.58125 261.06668 35.83125 261.06668Q35.1125 261.06668 34.675 261.67606Q34.128124 262.4573 34.128124 264.5823Z" fill-rule="nonzero"/><path fill="#000000" d="M24.596874 200.16771L24.596874 201.18333L18.909374 201.18333Q18.909374 200.80833 19.034374 200.44896Q19.253124 199.87083 19.721874 199.30833Q20.20625 198.74583 21.1125 198.01146Q22.51875 196.85521 23.003124 196.18333Q23.503124 195.51146 23.503124 194.91771Q23.503124 194.29271 23.05 193.87083Q22.596874 193.43333 21.878124 193.43333Q21.1125 193.43333 20.659374 193.88646Q20.20625 194.33958 20.190624 195.15208L19.1125 195.04271Q19.221874 193.82396 19.940624 193.19896Q20.675 192.55833 21.909374 192.55833Q23.14375 192.55833 23.8625 193.24583Q24.58125 193.93333 24.58125 194.94896Q24.58125 195.46458 24.3625 195.96458Q24.159374 196.44896 23.659374 197.01146Q23.175 197.55833 22.05 198.51146Q21.096874 199.30833 20.815624 199.60521Q20.55 199.88646 20.378124 200.16771L24.596874 200.16771ZM26.05 196.94896Q26.05 195.41771 26.3625 194.49583Q26.675 193.55833 27.284374 193.05833Q27.909374 192.55833 28.846874 192.55833Q29.534374 192.55833 30.05 192.83958Q30.58125 193.12083 30.925 193.65208Q31.26875 194.16771 31.45625 194.91771Q31.64375 195.66771 31.64375 196.94896Q31.64375 198.46458 31.33125 199.38646Q31.034374 200.30833 30.409374 200.82396Q29.8 201.32396 28.846874 201.32396Q27.6125 201.32396 26.89375 200.43333Q26.05 199.37083 26.05 196.94896ZM27.128124 196.94896Q27.128124 199.05833 27.628124 199.76146Q28.128124 200.46458 28.846874 200.46458Q29.58125 200.46458 30.065624 199.76146Q30.565624 199.05833 30.565624 196.94896Q30.565624 194.82396 30.065624 194.13646Q29.58125 193.43333 28.83125 193.43333Q28.1125 193.43333 27.675 194.04271Q27.128124 194.82396 27.128124 196.94896ZM33.05 196.94896Q33.05 195.41771 33.3625 194.49583Q33.675 193.55833 34.284374 193.05833Q34.909374 192.55833 35.846874 192.55833Q36.534374 192.55833 37.05 192.83958Q37.58125 193.12083 37.925 193.65208Q38.26875 194.16771 38.45625 194.91771Q38.64375 195.66771 38.64375 196.94896Q38.64375 198.46458 38.33125 199.38646Q38.034374 200.30833 37.409374 200.82396Q36.8 201.32396 35.846874 201.32396Q34.6125 201.32396 33.89375 200.43333Q33.05 199.37083 33.05 196.94896ZM34.128124 196.94896Q34.128124 199.05833 34.628124 199.76146Q35.128124 200.46458 35.846874 200.46458Q36.58125 200.46458 37.065624 199.76146Q37.565624 199.05833 37.565624 196.94896Q37.565624 194.82396 37.065624 194.13646Q36.58125 193.43333 35.83125 193.43333Q35.1125 193.43333 34.675 194.04271Q34.128124 194.82396 34.128124 196.94896Z" fill-rule="nonzero"/><path fill="#000000" d="M19.05 131.28438L20.1125 131.14375Q20.284374 132.03438 20.721874 132.44063Q21.159374 132.83125 21.784374 132.83125Q22.534374 132.83125 23.05 132.31563Q23.565624 131.8 23.565624 131.03438Q23.565624 130.31563 23.08125 129.84688Q22.6125 129.3625 21.878124 129.3625Q21.58125 129.3625 21.128124 129.4875L21.253124 128.55Q21.3625 128.56563 21.425 128.56563Q22.096874 128.56563 22.628124 128.22188Q23.175 127.8625 23.175 127.12813Q23.175 126.55 22.784374 126.175Q22.39375 125.78438 21.76875 125.78438Q21.159374 125.78438 20.7375 126.175Q20.33125 126.56563 20.221874 127.33125L19.159374 127.14375Q19.346874 126.09688 20.034374 125.51875Q20.721874 124.925 21.7375 124.925Q22.440624 124.925 23.034374 125.2375Q23.628124 125.53438 23.940624 126.05Q24.253124 126.56563 24.253124 127.15938Q24.253124 127.70625 23.95625 128.175Q23.659374 128.62813 23.08125 128.89375Q23.83125 129.06563 24.253124 129.62813Q24.675 130.175 24.675 131.01875Q24.675 132.14375 23.846874 132.925Q23.034374 133.70625 21.784374 133.70625Q20.659374 133.70625 19.909374 133.03438Q19.159374 132.34688 19.05 131.28438ZM26.05 129.31563Q26.05 127.78438 26.3625 126.8625Q26.675 125.925 27.284374 125.425Q27.909374 124.925 28.846874 124.925Q29.534374 124.925 30.05 125.20625Q30.58125 125.4875 30.925 126.01875Q31.26875 126.53438 31.45625 127.28438Q31.64375 128.03438 31.64375 129.31563Q31.64375 130.83125 31.33125 131.75313Q31.034374 132.675 30.409374 133.19063Q29.8 133.69063 28.846874 133.69063Q27.6125 133.69063 26.89375 132.8Q26.05 131.7375 26.05 129.31563ZM27.128124 129.31563Q27.128124 131.425 27.628124 132.12813Q28.128124 132.83125 28.846874 132.83125Q29.58125 132.83125 30.065624 132.12813Q30.565624 131.425 30.565624 129.31563Q30.565624 127.19063 30.065624 126.50313Q29.58125 125.8 28.83125 125.8Q28.1125 125.8 27.675 126.40938Q27.128124 127.19063 27.128124 129.31563ZM33.05 129.31563Q33.05 127.78438 33.3625 126.8625Q33.675 125.925 34.284374 125.425Q34.909374 124.925 35.846874 124.925Q36.534374 124.925 37.05 125.20625Q37.58125 125.4875 37.925 126.01875Q38.26875 126.53438 38.45625 127.28438Q38.64375 128.03438 38.64375 129.31563Q38.64375 130.83125 38.33125 131.75313Q38.034374 132.675 37.409374 133.19063Q36.8 133.69063 35.846874 133.69063Q34.6125 133.69063 33.89375 132.8Q33.05 131.7375 33.05 129.31563ZM34.128124 129.31563Q34.128124 131.425 34.628124 132.12813Q35.128124 132.83125 35.846874 132.83125Q36.58125 132.83125 37.065624 132.12813Q37.565624 131.425 37.565624 129.31563Q37.565624 127.19063 37.065624 126.50313Q36.58125 125.8 35.83125 125.8Q35.1125 125.8 34.675 126.40938Q34.128124 127.19063 34.128124 129.31563Z" fill-rule="nonzero"/><path fill="#000000" d="M22.425 65.916664L22.425 63.854164L18.70625 63.854164L18.70625 62.885414L22.628124 57.322914L23.4875 57.322914L23.4875 62.885414L24.64375 62.885414L24.64375 63.854164L23.4875 63.854164L23.4875 65.916664L22.425 65.916664ZM22.425 62.885414L22.425 59.02604L19.7375 62.885414L22.425 62.885414ZM26.05 61.68229Q26.05 60.15104 26.3625 59.229164Q26.675 58.291664 27.284374 57.791664Q27.909374 57.291664 28.846874 57.291664Q29.534374 57.291664 30.05 57.572914Q30.58125 57.854164 30.925 58.385414Q31.26875 58.90104 31.45625 59.65104Q31.64375 60.40104 31.64375 61.68229Q31.64375 63.197914 31.33125 64.11979Q31.034374 65.041664 30.409374 65.55729Q29.8 66.05729 28.846874 66.05729Q27.6125 66.05729 26.89375 65.166664Q26.05 64.104164 26.05 61.68229ZM27.128124 61.68229Q27.128124 63.791664 27.628124 64.49479Q28.128124 65.197914 28.846874 65.197914Q29.58125 65.197914 30.065624 64.49479Q30.565624 63.791664 30.565624 61.68229Q30.565624 59.55729 30.065624 58.86979Q29.58125 58.166664 28.83125 58.166664Q28.1125 58.166664 27.675 58.77604Q27.128124 59.55729 27.128124 61.68229ZM33.05 61.68229Q33.05 60.15104 33.3625 59.229164Q33.675 58.291664 34.284374 57.791664Q34.909374 57.291664 35.846874 57.291664Q36.534374 57.291664 37.05 57.572914Q37.58125 57.854164 37.925 58.385414Q38.26875 58.90104 38.45625 59.65104Q38.64375 60.40104 38.64375 61.68229Q38.64375 63.197914 38.33125 64.11979Q38.034374 65.041664 37.409374 65.55729Q36.8 66.05729 35.846874 66.05729Q34.6125 66.05729 33.89375 65.166664Q33.05 64.104164 33.05 61.68229ZM34.128124 61.68229Q34.128124 63.791664 34.628124 64.49479Q35.128124 65.197914 35.846874 65.197914Q36.58125 65.197914 37.065624 64.49479Q37.565624 63.791664 37.565624 61.68229Q37.565624 59.55729 37.065624 58.86979Q36.58125 58.166664 35.83125 58.166664Q35.1125 58.166664 34.675 58.77604Q34.128124 59.55729 34.128124 61.68229Z" fill-rule="nonzero"/><path fill="#000000" d="M129.45172 349.45L129.45172 340.85626L132.42047 340.85626Q133.42047 340.85626 133.95172 340.98126Q134.6861 341.15314 135.20172 341.59064Q135.88922 342.16876 136.21735 343.075Q136.5611 343.96564 136.5611 345.10626Q136.5611 346.09064 136.32672 346.84064Q136.10797 347.59064 135.7486 348.09064Q135.38922 348.59064 134.95172 348.8719Q134.52985 349.15314 133.9361 349.3094Q133.34235 349.45 132.5611 349.45L129.45172 349.45ZM130.59235 348.4344L132.42047 348.4344Q133.27985 348.4344 133.76422 348.27814Q134.2486 348.1219 134.52985 347.825Q134.9361 347.4344 135.15485 346.7469Q135.38922 346.0594 135.38922 345.09064Q135.38922 343.7469 134.9361 343.02814Q134.4986 342.29376 133.8736 342.04376Q133.40485 341.8719 132.40485 341.8719L130.59235 341.8719L130.59235 348.4344ZM142.57672 347.45L143.67047 347.575Q143.42047 348.52814 142.71735 349.0594Q142.01422 349.59064 140.9361 349.59064Q139.57672 349.59064 138.76422 348.7469Q137.96735 347.90314 137.96735 346.3875Q137.96735 344.825 138.77985 343.96564Q139.59235 343.09064 140.8736 343.09064Q142.1236 343.09064 142.90485 343.9344Q143.70172 344.77814 143.70172 346.325Q143.70172 346.41876 143.70172 346.60626L139.0611 346.60626Q139.1236 347.6375 139.63922 348.1844Q140.15485 348.71564 140.9361 348.71564Q141.51422 348.71564 141.92047 348.41876Q142.34235 348.10626 142.57672 347.45ZM139.1236 345.7469L142.59235 345.7469Q142.52985 344.95 142.20172 344.5594Q141.6861 343.95 140.88922 343.95Q140.15485 343.95 139.65485 344.4344Q139.17047 344.91876 139.1236 345.7469ZM145.32672 349.45L145.32672 343.23126L146.26422 343.23126L146.26422 344.10626Q146.95172 343.09064 148.2486 343.09064Q148.8111 343.09064 149.27985 343.29376Q149.76422 343.4969 149.9986 343.825Q150.23297 344.15314 150.32672 344.59064Q150.3736 344.8875 150.3736 345.6219L150.3736 349.45L149.32672 349.45L149.32672 345.66876Q149.32672 345.0125 149.20172 344.7Q149.07672 344.3875 148.76422 344.2Q148.45172 343.9969 148.02985 343.9969Q147.35797 343.9969 146.85797 344.4344Q146.3736 344.85626 146.3736 346.04376L146.3736 349.45L145.32672 349.45ZM152.32672 349.45L152.32672 343.23126L153.26422 343.23126L153.26422 344.10626Q153.5611 343.6375 154.04547 343.3719Q154.52985 343.09064 155.15485 343.09064Q155.84235 343.09064 156.27985 343.3719Q156.73297 343.65314 156.90485 344.16876Q157.65485 343.09064 158.82672 343.09064Q159.76422 343.09064 160.2486 343.60626Q160.7486 344.10626 160.7486 345.1844L160.7486 349.45L159.70172 349.45L159.70172 345.52814Q159.70172 344.90314 159.59235 344.6219Q159.4986 344.34064 159.23297 344.16876Q158.96735 343.9969 158.59235 343.9969Q157.9361 343.9969 157.4986 344.4344Q157.07672 344.8719 157.07672 345.84064L157.07672 349.45L156.01422 349.45L156.01422 345.40314Q156.01422 344.7 155.7486 344.35626Q155.4986 343.9969 154.92047 343.9969Q154.46735 343.9969 154.09235 344.23126Q153.71735 344.46564 153.54547 344.91876Q153.3736 345.3719 153.3736 346.21564L153.3736 349.45L152.32672 349.45ZM166.38922 348.6844Q165.79547 349.1844 165.2486 349.3875Q164.71735 349.59064 164.09235 349.59064Q163.0611 349.59064 162.51422 349.09064Q161.96735 348.59064 161.96735 347.8094Q161.96735 347.35626 162.17047 346.98126Q162.3736 346.59064 162.71735 346.3719Q163.0611 346.1375 163.48297 346.02814Q163.77985 345.9344 164.42047 345.85626Q165.6861 345.71564 166.29547 345.4969Q166.29547 345.27814 166.29547 345.23126Q166.29547 344.575 165.9986 344.3094Q165.59235 343.96564 164.79547 343.96564Q164.0611 343.96564 163.70172 344.23126Q163.34235 344.48126 163.17047 345.1375L162.13922 344.9969Q162.27985 344.34064 162.60797 343.9344Q162.9361 343.52814 163.54547 343.3094Q164.15485 343.09064 164.95172 343.09064Q165.7486 343.09064 166.2486 343.27814Q166.7486 343.46564 166.98297 343.7469Q167.21735 344.02814 167.3111 344.46564Q167.35797 344.73126 167.35797 345.4344L167.35797 346.84064Q167.35797 348.3094 167.42047 348.7Q167.4986 349.09064 167.70172 349.45L166.59235 349.45Q166.4361 349.1219 166.38922 348.6844ZM166.29547 346.325Q165.71735 346.5594 164.57672 346.73126Q163.92047 346.825 163.65485 346.95Q163.38922 347.0594 163.23297 347.27814Q163.09235 347.4969 163.09235 347.77814Q163.09235 348.2 163.40485 348.48126Q163.73297 348.7625 164.34235 348.7625Q164.95172 348.7625 165.42047 348.4969Q165.90485 348.23126 166.1236 347.7625Q166.29547 347.40314 166.29547 346.71564L166.29547 346.325ZM169.3111 349.45L169.3111 343.23126L170.26422 343.23126L170.26422 344.16876Q170.6236 343.5125 170.92047 343.3094Q171.23297 343.09064 171.60797 343.09064Q172.13922 343.09064 172.6861 343.41876L172.32672 344.40314Q171.9361 344.16876 171.5611 344.16876Q171.20172 344.16876 170.92047 344.3875Q170.65485 344.59064 170.54547 344.96564Q170.35797 345.52814 170.35797 346.1844L170.35797 349.45L169.3111 349.45ZM173.32672 349.45L173.32672 340.85626L174.38922 340.85626L174.38922 345.7625L176.8736 343.23126L178.2486 343.23126L175.85797 345.52814L178.48297 349.45L177.1861 349.45L175.1236 346.2625L174.38922 346.98126L174.38922 349.45L173.32672 349.45Z" fill-rule="nonzero"/><path fill="#000000" d="M293.98438 349.45L293.98438 340.85626L299.78125 340.85626L299.78125 341.8719L295.125 341.8719L295.125 344.52814L299.15625 344.52814L299.15625 345.54376L295.125 345.54376L295.125 349.45L293.98438 349.45ZM300.79688 342.075L300.79688 340.85626L301.85938 340.85626L301.85938 342.075L300.79688 342.075ZM300.79688 349.45L300.79688 343.23126L301.85938 343.23126L301.85938 349.45L300.79688 349.45ZM303.79688 349.45L303.79688 343.23126L304.73438 343.23126L304.73438 344.10626Q305.42188 343.09064 306.71875 343.09064Q307.28125 343.09064 307.75 343.29376Q308.23438 343.4969 308.46875 343.825Q308.70312 344.15314 308.79688 344.59064Q308.84375 344.8875 308.84375 345.6219L308.84375 349.45L307.79688 349.45L307.79688 345.66876Q307.79688 345.0125 307.67188 344.7Q307.54688 344.3875 307.23438 344.2Q306.92188 343.9969 306.5 343.9969Q305.82812 343.9969 305.32812 344.4344Q304.84375 344.85626 304.84375 346.04376L304.84375 349.45L303.79688 349.45ZM310.76562 349.45L310.76562 340.85626L311.82812 340.85626L311.82812 349.45L310.76562 349.45ZM317.85938 348.6844Q317.26562 349.1844 316.71875 349.3875Q316.1875 349.59064 315.5625 349.59064Q314.53125 349.59064 313.98438 349.09064Q313.4375 348.59064 313.4375 347.8094Q313.4375 347.35626 313.64062 346.98126Q313.84375 346.59064 314.1875 346.3719Q314.53125 346.1375 314.95312 346.02814Q315.25 345.9344 315.89062 345.85626Q317.15625 345.71564 317.76562 345.4969Q317.76562 345.27814 317.76562 345.23126Q317.76562 344.575 317.46875 344.3094Q317.0625 343.96564 316.26562 343.96564Q315.53125 343.96564 315.17188 344.23126Q314.8125 344.48126 314.64062 345.1375L313.60938 344.9969Q313.75 344.34064 314.07812 343.9344Q314.40625 343.52814 315.01562 343.3094Q315.625 343.09064 316.42188 343.09064Q317.21875 343.09064 317.71875 343.27814Q318.21875 343.46564 318.45312 343.7469Q318.6875 344.02814 318.78125 344.46564Q318.82812 344.73126 318.82812 345.4344L318.82812 346.84064Q318.82812 348.3094 318.89062 348.7Q318.96875 349.09064 319.17188 349.45L318.0625 349.45Q317.90625 349.1219 317.85938 348.6844ZM317.76562 346.325Q317.1875 346.5594 316.04688 346.73126Q315.39062 346.825 315.125 346.95Q314.85938 347.0594 314.70312 347.27814Q314.5625 347.4969 314.5625 347.77814Q314.5625 348.2 314.875 348.48126Q315.20312 348.7625 315.8125 348.7625Q316.42188 348.7625 316.89062 348.4969Q317.375 348.23126 317.59375 347.7625Q317.76562 347.40314 317.76562 346.71564L317.76562 346.325ZM320.79688 349.45L320.79688 343.23126L321.73438 343.23126L321.73438 344.10626Q322.42188 343.09064 323.71875 343.09064Q324.28125 343.09064 324.75 343.29376Q325.23438 343.4969 325.46875 343.825Q325.70312 344.15314 325.79688 344.59064Q325.84375 344.8875 325.84375 345.6219L325.84375 349.45L324.79688 349.45L324.79688 345.66876Q324.79688 345.0125 324.67188 344.7Q324.54688 344.3875 324.23438 344.2Q323.92188 343.9969 323.5 343.9969Q322.82812 343.9969 322.32812 344.4344Q321.84375 344.85626 321.84375 346.04376L321.84375 349.45L320.79688 349.45ZM331.82812 349.45L331.82812 348.66876Q331.23438 349.59064 330.09375 349.59064Q329.34375 349.59064 328.71875 349.1844Q328.09375 348.7625 327.75 348.02814Q327.40625 347.29376 327.40625 346.34064Q327.40625 345.41876 327.71875 344.65314Q328.03125 343.8875 328.65625 343.4969Q329.28125 343.09064 330.04688 343.09064Q330.60938 343.09064 331.04688 343.325Q331.48438 343.5594 331.76562 343.9344L331.76562 340.85626L332.8125 340.85626L332.8125 349.45L331.82812 349.45ZM328.5 346.34064Q328.5 347.54376 329.0 348.1375Q329.5 348.71564 330.1875 348.71564Q330.875 348.71564 331.35938 348.15314Q331.84375 347.59064 331.84375 346.4344Q331.84375 345.15314 331.34375 344.5594Q330.85938 343.96564 330.14062 343.96564Q329.4375 343.96564 328.96875 344.54376Q328.5 345.10626 328.5 346.34064Z" fill-rule="nonzero"/><path fill="#000000" d="M453.39203 349.45L453.39203 340.85626L454.54828 340.85626L459.0639 347.60626L459.0639 340.85626L460.15765 340.85626L460.15765 349.45L458.98578 349.45L454.47015 342.7L454.47015 349.45L453.39203 349.45ZM461.8764 346.34064Q461.8764 344.60626 462.82953 343.77814Q463.6264 343.09064 464.78265 343.09064Q466.0639 343.09064 466.8764 343.9344Q467.70453 344.7625 467.70453 346.2469Q467.70453 347.45 467.34515 348.1375Q466.98578 348.825 466.28265 349.21564Q465.59515 349.59064 464.78265 349.59064Q463.48578 349.59064 462.67328 348.7625Q461.8764 347.91876 461.8764 346.34064ZM462.95453 346.34064Q462.95453 347.52814 463.47015 348.1219Q464.0014 348.71564 464.78265 348.71564Q465.57953 348.71564 466.09515 348.1219Q466.61078 347.52814 466.61078 346.3094Q466.61078 345.15314 466.07953 344.5594Q465.5639 343.96564 464.78265 343.96564Q464.0014 343.96564 463.47015 344.5594Q462.95453 345.1375 462.95453 346.34064ZM469.2514 349.45L469.2514 343.23126L470.20453 343.23126L470.20453 344.16876Q470.5639 343.5125 470.86078 343.3094Q471.17328 343.09064 471.54828 343.09064Q472.07953 343.09064 472.6264 343.41876L472.26703 344.40314Q471.8764 344.16876 471.5014 344.16876Q471.14203 344.16876 470.86078 344.3875Q470.59515 344.59064 470.48578 344.96564Q470.29828 345.52814 470.29828 346.1844L470.29828 349.45L469.2514 349.45ZM474.40765 349.45L472.5014 343.23126L473.59515 343.23126L474.57953 346.825L474.95453 348.15314Q474.98578 348.0594 475.28265 346.8719L476.26703 343.23126L477.34515 343.23126L478.28265 346.84064L478.59515 348.02814L478.95453 346.825L480.01703 343.23126L481.04828 343.23126L479.09515 349.45L478.0014 349.45L477.01703 345.71564L476.76703 344.66876L475.51703 349.45L474.40765 349.45ZM486.32953 348.6844Q485.73578 349.1844 485.1889 349.3875Q484.65765 349.59064 484.03265 349.59064Q483.0014 349.59064 482.45453 349.09064Q481.90765 348.59064 481.90765 347.8094Q481.90765 347.35626 482.11078 346.98126Q482.3139 346.59064 482.65765 346.3719Q483.0014 346.1375 483.42328 346.02814Q483.72015 345.9344 484.36078 345.85626Q485.6264 345.71564 486.23578 345.4969Q486.23578 345.27814 486.23578 345.23126Q486.23578 344.575 485.9389 344.3094Q485.53265 343.96564 484.73578 343.96564Q484.0014 343.96564 483.64203 344.23126Q483.28265 344.48126 483.11078 345.1375L482.07953 344.9969Q482.22015 344.34064 482.54828 343.9344Q482.8764 343.52814 483.48578 343.3094Q484.09515 343.09064 484.89203 343.09064Q485.6889 343.09064 486.1889 343.27814Q486.6889 343.46564 486.92328 343.7469Q487.15765 344.02814 487.2514 344.46564Q487.29828 344.73126 487.29828 345.4344L487.29828 346.84064Q487.29828 348.3094 487.36078 348.7Q487.4389 349.09064 487.64203 349.45L486.53265 349.45Q486.3764 349.1219 486.32953 348.6844ZM486.23578 346.325Q485.65765 346.5594 484.51703 346.73126Q483.86078 346.825 483.59515 346.95Q483.32953 347.0594 483.17328 347.27814Q483.03265 347.4969 483.03265 347.77814Q483.03265 348.2 483.34515 348.48126Q483.67328 348.7625 484.28265 348.7625Q484.89203 348.7625 485.36078 348.4969Q485.84515 348.23126 486.0639 347.7625Q486.23578 347.40314 486.23578 346.71564L486.23578 346.325ZM489.22015 351.84064L489.09515 350.85626Q489.4389 350.95 489.70453 350.95Q490.04828 350.95 490.2514 350.825Q490.47015 350.71564 490.61078 350.5125Q490.70453 350.34064 490.9389 349.71564Q490.95453 349.6375 491.03265 349.46564L488.65765 343.23126L489.79828 343.23126L491.09515 346.825Q491.34515 347.5125 491.54828 348.27814Q491.73578 347.54376 491.98578 346.85626L493.3139 343.23126L494.36078 343.23126L492.0014 349.5594Q491.61078 350.575 491.40765 350.96564Q491.1264 351.4969 490.7514 351.73126Q490.39203 351.98126 489.89203 351.98126Q489.59515 351.98126 489.22015 351.84064Z" fill-rule="nonzero"/><path fill="#757575" d="M18.51875 37.55L24.01875 23.2375L26.065624 23.2375L31.925 37.55L29.76875 37.55L28.096874 33.20625L22.1125 33.20625L20.534374 37.55L18.51875 37.55ZM22.659374 31.675L27.503124 31.675L26.01875 27.70625Q25.33125 25.89375 25.003124 24.7375Q24.721874 26.1125 24.221874 27.471874L22.659374 31.675ZM39.659374 37.55L39.659374 36.01875Q38.45625 37.784374 36.378124 37.784374Q35.45625 37.784374 34.659374 37.440624Q33.8625 37.08125 33.471874 36.55Q33.096874 36.01875 32.940624 35.2375Q32.83125 34.721874 32.83125 33.596874L32.83125 27.175L34.58125 27.175L34.58125 32.925Q34.58125 34.3 34.690624 34.784374Q34.8625 35.471874 35.39375 35.878124Q35.940624 36.26875 36.721874 36.26875Q37.51875 36.26875 38.20625 35.8625Q38.909374 35.45625 39.190624 34.76875Q39.4875 34.065624 39.4875 32.7375L39.4875 27.175L41.2375 27.175L41.2375 37.55L39.659374 37.55ZM43.55 38.409374L45.253124 38.659374Q45.3625 39.45625 45.846874 39.815624Q46.503124 40.3 47.64375 40.3Q48.8625 40.3 49.51875 39.815624Q50.190624 39.33125 50.425 38.45625Q50.565624 37.909374 50.55 36.190624Q49.39375 37.55 47.675 37.55Q45.534374 37.55 44.3625 36.003124Q43.190624 34.45625 43.190624 32.3Q43.190624 30.815624 43.721874 29.565624Q44.26875 28.315624 45.284374 27.628124Q46.315624 26.940624 47.690624 26.940624Q49.51875 26.940624 50.721874 28.425L50.721874 27.175L52.33125 27.175L52.33125 36.14375Q52.33125 38.565624 51.83125 39.565624Q51.346874 40.58125 50.26875 41.159374Q49.20625 41.753124 47.64375 41.753124Q45.8 41.753124 44.64375 40.925Q43.503124 40.096874 43.55 38.409374ZM45.003124 32.175Q45.003124 34.221874 45.815624 35.159374Q46.628124 36.096874 47.846874 36.096874Q49.05 36.096874 49.8625 35.159374Q50.690624 34.221874 50.690624 32.2375Q50.690624 30.33125 49.846874 29.3625Q49.003124 28.39375 47.815624 28.39375Q46.64375 28.39375 45.815624 29.346874Q45.003124 30.3 45.003124 32.175ZM61.659374 37.55L61.659374 36.01875Q60.45625 37.784374 58.378124 37.784374Q57.45625 37.784374 56.659374 37.440624Q55.8625 37.08125 55.471874 36.55Q55.096874 36.01875 54.940624 35.2375Q54.83125 34.721874 54.83125 33.596874L54.83125 27.175L56.58125 27.175L56.58125 32.925Q56.58125 34.3 56.690624 34.784374Q56.8625 35.471874 57.39375 35.878124Q57.940624 36.26875 58.721874 36.26875Q59.51875 36.26875 60.20625 35.8625Q60.909374 35.45625 61.190624 34.76875Q61.4875 34.065624 61.4875 32.7375L61.4875 27.175L63.2375 27.175L63.2375 37.55L61.659374 37.55ZM65.15938 34.45625L66.90938 34.175Q67.05 35.221874 67.72188 35.784374Q68.39375 36.33125 69.59688 36.33125Q70.8 36.33125 71.37813 35.846874Q71.97188 35.346874 71.97188 34.690624Q71.97188 34.096874 71.45625 33.753124Q71.09688 33.51875 69.65938 33.159374Q67.72188 32.659374 66.97188 32.315624Q66.2375 31.95625 65.84688 31.33125Q65.45625 30.690624 65.45625 29.925Q65.45625 29.2375 65.76875 28.64375Q66.09688 28.05 66.64375 27.659374Q67.05 27.3625 67.75313 27.159374Q68.47188 26.940624 69.28438 26.940624Q70.50313 26.940624 71.425 27.3Q72.34688 27.64375 72.78438 28.253124Q73.22188 28.846874 73.39375 29.846874L71.675 30.08125Q71.55 29.284374 70.9875 28.846874Q70.425 28.39375 69.40938 28.39375Q68.19063 28.39375 67.675 28.8Q67.15938 29.190624 67.15938 29.721874Q67.15938 30.065624 67.37813 30.346874Q67.58125 30.628124 68.05 30.815624Q68.31563 30.909374 69.59688 31.253124Q71.47188 31.753124 72.20625 32.08125Q72.94063 32.39375 73.3625 33.003124Q73.78438 33.596874 73.78438 34.503124Q73.78438 35.378124 73.26875 36.159374Q72.75313 36.940624 71.78438 37.3625Q70.81563 37.784374 69.59688 37.784374Q67.58125 37.784374 66.51875 36.940624Q65.45625 36.096874 65.15938 34.45625ZM79.70625 35.971874L79.95625 37.534374Q79.22188 37.690624 78.62813 37.690624Q77.675 37.690624 77.14375 37.39375Q76.62813 37.08125 76.40938 36.596874Q76.19063 36.096874 76.19063 34.51875L76.19063 28.55L74.90938 28.55L74.90938 27.175L76.19063 27.175L76.19063 24.6125L77.94063 23.55L77.94063 27.175L79.70625 27.175L79.70625 28.55L77.94063 28.55L77.94063 34.6125Q77.94063 35.3625 78.03438 35.58125Q78.12813 35.784374 78.33125 35.925Q78.55 36.05 78.94063 36.05Q79.22188 36.05 79.70625 35.971874ZM94.64375 33.753124L96.3625 33.971874Q96.08125 35.76875 94.90938 36.784374Q93.75313 37.784374 92.05 37.784374Q89.925 37.784374 88.62813 36.39375Q87.33125 35.003124 87.33125 32.409374Q87.33125 30.721874 87.87813 29.471874Q88.44063 28.20625 89.58125 27.58125Q90.72188 26.940624 92.06563 26.940624Q93.75313 26.940624 94.81563 27.8Q95.89375 28.659374 96.20625 30.221874L94.4875 30.4875Q94.25313 29.440624 93.62813 28.925Q93.00313 28.39375 92.12813 28.39375Q90.8 28.39375 89.97188 29.346874Q89.14375 30.3 89.14375 32.346874Q89.14375 34.440624 89.94063 35.39375Q90.7375 36.33125 92.03438 36.33125Q93.06563 36.33125 93.75313 35.70625Q94.45625 35.065624 94.64375 33.753124ZM104.64375 36.26875Q103.65938 37.096874 102.75313 37.440624Q101.84688 37.784374 100.81563 37.784374Q99.1125 37.784374 98.19063 36.95625Q97.26875 36.1125 97.26875 34.815624Q97.26875 34.05 97.6125 33.425Q97.97188 32.8 98.53438 32.425Q99.09688 32.034374 99.8 31.83125Q100.31563 31.70625 101.3625 31.565624Q103.4875 31.315624 104.4875 30.971874Q104.50313 30.6125 104.50313 30.503124Q104.50313 29.440624 104.00313 28.9875Q103.33125 28.39375 102.00313 28.39375Q100.75313 28.39375 100.15938 28.83125Q99.58125 29.26875 99.3 30.378124L97.58125 30.14375Q97.81563 29.034374 98.34688 28.3625Q98.87813 27.675 99.89375 27.315624Q100.90938 26.940624 102.25313 26.940624Q103.58125 26.940624 104.40938 27.253124Q105.2375 27.565624 105.62813 28.05Q106.01875 28.51875 106.175 29.2375Q106.26875 29.690624 106.26875 30.8625L106.26875 33.20625Q106.26875 35.659374 106.37813 36.315624Q106.4875 36.95625 106.83125 37.55L104.9875 37.55Q104.72188 37.003124 104.64375 36.26875ZM104.4875 32.346874Q103.53438 32.7375 101.6125 33.003124Q100.53438 33.159374 100.08125 33.3625Q99.64375 33.55 99.39375 33.925Q99.14375 34.3 99.14375 34.76875Q99.14375 35.471874 99.675 35.940624Q100.20625 36.409374 101.2375 36.409374Q102.25313 36.409374 103.03438 35.971874Q103.83125 35.51875 104.20625 34.753124Q104.4875 34.14375 104.4875 32.9875L104.4875 32.346874ZM108.15938 34.45625L109.90938 34.175Q110.05 35.221874 110.72188 35.784374Q111.39375 36.33125 112.59688 36.33125Q113.8 36.33125 114.37813 35.846874Q114.97188 35.346874 114.97188 34.690624Q114.97188 34.096874 114.45625 33.753124Q114.09688 33.51875 112.65938 33.159374Q110.72188 32.659374 109.97188 32.315624Q109.2375 31.95625 108.84688 31.33125Q108.45625 30.690624 108.45625 29.925Q108.45625 29.2375 108.76875 28.64375Q109.09688 28.05 109.64375 27.659374Q110.05 27.3625 110.75313 27.159374Q111.47188 26.940624 112.28438 26.940624Q113.50313 26.940624 114.425 27.3Q115.34688 27.64375 115.78438 28.253124Q116.22188 28.846874 116.39375 29.846874L114.675 30.08125Q114.55 29.284374 113.9875 28.846874Q113.425 28.39375 112.40938 28.39375Q111.19063 28.39375 110.675 28.8Q110.15938 29.190624 110.15938 29.721874Q110.15938 30.065624 110.37813 30.346874Q110.58125 30.628124 111.05 30.815624Q111.31563 30.909374 112.59688 31.253124Q114.47188 31.753124 115.20625 32.08125Q115.94063 32.39375 116.3625 33.003124Q116.78438 33.596874 116.78438 34.503124Q116.78438 35.378124 116.26875 36.159374Q115.75313 36.940624 114.78438 37.3625Q113.81563 37.784374 112.59688 37.784374Q110.58125 37.784374 109.51875 36.940624Q108.45625 36.096874 108.15938 34.45625ZM125.97188 34.20625L127.78438 34.440624Q127.3625 36.01875 126.19063 36.909374Q125.03438 37.784374 123.22188 37.784374Q120.95625 37.784374 119.6125 36.39375Q118.28438 34.9875 118.28438 32.45625Q118.28438 29.83125 119.62813 28.39375Q120.97188 26.940624 123.12813 26.940624Q125.20625 26.940624 126.51875 28.3625Q127.84688 29.76875 127.84688 32.346874Q127.84688 32.503124 127.83125 32.815624L120.09688 32.815624Q120.19063 34.51875 121.06563 35.425Q121.94063 36.33125 123.2375 36.33125Q124.20625 36.33125 124.87813 35.83125Q125.56563 35.315624 125.97188 34.20625ZM120.19063 31.3625L125.9875 31.3625Q125.87813 30.065624 125.33125 29.409374Q124.4875 28.39375 123.14375 28.39375Q121.94063 28.39375 121.1125 29.20625Q120.28438 30.003124 120.19063 31.3625ZM129.15938 34.45625L130.90938 34.175Q131.05 35.221874 131.72188 35.784374Q132.39375 36.33125 133.59688 36.33125Q134.8 36.33125 135.37813 35.846874Q135.97188 35.346874 135.97188 34.690624Q135.97188 34.096874 135.45625 33.753124Q135.09688 33.51875 133.65938 33.159374Q131.72188 32.659374 130.97188 32.315624Q130.2375 31.95625 129.84688 31.33125Q129.45625 30.690624 129.45625 29.925Q129.45625 29.2375 129.76875 28.64375Q130.09688 28.05 130.64375 27.659374Q131.05 27.3625 131.75313 27.159374Q132.47188 26.940624 133.28438 26.940624Q134.50313 26.940624 135.425 27.3Q136.34688 27.64375 136.78438 28.253124Q137.22188 28.846874 137.39375 29.846874L135.675 30.08125Q135.55 29.284374 134.9875 28.846874Q134.425 28.39375 133.40938 28.39375Q132.19063 28.39375 131.675 28.8Q131.15938 29.190624 131.15938 29.721874Q131.15938 30.065624 131.37813 30.346874Q131.58125 30.628124 132.05 30.815624Q132.31563 30.909374 133.59688 31.253124Q135.47188 31.753124 136.20625 32.08125Q136.94063 32.39375 137.3625 33.003124Q137.78438 33.596874 137.78438 34.503124Q137.78438 35.378124 137.26875 36.159374Q136.75313 36.940624 135.78438 37.3625Q134.81563 37.784374 133.59688 37.784374Q131.58125 37.784374 130.51875 36.940624Q129.45625 36.096874 129.15938 34.45625ZM145.87813 25.253124L145.87813 23.2375L147.64375 23.2375L147.64375 25.253124L145.87813 25.253124ZM145.87813 37.55L145.87813 27.175L147.64375 27.175L147.64375 37.55L145.87813 37.55ZM149.8625 37.55L149.8625 27.175L151.45625 27.175L151.45625 28.659374Q152.59688 26.940624 154.75313 26.940624Q155.69063 26.940624 156.47188 27.284374Q157.26875 27.6125 157.65938 28.159374Q158.05 28.70625 158.20625 29.45625Q158.3 29.95625 158.3 31.175L158.3 37.55L156.53438 37.55L156.53438 31.2375Q156.53438 30.159374 156.33125 29.628124Q156.12813 29.096874 155.59688 28.784374Q155.08125 28.471874 154.37813 28.471874Q153.25313 28.471874 152.44063 29.190624Q151.62813 29.89375 151.62813 31.878124L151.62813 37.55L149.8625 37.55ZM173.64375 36.26875Q172.65938 37.096874 171.75313 37.440624Q170.84688 37.784374 169.81563 37.784374Q168.1125 37.784374 167.19063 36.95625Q166.26875 36.1125 166.26875 34.815624Q166.26875 34.05 166.6125 33.425Q166.97188 32.8 167.53438 32.425Q168.09688 32.034374 168.8 31.83125Q169.31563 31.70625 170.3625 31.565624Q172.4875 31.315624 173.4875 30.971874Q173.50313 30.6125 173.50313 30.503124Q173.50313 29.440624 173.00313 28.9875Q172.33125 28.39375 171.00313 28.39375Q169.75313 28.39375 169.15938 28.83125Q168.58125 29.26875 168.3 30.378124L166.58125 30.14375Q166.81563 29.034374 167.34688 28.3625Q167.87813 27.675 168.89375 27.315624Q169.90938 26.940624 171.25313 26.940624Q172.58125 26.940624 173.40938 27.253124Q174.2375 27.565624 174.62813 28.05Q175.01875 28.51875 175.175 29.2375Q175.26875 29.690624 175.26875 30.8625L175.26875 33.20625Q175.26875 35.659374 175.37813 36.315624Q175.4875 36.95625 175.83125 37.55L173.9875 37.55Q173.72188 37.003124 173.64375 36.26875ZM173.4875 32.346874Q172.53438 32.7375 170.6125 33.003124Q169.53438 33.159374 169.08125 33.3625Q168.64375 33.55 168.39375 33.925Q168.14375 34.3 168.14375 34.76875Q168.14375 35.471874 168.675 35.940624Q169.20625 36.409374 170.2375 36.409374Q171.25313 36.409374 172.03438 35.971874Q172.83125 35.51875 173.20625 34.753124Q173.4875 34.14375 173.4875 32.9875L173.4875 32.346874ZM190.64375 33.753124L192.3625 33.971874Q192.08125 35.76875 190.90938 36.784374Q189.75313 37.784374 188.05 37.784374Q185.925 37.784374 184.62813 36.39375Q183.33125 35.003124 183.33125 32.409374Q183.33125 30.721874 183.87813 29.471874Q184.44063 28.20625 185.58125 27.58125Q186.72188 26.940624 188.06563 26.940624Q189.75313 26.940624 190.81563 27.8Q191.89375 28.659374 192.20625 30.221874L190.4875 30.4875Q190.25313 29.440624 189.62813 28.925Q189.00313 28.39375 188.12813 28.39375Q186.8 28.39375 185.97188 29.346874Q185.14375 30.3 185.14375 32.346874Q185.14375 34.440624 185.94063 35.39375Q186.7375 36.33125 188.03438 36.33125Q189.06563 36.33125 189.75313 35.70625Q190.45625 35.065624 190.64375 33.753124ZM200.64375 36.26875Q199.65938 37.096874 198.75313 37.440624Q197.84688 37.784374 196.81563 37.784374Q195.1125 37.784374 194.19063 36.95625Q193.26875 36.1125 193.26875 34.815624Q193.26875 34.05 193.6125 33.425Q193.97188 32.8 194.53438 32.425Q195.09688 32.034374 195.8 31.83125Q196.31563 31.70625 197.3625 31.565624Q199.4875 31.315624 200.4875 30.971874Q200.50313 30.6125 200.50313 30.503124Q200.50313 29.440624 200.00313 28.9875Q199.33125 28.39375 198.00313 28.39375Q196.75313 28.39375 196.15938 28.83125Q195.58125 29.26875 195.3 30.378124L193.58125 30.14375Q193.81563 29.034374 194.34688 28.3625Q194.87813 27.675 195.89375 27.315624Q196.90938 26.940624 198.25313 26.940624Q199.58125 26.940624 200.40938 27.253124Q201.2375 27.565624 201.62813 28.05Q202.01875 28.51875 202.175 29.2375Q202.26875 29.690624 202.26875 30.8625L202.26875 33.20625Q202.26875 35.659374 202.37813 36.315624Q202.4875 36.95625 202.83125 37.55L200.9875 37.55Q200.72188 37.003124 200.64375 36.26875ZM200.4875 32.346874Q199.53438 32.7375 197.6125 33.003124Q196.53438 33.159374 196.08125 33.3625Q195.64375 33.55 195.39375 33.925Q195.14375 34.3 195.14375 34.76875Q195.14375 35.471874 195.675 35.940624Q196.20625 36.409374 197.2375 36.409374Q198.25313 36.409374 199.03438 35.971874Q199.83125 35.51875 200.20625 34.753124Q200.4875 34.14375 200.4875 32.9875L200.4875 32.346874ZM204.8625 37.55L204.8625 27.175L206.45625 27.175L206.45625 28.659374Q207.59688 26.940624 209.75313 26.940624Q210.69063 26.940624 211.47188 27.284374Q212.26875 27.6125 212.65938 28.159374Q213.05 28.70625 213.20625 29.45625Q213.3 29.95625 213.3 31.175L213.3 37.55L211.53438 37.55L211.53438 31.2375Q211.53438 30.159374 211.33125 29.628124Q211.12813 29.096874 210.59688 28.784374Q210.08125 28.471874 209.37813 28.471874Q208.25313 28.471874 207.44063 29.190624Q206.62813 29.89375 206.62813 31.878124L206.62813 37.55L204.8625 37.55ZM222.59688 37.55L222.59688 36.2375Q221.6125 37.784374 219.69063 37.784374Q218.45625 37.784374 217.40938 37.096874Q216.37813 36.409374 215.8 35.190624Q215.2375 33.971874 215.2375 32.378124Q215.2375 30.815624 215.75313 29.55Q216.26875 28.284374 217.3 27.6125Q218.34688 26.940624 219.6125 26.940624Q220.55 26.940624 221.28438 27.346874Q222.01875 27.7375 222.4875 28.3625L222.4875 23.2375L224.22188 23.2375L224.22188 37.55L222.59688 37.55ZM217.03438 32.378124Q217.03438 34.3625 217.87813 35.346874Q218.72188 36.33125 219.8625 36.33125Q221.01875 36.33125 221.81563 35.39375Q222.62813 34.45625 222.62813 32.51875Q222.62813 30.39375 221.8 29.39375Q220.9875 28.39375 219.78438 28.39375Q218.6125 28.39375 217.81563 29.3625Q217.03438 30.315624 217.03438 32.378124ZM226.83125 37.55L226.83125 23.2375L228.58125 23.2375L228.58125 37.55L226.83125 37.55ZM237.97188 34.20625L239.78438 34.440624Q239.3625 36.01875 238.19063 36.909374Q237.03438 37.784374 235.22188 37.784374Q232.95625 37.784374 231.6125 36.39375Q230.28438 34.9875 230.28438 32.45625Q230.28438 29.83125 231.62813 28.39375Q232.97188 26.940624 235.12813 26.940624Q237.20625 26.940624 238.51875 28.3625Q239.84688 29.76875 239.84688 32.346874Q239.84688 32.503124 239.83125 32.815624L232.09688 32.815624Q232.19063 34.51875 233.06563 35.425Q233.94063 36.33125 235.2375 36.33125Q236.20625 36.33125 236.87813 35.83125Q237.56563 35.315624 237.97188 34.20625ZM232.19063 31.3625L237.9875 31.3625Q237.87813 30.065624 237.33125 29.409374Q236.4875 28.39375 235.14375 28.39375Q233.94063 28.39375 233.1125 29.20625Q232.28438 30.003124 232.19063 31.3625ZM241.15938 34.45625L242.90938 34.175Q243.05 35.221874 243.72188 35.784374Q244.39375 36.33125 245.59688 36.33125Q246.8 36.33125 247.37813 35.846874Q247.97188 35.346874 247.97188 34.690624Q247.97188 34.096874 247.45625 33.753124Q247.09688 33.51875 245.65938 33.159374Q243.72188 32.659374 242.97188 32.315624Q242.2375 31.95625 241.84688 31.33125Q241.45625 30.690624 241.45625 29.925Q241.45625 29.2375 241.76875 28.64375Q242.09688 28.05 242.64375 27.659374Q243.05 27.3625 243.75313 27.159374Q244.47188 26.940624 245.28438 26.940624Q246.50313 26.940624 247.425 27.3Q248.34688 27.64375 248.78438 28.253124Q249.22188 28.846874 249.39375 29.846874L247.675 30.08125Q247.55 29.284374 246.9875 28.846874Q246.425 28.39375 245.40938 28.39375Q244.19063 28.39375 243.675 28.8Q243.15938 29.190624 243.15938 29.721874Q243.15938 30.065624 243.37813 30.346874Q243.58125 30.628124 244.05 30.815624Q244.31563 30.909374 245.59688 31.253124Q247.47188 31.753124 248.20625 32.08125Q248.94063 32.39375 249.3625 33.003124Q249.78438 33.596874 249.78438 34.503124Q249.78438 35.378124 249.26875 36.159374Q248.75313 36.940624 247.78438 37.3625Q246.81563 37.784374 245.59688 37.784374Q243.58125 37.784374 242.51875 36.940624Q241.45625 36.096874 241.15938 34.45625ZM255.70625 35.971874L255.95625 37.534374Q255.22188 37.690624 254.62813 37.690624Q253.675 37.690624 253.14375 37.39375Q252.62813 37.08125 252.40938 36.596874Q252.19063 36.096874 252.19063 34.51875L252.19063 28.55L250.90938 28.55L250.90938 27.175L252.19063 27.175L252.19063 24.6125L253.94063 23.55L253.94063 27.175L255.70625 27.175L255.70625 28.55L253.94063 28.55L253.94063 34.6125Q253.94063 35.3625 254.03438 35.58125Q254.12813 35.784374 254.33125 35.925Q254.55 36.05 254.94063 36.05Q255.22188 36.05 255.70625 35.971874ZM257.8781 25.253124L257.8781 23.2375L259.64374 23.2375L259.64374 25.253124L257.8781 25.253124ZM257.8781 37.55L257.8781 27.175L259.64374 27.175L259.64374 37.55L257.8781 37.55ZM268.64374 33.753124L270.3625 33.971874Q270.08124 35.76875 268.90936 36.784374Q267.7531 37.784374 266.05 37.784374Q263.925 37.784374 262.6281 36.39375Q261.33124 35.003124 261.33124 32.409374Q261.33124 30.721874 261.8781 29.471874Q262.4406 28.20625 263.58124 27.58125Q264.72186 26.940624 266.0656 26.940624Q267.7531 26.940624 268.8156 27.8Q269.89374 28.659374 270.20624 30.221874L268.4875 30.4875Q268.2531 29.440624 267.6281 28.925Q267.0031 28.39375 266.1281 28.39375Q264.8 28.39375 263.97186 29.346874Q263.14374 30.3 263.14374 32.346874Q263.14374 34.440624 263.9406 35.39375Q264.7375 36.33125 266.03436 36.33125Q267.0656 36.33125 267.7531 35.70625Q268.45624 35.065624 268.64374 33.753124ZM271.8781 37.55L271.8781 23.2375L273.64374 23.2375L273.64374 31.39375L277.8 27.175L280.0656 27.175L276.1125 31.01875L280.47186 37.55L278.3 37.55L274.8781 32.253124L273.64374 33.440624L273.64374 37.55L271.8781 37.55ZM294.64374 33.753124L296.3625 33.971874Q296.08124 35.76875 294.90936 36.784374Q293.7531 37.784374 292.05 37.784374Q289.925 37.784374 288.6281 36.39375Q287.33124 35.003124 287.33124 32.409374Q287.33124 30.721874 287.8781 29.471874Q288.4406 28.20625 289.58124 27.58125Q290.72186 26.940624 292.0656 26.940624Q293.7531 26.940624 294.8156 27.8Q295.89374 28.659374 296.20624 30.221874L294.4875 30.4875Q294.2531 29.440624 293.6281 28.925Q293.0031 28.39375 292.1281 28.39375Q290.8 28.39375 289.97186 29.346874Q289.14374 30.3 289.14374 32.346874Q289.14374 34.440624 289.9406 35.39375Q290.7375 36.33125 292.03436 36.33125Q293.0656 36.33125 293.7531 35.70625Q294.45624 35.065624 294.64374 33.753124ZM297.8625 37.55L297.8625 23.2375L299.6281 23.2375L299.6281 28.3625Q300.8625 26.940624 302.7375 26.940624Q303.8781 26.940624 304.72186 27.39375Q305.58124 27.846874 305.9406 28.659374Q306.3156 29.45625 306.3156 30.971874L306.3156 37.55L304.5656 37.55L304.5656 30.971874Q304.5656 29.659374 303.9875 29.065624Q303.40936 28.45625 302.3781 28.45625Q301.59686 28.45625 300.89374 28.8625Q300.20624 29.26875 299.90936 29.971874Q299.6281 30.659374 299.6281 31.878124L299.6281 37.55L297.8625 37.55ZM315.64374 36.26875Q314.65936 37.096874 313.7531 37.440624Q312.84686 37.784374 311.8156 37.784374Q310.1125 37.784374 309.1906 36.95625Q308.26874 36.1125 308.26874 34.815624Q308.26874 34.05 308.6125 33.425Q308.97186 32.8 309.53436 32.425Q310.09686 32.034374 310.8 31.83125Q311.3156 31.70625 312.3625 31.565624Q314.4875 31.315624 315.4875 30.971874Q315.5031 30.6125 315.5031 30.503124Q315.5031 29.440624 315.0031 28.9875Q314.33124 28.39375 313.0031 28.39375Q311.7531 28.39375 311.15936 28.83125Q310.58124 29.26875 310.3 30.378124L308.58124 30.14375Q308.8156 29.034374 309.34686 28.3625Q309.8781 27.675 310.89374 27.315624Q311.90936 26.940624 313.2531 26.940624Q314.58124 26.940624 315.40936 27.253124Q316.2375 27.565624 316.6281 28.05Q317.01874 28.51875 317.175 29.2375Q317.26874 29.690624 317.26874 30.8625L317.26874 33.20625Q317.26874 35.659374 317.3781 36.315624Q317.4875 36.95625 317.83124 37.55L315.9875 37.55Q315.72186 37.003124 315.64374 36.26875ZM315.4875 32.346874Q314.53436 32.7375 312.6125 33.003124Q311.53436 33.159374 311.08124 33.3625Q310.64374 33.55 310.39374 33.925Q310.14374 34.3 310.14374 34.76875Q310.14374 35.471874 310.675 35.940624Q311.20624 36.409374 312.2375 36.409374Q313.2531 36.409374 314.03436 35.971874Q314.83124 35.51875 315.20624 34.753124Q315.4875 34.14375 315.4875 32.9875L315.4875 32.346874ZM319.84686 37.55L319.84686 27.175L321.425 27.175L321.425 28.753124Q322.03436 27.64375 322.55 27.3Q323.0656 26.940624 323.675 26.940624Q324.5656 26.940624 325.4875 27.503124L324.8781 29.14375Q324.2375 28.753124 323.59686 28.753124Q323.01874 28.753124 322.55 29.1125Q322.09686 29.45625 321.89374 30.065624Q321.6125 31.003124 321.6125 32.1125L321.6125 37.55L319.84686 37.55ZM330.70624 35.971874L330.95624 37.534374Q330.22186 37.690624 329.6281 37.690624Q328.675 37.690624 328.14374 37.39375Q327.6281 37.08125 327.40936 36.596874Q327.1906 36.096874 327.1906 34.51875L327.1906 28.55L325.90936 28.55L325.90936 27.175L327.1906 27.175L327.1906 24.6125L328.9406 23.55L328.9406 27.175L330.70624 27.175L330.70624 28.55L328.9406 28.55L328.9406 34.6125Q328.9406 35.3625 329.03436 35.58125Q329.1281 35.784374 329.33124 35.925Q329.55 36.05 329.9406 36.05Q330.22186 36.05 330.70624 35.971874Z" fill-rule="nonzero"/></svg>