<svg version="1.1" viewBox="0.0 0.0 600.0 371.0" fill="none" stroke="none" stroke-linecap="square" stroke-miterlimit="10" width="600" height="371" xmlns:xlink="http://www.w3.org/1999/xlink" xmlns="http://www.w3.org/2000/svg"><path fill="#ffffff" d="M0 0L600.0 0L600.0 371.0L0 371.0L0 0Z" fill-rule="nonzero"/><path stroke="#333333" stroke-width="1.0" stroke-linecap="butt" d="M52.5 332.5L581.5 332.5" fill-rule="nonzero"/><path stroke="#cccccc" stroke-width="1.0" stroke-linecap="butt" d="M52.5 264.5L581.5 264.5" fill-rule="nonzero"/><path stroke="#cccccc" stroke-width="1.0" stroke-linecap="butt" d="M52.5 197.5L581.5 197.5" fill-rule="nonzero"/><path stroke="#cccccc" stroke-width="1.0" stroke-linecap="butt" d="M52.5 129.5L581.5 129.5" fill-rule="nonzero"/><path stroke="#cccccc" stroke-width="1.0" stroke-linecap="butt" d="M52.5 61.5L581.5 61.5" fill-rule="nonzero"/><clipPath id="id_0"><path d="M52.55 61.916668L581.45 61.916668L581.45 332.45L52.55 332.45L52.55 61.916668Z" clip-rule="nonzero"/></clipPath><path stroke="#4285f4" stroke-width="2.0" stroke-linecap="butt" clip-path="url(#id_0)" d="M159.1194 139.42447L159.1194 170.80634" fill-rule="nonzero"/><path stroke="#4285f4" stroke-width="2.0" stroke-linecap="butt" clip-path="url(#id_0)" d="M159.1194 228.1594L159.1194 180.13974" fill-rule="nonzero"/><path stroke="#4285f4" stroke-width="2.0" stroke-linecap="butt" clip-path="url(#id_0)" d="M107.80821 170.80634L210.4306 170.80634" fill-rule="nonzero"/><path stroke="#4285f4" stroke-width="2.0" stroke-linecap="butt" clip-path="url(#id_0)" d="M107.80821 180.13974L107.80821 170.80634" fill-rule="nonzero"/><path stroke="#4285f4" stroke-width="2.0" stroke-linecap="butt" clip-path="url(#id_0)" d="M210.4306 170.80634L210.4306 180.13974" fill-rule="nonzero"/><path stroke="#4285f4" stroke-width="2.0" stroke-linecap="butt" clip-path="url(#id_0)" d="M210.4306 180.13974L107.80821 180.13974" fill-rule="nonzero"/><path stroke="#4285f4" stroke-width="2.0" stroke-linecap="butt" clip-path="url(#id_0)" d="M317.0 276.72012L317.0 318.38226" fill-rule="nonzero"/><path stroke="#4285f4" stroke-width="2.0" stroke-linecap="butt" clip-path="url(#id_0)" d="M317.0 332.45L317.0 304.99088" fill-rule="nonzero"/><path fill="#4285f4" clip-path="url(#id_0)" d="M264.6888 303.99088L369.31122 303.99088L369.31122 319.38226L264.6888 319.38226L264.6888 303.99088Z" fill-rule="nonzero"/><path stroke="#4285f4" stroke-width="2.0" stroke-linecap="butt" clip-path="url(#id_0)" d="M423.5694 97.4918L526.1918 97.4918" fill-rule="nonzero"/><path stroke="#4285f4" stroke-width="2.0" stroke-linecap="butt" clip-path="url(#id_0)" d="M423.5694 332.45L423.5694 97.4918" fill-rule="nonzero"/><path stroke="#4285f4" stroke-width="2.0" stroke-linecap="butt" clip-path="url(#id_0)" d="M526.1918 97.4918L526.1918 332.45" fill-rule="nonzero"/><path stroke="#4285f4" stroke-width="2.0" stroke-linecap="butt" clip-path="url(#id_0)" d="M526.1918 332.45L423.5694 332.45" fill-rule="nonzero"/><path fill="#000000" d="M40.05 332.21564Q40.05 330.6844 40.3625 329.7625Q40.675 328.825 41.284374 328.325Q41.909374 327.825 42.846874 327.825Q43.534374 327.825 44.05 328.10626Q44.58125 328.3875 44.925 328.91876Q45.26875 329.4344 45.45625 330.1844Q45.64375 330.9344 45.64375 332.21564Q45.64375 333.73126 45.33125 334.65314Q45.034374 335.575 44.409374 336.09064Q43.8 336.59064 42.846874 336.59064Q41.6125 336.59064 40.89375 335.7Q40.05 334.6375 40.05 332.21564ZM41.128124 332.21564Q41.128124 334.325 41.628124 335.02814Q42.128124 335.73126 42.846874 335.73126Q43.58125 335.73126 44.065624 335.02814Q44.565624 334.325 44.565624 332.21564Q44.565624 330.09064 44.065624 329.40314Q43.58125 328.7 42.83125 328.7Q42.1125 328.7 41.675 329.3094Q41.128124 330.09064 41.128124 332.21564Z" fill-rule="nonzero"/><path fill="#000000" d="M26.05 266.56668L27.159374 266.47293Q27.284374 267.28543 27.721874 267.69168Q28.175 268.09793 28.815624 268.09793Q29.565624 268.09793 30.096874 267.5198Q30.628124 266.94168 30.628124 266.00418Q30.628124 265.09793 30.1125 264.5823Q29.6125 264.05106 28.784374 264.05106Q28.284374 264.05106 27.8625 264.28543Q27.45625 264.5198 27.221874 264.87918L26.2375 264.75418L27.065624 260.34793L31.346874 260.34793L31.346874 261.34793L27.909374 261.34793L27.45625 263.66043Q28.221874 263.11356 29.065624 263.11356Q30.190624 263.11356 30.95625 263.8948Q31.7375 264.67606 31.7375 265.91043Q31.7375 267.06668 31.065624 267.92606Q30.2375 268.9573 28.815624 268.9573Q27.64375 268.9573 26.89375 268.30106Q26.159374 267.6448 26.05 266.56668ZM33.05 264.5823Q33.05 263.05106 33.3625 262.12918Q33.675 261.19168 34.284374 260.69168Q34.909374 260.19168 35.846874 260.19168Q36.534374 260.19168 37.05 260.47293Q37.58125 260.75418 37.925 261.28543Q38.26875 261.80106 38.45625 262.55106Q38.64375 263.30106 38.64375 264.5823Q38.64375 266.09793 38.33125 267.0198Q38.034374 267.94168 37.409374 268.4573Q36.8 268.9573 35.846874 268.9573Q34.6125 268.9573 33.89375 268.06668Q33.05 267.00418 33.05 264.5823ZM34.128124 264.5823Q34.128124 266.69168 34.628124 267.3948Q35.128124 268.09793 35.846874 268.09793Q36.58125 268.09793 37.065624 267.3948Q37.565624 266.69168 37.565624 264.5823Q37.565624 262.4573 37.065624 261.7698Q36.58125 261.06668 35.83125 261.06668Q35.1125 261.06668 34.675 261.67606Q34.128124 262.4573 34.128124 264.5823ZM40.05 264.5823Q40.05 263.05106 40.3625 262.12918Q40.675 261.19168 41.284374 260.69168Q41.909374 260.19168 42.846874 260.19168Q43.534374 260.19168 44.05 260.47293Q44.58125 260.75418 44.925 261.28543Q45.26875 261.80106 45.45625 262.55106Q45.64375 263.30106 45.64375 264.5823Q45.64375 266.09793 45.33125 267.0198Q45.034374 267.94168 44.409374 268.4573Q43.8 268.9573 42.846874 268.9573Q41.6125 268.9573 40.89375 268.06668Q40.05 267.00418 40.05 264.5823ZM41.128124 264.5823Q41.128124 266.69168 41.628124 267.3948Q42.128124 268.09793 42.846874 268.09793Q43.58125 268.09793 44.065624 267.3948Q44.565624 266.69168 44.565624 264.5823Q44.565624 262.4573 44.065624 261.7698Q43.58125 261.06668 42.83125 261.06668Q42.1125 261.06668 41.675 261.67606Q41.128124 262.4573 41.128124 264.5823Z" fill-rule="nonzero"/><path fill="#000000" d="M23.01875 201.18333L21.971874 201.18333L21.971874 194.46458Q21.58125 194.82396 20.95625 195.19896Q20.346874 195.55833 19.8625 195.73021L19.8625 194.71458Q20.7375 194.29271 21.39375 193.71458Q22.065624 193.12083 22.346874 192.55833L23.01875 192.55833L23.01875 201.18333ZM26.05 196.94896Q26.05 195.41771 26.3625 194.49583Q26.675 193.55833 27.284374 193.05833Q27.909374 192.55833 28.846874 192.55833Q29.534374 192.55833 30.05 192.83958Q30.58125 193.12083 30.925 193.65208Q31.26875 194.16771 31.45625 194.91771Q31.64375 195.66771 31.64375 196.94896Q31.64375 198.46458 31.33125 199.38646Q31.034374 200.30833 30.409374 200.82396Q29.8 201.32396 28.846874 201.32396Q27.6125 201.32396 26.89375 200.43333Q26.05 199.37083 26.05 196.94896ZM27.128124 196.94896Q27.128124 199.05833 27.628124 199.76146Q28.128124 200.46458 28.846874 200.46458Q29.58125 200.46458 30.065624 199.76146Q30.565624 199.05833 30.565624 196.94896Q30.565624 194.82396 30.065624 194.13646Q29.58125 193.43333 28.83125 193.43333Q28.1125 193.43333 27.675 194.04271Q27.128124 194.82396 27.128124 196.94896ZM33.05 196.94896Q33.05 195.41771 33.3625 194.49583Q33.675 193.55833 34.284374 193.05833Q34.909374 192.55833 35.846874 192.55833Q36.534374 192.55833 37.05 192.83958Q37.58125 193.12083 37.925 193.65208Q38.26875 194.16771 38.45625 194.91771Q38.64375 195.66771 38.64375 196.94896Q38.64375 198.46458 38.33125 199.38646Q38.034374 200.30833 37.409374 200.82396Q36.8 201.32396 35.846874 201.32396Q34.6125 201.32396 33.89375 200.43333Q33.05 199.37083 33.05 196.94896ZM34.128124 196.94896Q34.128124 199.05833 34.628124 199.76146Q35.128124 200.46458 35.846874 200.46458Q36.58125 200.46458 37.065624 199.76146Q37.565624 199.05833 37.565624 196.94896Q37.565624 194.82396 37.065624 194.13646Q36.58125 193.43333 35.83125 193.43333Q35.1125 193.43333 34.675 194.04271Q34.128124 194.82396 34.128124 196.94896ZM40.05 196.94896Q40.05 195.41771 40.3625 194.49583Q40.675 193.55833 41.284374 193.05833Q41.909374 192.55833 42.846874 192.55833Q43.534374 192.55833 44.05 192.83958Q44.58125 193.12083 44.925 193.65208Q45.26875 194.16771 45.45625 194.91771Q45.64375 195.66771 45.64375 196.94896Q45.64375 198.46458 45.33125 199.38646Q45.034374 200.30833 44.409374 200.82396Q43.8 201.32396 42.846874 201.32396Q41.6125 201.32396 40.89375 200.43333Q40.05 199.37083 40.05 196.94896ZM41.128124 196.94896Q41.128124 199.05833 41.628124 199.76146Q42.128124 200.46458 42.846874 200.46458Q43.58125 200.46458 44.065624 199.76146Q44.565624 199.05833 44.565624 196.94896Q44.565624 194.82396 44.065624 194.13646Q43.58125 193.43333 42.83125 193.43333Q42.1125 193.43333 41.675 194.04271Q41.128124 194.82396 41.128124 196.94896Z" fill-rule="nonzero"/><path fill="#000000" d="M23.01875 133.55L21.971874 133.55L21.971874 126.83125Q21.58125 127.19063 20.95625 127.56563Q20.346874 127.925 19.8625 128.09688L19.8625 127.08125Q20.7375 126.65938 21.39375 126.08125Q22.065624 125.4875 22.346874 124.925L23.01875 124.925L23.01875 133.55ZM26.05 131.3L27.159374 131.20625Q27.284374 132.01875 27.721874 132.425Q28.175 132.83125 28.815624 132.83125Q29.565624 132.83125 30.096874 132.25313Q30.628124 131.675 30.628124 130.7375Q30.628124 129.83125 30.1125 129.31563Q29.6125 128.78438 28.784374 128.78438Q28.284374 128.78438 27.8625 129.01875Q27.45625 129.25313 27.221874 129.6125L26.2375 129.4875L27.065624 125.08125L31.346874 125.08125L31.346874 126.08125L27.909374 126.08125L27.45625 128.39375Q28.221874 127.84688 29.065624 127.84688Q30.190624 127.84688 30.95625 128.62813Q31.7375 129.40938 31.7375 130.64375Q31.7375 131.8 31.065624 132.65938Q30.2375 133.69063 28.815624 133.69063Q27.64375 133.69063 26.89375 133.03438Q26.159374 132.37813 26.05 131.3ZM33.05 129.31563Q33.05 127.78438 33.3625 126.8625Q33.675 125.925 34.284374 125.425Q34.909374 124.925 35.846874 124.925Q36.534374 124.925 37.05 125.20625Q37.58125 125.4875 37.925 126.01875Q38.26875 126.53438 38.45625 127.28438Q38.64375 128.03438 38.64375 129.31563Q38.64375 130.83125 38.33125 131.75313Q38.034374 132.675 37.409374 133.19063Q36.8 133.69063 35.846874 133.69063Q34.6125 133.69063 33.89375 132.8Q33.05 131.7375 33.05 129.31563ZM34.128124 129.31563Q34.128124 131.425 34.628124 132.12813Q35.128124 132.83125 35.846874 132.83125Q36.58125 132.83125 37.065624 132.12813Q37.565624 131.425 37.565624 129.31563Q37.565624 127.19063 37.065624 126.50313Q36.58125 125.8 35.83125 125.8Q35.1125 125.8 34.675 126.40938Q34.128124 127.19063 34.128124 129.31563ZM40.05 129.31563Q40.05 127.78438 40.3625 126.8625Q40.675 125.925 41.284374 125.425Q41.909374 124.925 42.846874 124.925Q43.534374 124.925 44.05 125.20625Q44.58125 125.4875 44.925 126.01875Q45.26875 126.53438 45.45625 127.28438Q45.64375 128.03438 45.64375 129.31563Q45.64375 130.83125 45.33125 131.75313Q45.034374 132.675 44.409374 133.19063Q43.8 133.69063 42.846874 133.69063Q41.6125 133.69063 40.89375 132.8Q40.05 131.7375 40.05 129.31563ZM41.128124 129.31563Q41.128124 131.425 41.628124 132.12813Q42.128124 132.83125 42.846874 132.83125Q43.58125 132.83125 44.065624 132.12813Q44.565624 131.425 44.565624 129.31563Q44.565624 127.19063 44.065624 126.50313Q43.58125 125.8 42.83125 125.8Q42.1125 125.8 41.675 126.40938Q41.128124 127.19063 41.128124 129.31563Z" fill-rule="nonzero"/><path fill="#000000" d="M24.596874 64.90104L24.596874 65.916664L18.909374 65.916664Q18.909374 65.541664 19.034374 65.18229Q19.253124 64.604164 19.721874 64.041664Q20.20625 63.479164 21.1125 62.74479Q22.51875 61.58854 23.003124 60.916664Q23.503124 60.24479 23.503124 59.65104Q23.503124 59.02604 23.05 58.604164Q22.596874 58.166664 21.878124 58.166664Q21.1125 58.166664 20.659374 58.61979Q20.20625 59.072914 20.190624 59.885414L19.1125 59.77604Q19.221874 58.55729 19.940624 57.93229Q20.675 57.291664 21.909374 57.291664Q23.14375 57.291664 23.8625 57.979164Q24.58125 58.666664 24.58125 59.68229Q24.58125 60.197914 24.3625 60.697914Q24.159374 61.18229 23.659374 61.74479Q23.175 62.291664 22.05 63.24479Q21.096874 64.041664 20.815624 64.33854Q20.55 64.61979 20.378124 64.90104L24.596874 64.90104ZM26.05 61.68229Q26.05 60.15104 26.3625 59.229164Q26.675 58.291664 27.284374 57.791664Q27.909374 57.291664 28.846874 57.291664Q29.534374 57.291664 30.05 57.572914Q30.58125 57.854164 30.925 58.385414Q31.26875 58.90104 31.45625 59.65104Q31.64375 60.40104 31.64375 61.68229Q31.64375 63.197914 31.33125 64.11979Q31.034374 65.041664 30.409374 65.55729Q29.8 66.05729 28.846874 66.05729Q27.6125 66.05729 26.89375 65.166664Q26.05 64.104164 26.05 61.68229ZM27.128124 61.68229Q27.128124 63.791664 27.628124 64.49479Q28.128124 65.197914 28.846874 65.197914Q29.58125 65.197914 30.065624 64.49479Q30.565624 63.791664 30.565624 61.68229Q30.565624 59.55729 30.065624 58.86979Q29.58125 58.166664 28.83125 58.166664Q28.1125 58.166664 27.675 58.77604Q27.128124 59.55729 27.128124 61.68229ZM33.05 61.68229Q33.05 60.15104 33.3625 59.229164Q33.675 58.291664 34.284374 57.791664Q34.909374 57.291664 35.846874 57.291664Q36.534374 57.291664 37.05 57.572914Q37.58125 57.854164 37.925 58.385414Q38.26875 58.90104 38.45625 59.65104Q38.64375 60.40104 38.64375 61.68229Q38.64375 63.197914 38.33125 64.11979Q38.034374 65.041664 37.409374 65.55729Q36.8 66.05729 35.846874 66.05729Q34.6125 66.05729 33.89375 65.166664Q33.05 64.104164 33.05 61.68229ZM34.128124 61.68229Q34.128124 63.791664 34.628124 64.49479Q35.128124 65.197914 35.846874 65.197914Q36.58125 65.197914 37.065624 64.49479Q37.565624 63.791664 37.565624 61.68229Q37.565624 59.55729 37.065624 58.86979Q36.58125 58.166664 35.83125 58.166664Q35.1125 58.166664 34.675 58.77604Q34.128124 59.55729 34.128124 61.68229ZM40.05 61.68229Q40.05 60.15104 40.3625 59.229164Q40.675 58.291664 41.284374 57.791664Q41.909374 57.291664 42.846874 57.291664Q43.534374 57.291664 44.05 57.572914Q44.58125 57.854164 44.925 58.385414Q45.26875 58.90104 45.45625 59.65104Q45.64375 60.40104 45.64375 61.68229Q45.64375 63.197914 45.33125 64.11979Q45.034374 65.041664 44.409374 65.55729Q43.8 66.05729 42.846874 66.05729Q41.6125 66.05729 40.89375 65.166664Q40.05 64.104164 40.05 61.68229ZM41.128124 61.68229Q41.128124 63.791664 41.628124 64.49479Q42.128124 65.197914 42.846874 65.197914Q43.58125 65.197914 44.065624 64.49479Q44.565624 63.791664 44.565624 61.68229Q44.565624 59.55729 44.065624 58.86979Q43.58125 58.166664 42.83125 58.166664Q42.1125 58.166664 41.675 58.77604Q41.128124 59.55729 41.128124 61.68229Z" fill-rule="nonzero"/><path fill="#000000" d="M135.04128 349.45L135.04128 340.85626L138.01003 340.85626Q139.01003 340.85626 139.54128 340.98126Q140.27565 341.15314 140.79128 341.59064Q141.47878 342.16876 141.8069 343.075Q142.15065 343.96564 142.15065 345.10626Q142.15065 346.09064 141.91628 346.84064Q141.69753 347.59064 141.33815 348.09064Q140.97878 348.59064 140.54128 348.8719Q140.1194 349.15314 139.52565 349.3094Q138.9319 349.45 138.15065 349.45L135.04128 349.45ZM136.1819 348.4344L138.01003 348.4344Q138.8694 348.4344 139.35378 348.27814Q139.83815 348.1219 140.1194 347.825Q140.52565 347.4344 140.7444 346.7469Q140.97878 346.0594 140.97878 345.09064Q140.97878 343.7469 140.52565 343.02814Q140.08815 342.29376 139.46315 342.04376Q138.9944 341.8719 137.9944 341.8719L136.1819 341.8719L136.1819 348.4344ZM148.16628 347.45L149.26003 347.575Q149.01003 348.52814 148.3069 349.0594Q147.60378 349.59064 146.52565 349.59064Q145.16628 349.59064 144.35378 348.7469Q143.5569 347.90314 143.5569 346.3875Q143.5569 344.825 144.3694 343.96564Q145.1819 343.09064 146.46315 343.09064Q147.71315 343.09064 148.4944 343.9344Q149.29128 344.77814 149.29128 346.325Q149.29128 346.41876 149.29128 346.60626L144.65065 346.60626Q144.71315 347.6375 145.22878 348.1844Q145.7444 348.71564 146.52565 348.71564Q147.10378 348.71564 147.51003 348.41876Q147.9319 348.10626 148.16628 347.45ZM144.71315 345.7469L148.1819 345.7469Q148.1194 344.95 147.79128 344.5594Q147.27565 343.95 146.47878 343.95Q145.7444 343.95 145.2444 344.4344Q144.76003 344.91876 144.71315 345.7469ZM150.91628 349.45L150.91628 343.23126L151.85378 343.23126L151.85378 344.10626Q152.54128 343.09064 153.83815 343.09064Q154.40065 343.09064 154.8694 343.29376Q155.35378 343.4969 155.58815 343.825Q155.82253 344.15314 155.91628 344.59064Q155.96315 344.8875 155.96315 345.6219L155.96315 349.45L154.91628 349.45L154.91628 345.66876Q154.91628 345.0125 154.79128 344.7Q154.66628 344.3875 154.35378 344.2Q154.04128 343.9969 153.6194 343.9969Q152.94753 343.9969 152.44753 344.4344Q151.96315 344.85626 151.96315 346.04376L151.96315 349.45L150.91628 349.45ZM157.91628 349.45L157.91628 343.23126L158.85378 343.23126L158.85378 344.10626Q159.15065 343.6375 159.63503 343.3719Q160.1194 343.09064 160.7444 343.09064Q161.4319 343.09064 161.8694 343.3719Q162.32253 343.65314 162.4944 344.16876Q163.2444 343.09064 164.41628 343.09064Q165.35378 343.09064 165.83815 343.60626Q166.33815 344.10626 166.33815 345.1844L166.33815 349.45L165.29128 349.45L165.29128 345.52814Q165.29128 344.90314 165.1819 344.6219Q165.08815 344.34064 164.82253 344.16876Q164.5569 343.9969 164.1819 343.9969Q163.52565 343.9969 163.08815 344.4344Q162.66628 344.8719 162.66628 345.84064L162.66628 349.45L161.60378 349.45L161.60378 345.40314Q161.60378 344.7 161.33815 344.35626Q161.08815 343.9969 160.51003 343.9969Q160.0569 343.9969 159.6819 344.23126Q159.3069 344.46564 159.13503 344.91876Q158.96315 345.3719 158.96315 346.21564L158.96315 349.45L157.91628 349.45ZM171.97878 348.6844Q171.38503 349.1844 170.83815 349.3875Q170.3069 349.59064 169.6819 349.59064Q168.65065 349.59064 168.10378 349.09064Q167.5569 348.59064 167.5569 347.8094Q167.5569 347.35626 167.76003 346.98126Q167.96315 346.59064 168.3069 346.3719Q168.65065 346.1375 169.07253 346.02814Q169.3694 345.9344 170.01003 345.85626Q171.27565 345.71564 171.88503 345.4969Q171.88503 345.27814 171.88503 345.23126Q171.88503 344.575 171.58815 344.3094Q171.1819 343.96564 170.38503 343.96564Q169.65065 343.96564 169.29128 344.23126Q168.9319 344.48126 168.76003 345.1375L167.72878 344.9969Q167.8694 344.34064 168.19753 343.9344Q168.52565 343.52814 169.13503 343.3094Q169.7444 343.09064 170.54128 343.09064Q171.33815 343.09064 171.83815 343.27814Q172.33815 343.46564 172.57253 343.7469Q172.8069 344.02814 172.90065 344.46564Q172.94753 344.73126 172.94753 345.4344L172.94753 346.84064Q172.94753 348.3094 173.01003 348.7Q173.08815 349.09064 173.29128 349.45L172.1819 349.45Q172.02565 349.1219 171.97878 348.6844ZM171.88503 346.325Q171.3069 346.5594 170.16628 346.73126Q169.51003 346.825 169.2444 346.95Q168.97878 347.0594 168.82253 347.27814Q168.6819 347.4969 168.6819 347.77814Q168.6819 348.2 168.9944 348.48126Q169.32253 348.7625 169.9319 348.7625Q170.54128 348.7625 171.01003 348.4969Q171.4944 348.23126 171.71315 347.7625Q171.88503 347.40314 171.88503 346.71564L171.88503 346.325ZM174.90065 349.45L174.90065 343.23126L175.85378 343.23126L175.85378 344.16876Q176.21315 343.5125 176.51003 343.3094Q176.82253 343.09064 177.19753 343.09064Q177.72878 343.09064 178.27565 343.41876L177.91628 344.40314Q177.52565 344.16876 177.15065 344.16876Q176.79128 344.16876 176.51003 344.3875Q176.2444 344.59064 176.13503 344.96564Q175.94753 345.52814 175.94753 346.1844L175.94753 349.45L174.90065 349.45ZM178.91628 349.45L178.91628 340.85626L179.97878 340.85626L179.97878 345.7625L182.46315 343.23126L183.83815 343.23126L181.44753 345.52814L184.07253 349.45L182.77565 349.45L180.71315 346.2625L179.97878 346.98126L179.97878 349.45L178.91628 349.45Z" fill-rule="nonzero"/><path fill="#000000" d="M297.48438 349.45L297.48438 340.85626L303.28125 340.85626L303.28125 341.8719L298.625 341.8719L298.625 344.52814L302.65625 344.52814L302.65625 345.54376L298.625 345.54376L298.625 349.45L297.48438 349.45ZM304.29688 342.075L304.29688 340.85626L305.35938 340.85626L305.35938 342.075L304.29688 342.075ZM304.29688 349.45L304.29688 343.23126L305.35938 343.23126L305.35938 349.45L304.29688 349.45ZM307.29688 349.45L307.29688 343.23126L308.23438 343.23126L308.23438 344.10626Q308.92188 343.09064 310.21875 343.09064Q310.78125 343.09064 311.25 343.29376Q311.73438 343.4969 311.96875 343.825Q312.20312 344.15314 312.29688 344.59064Q312.34375 344.8875 312.34375 345.6219L312.34375 349.45L311.29688 349.45L311.29688 345.66876Q311.29688 345.0125 311.17188 344.7Q311.04688 344.3875 310.73438 344.2Q310.42188 343.9969 310.0 343.9969Q309.32812 343.9969 308.82812 344.4344Q308.34375 344.85626 308.34375 346.04376L308.34375 349.45L307.29688 349.45ZM314.26562 349.45L314.26562 340.85626L315.32812 340.85626L315.32812 349.45L314.26562 349.45ZM321.35938 348.6844Q320.76562 349.1844 320.21875 349.3875Q319.6875 349.59064 319.0625 349.59064Q318.03125 349.59064 317.48438 349.09064Q316.9375 348.59064 316.9375 347.8094Q316.9375 347.35626 317.14062 346.98126Q317.34375 346.59064 317.6875 346.3719Q318.03125 346.1375 318.45312 346.02814Q318.75 345.9344 319.39062 345.85626Q320.65625 345.71564 321.26562 345.4969Q321.26562 345.27814 321.26562 345.23126Q321.26562 344.575 320.96875 344.3094Q320.5625 343.96564 319.76562 343.96564Q319.03125 343.96564 318.67188 344.23126Q318.3125 344.48126 318.14062 345.1375L317.10938 344.9969Q317.25 344.34064 317.57812 343.9344Q317.90625 343.52814 318.51562 343.3094Q319.125 343.09064 319.92188 343.09064Q320.71875 343.09064 321.21875 343.27814Q321.71875 343.46564 321.95312 343.7469Q322.1875 344.02814 322.28125 344.46564Q322.32812 344.73126 322.32812 345.4344L322.32812 346.84064Q322.32812 348.3094 322.39062 348.7Q322.46875 349.09064 322.67188 349.45L321.5625 349.45Q321.40625 349.1219 321.35938 348.6844ZM321.26562 346.325Q320.6875 346.5594 319.54688 346.73126Q318.89062 346.825 318.625 346.95Q318.35938 347.0594 318.20312 347.27814Q318.0625 347.4969 318.0625 347.77814Q318.0625 348.2 318.375 348.48126Q318.70312 348.7625 319.3125 348.7625Q319.92188 348.7625 320.39062 348.4969Q320.875 348.23126 321.09375 347.7625Q321.26562 347.40314 321.26562 346.71564L321.26562 346.325ZM324.29688 349.45L324.29688 343.23126L325.23438 343.23126L325.23438 344.10626Q325.92188 343.09064 327.21875 343.09064Q327.78125 343.09064 328.25 343.29376Q328.73438 343.4969 328.96875 343.825Q329.20312 344.15314 329.29688 344.59064Q329.34375 344.8875 329.34375 345.6219L329.34375 349.45L328.29688 349.45L328.29688 345.66876Q328.29688 345.0125 328.17188 344.7Q328.04688 344.3875 327.73438 344.2Q327.42188 343.9969 327.0 343.9969Q326.32812 343.9969 325.82812 344.4344Q325.34375 344.85626 325.34375 346.04376L325.34375 349.45L324.29688 349.45ZM335.32812 349.45L335.32812 348.66876Q334.73438 349.59064 333.59375 349.59064Q332.84375 349.59064 332.21875 349.1844Q331.59375 348.7625 331.25 348.02814Q330.90625 347.29376 330.90625 346.34064Q330.90625 345.41876 331.21875 344.65314Q331.53125 343.8875 332.15625 343.4969Q332.78125 343.09064 333.54688 343.09064Q334.10938 343.09064 334.54688 343.325Q334.98438 343.5594 335.26562 343.9344L335.26562 340.85626L336.3125 340.85626L336.3125 349.45L335.32812 349.45ZM332.0 346.34064Q332.0 347.54376 332.5 348.1375Q333.0 348.71564 333.6875 348.71564Q334.375 348.71564 334.85938 348.15314Q335.34375 347.59064 335.34375 346.4344Q335.34375 345.15314 334.84375 344.5594Q334.35938 343.96564 333.64062 343.96564Q332.9375 343.96564 332.46875 344.54376Q332.0 345.10626 332.0 346.34064Z" fill-rule="nonzero"/><path fill="#000000" d="M454.80246 349.45L454.80246 340.85626L455.9587 340.85626L460.47433 347.60626L460.47433 340.85626L461.56808 340.85626L461.56808 349.45L460.3962 349.45L455.88058 342.7L455.88058 349.45L454.80246 349.45ZM463.28683 346.34064Q463.28683 344.60626 464.23996 343.77814Q465.03683 343.09064 466.19308 343.09064Q467.47433 343.09064 468.28683 343.9344Q469.11496 344.7625 469.11496 346.2469Q469.11496 347.45 468.75558 348.1375Q468.3962 348.825 467.69308 349.21564Q467.00558 349.59064 466.19308 349.59064Q464.8962 349.59064 464.0837 348.7625Q463.28683 347.91876 463.28683 346.34064ZM464.36496 346.34064Q464.36496 347.52814 464.88058 348.1219Q465.41183 348.71564 466.19308 348.71564Q466.98996 348.71564 467.50558 348.1219Q468.0212 347.52814 468.0212 346.3094Q468.0212 345.15314 467.48996 344.5594Q466.97433 343.96564 466.19308 343.96564Q465.41183 343.96564 464.88058 344.5594Q464.36496 345.1375 464.36496 346.34064ZM470.66183 349.45L470.66183 343.23126L471.61496 343.23126L471.61496 344.16876Q471.97433 343.5125 472.2712 343.3094Q472.5837 343.09064 472.9587 343.09064Q473.48996 343.09064 474.03683 343.41876L473.67746 344.40314Q473.28683 344.16876 472.91183 344.16876Q472.55246 344.16876 472.2712 344.3875Q472.00558 344.59064 471.8962 344.96564Q471.7087 345.52814 471.7087 346.1844L471.7087 349.45L470.66183 349.45ZM475.81808 349.45L473.91183 343.23126L475.00558 343.23126L475.98996 346.825L476.36496 348.15314Q476.3962 348.0594 476.69308 346.8719L477.67746 343.23126L478.75558 343.23126L479.69308 346.84064L480.00558 348.02814L480.36496 346.825L481.42746 343.23126L482.4587 343.23126L480.50558 349.45L479.41183 349.45L478.42746 345.71564L478.17746 344.66876L476.92746 349.45L475.81808 349.45ZM487.73996 348.6844Q487.1462 349.1844 486.59933 349.3875Q486.06808 349.59064 485.44308 349.59064Q484.41183 349.59064 483.86496 349.09064Q483.31808 348.59064 483.31808 347.8094Q483.31808 347.35626 483.5212 346.98126Q483.72433 346.59064 484.06808 346.3719Q484.41183 346.1375 484.8337 346.02814Q485.13058 345.9344 485.7712 345.85626Q487.03683 345.71564 487.6462 345.4969Q487.6462 345.27814 487.6462 345.23126Q487.6462 344.575 487.34933 344.3094Q486.94308 343.96564 486.1462 343.96564Q485.41183 343.96564 485.05246 344.23126Q484.69308 344.48126 484.5212 345.1375L483.48996 344.9969Q483.63058 344.34064 483.9587 343.9344Q484.28683 343.52814 484.8962 343.3094Q485.50558 343.09064 486.30246 343.09064Q487.09933 343.09064 487.59933 343.27814Q488.09933 343.46564 488.3337 343.7469Q488.56808 344.02814 488.66183 344.46564Q488.7087 344.73126 488.7087 345.4344L488.7087 346.84064Q488.7087 348.3094 488.7712 348.7Q488.84933 349.09064 489.05246 349.45L487.94308 349.45Q487.78683 349.1219 487.73996 348.6844ZM487.6462 346.325Q487.06808 346.5594 485.92746 346.73126Q485.2712 346.825 485.00558 346.95Q484.73996 347.0594 484.5837 347.27814Q484.44308 347.4969 484.44308 347.77814Q484.44308 348.2 484.75558 348.48126Q485.0837 348.7625 485.69308 348.7625Q486.30246 348.7625 486.7712 348.4969Q487.25558 348.23126 487.47433 347.7625Q487.6462 347.40314 487.6462 346.71564L487.6462 346.325ZM490.63058 351.84064L490.50558 350.85626Q490.84933 350.95 491.11496 350.95Q491.4587 350.95 491.66183 350.825Q491.88058 350.71564 492.0212 350.5125Q492.11496 350.34064 492.34933 349.71564Q492.36496 349.6375 492.44308 349.46564L490.06808 343.23126L491.2087 343.23126L492.50558 346.825Q492.75558 347.5125 492.9587 348.27814Q493.1462 347.54376 493.3962 346.85626L494.72433 343.23126L495.7712 343.23126L493.41183 349.5594Q493.0212 350.575 492.81808 350.96564Q492.53683 351.4969 492.16183 351.73126Q491.80246 351.98126 491.30246 351.98126Q491.00558 351.98126 490.63058 351.84064Z" fill-rule="nonzero"/><path fill="#757575" d="M20.08125 37.55L20.08125 23.2375L22.01875 23.2375L29.534374 34.471874L29.534374 23.2375L31.346874 23.2375L31.346874 37.55L29.409374 37.55L21.89375 26.3L21.89375 37.55L20.08125 37.55ZM33.221874 32.3625Q33.221874 29.4875 34.815624 28.096874Q36.159374 26.940624 38.08125 26.940624Q40.221874 26.940624 41.565624 28.346874Q42.925 29.753124 42.925 32.221874Q42.925 34.221874 42.33125 35.378124Q41.7375 36.51875 40.58125 37.159374Q39.440624 37.784374 38.08125 37.784374Q35.89375 37.784374 34.55 36.39375Q33.221874 34.9875 33.221874 32.3625ZM35.01875 32.3625Q35.01875 34.3625 35.878124 35.346874Q36.753124 36.33125 38.08125 36.33125Q39.39375 36.33125 40.253124 35.346874Q41.128124 34.346874 41.128124 32.3Q41.128124 30.378124 40.253124 29.39375Q39.378124 28.39375 38.08125 28.39375Q36.753124 28.39375 35.878124 29.39375Q35.01875 30.378124 35.01875 32.3625ZM47.753124 37.55L43.8 27.175L45.659374 27.175L47.89375 33.39375Q48.253124 34.39375 48.55 35.471874Q48.784374 34.659374 49.20625 33.503124L51.503124 27.175L53.315624 27.175L49.39375 37.55L47.753124 37.55ZM61.971874 34.20625L63.784374 34.440624Q63.3625 36.01875 62.190624 36.909374Q61.034374 37.784374 59.221874 37.784374Q56.95625 37.784374 55.6125 36.39375Q54.284374 34.9875 54.284374 32.45625Q54.284374 29.83125 55.628124 28.39375Q56.971874 26.940624 59.128124 26.940624Q61.20625 26.940624 62.51875 28.3625Q63.846874 29.76875 63.846874 32.346874Q63.846874 32.503124 63.83125 32.815624L56.096874 32.815624Q56.190624 34.51875 57.065624 35.425Q57.940624 36.33125 59.2375 36.33125Q60.20625 36.33125 60.878124 35.83125Q61.565624 35.315624 61.971874 34.20625ZM56.190624 31.3625L61.9875 31.3625Q61.878124 30.065624 61.33125 29.409374Q60.4875 28.39375 59.14375 28.39375Q57.940624 28.39375 57.1125 29.20625Q56.284374 30.003124 56.190624 31.3625ZM65.8625 37.55L65.8625 27.175L67.44063 27.175L67.44063 28.628124Q67.925 27.878124 68.7375 27.409374Q69.55 26.940624 70.58125 26.940624Q71.7375 26.940624 72.47188 27.425Q73.20625 27.89375 73.51875 28.753124Q74.75313 26.940624 76.72188 26.940624Q78.26875 26.940624 79.09688 27.8Q79.925 28.659374 79.925 30.425L79.925 37.55L78.175 37.55L78.175 31.01875Q78.175 29.95625 78.00313 29.503124Q77.83125 29.034374 77.37813 28.753124Q76.94063 28.471874 76.33125 28.471874Q75.2375 28.471874 74.50313 29.20625Q73.78438 29.925 73.78438 31.51875L73.78438 37.55L72.03438 37.55L72.03438 30.815624Q72.03438 29.64375 71.59688 29.065624Q71.175 28.471874 70.19063 28.471874Q69.45625 28.471874 68.81563 28.8625Q68.19063 29.253124 67.90938 30.003124Q67.62813 30.753124 67.62813 32.175L67.62813 37.55L65.8625 37.55ZM84.4875 37.55L82.8625 37.55L82.8625 23.2375L84.6125 23.2375L84.6125 28.346874Q85.7375 26.940624 87.45625 26.940624Q88.40938 26.940624 89.26875 27.33125Q90.12813 27.721874 90.675 28.425Q91.22188 29.1125 91.53438 30.096874Q91.84688 31.08125 91.84688 32.20625Q91.84688 34.878124 90.53438 36.33125Q89.22188 37.784374 87.37813 37.784374Q85.53438 37.784374 84.4875 36.253124L84.4875 37.55ZM84.47188 32.284374Q84.47188 34.14375 84.97188 34.9875Q85.81563 36.33125 87.22188 36.33125Q88.37813 36.33125 89.20625 35.33125Q90.05 34.33125 90.05 32.346874Q90.05 30.315624 89.2375 29.3625Q88.44063 28.39375 87.3 28.39375Q86.14375 28.39375 85.3 29.39375Q84.47188 30.39375 84.47188 32.284374ZM100.97188 34.20625L102.78438 34.440624Q102.3625 36.01875 101.19063 36.909374Q100.03438 37.784374 98.22188 37.784374Q95.95625 37.784374 94.6125 36.39375Q93.28438 34.9875 93.28438 32.45625Q93.28438 29.83125 94.62813 28.39375Q95.97188 26.940624 98.12813 26.940624Q100.20625 26.940624 101.51875 28.3625Q102.84688 29.76875 102.84688 32.346874Q102.84688 32.503124 102.83125 32.815624L95.09688 32.815624Q95.19063 34.51875 96.06563 35.425Q96.94063 36.33125 98.2375 36.33125Q99.20625 36.33125 99.87813 35.83125Q100.56563 35.315624 100.97188 34.20625ZM95.19063 31.3625L100.9875 31.3625Q100.87813 30.065624 100.33125 29.409374Q99.4875 28.39375 98.14375 28.39375Q96.94063 28.39375 96.1125 29.20625Q95.28438 30.003124 95.19063 31.3625ZM104.84688 37.55L104.84688 27.175L106.425 27.175L106.425 28.753124Q107.03438 27.64375 107.55 27.3Q108.06563 26.940624 108.675 26.940624Q109.56563 26.940624 110.4875 27.503124L109.87813 29.14375Q109.2375 28.753124 108.59688 28.753124Q108.01875 28.753124 107.55 29.1125Q107.09688 29.45625 106.89375 30.065624Q106.6125 31.003124 106.6125 32.1125L106.6125 37.55L104.84688 37.55ZM124.64375 33.753124L126.3625 33.971874Q126.08125 35.76875 124.90938 36.784374Q123.75313 37.784374 122.05 37.784374Q119.925 37.784374 118.62813 36.39375Q117.33125 35.003124 117.33125 32.409374Q117.33125 30.721874 117.87813 29.471874Q118.44063 28.20625 119.58125 27.58125Q120.72188 26.940624 122.06563 26.940624Q123.75313 26.940624 124.81563 27.8Q125.89375 28.659374 126.20625 30.221874L124.4875 30.4875Q124.25313 29.440624 123.62813 28.925Q123.00313 28.39375 122.12813 28.39375Q120.8 28.39375 119.97188 29.346874Q119.14375 30.3 119.14375 32.346874Q119.14375 34.440624 119.94063 35.39375Q120.7375 36.33125 122.03438 36.33125Q123.06563 36.33125 123.75313 35.70625Q124.45625 35.065624 124.64375 33.753124ZM134.64375 36.26875Q133.65938 37.096874 132.75313 37.440624Q131.84688 37.784374 130.81563 37.784374Q129.1125 37.784374 128.19063 36.95625Q127.26875 36.1125 127.26875 34.815624Q127.26875 34.05 127.6125 33.425Q127.97188 32.8 128.53438 32.425Q129.09688 32.034374 129.8 31.83125Q130.31563 31.70625 131.3625 31.565624Q133.4875 31.315624 134.4875 30.971874Q134.50313 30.6125 134.50313 30.503124Q134.50313 29.440624 134.00313 28.9875Q133.33125 28.39375 132.00313 28.39375Q130.75313 28.39375 130.15938 28.83125Q129.58125 29.26875 129.3 30.378124L127.58125 30.14375Q127.81563 29.034374 128.34688 28.3625Q128.87813 27.675 129.89375 27.315624Q130.90938 26.940624 132.25313 26.940624Q133.58125 26.940624 134.40938 27.253124Q135.2375 27.565624 135.62813 28.05Q136.01875 28.51875 136.175 29.2375Q136.26875 29.690624 136.26875 30.8625L136.26875 33.20625Q136.26875 35.659374 136.37813 36.315624Q136.4875 36.95625 136.83125 37.55L134.9875 37.55Q134.72188 37.003124 134.64375 36.26875ZM134.4875 32.346874Q133.53438 32.7375 131.6125 33.003124Q130.53438 33.159374 130.08125 33.3625Q129.64375 33.55 129.39375 33.925Q129.14375 34.3 129.14375 34.76875Q129.14375 35.471874 129.675 35.940624Q130.20625 36.409374 131.2375 36.409374Q132.25313 36.409374 133.03438 35.971874Q133.83125 35.51875 134.20625 34.753124Q134.4875 34.14375 134.4875 32.9875L134.4875 32.346874ZM138.15938 34.45625L139.90938 34.175Q140.05 35.221874 140.72188 35.784374Q141.39375 36.33125 142.59688 36.33125Q143.8 36.33125 144.37813 35.846874Q144.97188 35.346874 144.97188 34.690624Q144.97188 34.096874 144.45625 33.753124Q144.09688 33.51875 142.65938 33.159374Q140.72188 32.659374 139.97188 32.315624Q139.2375 31.95625 138.84688 31.33125Q138.45625 30.690624 138.45625 29.925Q138.45625 29.2375 138.76875 28.64375Q139.09688 28.05 139.64375 27.659374Q140.05 27.3625 140.75313 27.159374Q141.47188 26.940624 142.28438 26.940624Q143.50313 26.940624 144.425 27.3Q145.34688 27.64375 145.78438 28.253124Q146.22188 28.846874 146.39375 29.846874L144.675 30.08125Q144.55 29.284374 143.9875 28.846874Q143.425 28.39375 142.40938 28.39375Q141.19063 28.39375 140.675 28.8Q140.15938 29.190624 140.15938 29.721874Q140.15938 30.065624 140.37813 30.346874Q140.58125 30.628124 141.05 30.815624Q141.31563 30.909374 142.59688 31.253124Q144.47188 31.753124 145.20625 32.08125Q145.94063 32.39375 146.3625 33.003124Q146.78438 33.596874 146.78438 34.503124Q146.78438 35.378124 146.26875 36.159374Q145.75313 36.940624 144.78438 37.3625Q143.81563 37.784374 142.59688 37.784374Q140.58125 37.784374 139.51875 36.940624Q138.45625 36.096874 138.15938 34.45625ZM155.97188 34.20625L157.78438 34.440624Q157.3625 36.01875 156.19063 36.909374Q155.03438 37.784374 153.22188 37.784374Q150.95625 37.784374 149.6125 36.39375Q148.28438 34.9875 148.28438 32.45625Q148.28438 29.83125 149.62813 28.39375Q150.97188 26.940624 153.12813 26.940624Q155.20625 26.940624 156.51875 28.3625Q157.84688 29.76875 157.84688 32.346874Q157.84688 32.503124 157.83125 32.815624L150.09688 32.815624Q150.19063 34.51875 151.06563 35.425Q151.94063 36.33125 153.2375 36.33125Q154.20625 36.33125 154.87813 35.83125Q155.56563 35.315624 155.97188 34.20625ZM150.19063 31.3625L155.9875 31.3625Q155.87813 30.065624 155.33125 29.409374Q154.4875 28.39375 153.14375 28.39375Q151.94063 28.39375 151.1125 29.20625Q150.28438 30.003124 150.19063 31.3625ZM159.15938 34.45625L160.90938 34.175Q161.05 35.221874 161.72188 35.784374Q162.39375 36.33125 163.59688 36.33125Q164.8 36.33125 165.37813 35.846874Q165.97188 35.346874 165.97188 34.690624Q165.97188 34.096874 165.45625 33.753124Q165.09688 33.51875 163.65938 33.159374Q161.72188 32.659374 160.97188 32.315624Q160.2375 31.95625 159.84688 31.33125Q159.45625 30.690624 159.45625 29.925Q159.45625 29.2375 159.76875 28.64375Q160.09688 28.05 160.64375 27.659374Q161.05 27.3625 161.75313 27.159374Q162.47188 26.940624 163.28438 26.940624Q164.50313 26.940624 165.425 27.3Q166.34688 27.64375 166.78438 28.253124Q167.22188 28.846874 167.39375 29.846874L165.675 30.08125Q165.55 29.284374 164.9875 28.846874Q164.425 28.39375 163.40938 28.39375Q162.19063 28.39375 161.675 28.8Q161.15938 29.190624 161.15938 29.721874Q161.15938 30.065624 161.37813 30.346874Q161.58125 30.628124 162.05 30.815624Q162.31563 30.909374 163.59688 31.253124Q165.47188 31.753124 166.20625 32.08125Q166.94063 32.39375 167.3625 33.003124Q167.78438 33.596874 167.78438 34.503124Q167.78438 35.378124 167.26875 36.159374Q166.75313 36.940624 165.78438 37.3625Q164.81563 37.784374 163.59688 37.784374Q161.58125 37.784374 160.51875 36.940624Q159.45625 36.096874 159.15938 34.45625ZM175.87813 25.253124L175.87813 23.2375L177.64375 23.2375L177.64375 25.253124L175.87813 25.253124ZM175.87813 37.55L175.87813 27.175L177.64375 27.175L177.64375 37.55L175.87813 37.55ZM179.8625 37.55L179.8625 27.175L181.45625 27.175L181.45625 28.659374Q182.59688 26.940624 184.75313 26.940624Q185.69063 26.940624 186.47188 27.284374Q187.26875 27.6125 187.65938 28.159374Q188.05 28.70625 188.20625 29.45625Q188.3 29.95625 188.3 31.175L188.3 37.55L186.53438 37.55L186.53438 31.2375Q186.53438 30.159374 186.33125 29.628124Q186.12813 29.096874 185.59688 28.784374Q185.08125 28.471874 184.37813 28.471874Q183.25313 28.471874 182.44063 29.190624Q181.62813 29.89375 181.62813 31.878124L181.62813 37.55L179.8625 37.55ZM203.64375 36.26875Q202.65938 37.096874 201.75313 37.440624Q200.84688 37.784374 199.81563 37.784374Q198.1125 37.784374 197.19063 36.95625Q196.26875 36.1125 196.26875 34.815624Q196.26875 34.05 196.6125 33.425Q196.97188 32.8 197.53438 32.425Q198.09688 32.034374 198.8 31.83125Q199.31563 31.70625 200.3625 31.565624Q202.4875 31.315624 203.4875 30.971874Q203.50313 30.6125 203.50313 30.503124Q203.50313 29.440624 203.00313 28.9875Q202.33125 28.39375 201.00313 28.39375Q199.75313 28.39375 199.15938 28.83125Q198.58125 29.26875 198.3 30.378124L196.58125 30.14375Q196.81563 29.034374 197.34688 28.3625Q197.87813 27.675 198.89375 27.315624Q199.90938 26.940624 201.25313 26.940624Q202.58125 26.940624 203.40938 27.253124Q204.2375 27.565624 204.62813 28.05Q205.01875 28.51875 205.175 29.2375Q205.26875 29.690624 205.26875 30.8625L205.26875 33.20625Q205.26875 35.659374 205.37813 36.315624Q205.4875 36.95625 205.83125 37.55L203.9875 37.55Q203.72188 37.003124 203.64375 36.26875ZM203.4875 32.346874Q202.53438 32.7375 200.6125 33.003124Q199.53438 33.159374 199.08125 33.3625Q198.64375 33.55 198.39375 33.925Q198.14375 34.3 198.14375 34.76875Q198.14375 35.471874 198.675 35.940624Q199.20625 36.409374 200.2375 36.409374Q201.25313 36.409374 202.03438 35.971874Q202.83125 35.51875 203.20625 34.753124Q203.4875 34.14375 203.4875 32.9875L203.4875 32.346874ZM220.64375 33.753124L222.3625 33.971874Q222.08125 35.76875 220.90938 36.784374Q219.75313 37.784374 218.05 37.784374Q215.925 37.784374 214.62813 36.39375Q213.33125 35.003124 213.33125 32.409374Q213.33125 30.721874 213.87813 29.471874Q214.44063 28.20625 215.58125 27.58125Q216.72188 26.940624 218.06563 26.940624Q219.75313 26.940624 220.81563 27.8Q221.89375 28.659374 222.20625 30.221874L220.4875 30.4875Q220.25313 29.440624 219.62813 28.925Q219.00313 28.39375 218.12813 28.39375Q216.8 28.39375 215.97188 29.346874Q215.14375 30.3 215.14375 32.346874Q215.14375 34.440624 215.94063 35.39375Q216.7375 36.33125 218.03438 36.33125Q219.06563 36.33125 219.75313 35.70625Q220.45625 35.065624 220.64375 33.753124ZM230.64375 36.26875Q229.65938 37.096874 228.75313 37.440624Q227.84688 37.784374 226.81563 37.784374Q225.1125 37.784374 224.19063 36.95625Q223.26875 36.1125 223.26875 34.815624Q223.26875 34.05 223.6125 33.425Q223.97188 32.8 224.53438 32.425Q225.09688 32.034374 225.8 31.83125Q226.31563 31.70625 227.3625 31.565624Q229.4875 31.315624 230.4875 30.971874Q230.50313 30.6125 230.50313 30.503124Q230.50313 29.440624 230.00313 28.9875Q229.33125 28.39375 228.00313 28.39375Q226.75313 28.39375 226.15938 28.83125Q225.58125 29.26875 225.3 30.378124L223.58125 30.14375Q223.81563 29.034374 224.34688 28.3625Q224.87813 27.675 225.89375 27.315624Q226.90938 26.940624 228.25313 26.940624Q229.58125 26.940624 230.40938 27.253124Q231.2375 27.565624 231.62813 28.05Q232.01875 28.51875 232.175 29.2375Q232.26875 29.690624 232.26875 30.8625L232.26875 33.20625Q232.26875 35.659374 232.37813 36.315624Q232.4875 36.95625 232.83125 37.55L230.9875 37.55Q230.72188 37.003124 230.64375 36.26875ZM230.4875 32.346874Q229.53438 32.7375 227.6125 33.003124Q226.53438 33.159374 226.08125 33.3625Q225.64375 33.55 225.39375 33.925Q225.14375 34.3 225.14375 34.76875Q225.14375 35.471874 225.675 35.940624Q226.20625 36.409374 227.2375 36.409374Q228.25313 36.409374 229.03438 35.971874Q229.83125 35.51875 230.20625 34.753124Q230.4875 34.14375 230.4875 32.9875L230.4875 32.346874ZM234.8625 37.55L234.8625 27.175L236.45625 27.175L236.45625 28.659374Q237.59688 26.940624 239.75313 26.940624Q240.69063 26.940624 241.47188 27.284374Q242.26875 27.6125 242.65938 28.159374Q243.05 28.70625 243.20625 29.45625Q243.3 29.95625 243.3 31.175L243.3 37.55L241.53438 37.55L241.53438 31.2375Q241.53438 30.159374 241.33125 29.628124Q241.12813 29.096874 240.59688 28.784374Q240.08125 28.471874 239.37813 28.471874Q238.25313 28.471874 237.44063 29.190624Q236.62813 29.89375 236.62813 31.878124L236.62813 37.55L234.8625 37.55ZM252.59688 37.55L252.59688 36.2375Q251.6125 37.784374 249.69063 37.784374Q248.45625 37.784374 247.40938 37.096874Q246.37813 36.409374 245.8 35.190624Q245.2375 33.971874 245.2375 32.378124Q245.2375 30.815624 245.75313 29.55Q246.26875 28.284374 247.3 27.6125Q248.34688 26.940624 249.6125 26.940624Q250.55 26.940624 251.28438 27.346874Q252.01875 27.7375 252.4875 28.3625L252.4875 23.2375L254.22188 23.2375L254.22188 37.55L252.59688 37.55ZM247.03438 32.378124Q247.03438 34.3625 247.87813 35.346874Q248.72188 36.33125 249.8625 36.33125Q251.01875 36.33125 251.81563 35.39375Q252.62813 34.45625 252.62813 32.51875Q252.62813 30.39375 251.8 29.39375Q250.9875 28.39375 249.78438 28.39375Q248.6125 28.39375 247.81563 29.3625Q247.03438 30.315624 247.03438 32.378124ZM256.83124 37.55L256.83124 23.2375L258.58124 23.2375L258.58124 37.55L256.83124 37.55ZM267.97186 34.20625L269.78436 34.440624Q269.3625 36.01875 268.1906 36.909374Q267.03436 37.784374 265.22186 37.784374Q262.95624 37.784374 261.6125 36.39375Q260.28436 34.9875 260.28436 32.45625Q260.28436 29.83125 261.6281 28.39375Q262.97186 26.940624 265.1281 26.940624Q267.20624 26.940624 268.51874 28.3625Q269.84686 29.76875 269.84686 32.346874Q269.84686 32.503124 269.83124 32.815624L262.09686 32.815624Q262.1906 34.51875 263.0656 35.425Q263.9406 36.33125 265.2375 36.33125Q266.20624 36.33125 266.8781 35.83125Q267.5656 35.315624 267.97186 34.20625ZM262.1906 31.3625L267.9875 31.3625Q267.8781 30.065624 267.33124 29.409374Q266.4875 28.39375 265.14374 28.39375Q263.9406 28.39375 263.1125 29.20625Q262.28436 30.003124 262.1906 31.3625ZM271.15936 34.45625L272.90936 34.175Q273.05 35.221874 273.72186 35.784374Q274.39374 36.33125 275.59686 36.33125Q276.8 36.33125 277.3781 35.846874Q277.97186 35.346874 277.97186 34.690624Q277.97186 34.096874 277.45624 33.753124Q277.09686 33.51875 275.65936 33.159374Q273.72186 32.659374 272.97186 32.315624Q272.2375 31.95625 271.84686 31.33125Q271.45624 30.690624 271.45624 29.925Q271.45624 29.2375 271.76874 28.64375Q272.09686 28.05 272.64374 27.659374Q273.05 27.3625 273.7531 27.159374Q274.47186 26.940624 275.28436 26.940624Q276.5031 26.940624 277.425 27.3Q278.34686 27.64375 278.78436 28.253124Q279.22186 28.846874 279.39374 29.846874L277.675 30.08125Q277.55 29.284374 276.9875 28.846874Q276.425 28.39375 275.40936 28.39375Q274.1906 28.39375 273.675 28.8Q273.15936 29.190624 273.15936 29.721874Q273.15936 30.065624 273.3781 30.346874Q273.58124 30.628124 274.05 30.815624Q274.3156 30.909374 275.59686 31.253124Q277.47186 31.753124 278.20624 32.08125Q278.9406 32.39375 279.3625 33.003124Q279.78436 33.596874 279.78436 34.503124Q279.78436 35.378124 279.26874 36.159374Q278.7531 36.940624 277.78436 37.3625Q276.8156 37.784374 275.59686 37.784374Q273.58124 37.784374 272.51874 36.940624Q271.45624 36.096874 271.15936 34.45625ZM285.70624 35.971874L285.95624 37.534374Q285.22186 37.690624 284.6281 37.690624Q283.675 37.690624 283.14374 37.39375Q282.6281 37.08125 282.40936 36.596874Q282.1906 36.096874 282.1906 34.51875L282.1906 28.55L280.90936 28.55L280.90936 27.175L282.1906 27.175L282.1906 24.6125L283.9406 23.55L283.9406 27.175L285.70624 27.175L285.70624 28.55L283.9406 28.55L283.9406 34.6125Q283.9406 35.3625 284.03436 35.58125Q284.1281 35.784374 284.33124 35.925Q284.55 36.05 284.9406 36.05Q285.22186 36.05 285.70624 35.971874ZM287.8781 25.253124L287.8781 23.2375L289.64374 23.2375L289.64374 25.253124L287.8781 25.253124ZM287.8781 37.55L287.8781 27.175L289.64374 27.175L289.64374 37.55L287.8781 37.55ZM298.64374 33.753124L300.3625 33.971874Q300.08124 35.76875 298.90936 36.784374Q297.7531 37.784374 296.05 37.784374Q293.925 37.784374 292.6281 36.39375Q291.33124 35.003124 291.33124 32.409374Q291.33124 30.721874 291.8781 29.471874Q292.4406 28.20625 293.58124 27.58125Q294.72186 26.940624 296.0656 26.940624Q297.7531 26.940624 298.8156 27.8Q299.89374 28.659374 300.20624 30.221874L298.4875 30.4875Q298.2531 29.440624 297.6281 28.925Q297.0031 28.39375 296.1281 28.39375Q294.8 28.39375 293.97186 29.346874Q293.14374 30.3 293.14374 32.346874Q293.14374 34.440624 293.9406 35.39375Q294.7375 36.33125 296.03436 36.33125Q297.0656 36.33125 297.7531 35.70625Q298.45624 35.065624 298.64374 33.753124ZM301.8781 37.55L301.8781 23.2375L303.64374 23.2375L303.64374 31.39375L307.8 27.175L310.0656 27.175L306.1125 31.01875L310.47186 37.55L308.3 37.55L304.8781 32.253124L303.64374 33.440624L303.64374 37.55L301.8781 37.55ZM324.64374 33.753124L326.3625 33.971874Q326.08124 35.76875 324.90936 36.784374Q323.7531 37.784374 322.05 37.784374Q319.925 37.784374 318.6281 36.39375Q317.33124 35.003124 317.33124 32.409374Q317.33124 30.721874 317.8781 29.471874Q318.4406 28.20625 319.58124 27.58125Q320.72186 26.940624 322.0656 26.940624Q323.7531 26.940624 324.8156 27.8Q325.89374 28.659374 326.20624 30.221874L324.4875 30.4875Q324.2531 29.440624 323.6281 28.925Q323.0031 28.39375 322.1281 28.39375Q320.8 28.39375 319.97186 29.346874Q319.14374 30.3 319.14374 32.346874Q319.14374 34.440624 319.9406 35.39375Q320.7375 36.33125 322.03436 36.33125Q323.0656 36.33125 323.7531 35.70625Q324.45624 35.065624 324.64374 33.753124ZM327.8625 37.55L327.8625 23.2375L329.6281 23.2375L329.6281 28.3625Q330.8625 26.940624 332.7375 26.940624Q333.8781 26.940624 334.72186 27.39375Q335.58124 27.846874 335.9406 28.659374Q336.3156 29.45625 336.3156 30.971874L336.3156 37.55L334.5656 37.55L334.5656 30.971874Q334.5656 29.659374 333.9875 29.065624Q333.40936 28.45625 332.3781 28.45625Q331.59686 28.45625 330.89374 28.8625Q330.20624 29.26875 329.90936 29.971874Q329.6281 30.659374 329.6281 31.878124L329.6281 37.55L327.8625 37.55ZM345.64374 36.26875Q344.65936 37.096874 343.7531 37.440624Q342.84686 37.784374 341.8156 37.784374Q340.1125 37.784374 339.1906 36.95625Q338.26874 36.1125 338.26874 34.815624Q338.26874 34.05 338.6125 33.425Q338.97186 32.8 339.53436 32.425Q340.09686 32.034374 340.8 31.83125Q341.3156 31.70625 342.3625 31.565624Q344.4875 31.315624 345.4875 30.971874Q345.5031 30.6125 345.5031 30.503124Q345.5031 29.440624 345.0031 28.9875Q344.33124 28.39375 343.0031 28.39375Q341.7531 28.39375 341.15936 28.83125Q340.58124 29.26875 340.3 30.378124L338.58124 30.14375Q338.8156 29.034374 339.34686 28.3625Q339.8781 27.675 340.89374 27.315624Q341.90936 26.940624 343.2531 26.940624Q344.58124 26.940624 345.40936 27.253124Q346.2375 27.565624 346.6281 28.05Q347.01874 28.51875 347.175 29.2375Q347.26874 29.690624 347.26874 30.8625L347.26874 33.20625Q347.26874 35.659374 347.3781 36.315624Q347.4875 36.95625 347.83124 37.55L345.9875 37.55Q345.72186 37.003124 345.64374 36.26875ZM345.4875 32.346874Q344.53436 32.7375 342.6125 33.003124Q341.53436 33.159374 341.08124 33.3625Q340.64374 33.55 340.39374 33.925Q340.14374 34.3 340.14374 34.76875Q340.14374 35.471874 340.675 35.940624Q341.20624 36.409374 342.2375 36.409374Q343.2531 36.409374 344.03436 35.971874Q344.83124 35.51875 345.20624 34.753124Q345.4875 34.14375 345.4875 32.9875L345.4875 32.346874ZM349.84686 37.55L349.84686 27.175L351.425 27.175L351.425 28.753124Q352.03436 27.64375 352.55 27.3Q353.0656 26.940624 353.675 26.940624Q354.5656 26.940624 355.4875 27.503124L354.8781 29.14375Q354.2375 28.753124 353.59686 28.753124Q353.01874 28.753124 352.55 29.1125Q352.09686 29.45625 351.89374 30.065624Q351.6125 31.003124 351.6125 32.1125L351.6125 37.55L349.84686 37.55Z" fill-rule="nonzero"/></svg>