<svg version="1.1" viewBox="0.0 0.0 600.0 371.0" fill="none" stroke="none" stroke-linecap="square" stroke-miterlimit="10" width="600" height="371" xmlns:xlink="http://www.w3.org/1999/xlink" xmlns="http://www.w3.org/2000/svg"><path fill="#ffffff" d="M0 0L600.0 0L600.0 371.0L0 371.0L0 0Z" fill-rule="nonzero"/><path stroke="#333333" stroke-width="1.0" stroke-linecap="butt" d="M45.5 332.5L581.5 332.5" fill-rule="nonzero"/><path stroke="#cccccc" stroke-width="1.0" stroke-linecap="butt" d="M45.5 242.5L581.5 242.5" fill-rule="nonzero"/><path stroke="#cccccc" stroke-width="1.0" stroke-linecap="butt" d="M45.5 152.5L581.5 152.5" fill-rule="nonzero"/><path stroke="#cccccc" stroke-width="1.0" stroke-linecap="butt" d="M45.5 61.5L581.5 61.5" fill-rule="nonzero"/><clipPath id="id_0"><path d="M45.55 61.916668L581.45 61.916668L581.45 332.45L45.55 332.45L45.55 61.916668Z" clip-rule="nonzero"/></clipPath><path stroke="#4285f4" stroke-width="2.0" stroke-linecap="butt" clip-path="url(#id_0)" d="M153.52985 87.16644L153.52985 195.37978" fill-rule="nonzero"/><path stroke="#4285f4" stroke-width="2.0" stroke-linecap="butt" clip-path="url(#id_0)" d="M153.52985 332.45L153.52985 267.522" fill-rule="nonzero"/><path stroke="#4285f4" stroke-width="2.0" stroke-linecap="butt" clip-path="url(#id_0)" d="M101.53955 195.37978L205.52016 195.37978" fill-rule="nonzero"/><path stroke="#4285f4" stroke-width="2.0" stroke-linecap="butt" clip-path="url(#id_0)" d="M101.53955 267.522L101.53955 195.37978" fill-rule="nonzero"/><path stroke="#4285f4" stroke-width="2.0" stroke-linecap="butt" clip-path="url(#id_0)" d="M205.52016 195.37978L205.52016 267.522" fill-rule="nonzero"/><path stroke="#4285f4" stroke-width="2.0" stroke-linecap="butt" clip-path="url(#id_0)" d="M205.52016 267.522L101.53955 267.522" fill-rule="nonzero"/><path stroke="#4285f4" stroke-width="2.0" stroke-linecap="butt" clip-path="url(#id_0)" d="M313.5 272.93268L313.5 299.986" fill-rule="nonzero"/><path stroke="#4285f4" stroke-width="2.0" stroke-linecap="butt" clip-path="url(#id_0)" d="M313.5 332.45L313.5 272.93268" fill-rule="nonzero"/><path fill="#4285f4" clip-path="url(#id_0)" d="M260.5097 271.93268L366.4903 271.93268L366.4903 300.98602L260.5097 300.98602L260.5097 271.93268Z" fill-rule="nonzero"/><path stroke="#4285f4" stroke-width="2.0" stroke-linecap="butt" clip-path="url(#id_0)" d="M473.47015 254.89711L473.47015 260.30777" fill-rule="nonzero"/><path stroke="#4285f4" stroke-width="2.0" stroke-linecap="butt" clip-path="url(#id_0)" d="M421.47986 260.30777L525.46045 260.30777" fill-rule="nonzero"/><path stroke="#4285f4" stroke-width="2.0" stroke-linecap="butt" clip-path="url(#id_0)" d="M421.47986 332.45L421.47986 260.30777" fill-rule="nonzero"/><path stroke="#4285f4" stroke-width="2.0" stroke-linecap="butt" clip-path="url(#id_0)" d="M525.46045 260.30777L525.46045 332.45" fill-rule="nonzero"/><path stroke="#4285f4" stroke-width="2.0" stroke-linecap="butt" clip-path="url(#id_0)" d="M525.46045 332.45L421.47986 332.45" fill-rule="nonzero"/><path fill="#000000" d="M33.05 332.21564Q33.05 330.6844 33.3625 329.7625Q33.675 328.825 34.284374 328.325Q34.909374 327.825 35.846874 327.825Q36.534374 327.825 37.05 328.10626Q37.58125 328.3875 37.925 328.91876Q38.26875 329.4344 38.45625 330.1844Q38.64375 330.9344 38.64375 332.21564Q38.64375 333.73126 38.33125 334.65314Q38.034374 335.575 37.409374 336.09064Q36.8 336.59064 35.846874 336.59064Q34.6125 336.59064 33.89375 335.7Q33.05 334.6375 33.05 332.21564ZM34.128124 332.21564Q34.128124 334.325 34.628124 335.02814Q35.128124 335.73126 35.846874 335.73126Q36.58125 335.73126 37.065624 335.02814Q37.565624 334.325 37.565624 332.21564Q37.565624 330.09064 37.065624 329.40314Q36.58125 328.7 35.83125 328.7Q35.1125 328.7 34.675 329.3094Q34.128124 330.09064 34.128124 332.21564Z" fill-rule="nonzero"/><path fill="#000000" d="M26.05 244.02222L27.159374 243.92847Q27.284374 244.74097 27.721874 245.14722Q28.175 245.55347 28.815624 245.55347Q29.565624 245.55347 30.096874 244.97534Q30.628124 244.39722 30.628124 243.45972Q30.628124 242.55347 30.1125 242.03784Q29.6125 241.50659 28.784374 241.50659Q28.284374 241.50659 27.8625 241.74097Q27.45625 241.97534 27.221874 242.33472L26.2375 242.20972L27.065624 237.80347L31.346874 237.80347L31.346874 238.80347L27.909374 238.80347L27.45625 241.11597Q28.221874 240.56909 29.065624 240.56909Q30.190624 240.56909 30.95625 241.35034Q31.7375 242.13159 31.7375 243.36597Q31.7375 244.52222 31.065624 245.38159Q30.2375 246.41284 28.815624 246.41284Q27.64375 246.41284 26.89375 245.75659Q26.159374 245.10034 26.05 244.02222ZM33.05 242.03784Q33.05 240.50659 33.3625 239.58472Q33.675 238.64722 34.284374 238.14722Q34.909374 237.64722 35.846874 237.64722Q36.534374 237.64722 37.05 237.92847Q37.58125 238.20972 37.925 238.74097Q38.26875 239.25659 38.45625 240.00659Q38.64375 240.75659 38.64375 242.03784Q38.64375 243.55347 38.33125 244.47534Q38.034374 245.39722 37.409374 245.91284Q36.8 246.41284 35.846874 246.41284Q34.6125 246.41284 33.89375 245.52222Q33.05 244.45972 33.05 242.03784ZM34.128124 242.03784Q34.128124 244.14722 34.628124 244.85034Q35.128124 245.55347 35.846874 245.55347Q36.58125 245.55347 37.065624 244.85034Q37.565624 244.14722 37.565624 242.03784Q37.565624 239.91284 37.065624 239.22534Q36.58125 238.52222 35.83125 238.52222Q35.1125 238.52222 34.675 239.13159Q34.128124 239.91284 34.128124 242.03784Z" fill-rule="nonzero"/><path fill="#000000" d="M23.01875 156.09445L21.971874 156.09445L21.971874 149.3757Q21.58125 149.73508 20.95625 150.11008Q20.346874 150.46945 19.8625 150.64133L19.8625 149.6257Q20.7375 149.20383 21.39375 148.6257Q22.065624 148.03195 22.346874 147.46945L23.01875 147.46945L23.01875 156.09445ZM26.05 151.86008Q26.05 150.32883 26.3625 149.40695Q26.675 148.46945 27.284374 147.96945Q27.909374 147.46945 28.846874 147.46945Q29.534374 147.46945 30.05 147.7507Q30.58125 148.03195 30.925 148.5632Q31.26875 149.07883 31.45625 149.82883Q31.64375 150.57883 31.64375 151.86008Q31.64375 153.3757 31.33125 154.29758Q31.034374 155.21945 30.409374 155.73508Q29.8 156.23508 28.846874 156.23508Q27.6125 156.23508 26.89375 155.34445Q26.05 154.28195 26.05 151.86008ZM27.128124 151.86008Q27.128124 153.96945 27.628124 154.67258Q28.128124 155.3757 28.846874 155.3757Q29.58125 155.3757 30.065624 154.67258Q30.565624 153.96945 30.565624 151.86008Q30.565624 149.73508 30.065624 149.04758Q29.58125 148.34445 28.83125 148.34445Q28.1125 148.34445 27.675 148.95383Q27.128124 149.73508 27.128124 151.86008ZM33.05 151.86008Q33.05 150.32883 33.3625 149.40695Q33.675 148.46945 34.284374 147.96945Q34.909374 147.46945 35.846874 147.46945Q36.534374 147.46945 37.05 147.7507Q37.58125 148.03195 37.925 148.5632Q38.26875 149.07883 38.45625 149.82883Q38.64375 150.57883 38.64375 151.86008Q38.64375 153.3757 38.33125 154.29758Q38.034374 155.21945 37.409374 155.73508Q36.8 156.23508 35.846874 156.23508Q34.6125 156.23508 33.89375 155.34445Q33.05 154.28195 33.05 151.86008ZM34.128124 151.86008Q34.128124 153.96945 34.628124 154.67258Q35.128124 155.3757 35.846874 155.3757Q36.58125 155.3757 37.065624 154.67258Q37.565624 153.96945 37.565624 151.86008Q37.565624 149.73508 37.065624 149.04758Q36.58125 148.34445 35.83125 148.34445Q35.1125 148.34445 34.675 148.95383Q34.128124 149.73508 34.128124 151.86008Z" fill-rule="nonzero"/><path fill="#000000" d="M23.01875 65.916664L21.971874 65.916664L21.971874 59.197914Q21.58125 59.55729 20.95625 59.93229Q20.346874 60.291664 19.8625 60.46354L19.8625 59.447914Q20.7375 59.02604 21.39375 58.447914Q22.065624 57.854164 22.346874 57.291664L23.01875 57.291664L23.01875 65.916664ZM26.05 63.666664L27.159374 63.572914Q27.284374 64.385414 27.721874 64.791664Q28.175 65.197914 28.815624 65.197914Q29.565624 65.197914 30.096874 64.61979Q30.628124 64.041664 30.628124 63.104164Q30.628124 62.197914 30.1125 61.68229Q29.6125 61.15104 28.784374 61.15104Q28.284374 61.15104 27.8625 61.385414Q27.45625 61.61979 27.221874 61.979164L26.2375 61.854164L27.065624 57.447914L31.346874 57.447914L31.346874 58.447914L27.909374 58.447914L27.45625 60.760414Q28.221874 60.21354 29.065624 60.21354Q30.190624 60.21354 30.95625 60.99479Q31.7375 61.77604 31.7375 63.010414Q31.7375 64.166664 31.065624 65.02604Q30.2375 66.05729 28.815624 66.05729Q27.64375 66.05729 26.89375 65.40104Q26.159374 64.74479 26.05 63.666664ZM33.05 61.68229Q33.05 60.15104 33.3625 59.229164Q33.675 58.291664 34.284374 57.791664Q34.909374 57.291664 35.846874 57.291664Q36.534374 57.291664 37.05 57.572914Q37.58125 57.854164 37.925 58.385414Q38.26875 58.90104 38.45625 59.65104Q38.64375 60.40104 38.64375 61.68229Q38.64375 63.197914 38.33125 64.11979Q38.034374 65.041664 37.409374 65.55729Q36.8 66.05729 35.846874 66.05729Q34.6125 66.05729 33.89375 65.166664Q33.05 64.104164 33.05 61.68229ZM34.128124 61.68229Q34.128124 63.791664 34.628124 64.49479Q35.128124 65.197914 35.846874 65.197914Q36.58125 65.197914 37.065624 64.49479Q37.565624 63.791664 37.565624 61.68229Q37.565624 59.55729 37.065624 58.86979Q36.58125 58.166664 35.83125 58.166664Q35.1125 58.166664 34.675 58.77604Q34.128124 59.55729 34.128124 61.68229Z" fill-rule="nonzero"/><path fill="#000000" d="M129.45172 349.45L129.45172 340.85626L132.42047 340.85626Q133.42047 340.85626 133.95172 340.98126Q134.6861 341.15314 135.20172 341.59064Q135.88922 342.16876 136.21735 343.075Q136.5611 343.96564 136.5611 345.10626Q136.5611 346.09064 136.32672 346.84064Q136.10797 347.59064 135.7486 348.09064Q135.38922 348.59064 134.95172 348.8719Q134.52985 349.15314 133.9361 349.3094Q133.34235 349.45 132.5611 349.45L129.45172 349.45ZM130.59235 348.4344L132.42047 348.4344Q133.27985 348.4344 133.76422 348.27814Q134.2486 348.1219 134.52985 347.825Q134.9361 347.4344 135.15485 346.7469Q135.38922 346.0594 135.38922 345.09064Q135.38922 343.7469 134.9361 343.02814Q134.4986 342.29376 133.8736 342.04376Q133.40485 341.8719 132.40485 341.8719L130.59235 341.8719L130.59235 348.4344ZM142.57672 347.45L143.67047 347.575Q143.42047 348.52814 142.71735 349.0594Q142.01422 349.59064 140.9361 349.59064Q139.57672 349.59064 138.76422 348.7469Q137.96735 347.90314 137.96735 346.3875Q137.96735 344.825 138.77985 343.96564Q139.59235 343.09064 140.8736 343.09064Q142.1236 343.09064 142.90485 343.9344Q143.70172 344.77814 143.70172 346.325Q143.70172 346.41876 143.70172 346.60626L139.0611 346.60626Q139.1236 347.6375 139.63922 348.1844Q140.15485 348.71564 140.9361 348.71564Q141.51422 348.71564 141.92047 348.41876Q142.34235 348.10626 142.57672 347.45ZM139.1236 345.7469L142.59235 345.7469Q142.52985 344.95 142.20172 344.5594Q141.6861 343.95 140.88922 343.95Q140.15485 343.95 139.65485 344.4344Q139.17047 344.91876 139.1236 345.7469ZM145.32672 349.45L145.32672 343.23126L146.26422 343.23126L146.26422 344.10626Q146.95172 343.09064 148.2486 343.09064Q148.8111 343.09064 149.27985 343.29376Q149.76422 343.4969 149.9986 343.825Q150.23297 344.15314 150.32672 344.59064Q150.3736 344.8875 150.3736 345.6219L150.3736 349.45L149.32672 349.45L149.32672 345.66876Q149.32672 345.0125 149.20172 344.7Q149.07672 344.3875 148.76422 344.2Q148.45172 343.9969 148.02985 343.9969Q147.35797 343.9969 146.85797 344.4344Q146.3736 344.85626 146.3736 346.04376L146.3736 349.45L145.32672 349.45ZM152.32672 349.45L152.32672 343.23126L153.26422 343.23126L153.26422 344.10626Q153.5611 343.6375 154.04547 343.3719Q154.52985 343.09064 155.15485 343.09064Q155.84235 343.09064 156.27985 343.3719Q156.73297 343.65314 156.90485 344.16876Q157.65485 343.09064 158.82672 343.09064Q159.76422 343.09064 160.2486 343.60626Q160.7486 344.10626 160.7486 345.1844L160.7486 349.45L159.70172 349.45L159.70172 345.52814Q159.70172 344.90314 159.59235 344.6219Q159.4986 344.34064 159.23297 344.16876Q158.96735 343.9969 158.59235 343.9969Q157.9361 343.9969 157.4986 344.4344Q157.07672 344.8719 157.07672 345.84064L157.07672 349.45L156.01422 349.45L156.01422 345.40314Q156.01422 344.7 155.7486 344.35626Q155.4986 343.9969 154.92047 343.9969Q154.46735 343.9969 154.09235 344.23126Q153.71735 344.46564 153.54547 344.91876Q153.3736 345.3719 153.3736 346.21564L153.3736 349.45L152.32672 349.45ZM166.38922 348.6844Q165.79547 349.1844 165.2486 349.3875Q164.71735 349.59064 164.09235 349.59064Q163.0611 349.59064 162.51422 349.09064Q161.96735 348.59064 161.96735 347.8094Q161.96735 347.35626 162.17047 346.98126Q162.3736 346.59064 162.71735 346.3719Q163.0611 346.1375 163.48297 346.02814Q163.77985 345.9344 164.42047 345.85626Q165.6861 345.71564 166.29547 345.4969Q166.29547 345.27814 166.29547 345.23126Q166.29547 344.575 165.9986 344.3094Q165.59235 343.96564 164.79547 343.96564Q164.0611 343.96564 163.70172 344.23126Q163.34235 344.48126 163.17047 345.1375L162.13922 344.9969Q162.27985 344.34064 162.60797 343.9344Q162.9361 343.52814 163.54547 343.3094Q164.15485 343.09064 164.95172 343.09064Q165.7486 343.09064 166.2486 343.27814Q166.7486 343.46564 166.98297 343.7469Q167.21735 344.02814 167.3111 344.46564Q167.35797 344.73126 167.35797 345.4344L167.35797 346.84064Q167.35797 348.3094 167.42047 348.7Q167.4986 349.09064 167.70172 349.45L166.59235 349.45Q166.4361 349.1219 166.38922 348.6844ZM166.29547 346.325Q165.71735 346.5594 164.57672 346.73126Q163.92047 346.825 163.65485 346.95Q163.38922 347.0594 163.23297 347.27814Q163.09235 347.4969 163.09235 347.77814Q163.09235 348.2 163.40485 348.48126Q163.73297 348.7625 164.34235 348.7625Q164.95172 348.7625 165.42047 348.4969Q165.90485 348.23126 166.1236 347.7625Q166.29547 347.40314 166.29547 346.71564L166.29547 346.325ZM169.3111 349.45L169.3111 343.23126L170.26422 343.23126L170.26422 344.16876Q170.6236 343.5125 170.92047 343.3094Q171.23297 343.09064 171.60797 343.09064Q172.13922 343.09064 172.6861 343.41876L172.32672 344.40314Q171.9361 344.16876 171.5611 344.16876Q171.20172 344.16876 170.92047 344.3875Q170.65485 344.59064 170.54547 344.96564Q170.35797 345.52814 170.35797 346.1844L170.35797 349.45L169.3111 349.45ZM173.32672 349.45L173.32672 340.85626L174.38922 340.85626L174.38922 345.7625L176.8736 343.23126L178.2486 343.23126L175.85797 345.52814L178.48297 349.45L177.1861 349.45L175.1236 346.2625L174.38922 346.98126L174.38922 349.45L173.32672 349.45Z" fill-rule="nonzero"/><path fill="#000000" d="M293.98438 349.45L293.98438 340.85626L299.78125 340.85626L299.78125 341.8719L295.125 341.8719L295.125 344.52814L299.15625 344.52814L299.15625 345.54376L295.125 345.54376L295.125 349.45L293.98438 349.45ZM300.79688 342.075L300.79688 340.85626L301.85938 340.85626L301.85938 342.075L300.79688 342.075ZM300.79688 349.45L300.79688 343.23126L301.85938 343.23126L301.85938 349.45L300.79688 349.45ZM303.79688 349.45L303.79688 343.23126L304.73438 343.23126L304.73438 344.10626Q305.42188 343.09064 306.71875 343.09064Q307.28125 343.09064 307.75 343.29376Q308.23438 343.4969 308.46875 343.825Q308.70312 344.15314 308.79688 344.59064Q308.84375 344.8875 308.84375 345.6219L308.84375 349.45L307.79688 349.45L307.79688 345.66876Q307.79688 345.0125 307.67188 344.7Q307.54688 344.3875 307.23438 344.2Q306.92188 343.9969 306.5 343.9969Q305.82812 343.9969 305.32812 344.4344Q304.84375 344.85626 304.84375 346.04376L304.84375 349.45L303.79688 349.45ZM310.76562 349.45L310.76562 340.85626L311.82812 340.85626L311.82812 349.45L310.76562 349.45ZM317.85938 348.6844Q317.26562 349.1844 316.71875 349.3875Q316.1875 349.59064 315.5625 349.59064Q314.53125 349.59064 313.98438 349.09064Q313.4375 348.59064 313.4375 347.8094Q313.4375 347.35626 313.64062 346.98126Q313.84375 346.59064 314.1875 346.3719Q314.53125 346.1375 314.95312 346.02814Q315.25 345.9344 315.89062 345.85626Q317.15625 345.71564 317.76562 345.4969Q317.76562 345.27814 317.76562 345.23126Q317.76562 344.575 317.46875 344.3094Q317.0625 343.96564 316.26562 343.96564Q315.53125 343.96564 315.17188 344.23126Q314.8125 344.48126 314.64062 345.1375L313.60938 344.9969Q313.75 344.34064 314.07812 343.9344Q314.40625 343.52814 315.01562 343.3094Q315.625 343.09064 316.42188 343.09064Q317.21875 343.09064 317.71875 343.27814Q318.21875 343.46564 318.45312 343.7469Q318.6875 344.02814 318.78125 344.46564Q318.82812 344.73126 318.82812 345.4344L318.82812 346.84064Q318.82812 348.3094 318.89062 348.7Q318.96875 349.09064 319.17188 349.45L318.0625 349.45Q317.90625 349.1219 317.85938 348.6844ZM317.76562 346.325Q317.1875 346.5594 316.04688 346.73126Q315.39062 346.825 315.125 346.95Q314.85938 347.0594 314.70312 347.27814Q314.5625 347.4969 314.5625 347.77814Q314.5625 348.2 314.875 348.48126Q315.20312 348.7625 315.8125 348.7625Q316.42188 348.7625 316.89062 348.4969Q317.375 348.23126 317.59375 347.7625Q317.76562 347.40314 317.76562 346.71564L317.76562 346.325ZM320.79688 349.45L320.79688 343.23126L321.73438 343.23126L321.73438 344.10626Q322.42188 343.09064 323.71875 343.09064Q324.28125 343.09064 324.75 343.29376Q325.23438 343.4969 325.46875 343.825Q325.70312 344.15314 325.79688 344.59064Q325.84375 344.8875 325.84375 345.6219L325.84375 349.45L324.79688 349.45L324.79688 345.66876Q324.79688 345.0125 324.67188 344.7Q324.54688 344.3875 324.23438 344.2Q323.92188 343.9969 323.5 343.9969Q322.82812 343.9969 322.32812 344.4344Q321.84375 344.85626 321.84375 346.04376L321.84375 349.45L320.79688 349.45ZM331.82812 349.45L331.82812 348.66876Q331.23438 349.59064 330.09375 349.59064Q329.34375 349.59064 328.71875 349.1844Q328.09375 348.7625 327.75 348.02814Q327.40625 347.29376 327.40625 346.34064Q327.40625 345.41876 327.71875 344.65314Q328.03125 343.8875 328.65625 343.4969Q329.28125 343.09064 330.04688 343.09064Q330.60938 343.09064 331.04688 343.325Q331.48438 343.5594 331.76562 343.9344L331.76562 340.85626L332.8125 340.85626L332.8125 349.45L331.82812 349.45ZM328.5 346.34064Q328.5 347.54376 329.0 348.1375Q329.5 348.71564 330.1875 348.71564Q330.875 348.71564 331.35938 348.15314Q331.84375 347.59064 331.84375 346.4344Q331.84375 345.15314 331.34375 344.5594Q330.85938 343.96564 330.14062 343.96564Q329.4375 343.96564 328.96875 344.54376Q328.5 345.10626 328.5 346.34064Z" fill-rule="nonzero"/><path fill="#000000" d="M453.39203 349.45L453.39203 340.85626L454.54828 340.85626L459.0639 347.60626L459.0639 340.85626L460.15765 340.85626L460.15765 349.45L458.98578 349.45L454.47015 342.7L454.47015 349.45L453.39203 349.45ZM461.8764 346.34064Q461.8764 344.60626 462.82953 343.77814Q463.6264 343.09064 464.78265 343.09064Q466.0639 343.09064 466.8764 343.9344Q467.70453 344.7625 467.70453 346.2469Q467.70453 347.45 467.34515 348.1375Q466.98578 348.825 466.28265 349.21564Q465.59515 349.59064 464.78265 349.59064Q463.48578 349.59064 462.67328 348.7625Q461.8764 347.91876 461.8764 346.34064ZM462.95453 346.34064Q462.95453 347.52814 463.47015 348.1219Q464.0014 348.71564 464.78265 348.71564Q465.57953 348.71564 466.09515 348.1219Q466.61078 347.52814 466.61078 346.3094Q466.61078 345.15314 466.07953 344.5594Q465.5639 343.96564 464.78265 343.96564Q464.0014 343.96564 463.47015 344.5594Q462.95453 345.1375 462.95453 346.34064ZM469.2514 349.45L469.2514 343.23126L470.20453 343.23126L470.20453 344.16876Q470.5639 343.5125 470.86078 343.3094Q471.17328 343.09064 471.54828 343.09064Q472.07953 343.09064 472.6264 343.41876L472.26703 344.40314Q471.8764 344.16876 471.5014 344.16876Q471.14203 344.16876 470.86078 344.3875Q470.59515 344.59064 470.48578 344.96564Q470.29828 345.52814 470.29828 346.1844L470.29828 349.45L469.2514 349.45ZM474.40765 349.45L472.5014 343.23126L473.59515 343.23126L474.57953 346.825L474.95453 348.15314Q474.98578 348.0594 475.28265 346.8719L476.26703 343.23126L477.34515 343.23126L478.28265 346.84064L478.59515 348.02814L478.95453 346.825L480.01703 343.23126L481.04828 343.23126L479.09515 349.45L478.0014 349.45L477.01703 345.71564L476.76703 344.66876L475.51703 349.45L474.40765 349.45ZM486.32953 348.6844Q485.73578 349.1844 485.1889 349.3875Q484.65765 349.59064 484.03265 349.59064Q483.0014 349.59064 482.45453 349.09064Q481.90765 348.59064 481.90765 347.8094Q481.90765 347.35626 482.11078 346.98126Q482.3139 346.59064 482.65765 346.3719Q483.0014 346.1375 483.42328 346.02814Q483.72015 345.9344 484.36078 345.85626Q485.6264 345.71564 486.23578 345.4969Q486.23578 345.27814 486.23578 345.23126Q486.23578 344.575 485.9389 344.3094Q485.53265 343.96564 484.73578 343.96564Q484.0014 343.96564 483.64203 344.23126Q483.28265 344.48126 483.11078 345.1375L482.07953 344.9969Q482.22015 344.34064 482.54828 343.9344Q482.8764 343.52814 483.48578 343.3094Q484.09515 343.09064 484.89203 343.09064Q485.6889 343.09064 486.1889 343.27814Q486.6889 343.46564 486.92328 343.7469Q487.15765 344.02814 487.2514 344.46564Q487.29828 344.73126 487.29828 345.4344L487.29828 346.84064Q487.29828 348.3094 487.36078 348.7Q487.4389 349.09064 487.64203 349.45L486.53265 349.45Q486.3764 349.1219 486.32953 348.6844ZM486.23578 346.325Q485.65765 346.5594 484.51703 346.73126Q483.86078 346.825 483.59515 346.95Q483.32953 347.0594 483.17328 347.27814Q483.03265 347.4969 483.03265 347.77814Q483.03265 348.2 483.34515 348.48126Q483.67328 348.7625 484.28265 348.7625Q484.89203 348.7625 485.36078 348.4969Q485.84515 348.23126 486.0639 347.7625Q486.23578 347.40314 486.23578 346.71564L486.23578 346.325ZM489.22015 351.84064L489.09515 350.85626Q489.4389 350.95 489.70453 350.95Q490.04828 350.95 490.2514 350.825Q490.47015 350.71564 490.61078 350.5125Q490.70453 350.34064 490.9389 349.71564Q490.95453 349.6375 491.03265 349.46564L488.65765 343.23126L489.79828 343.23126L491.09515 346.825Q491.34515 347.5125 491.54828 348.27814Q491.73578 347.54376 491.98578 346.85626L493.3139 343.23126L494.36078 343.23126L492.0014 349.5594Q491.61078 350.575 491.40765 350.96564Q491.1264 351.4969 490.7514 351.73126Q490.39203 351.98126 489.89203 351.98126Q489.59515 351.98126 489.22015 351.84064Z" fill-rule="nonzero"/><path fill="#757575" d="M19.128124 33.4875L20.83125 33.253124Q20.909374 34.89375 21.45625 35.503124Q22.003124 36.096874 22.971874 36.096874Q23.675 36.096874 24.190624 35.784374Q24.70625 35.45625 24.89375 34.89375Q25.096874 34.33125 25.096874 33.096874L25.096874 23.2375L27.003124 23.2375L27.003124 32.9875Q27.003124 34.784374 26.565624 35.76875Q26.128124 36.753124 25.175 37.284374Q24.2375 37.8 22.971874 37.8Q21.096874 37.8 20.08125 36.721874Q19.08125 35.628124 19.128124 33.4875ZM36.659374 37.55L36.659374 36.01875Q35.45625 37.784374 33.378124 37.784374Q32.45625 37.784374 31.659374 37.440624Q30.8625 37.08125 30.471874 36.55Q30.096874 36.01875 29.940624 35.2375Q29.83125 34.721874 29.83125 33.596874L29.83125 27.175L31.58125 27.175L31.58125 32.925Q31.58125 34.3 31.690624 34.784374Q31.8625 35.471874 32.39375 35.878124Q32.940624 36.26875 33.721874 36.26875Q34.51875 36.26875 35.20625 35.8625Q35.909374 35.45625 36.190624 34.76875Q36.4875 34.065624 36.4875 32.7375L36.4875 27.175L38.2375 27.175L38.2375 37.55L36.659374 37.55ZM40.8625 37.55L40.8625 27.175L42.45625 27.175L42.45625 28.659374Q43.596874 26.940624 45.753124 26.940624Q46.690624 26.940624 47.471874 27.284374Q48.26875 27.6125 48.659374 28.159374Q49.05 28.70625 49.20625 29.45625Q49.3 29.95625 49.3 31.175L49.3 37.55L47.534374 37.55L47.534374 31.2375Q47.534374 30.159374 47.33125 29.628124Q47.128124 29.096874 46.596874 28.784374Q46.08125 28.471874 45.378124 28.471874Q44.253124 28.471874 43.440624 29.190624Q42.628124 29.89375 42.628124 31.878124L42.628124 37.55L40.8625 37.55ZM58.971874 34.20625L60.784374 34.440624Q60.3625 36.01875 59.190624 36.909374Q58.034374 37.784374 56.221874 37.784374Q53.95625 37.784374 52.6125 36.39375Q51.284374 34.9875 51.284374 32.45625Q51.284374 29.83125 52.628124 28.39375Q53.971874 26.940624 56.128124 26.940624Q58.20625 26.940624 59.51875 28.3625Q60.846874 29.76875 60.846874 32.346874Q60.846874 32.503124 60.83125 32.815624L53.096874 32.815624Q53.190624 34.51875 54.065624 35.425Q54.940624 36.33125 56.2375 36.33125Q57.20625 36.33125 57.878124 35.83125Q58.565624 35.315624 58.971874 34.20625ZM53.190624 31.3625L58.9875 31.3625Q58.878124 30.065624 58.33125 29.409374Q57.4875 28.39375 56.14375 28.39375Q54.940624 28.39375 54.1125 29.20625Q53.284374 30.003124 53.190624 31.3625ZM75.64375 33.753124L77.3625 33.971874Q77.08125 35.76875 75.90938 36.784374Q74.75313 37.784374 73.05 37.784374Q70.925 37.784374 69.62813 36.39375Q68.33125 35.003124 68.33125 32.409374Q68.33125 30.721874 68.87813 29.471874Q69.44063 28.20625 70.58125 27.58125Q71.72188 26.940624 73.06563 26.940624Q74.75313 26.940624 75.81563 27.8Q76.89375 28.659374 77.20625 30.221874L75.4875 30.4875Q75.25313 29.440624 74.62813 28.925Q74.00313 28.39375 73.12813 28.39375Q71.8 28.39375 70.97188 29.346874Q70.14375 30.3 70.14375 32.346874Q70.14375 34.440624 70.94063 35.39375Q71.7375 36.33125 73.03438 36.33125Q74.06563 36.33125 74.75313 35.70625Q75.45625 35.065624 75.64375 33.753124ZM85.64375 36.26875Q84.65938 37.096874 83.75313 37.440624Q82.84688 37.784374 81.81563 37.784374Q80.1125 37.784374 79.19063 36.95625Q78.26875 36.1125 78.26875 34.815624Q78.26875 34.05 78.6125 33.425Q78.97188 32.8 79.53438 32.425Q80.09688 32.034374 80.8 31.83125Q81.31563 31.70625 82.3625 31.565624Q84.4875 31.315624 85.4875 30.971874Q85.50313 30.6125 85.50313 30.503124Q85.50313 29.440624 85.00313 28.9875Q84.33125 28.39375 83.00313 28.39375Q81.75313 28.39375 81.15938 28.83125Q80.58125 29.26875 80.3 30.378124L78.58125 30.14375Q78.81563 29.034374 79.34688 28.3625Q79.87813 27.675 80.89375 27.315624Q81.90938 26.940624 83.25313 26.940624Q84.58125 26.940624 85.40938 27.253124Q86.2375 27.565624 86.62813 28.05Q87.01875 28.51875 87.175 29.2375Q87.26875 29.690624 87.26875 30.8625L87.26875 33.20625Q87.26875 35.659374 87.37813 36.315624Q87.4875 36.95625 87.83125 37.55L85.9875 37.55Q85.72188 37.003124 85.64375 36.26875ZM85.4875 32.346874Q84.53438 32.7375 82.6125 33.003124Q81.53438 33.159374 81.08125 33.3625Q80.64375 33.55 80.39375 33.925Q80.14375 34.3 80.14375 34.76875Q80.14375 35.471874 80.675 35.940624Q81.20625 36.409374 82.2375 36.409374Q83.25313 36.409374 84.03438 35.971874Q84.83125 35.51875 85.20625 34.753124Q85.4875 34.14375 85.4875 32.9875L85.4875 32.346874ZM89.15938 34.45625L90.90938 34.175Q91.05 35.221874 91.72188 35.784374Q92.39375 36.33125 93.59688 36.33125Q94.8 36.33125 95.37813 35.846874Q95.97188 35.346874 95.97188 34.690624Q95.97188 34.096874 95.45625 33.753124Q95.09688 33.51875 93.65938 33.159374Q91.72188 32.659374 90.97188 32.315624Q90.2375 31.95625 89.84688 31.33125Q89.45625 30.690624 89.45625 29.925Q89.45625 29.2375 89.76875 28.64375Q90.09688 28.05 90.64375 27.659374Q91.05 27.3625 91.75313 27.159374Q92.47188 26.940624 93.28438 26.940624Q94.50313 26.940624 95.425 27.3Q96.34688 27.64375 96.78438 28.253124Q97.22188 28.846874 97.39375 29.846874L95.675 30.08125Q95.55 29.284374 94.9875 28.846874Q94.425 28.39375 93.40938 28.39375Q92.19063 28.39375 91.675 28.8Q91.15938 29.190624 91.15938 29.721874Q91.15938 30.065624 91.37813 30.346874Q91.58125 30.628124 92.05 30.815624Q92.31563 30.909374 93.59688 31.253124Q95.47188 31.753124 96.20625 32.08125Q96.94063 32.39375 97.3625 33.003124Q97.78438 33.596874 97.78438 34.503124Q97.78438 35.378124 97.26875 36.159374Q96.75313 36.940624 95.78438 37.3625Q94.81563 37.784374 93.59688 37.784374Q91.58125 37.784374 90.51875 36.940624Q89.45625 36.096874 89.15938 34.45625ZM106.97188 34.20625L108.78438 34.440624Q108.3625 36.01875 107.19063 36.909374Q106.03438 37.784374 104.22188 37.784374Q101.95625 37.784374 100.6125 36.39375Q99.28438 34.9875 99.28438 32.45625Q99.28438 29.83125 100.62813 28.39375Q101.97188 26.940624 104.12813 26.940624Q106.20625 26.940624 107.51875 28.3625Q108.84688 29.76875 108.84688 32.346874Q108.84688 32.503124 108.83125 32.815624L101.09688 32.815624Q101.19063 34.51875 102.06563 35.425Q102.94063 36.33125 104.2375 36.33125Q105.20625 36.33125 105.87813 35.83125Q106.56563 35.315624 106.97188 34.20625ZM101.19063 31.3625L106.9875 31.3625Q106.87813 30.065624 106.33125 29.409374Q105.4875 28.39375 104.14375 28.39375Q102.94063 28.39375 102.1125 29.20625Q101.28438 30.003124 101.19063 31.3625ZM110.15938 34.45625L111.90938 34.175Q112.05 35.221874 112.72188 35.784374Q113.39375 36.33125 114.59688 36.33125Q115.8 36.33125 116.37813 35.846874Q116.97188 35.346874 116.97188 34.690624Q116.97188 34.096874 116.45625 33.753124Q116.09688 33.51875 114.65938 33.159374Q112.72188 32.659374 111.97188 32.315624Q111.2375 31.95625 110.84688 31.33125Q110.45625 30.690624 110.45625 29.925Q110.45625 29.2375 110.76875 28.64375Q111.09688 28.05 111.64375 27.659374Q112.05 27.3625 112.75313 27.159374Q113.47188 26.940624 114.28438 26.940624Q115.50313 26.940624 116.425 27.3Q117.34688 27.64375 117.78438 28.253124Q118.22188 28.846874 118.39375 29.846874L116.675 30.08125Q116.55 29.284374 115.9875 28.846874Q115.425 28.39375 114.40938 28.39375Q113.19063 28.39375 112.675 28.8Q112.15938 29.190624 112.15938 29.721874Q112.15938 30.065624 112.37813 30.346874Q112.58125 30.628124 113.05 30.815624Q113.31563 30.909374 114.59688 31.253124Q116.47188 31.753124 117.20625 32.08125Q117.94063 32.39375 118.3625 33.003124Q118.78438 33.596874 118.78438 34.503124Q118.78438 35.378124 118.26875 36.159374Q117.75313 36.940624 116.78438 37.3625Q115.81563 37.784374 114.59688 37.784374Q112.58125 37.784374 111.51875 36.940624Q110.45625 36.096874 110.15938 34.45625ZM126.87813 25.253124L126.87813 23.2375L128.64375 23.2375L128.64375 25.253124L126.87813 25.253124ZM126.87813 37.55L126.87813 27.175L128.64375 27.175L128.64375 37.55L126.87813 37.55ZM130.8625 37.55L130.8625 27.175L132.45625 27.175L132.45625 28.659374Q133.59688 26.940624 135.75313 26.940624Q136.69063 26.940624 137.47188 27.284374Q138.26875 27.6125 138.65938 28.159374Q139.05 28.70625 139.20625 29.45625Q139.3 29.95625 139.3 31.175L139.3 37.55L137.53438 37.55L137.53438 31.2375Q137.53438 30.159374 137.33125 29.628124Q137.12813 29.096874 136.59688 28.784374Q136.08125 28.471874 135.37813 28.471874Q134.25313 28.471874 133.44063 29.190624Q132.62813 29.89375 132.62813 31.878124L132.62813 37.55L130.8625 37.55ZM154.64375 36.26875Q153.65938 37.096874 152.75313 37.440624Q151.84688 37.784374 150.81563 37.784374Q149.1125 37.784374 148.19063 36.95625Q147.26875 36.1125 147.26875 34.815624Q147.26875 34.05 147.6125 33.425Q147.97188 32.8 148.53438 32.425Q149.09688 32.034374 149.8 31.83125Q150.31563 31.70625 151.3625 31.565624Q153.4875 31.315624 154.4875 30.971874Q154.50313 30.6125 154.50313 30.503124Q154.50313 29.440624 154.00313 28.9875Q153.33125 28.39375 152.00313 28.39375Q150.75313 28.39375 150.15938 28.83125Q149.58125 29.26875 149.3 30.378124L147.58125 30.14375Q147.81563 29.034374 148.34688 28.3625Q148.87813 27.675 149.89375 27.315624Q150.90938 26.940624 152.25313 26.940624Q153.58125 26.940624 154.40938 27.253124Q155.2375 27.565624 155.62813 28.05Q156.01875 28.51875 156.175 29.2375Q156.26875 29.690624 156.26875 30.8625L156.26875 33.20625Q156.26875 35.659374 156.37813 36.315624Q156.4875 36.95625 156.83125 37.55L154.9875 37.55Q154.72188 37.003124 154.64375 36.26875ZM154.4875 32.346874Q153.53438 32.7375 151.6125 33.003124Q150.53438 33.159374 150.08125 33.3625Q149.64375 33.55 149.39375 33.925Q149.14375 34.3 149.14375 34.76875Q149.14375 35.471874 149.675 35.940624Q150.20625 36.409374 151.2375 36.409374Q152.25313 36.409374 153.03438 35.971874Q153.83125 35.51875 154.20625 34.753124Q154.4875 34.14375 154.4875 32.9875L154.4875 32.346874ZM171.64375 33.753124L173.3625 33.971874Q173.08125 35.76875 171.90938 36.784374Q170.75313 37.784374 169.05 37.784374Q166.925 37.784374 165.62813 36.39375Q164.33125 35.003124 164.33125 32.409374Q164.33125 30.721874 164.87813 29.471874Q165.44063 28.20625 166.58125 27.58125Q167.72188 26.940624 169.06563 26.940624Q170.75313 26.940624 171.81563 27.8Q172.89375 28.659374 173.20625 30.221874L171.4875 30.4875Q171.25313 29.440624 170.62813 28.925Q170.00313 28.39375 169.12813 28.39375Q167.8 28.39375 166.97188 29.346874Q166.14375 30.3 166.14375 32.346874Q166.14375 34.440624 166.94063 35.39375Q167.7375 36.33125 169.03438 36.33125Q170.06563 36.33125 170.75313 35.70625Q171.45625 35.065624 171.64375 33.753124ZM181.64375 36.26875Q180.65938 37.096874 179.75313 37.440624Q178.84688 37.784374 177.81563 37.784374Q176.1125 37.784374 175.19063 36.95625Q174.26875 36.1125 174.26875 34.815624Q174.26875 34.05 174.6125 33.425Q174.97188 32.8 175.53438 32.425Q176.09688 32.034374 176.8 31.83125Q177.31563 31.70625 178.3625 31.565624Q180.4875 31.315624 181.4875 30.971874Q181.50313 30.6125 181.50313 30.503124Q181.50313 29.440624 181.00313 28.9875Q180.33125 28.39375 179.00313 28.39375Q177.75313 28.39375 177.15938 28.83125Q176.58125 29.26875 176.3 30.378124L174.58125 30.14375Q174.81563 29.034374 175.34688 28.3625Q175.87813 27.675 176.89375 27.315624Q177.90938 26.940624 179.25313 26.940624Q180.58125 26.940624 181.40938 27.253124Q182.2375 27.565624 182.62813 28.05Q183.01875 28.51875 183.175 29.2375Q183.26875 29.690624 183.26875 30.8625L183.26875 33.20625Q183.26875 35.659374 183.37813 36.315624Q183.4875 36.95625 183.83125 37.55L181.9875 37.55Q181.72188 37.003124 181.64375 36.26875ZM181.4875 32.346874Q180.53438 32.7375 178.6125 33.003124Q177.53438 33.159374 177.08125 33.3625Q176.64375 33.55 176.39375 33.925Q176.14375 34.3 176.14375 34.76875Q176.14375 35.471874 176.675 35.940624Q177.20625 36.409374 178.2375 36.409374Q179.25313 36.409374 180.03438 35.971874Q180.83125 35.51875 181.20625 34.753124Q181.4875 34.14375 181.4875 32.9875L181.4875 32.346874ZM185.8625 37.55L185.8625 27.175L187.45625 27.175L187.45625 28.659374Q188.59688 26.940624 190.75313 26.940624Q191.69063 26.940624 192.47188 27.284374Q193.26875 27.6125 193.65938 28.159374Q194.05 28.70625 194.20625 29.45625Q194.3 29.95625 194.3 31.175L194.3 37.55L192.53438 37.55L192.53438 31.2375Q192.53438 30.159374 192.33125 29.628124Q192.12813 29.096874 191.59688 28.784374Q191.08125 28.471874 190.37813 28.471874Q189.25313 28.471874 188.44063 29.190624Q187.62813 29.89375 187.62813 31.878124L187.62813 37.55L185.8625 37.55ZM203.59688 37.55L203.59688 36.2375Q202.6125 37.784374 200.69063 37.784374Q199.45625 37.784374 198.40938 37.096874Q197.37813 36.409374 196.8 35.190624Q196.2375 33.971874 196.2375 32.378124Q196.2375 30.815624 196.75313 29.55Q197.26875 28.284374 198.3 27.6125Q199.34688 26.940624 200.6125 26.940624Q201.55 26.940624 202.28438 27.346874Q203.01875 27.7375 203.4875 28.3625L203.4875 23.2375L205.22188 23.2375L205.22188 37.55L203.59688 37.55ZM198.03438 32.378124Q198.03438 34.3625 198.87813 35.346874Q199.72188 36.33125 200.8625 36.33125Q202.01875 36.33125 202.81563 35.39375Q203.62813 34.45625 203.62813 32.51875Q203.62813 30.39375 202.8 29.39375Q201.9875 28.39375 200.78438 28.39375Q199.6125 28.39375 198.81563 29.3625Q198.03438 30.315624 198.03438 32.378124ZM207.83125 37.55L207.83125 23.2375L209.58125 23.2375L209.58125 37.55L207.83125 37.55ZM218.97188 34.20625L220.78438 34.440624Q220.3625 36.01875 219.19063 36.909374Q218.03438 37.784374 216.22188 37.784374Q213.95625 37.784374 212.6125 36.39375Q211.28438 34.9875 211.28438 32.45625Q211.28438 29.83125 212.62813 28.39375Q213.97188 26.940624 216.12813 26.940624Q218.20625 26.940624 219.51875 28.3625Q220.84688 29.76875 220.84688 32.346874Q220.84688 32.503124 220.83125 32.815624L213.09688 32.815624Q213.19063 34.51875 214.06563 35.425Q214.94063 36.33125 216.2375 36.33125Q217.20625 36.33125 217.87813 35.83125Q218.56563 35.315624 218.97188 34.20625ZM213.19063 31.3625L218.9875 31.3625Q218.87813 30.065624 218.33125 29.409374Q217.4875 28.39375 216.14375 28.39375Q214.94063 28.39375 214.1125 29.20625Q213.28438 30.003124 213.19063 31.3625ZM222.15938 34.45625L223.90938 34.175Q224.05 35.221874 224.72188 35.784374Q225.39375 36.33125 226.59688 36.33125Q227.8 36.33125 228.37813 35.846874Q228.97188 35.346874 228.97188 34.690624Q228.97188 34.096874 228.45625 33.753124Q228.09688 33.51875 226.65938 33.159374Q224.72188 32.659374 223.97188 32.315624Q223.2375 31.95625 222.84688 31.33125Q222.45625 30.690624 222.45625 29.925Q222.45625 29.2375 222.76875 28.64375Q223.09688 28.05 223.64375 27.659374Q224.05 27.3625 224.75313 27.159374Q225.47188 26.940624 226.28438 26.940624Q227.50313 26.940624 228.425 27.3Q229.34688 27.64375 229.78438 28.253124Q230.22188 28.846874 230.39375 29.846874L228.675 30.08125Q228.55 29.284374 227.9875 28.846874Q227.425 28.39375 226.40938 28.39375Q225.19063 28.39375 224.675 28.8Q224.15938 29.190624 224.15938 29.721874Q224.15938 30.065624 224.37813 30.346874Q224.58125 30.628124 225.05 30.815624Q225.31563 30.909374 226.59688 31.253124Q228.47188 31.753124 229.20625 32.08125Q229.94063 32.39375 230.3625 33.003124Q230.78438 33.596874 230.78438 34.503124Q230.78438 35.378124 230.26875 36.159374Q229.75313 36.940624 228.78438 37.3625Q227.81563 37.784374 226.59688 37.784374Q224.58125 37.784374 223.51875 36.940624Q222.45625 36.096874 222.15938 34.45625ZM236.70625 35.971874L236.95625 37.534374Q236.22188 37.690624 235.62813 37.690624Q234.675 37.690624 234.14375 37.39375Q233.62813 37.08125 233.40938 36.596874Q233.19063 36.096874 233.19063 34.51875L233.19063 28.55L231.90938 28.55L231.90938 27.175L233.19063 27.175L233.19063 24.6125L234.94063 23.55L234.94063 27.175L236.70625 27.175L236.70625 28.55L234.94063 28.55L234.94063 34.6125Q234.94063 35.3625 235.03438 35.58125Q235.12813 35.784374 235.33125 35.925Q235.55 36.05 235.94063 36.05Q236.22188 36.05 236.70625 35.971874ZM238.87813 25.253124L238.87813 23.2375L240.64375 23.2375L240.64375 25.253124L238.87813 25.253124ZM238.87813 37.55L238.87813 27.175L240.64375 27.175L240.64375 37.55L238.87813 37.55ZM249.64375 33.753124L251.3625 33.971874Q251.08125 35.76875 249.90938 36.784374Q248.75313 37.784374 247.05 37.784374Q244.925 37.784374 243.62813 36.39375Q242.33125 35.003124 242.33125 32.409374Q242.33125 30.721874 242.87813 29.471874Q243.44063 28.20625 244.58125 27.58125Q245.72188 26.940624 247.06563 26.940624Q248.75313 26.940624 249.81563 27.8Q250.89375 28.659374 251.20625 30.221874L249.4875 30.4875Q249.25313 29.440624 248.62813 28.925Q248.00313 28.39375 247.12813 28.39375Q245.8 28.39375 244.97188 29.346874Q244.14375 30.3 244.14375 32.346874Q244.14375 34.440624 244.94063 35.39375Q245.7375 36.33125 247.03438 36.33125Q248.06563 36.33125 248.75313 35.70625Q249.45625 35.065624 249.64375 33.753124ZM252.87813 37.55L252.87813 23.2375L254.64375 23.2375L254.64375 31.39375L258.8 27.175L261.0656 27.175L257.1125 31.01875L261.47186 37.55L259.3 37.55L255.87813 32.253124L254.64375 33.440624L254.64375 37.55L252.87813 37.55ZM275.64374 33.753124L277.3625 33.971874Q277.08124 35.76875 275.90936 36.784374Q274.7531 37.784374 273.05 37.784374Q270.925 37.784374 269.6281 36.39375Q268.33124 35.003124 268.33124 32.409374Q268.33124 30.721874 268.8781 29.471874Q269.4406 28.20625 270.58124 27.58125Q271.72186 26.940624 273.0656 26.940624Q274.7531 26.940624 275.8156 27.8Q276.89374 28.659374 277.20624 30.221874L275.4875 30.4875Q275.2531 29.440624 274.6281 28.925Q274.0031 28.39375 273.1281 28.39375Q271.8 28.39375 270.97186 29.346874Q270.14374 30.3 270.14374 32.346874Q270.14374 34.440624 270.9406 35.39375Q271.7375 36.33125 273.03436 36.33125Q274.0656 36.33125 274.7531 35.70625Q275.45624 35.065624 275.64374 33.753124ZM278.8625 37.55L278.8625 23.2375L280.6281 23.2375L280.6281 28.3625Q281.8625 26.940624 283.7375 26.940624Q284.8781 26.940624 285.72186 27.39375Q286.58124 27.846874 286.9406 28.659374Q287.3156 29.45625 287.3156 30.971874L287.3156 37.55L285.5656 37.55L285.5656 30.971874Q285.5656 29.659374 284.9875 29.065624Q284.40936 28.45625 283.3781 28.45625Q282.59686 28.45625 281.89374 28.8625Q281.20624 29.26875 280.90936 29.971874Q280.6281 30.659374 280.6281 31.878124L280.6281 37.55L278.8625 37.55ZM296.64374 36.26875Q295.65936 37.096874 294.7531 37.440624Q293.84686 37.784374 292.8156 37.784374Q291.1125 37.784374 290.1906 36.95625Q289.26874 36.1125 289.26874 34.815624Q289.26874 34.05 289.6125 33.425Q289.97186 32.8 290.53436 32.425Q291.09686 32.034374 291.8 31.83125Q292.3156 31.70625 293.3625 31.565624Q295.4875 31.315624 296.4875 30.971874Q296.5031 30.6125 296.5031 30.503124Q296.5031 29.440624 296.0031 28.9875Q295.33124 28.39375 294.0031 28.39375Q292.7531 28.39375 292.15936 28.83125Q291.58124 29.26875 291.3 30.378124L289.58124 30.14375Q289.8156 29.034374 290.34686 28.3625Q290.8781 27.675 291.89374 27.315624Q292.90936 26.940624 294.2531 26.940624Q295.58124 26.940624 296.40936 27.253124Q297.2375 27.565624 297.6281 28.05Q298.01874 28.51875 298.175 29.2375Q298.26874 29.690624 298.26874 30.8625L298.26874 33.20625Q298.26874 35.659374 298.3781 36.315624Q298.4875 36.95625 298.83124 37.55L296.9875 37.55Q296.72186 37.003124 296.64374 36.26875ZM296.4875 32.346874Q295.53436 32.7375 293.6125 33.003124Q292.53436 33.159374 292.08124 33.3625Q291.64374 33.55 291.39374 33.925Q291.14374 34.3 291.14374 34.76875Q291.14374 35.471874 291.675 35.940624Q292.20624 36.409374 293.2375 36.409374Q294.2531 36.409374 295.03436 35.971874Q295.83124 35.51875 296.20624 34.753124Q296.4875 34.14375 296.4875 32.9875L296.4875 32.346874ZM300.84686 37.55L300.84686 27.175L302.425 27.175L302.425 28.753124Q303.03436 27.64375 303.55 27.3Q304.0656 26.940624 304.675 26.940624Q305.5656 26.940624 306.4875 27.503124L305.8781 29.14375Q305.2375 28.753124 304.59686 28.753124Q304.01874 28.753124 303.55 29.1125Q303.09686 29.45625 302.89374 30.065624Q302.6125 31.003124 302.6125 32.1125L302.6125 37.55L300.84686 37.55ZM311.70624 35.971874L311.95624 37.534374Q311.22186 37.690624 310.6281 37.690624Q309.675 37.690624 309.14374 37.39375Q308.6281 37.08125 308.40936 36.596874Q308.1906 36.096874 308.1906 34.51875L308.1906 28.55L306.90936 28.55L306.90936 27.175L308.1906 27.175L308.1906 24.6125L309.9406 23.55L309.9406 27.175L311.70624 27.175L311.70624 28.55L309.9406 28.55L309.9406 34.6125Q309.9406 35.3625 310.03436 35.58125Q310.1281 35.784374 310.33124 35.925Q310.55 36.05 310.9406 36.05Q311.22186 36.05 311.70624 35.971874Z" fill-rule="nonzero"/></svg>