<svg version="1.1" viewBox="0.0 0.0 600.0 371.0" fill="none" stroke="none" stroke-linecap="square" stroke-miterlimit="10" width="600" height="371" xmlns:xlink="http://www.w3.org/1999/xlink" xmlns="http://www.w3.org/2000/svg"><path fill="#ffffff" d="M0 0L600.0 0L600.0 371.0L0 371.0L0 0Z" fill-rule="nonzero"/><path stroke="#333333" stroke-width="1.0" stroke-linecap="butt" d="M45.5 332.5L581.5 332.5" fill-rule="nonzero"/><path stroke="#cccccc" stroke-width="1.0" stroke-linecap="butt" d="M45.5 264.5L581.5 264.5" fill-rule="nonzero"/><path stroke="#cccccc" stroke-width="1.0" stroke-linecap="butt" d="M45.5 197.5L581.5 197.5" fill-rule="nonzero"/><path stroke="#cccccc" stroke-width="1.0" stroke-linecap="butt" d="M45.5 129.5L581.5 129.5" fill-rule="nonzero"/><path stroke="#cccccc" stroke-width="1.0" stroke-linecap="butt" d="M45.5 61.5L581.5 61.5" fill-rule="nonzero"/><clipPath id="id_0"><path d="M45.55 61.916668L581.45 61.916668L581.45 332.45L45.55 332.45L45.55 61.916668Z" clip-rule="nonzero"/></clipPath><path stroke="#4285f4" stroke-width="2.0" stroke-linecap="butt" clip-path="url(#id_0)" d="M153.52985 113.318L153.52985 278.34332" fill-rule="nonzero"/><path stroke="#4285f4" stroke-width="2.0" stroke-linecap="butt" clip-path="url(#id_0)" d="M153.52985 295.928L153.52985 129.55" fill-rule="nonzero"/><path fill="#4285f4" clip-path="url(#id_0)" d="M100.53955 128.55L206.52014 128.55L206.52014 279.34332L100.53955 279.34332L100.53955 128.55Z" fill-rule="nonzero"/><path stroke="#4285f4" stroke-width="2.0" stroke-linecap="butt" clip-path="url(#id_0)" d="M313.5 114.67067L313.5 264.81668" fill-rule="nonzero"/><path stroke="#4285f4" stroke-width="2.0" stroke-linecap="butt" clip-path="url(#id_0)" d="M313.5 317.57068L313.5 212.06267" fill-rule="nonzero"/><path fill="#4285f4" clip-path="url(#id_0)" d="M260.5097 211.06267L366.4903 211.06267L366.4903 265.81668L260.5097 265.81668L260.5097 211.06267Z" fill-rule="nonzero"/><path stroke="#4285f4" stroke-width="2.0" stroke-linecap="butt" clip-path="url(#id_0)" d="M473.47015 256.70065L473.47015 332.45" fill-rule="nonzero"/><path stroke="#4285f4" stroke-width="2.0" stroke-linecap="butt" clip-path="url(#id_0)" d="M473.47015 332.45L473.47015 274.28534" fill-rule="nonzero"/><path fill="#4285f4" clip-path="url(#id_0)" d="M420.47986 273.28534L526.46045 273.28534L526.46045 333.45L420.47986 333.45L420.47986 273.28534Z" fill-rule="nonzero"/><path fill="#000000" d="M33.05 332.21564Q33.05 330.6844 33.3625 329.7625Q33.675 328.825 34.284374 328.325Q34.909374 327.825 35.846874 327.825Q36.534374 327.825 37.05 328.10626Q37.58125 328.3875 37.925 328.91876Q38.26875 329.4344 38.45625 330.1844Q38.64375 330.9344 38.64375 332.21564Q38.64375 333.73126 38.33125 334.65314Q38.034374 335.575 37.409374 336.09064Q36.8 336.59064 35.846874 336.59064Q34.6125 336.59064 33.89375 335.7Q33.05 334.6375 33.05 332.21564ZM34.128124 332.21564Q34.128124 334.325 34.628124 335.02814Q35.128124 335.73126 35.846874 335.73126Q36.58125 335.73126 37.065624 335.02814Q37.565624 334.325 37.565624 332.21564Q37.565624 330.09064 37.065624 329.40314Q36.58125 328.7 35.83125 328.7Q35.1125 328.7 34.675 329.3094Q34.128124 330.09064 34.128124 332.21564Z" fill-rule="nonzero"/><path fill="#000000" d="M26.05 266.56668L27.159374 266.47293Q27.284374 267.28543 27.721874 267.69168Q28.175 268.09793 28.815624 268.09793Q29.565624 268.09793 30.096874 267.5198Q30.628124 266.94168 30.628124 266.00418Q30.628124 265.09793 30.1125 264.5823Q29.6125 264.05106 28.784374 264.05106Q28.284374 264.05106 27.8625 264.28543Q27.45625 264.5198 27.221874 264.87918L26.2375 264.75418L27.065624 260.34793L31.346874 260.34793L31.346874 261.34793L27.909374 261.34793L27.45625 263.66043Q28.221874 263.11356 29.065624 263.11356Q30.190624 263.11356 30.95625 263.8948Q31.7375 264.67606 31.7375 265.91043Q31.7375 267.06668 31.065624 267.92606Q30.2375 268.9573 28.815624 268.9573Q27.64375 268.9573 26.89375 268.30106Q26.159374 267.6448 26.05 266.56668ZM33.05 264.5823Q33.05 263.05106 33.3625 262.12918Q33.675 261.19168 34.284374 260.69168Q34.909374 260.19168 35.846874 260.19168Q36.534374 260.19168 37.05 260.47293Q37.58125 260.75418 37.925 261.28543Q38.26875 261.80106 38.45625 262.55106Q38.64375 263.30106 38.64375 264.5823Q38.64375 266.09793 38.33125 267.0198Q38.034374 267.94168 37.409374 268.4573Q36.8 268.9573 35.846874 268.9573Q34.6125 268.9573 33.89375 268.06668Q33.05 267.00418 33.05 264.5823ZM34.128124 264.5823Q34.128124 266.69168 34.628124 267.3948Q35.128124 268.09793 35.846874 268.09793Q36.58125 268.09793 37.065624 267.3948Q37.565624 266.69168 37.565624 264.5823Q37.565624 262.4573 37.065624 261.7698Q36.58125 261.06668 35.83125 261.06668Q35.1125 261.06668 34.675 261.67606Q34.128124 262.4573 34.128124 264.5823Z" fill-rule="nonzero"/><path fill="#000000" d="M23.01875 201.18333L21.971874 201.18333L21.971874 194.46458Q21.58125 194.82396 20.95625 195.19896Q20.346874 195.55833 19.8625 195.73021L19.8625 194.71458Q20.7375 194.29271 21.39375 193.71458Q22.065624 193.12083 22.346874 192.55833L23.01875 192.55833L23.01875 201.18333ZM26.05 196.94896Q26.05 195.41771 26.3625 194.49583Q26.675 193.55833 27.284374 193.05833Q27.909374 192.55833 28.846874 192.55833Q29.534374 192.55833 30.05 192.83958Q30.58125 193.12083 30.925 193.65208Q31.26875 194.16771 31.45625 194.91771Q31.64375 195.66771 31.64375 196.94896Q31.64375 198.46458 31.33125 199.38646Q31.034374 200.30833 30.409374 200.82396Q29.8 201.32396 28.846874 201.32396Q27.6125 201.32396 26.89375 200.43333Q26.05 199.37083 26.05 196.94896ZM27.128124 196.94896Q27.128124 199.05833 27.628124 199.76146Q28.128124 200.46458 28.846874 200.46458Q29.58125 200.46458 30.065624 199.76146Q30.565624 199.05833 30.565624 196.94896Q30.565624 194.82396 30.065624 194.13646Q29.58125 193.43333 28.83125 193.43333Q28.1125 193.43333 27.675 194.04271Q27.128124 194.82396 27.128124 196.94896ZM33.05 196.94896Q33.05 195.41771 33.3625 194.49583Q33.675 193.55833 34.284374 193.05833Q34.909374 192.55833 35.846874 192.55833Q36.534374 192.55833 37.05 192.83958Q37.58125 193.12083 37.925 193.65208Q38.26875 194.16771 38.45625 194.91771Q38.64375 195.66771 38.64375 196.94896Q38.64375 198.46458 38.33125 199.38646Q38.034374 200.30833 37.409374 200.82396Q36.8 201.32396 35.846874 201.32396Q34.6125 201.32396 33.89375 200.43333Q33.05 199.37083 33.05 196.94896ZM34.128124 196.94896Q34.128124 199.05833 34.628124 199.76146Q35.128124 200.46458 35.846874 200.46458Q36.58125 200.46458 37.065624 199.76146Q37.565624 199.05833 37.565624 196.94896Q37.565624 194.82396 37.065624 194.13646Q36.58125 193.43333 35.83125 193.43333Q35.1125 193.43333 34.675 194.04271Q34.128124 194.82396 34.128124 196.94896Z" fill-rule="nonzero"/><path fill="#000000" d="M23.01875 133.55L21.971874 133.55L21.971874 126.83125Q21.58125 127.19063 20.95625 127.56563Q20.346874 127.925 19.8625 128.09688L19.8625 127.08125Q20.7375 126.65938 21.39375 126.08125Q22.065624 125.4875 22.346874 124.925L23.01875 124.925L23.01875 133.55ZM26.05 131.3L27.159374 131.20625Q27.284374 132.01875 27.721874 132.425Q28.175 132.83125 28.815624 132.83125Q29.565624 132.83125 30.096874 132.25313Q30.628124 131.675 30.628124 130.7375Q30.628124 129.83125 30.1125 129.31563Q29.6125 128.78438 28.784374 128.78438Q28.284374 128.78438 27.8625 129.01875Q27.45625 129.25313 27.221874 129.6125L26.2375 129.4875L27.065624 125.08125L31.346874 125.08125L31.346874 126.08125L27.909374 126.08125L27.45625 128.39375Q28.221874 127.84688 29.065624 127.84688Q30.190624 127.84688 30.95625 128.62813Q31.7375 129.40938 31.7375 130.64375Q31.7375 131.8 31.065624 132.65938Q30.2375 133.69063 28.815624 133.69063Q27.64375 133.69063 26.89375 133.03438Q26.159374 132.37813 26.05 131.3ZM33.05 129.31563Q33.05 127.78438 33.3625 126.8625Q33.675 125.925 34.284374 125.425Q34.909374 124.925 35.846874 124.925Q36.534374 124.925 37.05 125.20625Q37.58125 125.4875 37.925 126.01875Q38.26875 126.53438 38.45625 127.28438Q38.64375 128.03438 38.64375 129.31563Q38.64375 130.83125 38.33125 131.75313Q38.034374 132.675 37.409374 133.19063Q36.8 133.69063 35.846874 133.69063Q34.6125 133.69063 33.89375 132.8Q33.05 131.7375 33.05 129.31563ZM34.128124 129.31563Q34.128124 131.425 34.628124 132.12813Q35.128124 132.83125 35.846874 132.83125Q36.58125 132.83125 37.065624 132.12813Q37.565624 131.425 37.565624 129.31563Q37.565624 127.19063 37.065624 126.50313Q36.58125 125.8 35.83125 125.8Q35.1125 125.8 34.675 126.40938Q34.128124 127.19063 34.128124 129.31563Z" fill-rule="nonzero"/><path fill="#000000" d="M24.596874 64.90104L24.596874 65.916664L18.909374 65.916664Q18.909374 65.541664 19.034374 65.18229Q19.253124 64.604164 19.721874 64.041664Q20.20625 63.479164 21.1125 62.74479Q22.51875 61.58854 23.003124 60.916664Q23.503124 60.24479 23.503124 59.65104Q23.503124 59.02604 23.05 58.604164Q22.596874 58.166664 21.878124 58.166664Q21.1125 58.166664 20.659374 58.61979Q20.20625 59.072914 20.190624 59.885414L19.1125 59.77604Q19.221874 58.55729 19.940624 57.93229Q20.675 57.291664 21.909374 57.291664Q23.14375 57.291664 23.8625 57.979164Q24.58125 58.666664 24.58125 59.68229Q24.58125 60.197914 24.3625 60.697914Q24.159374 61.18229 23.659374 61.74479Q23.175 62.291664 22.05 63.24479Q21.096874 64.041664 20.815624 64.33854Q20.55 64.61979 20.378124 64.90104L24.596874 64.90104ZM26.05 61.68229Q26.05 60.15104 26.3625 59.229164Q26.675 58.291664 27.284374 57.791664Q27.909374 57.291664 28.846874 57.291664Q29.534374 57.291664 30.05 57.572914Q30.58125 57.854164 30.925 58.385414Q31.26875 58.90104 31.45625 59.65104Q31.64375 60.40104 31.64375 61.68229Q31.64375 63.197914 31.33125 64.11979Q31.034374 65.041664 30.409374 65.55729Q29.8 66.05729 28.846874 66.05729Q27.6125 66.05729 26.89375 65.166664Q26.05 64.104164 26.05 61.68229ZM27.128124 61.68229Q27.128124 63.791664 27.628124 64.49479Q28.128124 65.197914 28.846874 65.197914Q29.58125 65.197914 30.065624 64.49479Q30.565624 63.791664 30.565624 61.68229Q30.565624 59.55729 30.065624 58.86979Q29.58125 58.166664 28.83125 58.166664Q28.1125 58.166664 27.675 58.77604Q27.128124 59.55729 27.128124 61.68229ZM33.05 61.68229Q33.05 60.15104 33.3625 59.229164Q33.675 58.291664 34.284374 57.791664Q34.909374 57.291664 35.846874 57.291664Q36.534374 57.291664 37.05 57.572914Q37.58125 57.854164 37.925 58.385414Q38.26875 58.90104 38.45625 59.65104Q38.64375 60.40104 38.64375 61.68229Q38.64375 63.197914 38.33125 64.11979Q38.034374 65.041664 37.409374 65.55729Q36.8 66.05729 35.846874 66.05729Q34.6125 66.05729 33.89375 65.166664Q33.05 64.104164 33.05 61.68229ZM34.128124 61.68229Q34.128124 63.791664 34.628124 64.49479Q35.128124 65.197914 35.846874 65.197914Q36.58125 65.197914 37.065624 64.49479Q37.565624 63.791664 37.565624 61.68229Q37.565624 59.55729 37.065624 58.86979Q36.58125 58.166664 35.83125 58.166664Q35.1125 58.166664 34.675 58.77604Q34.128124 59.55729 34.128124 61.68229Z" fill-rule="nonzero"/><path fill="#000000" d="M129.45172 349.45L129.45172 340.85626L132.42047 340.85626Q133.42047 340.85626 133.95172 340.98126Q134.6861 341.15314 135.20172 341.59064Q135.88922 342.16876 136.21735 343.075Q136.5611 343.96564 136.5611 345.10626Q136.5611 346.09064 136.32672 346.84064Q136.10797 347.59064 135.7486 348.09064Q135.38922 348.59064 134.95172 348.8719Q134.52985 349.15314 133.9361 349.3094Q133.34235 349.45 132.5611 349.45L129.45172 349.45ZM130.59235 348.4344L132.42047 348.4344Q133.27985 348.4344 133.76422 348.27814Q134.2486 348.1219 134.52985 347.825Q134.9361 347.4344 135.15485 346.7469Q135.38922 346.0594 135.38922 345.09064Q135.38922 343.7469 134.9361 343.02814Q134.4986 342.29376 133.8736 342.04376Q133.40485 341.8719 132.40485 341.8719L130.59235 341.8719L130.59235 348.4344ZM142.57672 347.45L143.67047 347.575Q143.42047 348.52814 142.71735 349.0594Q142.01422 349.59064 140.9361 349.59064Q139.57672 349.59064 138.76422 348.7469Q137.96735 347.90314 137.96735 346.3875Q137.96735 344.825 138.77985 343.96564Q139.59235 343.09064 140.8736 343.09064Q142.1236 343.09064 142.90485 343.9344Q143.70172 344.77814 143.70172 346.325Q143.70172 346.41876 143.70172 346.60626L139.0611 346.60626Q139.1236 347.6375 139.63922 348.1844Q140.15485 348.71564 140.9361 348.71564Q141.51422 348.71564 141.92047 348.41876Q142.34235 348.10626 142.57672 347.45ZM139.1236 345.7469L142.59235 345.7469Q142.52985 344.95 142.20172 344.5594Q141.6861 343.95 140.88922 343.95Q140.15485 343.95 139.65485 344.4344Q139.17047 344.91876 139.1236 345.7469ZM145.32672 349.45L145.32672 343.23126L146.26422 343.23126L146.26422 344.10626Q146.95172 343.09064 148.2486 343.09064Q148.8111 343.09064 149.27985 343.29376Q149.76422 343.4969 149.9986 343.825Q150.23297 344.15314 150.32672 344.59064Q150.3736 344.8875 150.3736 345.6219L150.3736 349.45L149.32672 349.45L149.32672 345.66876Q149.32672 345.0125 149.20172 344.7Q149.07672 344.3875 148.76422 344.2Q148.45172 343.9969 148.02985 343.9969Q147.35797 343.9969 146.85797 344.4344Q146.3736 344.85626 146.3736 346.04376L146.3736 349.45L145.32672 349.45ZM152.32672 349.45L152.32672 343.23126L153.26422 343.23126L153.26422 344.10626Q153.5611 343.6375 154.04547 343.3719Q154.52985 343.09064 155.15485 343.09064Q155.84235 343.09064 156.27985 343.3719Q156.73297 343.65314 156.90485 344.16876Q157.65485 343.09064 158.82672 343.09064Q159.76422 343.09064 160.2486 343.60626Q160.7486 344.10626 160.7486 345.1844L160.7486 349.45L159.70172 349.45L159.70172 345.52814Q159.70172 344.90314 159.59235 344.6219Q159.4986 344.34064 159.23297 344.16876Q158.96735 343.9969 158.59235 343.9969Q157.9361 343.9969 157.4986 344.4344Q157.07672 344.8719 157.07672 345.84064L157.07672 349.45L156.01422 349.45L156.01422 345.40314Q156.01422 344.7 155.7486 344.35626Q155.4986 343.9969 154.92047 343.9969Q154.46735 343.9969 154.09235 344.23126Q153.71735 344.46564 153.54547 344.91876Q153.3736 345.3719 153.3736 346.21564L153.3736 349.45L152.32672 349.45ZM166.38922 348.6844Q165.79547 349.1844 165.2486 349.3875Q164.71735 349.59064 164.09235 349.59064Q163.0611 349.59064 162.51422 349.09064Q161.96735 348.59064 161.96735 347.8094Q161.96735 347.35626 162.17047 346.98126Q162.3736 346.59064 162.71735 346.3719Q163.0611 346.1375 163.48297 346.02814Q163.77985 345.9344 164.42047 345.85626Q165.6861 345.71564 166.29547 345.4969Q166.29547 345.27814 166.29547 345.23126Q166.29547 344.575 165.9986 344.3094Q165.59235 343.96564 164.79547 343.96564Q164.0611 343.96564 163.70172 344.23126Q163.34235 344.48126 163.17047 345.1375L162.13922 344.9969Q162.27985 344.34064 162.60797 343.9344Q162.9361 343.52814 163.54547 343.3094Q164.15485 343.09064 164.95172 343.09064Q165.7486 343.09064 166.2486 343.27814Q166.7486 343.46564 166.98297 343.7469Q167.21735 344.02814 167.3111 344.46564Q167.35797 344.73126 167.35797 345.4344L167.35797 346.84064Q167.35797 348.3094 167.42047 348.7Q167.4986 349.09064 167.70172 349.45L166.59235 349.45Q166.4361 349.1219 166.38922 348.6844ZM166.29547 346.325Q165.71735 346.5594 164.57672 346.73126Q163.92047 346.825 163.65485 346.95Q163.38922 347.0594 163.23297 347.27814Q163.09235 347.4969 163.09235 347.77814Q163.09235 348.2 163.40485 348.48126Q163.73297 348.7625 164.34235 348.7625Q164.95172 348.7625 165.42047 348.4969Q165.90485 348.23126 166.1236 347.7625Q166.29547 347.40314 166.29547 346.71564L166.29547 346.325ZM169.3111 349.45L169.3111 343.23126L170.26422 343.23126L170.26422 344.16876Q170.6236 343.5125 170.92047 343.3094Q171.23297 343.09064 171.60797 343.09064Q172.13922 343.09064 172.6861 343.41876L172.32672 344.40314Q171.9361 344.16876 171.5611 344.16876Q171.20172 344.16876 170.92047 344.3875Q170.65485 344.59064 170.54547 344.96564Q170.35797 345.52814 170.35797 346.1844L170.35797 349.45L169.3111 349.45ZM173.32672 349.45L173.32672 340.85626L174.38922 340.85626L174.38922 345.7625L176.8736 343.23126L178.2486 343.23126L175.85797 345.52814L178.48297 349.45L177.1861 349.45L175.1236 346.2625L174.38922 346.98126L174.38922 349.45L173.32672 349.45Z" fill-rule="nonzero"/><path fill="#000000" d="M293.98438 349.45L293.98438 340.85626L299.78125 340.85626L299.78125 341.8719L295.125 341.8719L295.125 344.52814L299.15625 344.52814L299.15625 345.54376L295.125 345.54376L295.125 349.45L293.98438 349.45ZM300.79688 342.075L300.79688 340.85626L301.85938 340.85626L301.85938 342.075L300.79688 342.075ZM300.79688 349.45L300.79688 343.23126L301.85938 343.23126L301.85938 349.45L300.79688 349.45ZM303.79688 349.45L303.79688 343.23126L304.73438 343.23126L304.73438 344.10626Q305.42188 343.09064 306.71875 343.09064Q307.28125 343.09064 307.75 343.29376Q308.23438 343.4969 308.46875 343.825Q308.70312 344.15314 308.79688 344.59064Q308.84375 344.8875 308.84375 345.6219L308.84375 349.45L307.79688 349.45L307.79688 345.66876Q307.79688 345.0125 307.67188 344.7Q307.54688 344.3875 307.23438 344.2Q306.92188 343.9969 306.5 343.9969Q305.82812 343.9969 305.32812 344.4344Q304.84375 344.85626 304.84375 346.04376L304.84375 349.45L303.79688 349.45ZM310.76562 349.45L310.76562 340.85626L311.82812 340.85626L311.82812 349.45L310.76562 349.45ZM317.85938 348.6844Q317.26562 349.1844 316.71875 349.3875Q316.1875 349.59064 315.5625 349.59064Q314.53125 349.59064 313.98438 349.09064Q313.4375 348.59064 313.4375 347.8094Q313.4375 347.35626 313.64062 346.98126Q313.84375 346.59064 314.1875 346.3719Q314.53125 346.1375 314.95312 346.02814Q315.25 345.9344 315.89062 345.85626Q317.15625 345.71564 317.76562 345.4969Q317.76562 345.27814 317.76562 345.23126Q317.76562 344.575 317.46875 344.3094Q317.0625 343.96564 316.26562 343.96564Q315.53125 343.96564 315.17188 344.23126Q314.8125 344.48126 314.64062 345.1375L313.60938 344.9969Q313.75 344.34064 314.07812 343.9344Q314.40625 343.52814 315.01562 343.3094Q315.625 343.09064 316.42188 343.09064Q317.21875 343.09064 317.71875 343.27814Q318.21875 343.46564 318.45312 343.7469Q318.6875 344.02814 318.78125 344.46564Q318.82812 344.73126 318.82812 345.4344L318.82812 346.84064Q318.82812 348.3094 318.89062 348.7Q318.96875 349.09064 319.17188 349.45L318.0625 349.45Q317.90625 349.1219 317.85938 348.6844ZM317.76562 346.325Q317.1875 346.5594 316.04688 346.73126Q315.39062 346.825 315.125 346.95Q314.85938 347.0594 314.70312 347.27814Q314.5625 347.4969 314.5625 347.77814Q314.5625 348.2 314.875 348.48126Q315.20312 348.7625 315.8125 348.7625Q316.42188 348.7625 316.89062 348.4969Q317.375 348.23126 317.59375 347.7625Q317.76562 347.40314 317.76562 346.71564L317.76562 346.325ZM320.79688 349.45L320.79688 343.23126L321.73438 343.23126L321.73438 344.10626Q322.42188 343.09064 323.71875 343.09064Q324.28125 343.09064 324.75 343.29376Q325.23438 343.4969 325.46875 343.825Q325.70312 344.15314 325.79688 344.59064Q325.84375 344.8875 325.84375 345.6219L325.84375 349.45L324.79688 349.45L324.79688 345.66876Q324.79688 345.0125 324.67188 344.7Q324.54688 344.3875 324.23438 344.2Q323.92188 343.9969 323.5 343.9969Q322.82812 343.9969 322.32812 344.4344Q321.84375 344.85626 321.84375 346.04376L321.84375 349.45L320.79688 349.45ZM331.82812 349.45L331.82812 348.66876Q331.23438 349.59064 330.09375 349.59064Q329.34375 349.59064 328.71875 349.1844Q328.09375 348.7625 327.75 348.02814Q327.40625 347.29376 327.40625 346.34064Q327.40625 345.41876 327.71875 344.65314Q328.03125 343.8875 328.65625 343.4969Q329.28125 343.09064 330.04688 343.09064Q330.60938 343.09064 331.04688 343.325Q331.48438 343.5594 331.76562 343.9344L331.76562 340.85626L332.8125 340.85626L332.8125 349.45L331.82812 349.45ZM328.5 346.34064Q328.5 347.54376 329.0 348.1375Q329.5 348.71564 330.1875 348.71564Q330.875 348.71564 331.35938 348.15314Q331.84375 347.59064 331.84375 346.4344Q331.84375 345.15314 331.34375 344.5594Q330.85938 343.96564 330.14062 343.96564Q329.4375 343.96564 328.96875 344.54376Q328.5 345.10626 328.5 346.34064Z" fill-rule="nonzero"/><path fill="#000000" d="M453.39203 349.45L453.39203 340.85626L454.54828 340.85626L459.0639 347.60626L459.0639 340.85626L460.15765 340.85626L460.15765 349.45L458.98578 349.45L454.47015 342.7L454.47015 349.45L453.39203 349.45ZM461.8764 346.34064Q461.8764 344.60626 462.82953 343.77814Q463.6264 343.09064 464.78265 343.09064Q466.0639 343.09064 466.8764 343.9344Q467.70453 344.7625 467.70453 346.2469Q467.70453 347.45 467.34515 348.1375Q466.98578 348.825 466.28265 349.21564Q465.59515 349.59064 464.78265 349.59064Q463.48578 349.59064 462.67328 348.7625Q461.8764 347.91876 461.8764 346.34064ZM462.95453 346.34064Q462.95453 347.52814 463.47015 348.1219Q464.0014 348.71564 464.78265 348.71564Q465.57953 348.71564 466.09515 348.1219Q466.61078 347.52814 466.61078 346.3094Q466.61078 345.15314 466.07953 344.5594Q465.5639 343.96564 464.78265 343.96564Q464.0014 343.96564 463.47015 344.5594Q462.95453 345.1375 462.95453 346.34064ZM469.2514 349.45L469.2514 343.23126L470.20453 343.23126L470.20453 344.16876Q470.5639 343.5125 470.86078 343.3094Q471.17328 343.09064 471.54828 343.09064Q472.07953 343.09064 472.6264 343.41876L472.26703 344.40314Q471.8764 344.16876 471.5014 344.16876Q471.14203 344.16876 470.86078 344.3875Q470.59515 344.59064 470.48578 344.96564Q470.29828 345.52814 470.29828 346.1844L470.29828 349.45L469.2514 349.45ZM474.40765 349.45L472.5014 343.23126L473.59515 343.23126L474.57953 346.825L474.95453 348.15314Q474.98578 348.0594 475.28265 346.8719L476.26703 343.23126L477.34515 343.23126L478.28265 346.84064L478.59515 348.02814L478.95453 346.825L480.01703 343.23126L481.04828 343.23126L479.09515 349.45L478.0014 349.45L477.01703 345.71564L476.76703 344.66876L475.51703 349.45L474.40765 349.45ZM486.32953 348.6844Q485.73578 349.1844 485.1889 349.3875Q484.65765 349.59064 484.03265 349.59064Q483.0014 349.59064 482.45453 349.09064Q481.90765 348.59064 481.90765 347.8094Q481.90765 347.35626 482.11078 346.98126Q482.3139 346.59064 482.65765 346.3719Q483.0014 346.1375 483.42328 346.02814Q483.72015 345.9344 484.36078 345.85626Q485.6264 345.71564 486.23578 345.4969Q486.23578 345.27814 486.23578 345.23126Q486.23578 344.575 485.9389 344.3094Q485.53265 343.96564 484.73578 343.96564Q484.0014 343.96564 483.64203 344.23126Q483.28265 344.48126 483.11078 345.1375L482.07953 344.9969Q482.22015 344.34064 482.54828 343.9344Q482.8764 343.52814 483.48578 343.3094Q484.09515 343.09064 484.89203 343.09064Q485.6889 343.09064 486.1889 343.27814Q486.6889 343.46564 486.92328 343.7469Q487.15765 344.02814 487.2514 344.46564Q487.29828 344.73126 487.29828 345.4344L487.29828 346.84064Q487.29828 348.3094 487.36078 348.7Q487.4389 349.09064 487.64203 349.45L486.53265 349.45Q486.3764 349.1219 486.32953 348.6844ZM486.23578 346.325Q485.65765 346.5594 484.51703 346.73126Q483.86078 346.825 483.59515 346.95Q483.32953 347.0594 483.17328 347.27814Q483.03265 347.4969 483.03265 347.77814Q483.03265 348.2 483.34515 348.48126Q483.67328 348.7625 484.28265 348.7625Q484.89203 348.7625 485.36078 348.4969Q485.84515 348.23126 486.0639 347.7625Q486.23578 347.40314 486.23578 346.71564L486.23578 346.325ZM489.22015 351.84064L489.09515 350.85626Q489.4389 350.95 489.70453 350.95Q490.04828 350.95 490.2514 350.825Q490.47015 350.71564 490.61078 350.5125Q490.70453 350.34064 490.9389 349.71564Q490.95453 349.6375 491.03265 349.46564L488.65765 343.23126L489.79828 343.23126L491.09515 346.825Q491.34515 347.5125 491.54828 348.27814Q491.73578 347.54376 491.98578 346.85626L493.3139 343.23126L494.36078 343.23126L492.0014 349.5594Q491.61078 350.575 491.40765 350.96564Q491.1264 351.4969 490.7514 351.73126Q490.39203 351.98126 489.89203 351.98126Q489.59515 351.98126 489.22015 351.84064Z" fill-rule="nonzero"/><path fill="#757575" d="M20.034374 37.55L20.034374 23.2375L22.89375 23.2375L26.26875 33.3625Q26.7375 34.784374 26.95625 35.4875Q27.20625 34.70625 27.721874 33.190624L31.14375 23.2375L33.690624 23.2375L33.690624 37.55L31.878124 37.55L31.878124 25.565624L27.70625 37.55L26.003124 37.55L21.8625 25.3625L21.8625 37.55L20.034374 37.55ZM43.64375 36.26875Q42.659374 37.096874 41.753124 37.440624Q40.846874 37.784374 39.815624 37.784374Q38.1125 37.784374 37.190624 36.95625Q36.26875 36.1125 36.26875 34.815624Q36.26875 34.05 36.6125 33.425Q36.971874 32.8 37.534374 32.425Q38.096874 32.034374 38.8 31.83125Q39.315624 31.70625 40.3625 31.565624Q42.4875 31.315624 43.4875 30.971874Q43.503124 30.6125 43.503124 30.503124Q43.503124 29.440624 43.003124 28.9875Q42.33125 28.39375 41.003124 28.39375Q39.753124 28.39375 39.159374 28.83125Q38.58125 29.26875 38.3 30.378124L36.58125 30.14375Q36.815624 29.034374 37.346874 28.3625Q37.878124 27.675 38.89375 27.315624Q39.909374 26.940624 41.253124 26.940624Q42.58125 26.940624 43.409374 27.253124Q44.2375 27.565624 44.628124 28.05Q45.01875 28.51875 45.175 29.2375Q45.26875 29.690624 45.26875 30.8625L45.26875 33.20625Q45.26875 35.659374 45.378124 36.315624Q45.4875 36.95625 45.83125 37.55L43.9875 37.55Q43.721874 37.003124 43.64375 36.26875ZM43.4875 32.346874Q42.534374 32.7375 40.6125 33.003124Q39.534374 33.159374 39.08125 33.3625Q38.64375 33.55 38.39375 33.925Q38.14375 34.3 38.14375 34.76875Q38.14375 35.471874 38.675 35.940624Q39.20625 36.409374 40.2375 36.409374Q41.253124 36.409374 42.034374 35.971874Q42.83125 35.51875 43.20625 34.753124Q43.4875 34.14375 43.4875 32.9875L43.4875 32.346874ZM47.784374 41.55L47.596874 39.89375Q48.175 40.05 48.596874 40.05Q49.190624 40.05 49.534374 39.846874Q49.89375 39.659374 50.1125 39.315624Q50.284374 39.05 50.659374 38.003124Q50.70625 37.846874 50.815624 37.565624L46.878124 27.175L48.76875 27.175L50.925 33.190624Q51.346874 34.33125 51.675 35.58125Q51.9875 34.378124 52.39375 33.221874L54.6125 27.175L56.378124 27.175L52.425 37.721874Q51.8 39.440624 51.440624 40.08125Q50.971874 40.95625 50.3625 41.346874Q49.76875 41.753124 48.925 41.753124Q48.409374 41.753124 47.784374 41.55ZM70.64375 33.753124L72.3625 33.971874Q72.08125 35.76875 70.90938 36.784374Q69.75313 37.784374 68.05 37.784374Q65.925 37.784374 64.62813 36.39375Q63.33125 35.003124 63.33125 32.409374Q63.33125 30.721874 63.878124 29.471874Q64.44063 28.20625 65.58125 27.58125Q66.72188 26.940624 68.06563 26.940624Q69.75313 26.940624 70.81563 27.8Q71.89375 28.659374 72.20625 30.221874L70.4875 30.4875Q70.25313 29.440624 69.62813 28.925Q69.00313 28.39375 68.12813 28.39375Q66.8 28.39375 65.97188 29.346874Q65.14375 30.3 65.14375 32.346874Q65.14375 34.440624 65.94063 35.39375Q66.7375 36.33125 68.03438 36.33125Q69.06563 36.33125 69.75313 35.70625Q70.45625 35.065624 70.64375 33.753124ZM80.64375 36.26875Q79.65938 37.096874 78.75313 37.440624Q77.84688 37.784374 76.81563 37.784374Q75.1125 37.784374 74.19063 36.95625Q73.26875 36.1125 73.26875 34.815624Q73.26875 34.05 73.6125 33.425Q73.97188 32.8 74.53438 32.425Q75.09688 32.034374 75.8 31.83125Q76.31563 31.70625 77.3625 31.565624Q79.4875 31.315624 80.4875 30.971874Q80.50313 30.6125 80.50313 30.503124Q80.50313 29.440624 80.00313 28.9875Q79.33125 28.39375 78.00313 28.39375Q76.75313 28.39375 76.15938 28.83125Q75.58125 29.26875 75.3 30.378124L73.58125 30.14375Q73.81563 29.034374 74.34688 28.3625Q74.87813 27.675 75.89375 27.315624Q76.90938 26.940624 78.25313 26.940624Q79.58125 26.940624 80.40938 27.253124Q81.2375 27.565624 81.62813 28.05Q82.01875 28.51875 82.175 29.2375Q82.26875 29.690624 82.26875 30.8625L82.26875 33.20625Q82.26875 35.659374 82.37813 36.315624Q82.4875 36.95625 82.83125 37.55L80.9875 37.55Q80.72188 37.003124 80.64375 36.26875ZM80.4875 32.346874Q79.53438 32.7375 77.6125 33.003124Q76.53438 33.159374 76.08125 33.3625Q75.64375 33.55 75.39375 33.925Q75.14375 34.3 75.14375 34.76875Q75.14375 35.471874 75.675 35.940624Q76.20625 36.409374 77.2375 36.409374Q78.25313 36.409374 79.03438 35.971874Q79.83125 35.51875 80.20625 34.753124Q80.4875 34.14375 80.4875 32.9875L80.4875 32.346874ZM84.15938 34.45625L85.90938 34.175Q86.05 35.221874 86.72188 35.784374Q87.39375 36.33125 88.59688 36.33125Q89.8 36.33125 90.37813 35.846874Q90.97188 35.346874 90.97188 34.690624Q90.97188 34.096874 90.45625 33.753124Q90.09688 33.51875 88.65938 33.159374Q86.72188 32.659374 85.97188 32.315624Q85.2375 31.95625 84.84688 31.33125Q84.45625 30.690624 84.45625 29.925Q84.45625 29.2375 84.76875 28.64375Q85.09688 28.05 85.64375 27.659374Q86.05 27.3625 86.75313 27.159374Q87.47188 26.940624 88.28438 26.940624Q89.50313 26.940624 90.425 27.3Q91.34688 27.64375 91.78438 28.253124Q92.22188 28.846874 92.39375 29.846874L90.675 30.08125Q90.55 29.284374 89.9875 28.846874Q89.425 28.39375 88.40938 28.39375Q87.19063 28.39375 86.675 28.8Q86.15938 29.190624 86.15938 29.721874Q86.15938 30.065624 86.37813 30.346874Q86.58125 30.628124 87.05 30.815624Q87.31563 30.909374 88.59688 31.253124Q90.47188 31.753124 91.20625 32.08125Q91.94063 32.39375 92.3625 33.003124Q92.78438 33.596874 92.78438 34.503124Q92.78438 35.378124 92.26875 36.159374Q91.75313 36.940624 90.78438 37.3625Q89.81563 37.784374 88.59688 37.784374Q86.58125 37.784374 85.51875 36.940624Q84.45625 36.096874 84.15938 34.45625ZM101.97188 34.20625L103.78438 34.440624Q103.3625 36.01875 102.19063 36.909374Q101.03438 37.784374 99.22188 37.784374Q96.95625 37.784374 95.6125 36.39375Q94.28438 34.9875 94.28438 32.45625Q94.28438 29.83125 95.62813 28.39375Q96.97188 26.940624 99.12813 26.940624Q101.20625 26.940624 102.51875 28.3625Q103.84688 29.76875 103.84688 32.346874Q103.84688 32.503124 103.83125 32.815624L96.09688 32.815624Q96.19063 34.51875 97.06563 35.425Q97.94063 36.33125 99.2375 36.33125Q100.20625 36.33125 100.87813 35.83125Q101.56563 35.315624 101.97188 34.20625ZM96.19063 31.3625L101.9875 31.3625Q101.87813 30.065624 101.33125 29.409374Q100.4875 28.39375 99.14375 28.39375Q97.94063 28.39375 97.1125 29.20625Q96.28438 30.003124 96.19063 31.3625ZM105.15938 34.45625L106.90938 34.175Q107.05 35.221874 107.72188 35.784374Q108.39375 36.33125 109.59688 36.33125Q110.8 36.33125 111.37813 35.846874Q111.97188 35.346874 111.97188 34.690624Q111.97188 34.096874 111.45625 33.753124Q111.09688 33.51875 109.65938 33.159374Q107.72188 32.659374 106.97188 32.315624Q106.2375 31.95625 105.84688 31.33125Q105.45625 30.690624 105.45625 29.925Q105.45625 29.2375 105.76875 28.64375Q106.09688 28.05 106.64375 27.659374Q107.05 27.3625 107.75313 27.159374Q108.47188 26.940624 109.28438 26.940624Q110.50313 26.940624 111.425 27.3Q112.34688 27.64375 112.78438 28.253124Q113.22188 28.846874 113.39375 29.846874L111.675 30.08125Q111.55 29.284374 110.9875 28.846874Q110.425 28.39375 109.40938 28.39375Q108.19063 28.39375 107.675 28.8Q107.15938 29.190624 107.15938 29.721874Q107.15938 30.065624 107.37813 30.346874Q107.58125 30.628124 108.05 30.815624Q108.31563 30.909374 109.59688 31.253124Q111.47188 31.753124 112.20625 32.08125Q112.94063 32.39375 113.3625 33.003124Q113.78438 33.596874 113.78438 34.503124Q113.78438 35.378124 113.26875 36.159374Q112.75313 36.940624 111.78438 37.3625Q110.81563 37.784374 109.59688 37.784374Q107.58125 37.784374 106.51875 36.940624Q105.45625 36.096874 105.15938 34.45625ZM121.87813 25.253124L121.87813 23.2375L123.64375 23.2375L123.64375 25.253124L121.87813 25.253124ZM121.87813 37.55L121.87813 27.175L123.64375 27.175L123.64375 37.55L121.87813 37.55ZM125.8625 37.55L125.8625 27.175L127.45625 27.175L127.45625 28.659374Q128.59688 26.940624 130.75313 26.940624Q131.69063 26.940624 132.47188 27.284374Q133.26875 27.6125 133.65938 28.159374Q134.05 28.70625 134.20625 29.45625Q134.3 29.95625 134.3 31.175L134.3 37.55L132.53438 37.55L132.53438 31.2375Q132.53438 30.159374 132.33125 29.628124Q132.12813 29.096874 131.59688 28.784374Q131.08125 28.471874 130.37813 28.471874Q129.25313 28.471874 128.44063 29.190624Q127.62813 29.89375 127.62813 31.878124L127.62813 37.55L125.8625 37.55ZM149.64375 36.26875Q148.65938 37.096874 147.75313 37.440624Q146.84688 37.784374 145.81563 37.784374Q144.1125 37.784374 143.19063 36.95625Q142.26875 36.1125 142.26875 34.815624Q142.26875 34.05 142.6125 33.425Q142.97188 32.8 143.53438 32.425Q144.09688 32.034374 144.8 31.83125Q145.31563 31.70625 146.3625 31.565624Q148.4875 31.315624 149.4875 30.971874Q149.50313 30.6125 149.50313 30.503124Q149.50313 29.440624 149.00313 28.9875Q148.33125 28.39375 147.00313 28.39375Q145.75313 28.39375 145.15938 28.83125Q144.58125 29.26875 144.3 30.378124L142.58125 30.14375Q142.81563 29.034374 143.34688 28.3625Q143.87813 27.675 144.89375 27.315624Q145.90938 26.940624 147.25313 26.940624Q148.58125 26.940624 149.40938 27.253124Q150.2375 27.565624 150.62813 28.05Q151.01875 28.51875 151.175 29.2375Q151.26875 29.690624 151.26875 30.8625L151.26875 33.20625Q151.26875 35.659374 151.37813 36.315624Q151.4875 36.95625 151.83125 37.55L149.9875 37.55Q149.72188 37.003124 149.64375 36.26875ZM149.4875 32.346874Q148.53438 32.7375 146.6125 33.003124Q145.53438 33.159374 145.08125 33.3625Q144.64375 33.55 144.39375 33.925Q144.14375 34.3 144.14375 34.76875Q144.14375 35.471874 144.675 35.940624Q145.20625 36.409374 146.2375 36.409374Q147.25313 36.409374 148.03438 35.971874Q148.83125 35.51875 149.20625 34.753124Q149.4875 34.14375 149.4875 32.9875L149.4875 32.346874ZM166.64375 33.753124L168.3625 33.971874Q168.08125 35.76875 166.90938 36.784374Q165.75313 37.784374 164.05 37.784374Q161.925 37.784374 160.62813 36.39375Q159.33125 35.003124 159.33125 32.409374Q159.33125 30.721874 159.87813 29.471874Q160.44063 28.20625 161.58125 27.58125Q162.72188 26.940624 164.06563 26.940624Q165.75313 26.940624 166.81563 27.8Q167.89375 28.659374 168.20625 30.221874L166.4875 30.4875Q166.25313 29.440624 165.62813 28.925Q165.00313 28.39375 164.12813 28.39375Q162.8 28.39375 161.97188 29.346874Q161.14375 30.3 161.14375 32.346874Q161.14375 34.440624 161.94063 35.39375Q162.7375 36.33125 164.03438 36.33125Q165.06563 36.33125 165.75313 35.70625Q166.45625 35.065624 166.64375 33.753124ZM176.64375 36.26875Q175.65938 37.096874 174.75313 37.440624Q173.84688 37.784374 172.81563 37.784374Q171.1125 37.784374 170.19063 36.95625Q169.26875 36.1125 169.26875 34.815624Q169.26875 34.05 169.6125 33.425Q169.97188 32.8 170.53438 32.425Q171.09688 32.034374 171.8 31.83125Q172.31563 31.70625 173.3625 31.565624Q175.4875 31.315624 176.4875 30.971874Q176.50313 30.6125 176.50313 30.503124Q176.50313 29.440624 176.00313 28.9875Q175.33125 28.39375 174.00313 28.39375Q172.75313 28.39375 172.15938 28.83125Q171.58125 29.26875 171.3 30.378124L169.58125 30.14375Q169.81563 29.034374 170.34688 28.3625Q170.87813 27.675 171.89375 27.315624Q172.90938 26.940624 174.25313 26.940624Q175.58125 26.940624 176.40938 27.253124Q177.2375 27.565624 177.62813 28.05Q178.01875 28.51875 178.175 29.2375Q178.26875 29.690624 178.26875 30.8625L178.26875 33.20625Q178.26875 35.659374 178.37813 36.315624Q178.4875 36.95625 178.83125 37.55L176.9875 37.55Q176.72188 37.003124 176.64375 36.26875ZM176.4875 32.346874Q175.53438 32.7375 173.6125 33.003124Q172.53438 33.159374 172.08125 33.3625Q171.64375 33.55 171.39375 33.925Q171.14375 34.3 171.14375 34.76875Q171.14375 35.471874 171.675 35.940624Q172.20625 36.409374 173.2375 36.409374Q174.25313 36.409374 175.03438 35.971874Q175.83125 35.51875 176.20625 34.753124Q176.4875 34.14375 176.4875 32.9875L176.4875 32.346874ZM180.8625 37.55L180.8625 27.175L182.45625 27.175L182.45625 28.659374Q183.59688 26.940624 185.75313 26.940624Q186.69063 26.940624 187.47188 27.284374Q188.26875 27.6125 188.65938 28.159374Q189.05 28.70625 189.20625 29.45625Q189.3 29.95625 189.3 31.175L189.3 37.55L187.53438 37.55L187.53438 31.2375Q187.53438 30.159374 187.33125 29.628124Q187.12813 29.096874 186.59688 28.784374Q186.08125 28.471874 185.37813 28.471874Q184.25313 28.471874 183.44063 29.190624Q182.62813 29.89375 182.62813 31.878124L182.62813 37.55L180.8625 37.55ZM198.59688 37.55L198.59688 36.2375Q197.6125 37.784374 195.69063 37.784374Q194.45625 37.784374 193.40938 37.096874Q192.37813 36.409374 191.8 35.190624Q191.2375 33.971874 191.2375 32.378124Q191.2375 30.815624 191.75313 29.55Q192.26875 28.284374 193.3 27.6125Q194.34688 26.940624 195.6125 26.940624Q196.55 26.940624 197.28438 27.346874Q198.01875 27.7375 198.4875 28.3625L198.4875 23.2375L200.22188 23.2375L200.22188 37.55L198.59688 37.55ZM193.03438 32.378124Q193.03438 34.3625 193.87813 35.346874Q194.72188 36.33125 195.8625 36.33125Q197.01875 36.33125 197.81563 35.39375Q198.62813 34.45625 198.62813 32.51875Q198.62813 30.39375 197.8 29.39375Q196.9875 28.39375 195.78438 28.39375Q194.6125 28.39375 193.81563 29.3625Q193.03438 30.315624 193.03438 32.378124ZM202.83125 37.55L202.83125 23.2375L204.58125 23.2375L204.58125 37.55L202.83125 37.55ZM213.97188 34.20625L215.78438 34.440624Q215.3625 36.01875 214.19063 36.909374Q213.03438 37.784374 211.22188 37.784374Q208.95625 37.784374 207.6125 36.39375Q206.28438 34.9875 206.28438 32.45625Q206.28438 29.83125 207.62813 28.39375Q208.97188 26.940624 211.12813 26.940624Q213.20625 26.940624 214.51875 28.3625Q215.84688 29.76875 215.84688 32.346874Q215.84688 32.503124 215.83125 32.815624L208.09688 32.815624Q208.19063 34.51875 209.06563 35.425Q209.94063 36.33125 211.2375 36.33125Q212.20625 36.33125 212.87813 35.83125Q213.56563 35.315624 213.97188 34.20625ZM208.19063 31.3625L213.9875 31.3625Q213.87813 30.065624 213.33125 29.409374Q212.4875 28.39375 211.14375 28.39375Q209.94063 28.39375 209.1125 29.20625Q208.28438 30.003124 208.19063 31.3625ZM217.15938 34.45625L218.90938 34.175Q219.05 35.221874 219.72188 35.784374Q220.39375 36.33125 221.59688 36.33125Q222.8 36.33125 223.37813 35.846874Q223.97188 35.346874 223.97188 34.690624Q223.97188 34.096874 223.45625 33.753124Q223.09688 33.51875 221.65938 33.159374Q219.72188 32.659374 218.97188 32.315624Q218.2375 31.95625 217.84688 31.33125Q217.45625 30.690624 217.45625 29.925Q217.45625 29.2375 217.76875 28.64375Q218.09688 28.05 218.64375 27.659374Q219.05 27.3625 219.75313 27.159374Q220.47188 26.940624 221.28438 26.940624Q222.50313 26.940624 223.425 27.3Q224.34688 27.64375 224.78438 28.253124Q225.22188 28.846874 225.39375 29.846874L223.675 30.08125Q223.55 29.284374 222.9875 28.846874Q222.425 28.39375 221.40938 28.39375Q220.19063 28.39375 219.675 28.8Q219.15938 29.190624 219.15938 29.721874Q219.15938 30.065624 219.37813 30.346874Q219.58125 30.628124 220.05 30.815624Q220.31563 30.909374 221.59688 31.253124Q223.47188 31.753124 224.20625 32.08125Q224.94063 32.39375 225.3625 33.003124Q225.78438 33.596874 225.78438 34.503124Q225.78438 35.378124 225.26875 36.159374Q224.75313 36.940624 223.78438 37.3625Q222.81563 37.784374 221.59688 37.784374Q219.58125 37.784374 218.51875 36.940624Q217.45625 36.096874 217.15938 34.45625ZM231.70625 35.971874L231.95625 37.534374Q231.22188 37.690624 230.62813 37.690624Q229.675 37.690624 229.14375 37.39375Q228.62813 37.08125 228.40938 36.596874Q228.19063 36.096874 228.19063 34.51875L228.19063 28.55L226.90938 28.55L226.90938 27.175L228.19063 27.175L228.19063 24.6125L229.94063 23.55L229.94063 27.175L231.70625 27.175L231.70625 28.55L229.94063 28.55L229.94063 34.6125Q229.94063 35.3625 230.03438 35.58125Q230.12813 35.784374 230.33125 35.925Q230.55 36.05 230.94063 36.05Q231.22188 36.05 231.70625 35.971874ZM233.87813 25.253124L233.87813 23.2375L235.64375 23.2375L235.64375 25.253124L233.87813 25.253124ZM233.87813 37.55L233.87813 27.175L235.64375 27.175L235.64375 37.55L233.87813 37.55ZM244.64375 33.753124L246.3625 33.971874Q246.08125 35.76875 244.90938 36.784374Q243.75313 37.784374 242.05 37.784374Q239.925 37.784374 238.62813 36.39375Q237.33125 35.003124 237.33125 32.409374Q237.33125 30.721874 237.87813 29.471874Q238.44063 28.20625 239.58125 27.58125Q240.72188 26.940624 242.06563 26.940624Q243.75313 26.940624 244.81563 27.8Q245.89375 28.659374 246.20625 30.221874L244.4875 30.4875Q244.25313 29.440624 243.62813 28.925Q243.00313 28.39375 242.12813 28.39375Q240.8 28.39375 239.97188 29.346874Q239.14375 30.3 239.14375 32.346874Q239.14375 34.440624 239.94063 35.39375Q240.7375 36.33125 242.03438 36.33125Q243.06563 36.33125 243.75313 35.70625Q244.45625 35.065624 244.64375 33.753124ZM247.87813 37.55L247.87813 23.2375L249.64375 23.2375L249.64375 31.39375L253.8 27.175L256.0656 27.175L252.1125 31.01875L256.47186 37.55L254.3 37.55L250.87813 32.253124L249.64375 33.440624L249.64375 37.55L247.87813 37.55ZM270.64374 33.753124L272.3625 33.971874Q272.08124 35.76875 270.90936 36.784374Q269.7531 37.784374 268.05 37.784374Q265.925 37.784374 264.6281 36.39375Q263.33124 35.003124 263.33124 32.409374Q263.33124 30.721874 263.8781 29.471874Q264.4406 28.20625 265.58124 27.58125Q266.72186 26.940624 268.0656 26.940624Q269.7531 26.940624 270.8156 27.8Q271.89374 28.659374 272.20624 30.221874L270.4875 30.4875Q270.2531 29.440624 269.6281 28.925Q269.0031 28.39375 268.1281 28.39375Q266.8 28.39375 265.97186 29.346874Q265.14374 30.3 265.14374 32.346874Q265.14374 34.440624 265.9406 35.39375Q266.7375 36.33125 268.03436 36.33125Q269.0656 36.33125 269.7531 35.70625Q270.45624 35.065624 270.64374 33.753124ZM273.8625 37.55L273.8625 23.2375L275.6281 23.2375L275.6281 28.3625Q276.8625 26.940624 278.7375 26.940624Q279.8781 26.940624 280.72186 27.39375Q281.58124 27.846874 281.9406 28.659374Q282.3156 29.45625 282.3156 30.971874L282.3156 37.55L280.5656 37.55L280.5656 30.971874Q280.5656 29.659374 279.9875 29.065624Q279.40936 28.45625 278.3781 28.45625Q277.59686 28.45625 276.89374 28.8625Q276.20624 29.26875 275.90936 29.971874Q275.6281 30.659374 275.6281 31.878124L275.6281 37.55L273.8625 37.55ZM291.64374 36.26875Q290.65936 37.096874 289.7531 37.440624Q288.84686 37.784374 287.8156 37.784374Q286.1125 37.784374 285.1906 36.95625Q284.26874 36.1125 284.26874 34.815624Q284.26874 34.05 284.6125 33.425Q284.97186 32.8 285.53436 32.425Q286.09686 32.034374 286.8 31.83125Q287.3156 31.70625 288.3625 31.565624Q290.4875 31.315624 291.4875 30.971874Q291.5031 30.6125 291.5031 30.503124Q291.5031 29.440624 291.0031 28.9875Q290.33124 28.39375 289.0031 28.39375Q287.7531 28.39375 287.15936 28.83125Q286.58124 29.26875 286.3 30.378124L284.58124 30.14375Q284.8156 29.034374 285.34686 28.3625Q285.8781 27.675 286.89374 27.315624Q287.90936 26.940624 289.2531 26.940624Q290.58124 26.940624 291.40936 27.253124Q292.2375 27.565624 292.6281 28.05Q293.01874 28.51875 293.175 29.2375Q293.26874 29.690624 293.26874 30.8625L293.26874 33.20625Q293.26874 35.659374 293.3781 36.315624Q293.4875 36.95625 293.83124 37.55L291.9875 37.55Q291.72186 37.003124 291.64374 36.26875ZM291.4875 32.346874Q290.53436 32.7375 288.6125 33.003124Q287.53436 33.159374 287.08124 33.3625Q286.64374 33.55 286.39374 33.925Q286.14374 34.3 286.14374 34.76875Q286.14374 35.471874 286.675 35.940624Q287.20624 36.409374 288.2375 36.409374Q289.2531 36.409374 290.03436 35.971874Q290.83124 35.51875 291.20624 34.753124Q291.4875 34.14375 291.4875 32.9875L291.4875 32.346874ZM295.84686 37.55L295.84686 27.175L297.425 27.175L297.425 28.753124Q298.03436 27.64375 298.55 27.3Q299.0656 26.940624 299.675 26.940624Q300.5656 26.940624 301.4875 27.503124L300.8781 29.14375Q300.2375 28.753124 299.59686 28.753124Q299.01874 28.753124 298.55 29.1125Q298.09686 29.45625 297.89374 30.065624Q297.6125 31.003124 297.6125 32.1125L297.6125 37.55L295.84686 37.55ZM306.70624 35.971874L306.95624 37.534374Q306.22186 37.690624 305.6281 37.690624Q304.675 37.690624 304.14374 37.39375Q303.6281 37.08125 303.40936 36.596874Q303.1906 36.096874 303.1906 34.51875L303.1906 28.55L301.90936 28.55L301.90936 27.175L303.1906 27.175L303.1906 24.6125L304.9406 23.55L304.9406 27.175L306.70624 27.175L306.70624 28.55L304.9406 28.55L304.9406 34.6125Q304.9406 35.3625 305.03436 35.58125Q305.1281 35.784374 305.33124 35.925Q305.55 36.05 305.9406 36.05Q306.22186 36.05 306.70624 35.971874Z" fill-rule="nonzero"/></svg>