<svg version="1.1" viewBox="0.0 0.0 600.0 371.0" fill="none" stroke="none" stroke-linecap="square" stroke-miterlimit="10" width="600" height="371" xmlns:xlink="http://www.w3.org/1999/xlink" xmlns="http://www.w3.org/2000/svg"><path fill="#ffffff" d="M0 0L600.0 0L600.0 371.0L0 371.0L0 0Z" fill-rule="nonzero"/><path stroke="#333333" stroke-width="1.0" stroke-linecap="butt" d="M52.5 332.5L581.5 332.5" fill-rule="nonzero"/><path stroke="#cccccc" stroke-width="1.0" stroke-linecap="butt" d="M52.5 278.5L581.5 278.5" fill-rule="nonzero"/><path stroke="#cccccc" stroke-width="1.0" stroke-linecap="butt" d="M52.5 224.5L581.5 224.5" fill-rule="nonzero"/><path stroke="#cccccc" stroke-width="1.0" stroke-linecap="butt" d="M52.5 170.5L581.5 170.5" fill-rule="nonzero"/><path stroke="#cccccc" stroke-width="1.0" stroke-linecap="butt" d="M52.5 116.5L581.5 116.5" fill-rule="nonzero"/><path stroke="#cccccc" stroke-width="1.0" stroke-linecap="butt" d="M52.5 61.5L581.5 61.5" fill-rule="nonzero"/><clipPath id="id_0"><path d="M52.55 61.916668L581.45 61.916668L581.45 332.45L52.55 332.45L52.55 61.916668Z" clip-rule="nonzero"/></clipPath><path stroke="#4285f4" stroke-width="2.0" stroke-linecap="butt" clip-path="url(#id_0)" d="M159.1194 269.68628L159.1194 216.87816" fill-rule="nonzero"/><path stroke="#4285f4" stroke-width="2.0" stroke-linecap="butt" clip-path="url(#id_0)" d="M107.80821 74.68584L210.4306 74.68584" fill-rule="nonzero"/><path stroke="#4285f4" stroke-width="2.0" stroke-linecap="butt" clip-path="url(#id_0)" d="M107.80821 216.87816L107.80821 74.68584" fill-rule="nonzero"/><path stroke="#4285f4" stroke-width="2.0" stroke-linecap="butt" clip-path="url(#id_0)" d="M210.4306 74.68584L210.4306 216.87816" fill-rule="nonzero"/><path stroke="#4285f4" stroke-width="2.0" stroke-linecap="butt" clip-path="url(#id_0)" d="M210.4306 216.87816L107.80821 216.87816" fill-rule="nonzero"/><path stroke="#4285f4" stroke-width="2.0" stroke-linecap="butt" clip-path="url(#id_0)" d="M317.0 323.79294L317.0 310.80734" fill-rule="nonzero"/><path stroke="#4285f4" stroke-width="2.0" stroke-linecap="butt" clip-path="url(#id_0)" d="M265.6888 257.99924L368.3112 257.99924" fill-rule="nonzero"/><path stroke="#4285f4" stroke-width="2.0" stroke-linecap="butt" clip-path="url(#id_0)" d="M265.6888 310.80734L265.6888 257.99924" fill-rule="nonzero"/><path stroke="#4285f4" stroke-width="2.0" stroke-linecap="butt" clip-path="url(#id_0)" d="M368.3112 257.99924L368.3112 310.80734" fill-rule="nonzero"/><path stroke="#4285f4" stroke-width="2.0" stroke-linecap="butt" clip-path="url(#id_0)" d="M368.3112 310.80734L265.6888 310.80734" fill-rule="nonzero"/><path stroke="#4285f4" stroke-width="2.0" stroke-linecap="butt" clip-path="url(#id_0)" d="M474.88058 186.14557L474.88058 224.88594" fill-rule="nonzero"/><path stroke="#4285f4" stroke-width="2.0" stroke-linecap="butt" clip-path="url(#id_0)" d="M474.88058 332.45L474.88058 305.18024" fill-rule="nonzero"/><path stroke="#4285f4" stroke-width="2.0" stroke-linecap="butt" clip-path="url(#id_0)" d="M423.5694 224.88594L526.1918 224.88594" fill-rule="nonzero"/><path stroke="#4285f4" stroke-width="2.0" stroke-linecap="butt" clip-path="url(#id_0)" d="M423.5694 305.18024L423.5694 224.88594" fill-rule="nonzero"/><path stroke="#4285f4" stroke-width="2.0" stroke-linecap="butt" clip-path="url(#id_0)" d="M526.1918 224.88594L526.1918 305.18024" fill-rule="nonzero"/><path stroke="#4285f4" stroke-width="2.0" stroke-linecap="butt" clip-path="url(#id_0)" d="M526.1918 305.18024L423.5694 305.18024" fill-rule="nonzero"/><path fill="#000000" d="M40.05 332.21564Q40.05 330.6844 40.3625 329.7625Q40.675 328.825 41.284374 328.325Q41.909374 327.825 42.846874 327.825Q43.534374 327.825 44.05 328.10626Q44.58125 328.3875 44.925 328.91876Q45.26875 329.4344 45.45625 330.1844Q45.64375 330.9344 45.64375 332.21564Q45.64375 333.73126 45.33125 334.65314Q45.034374 335.575 44.409374 336.09064Q43.8 336.59064 42.846874 336.59064Q41.6125 336.59064 40.89375 335.7Q40.05 334.6375 40.05 332.21564ZM41.128124 332.21564Q41.128124 334.325 41.628124 335.02814Q42.128124 335.73126 42.846874 335.73126Q43.58125 335.73126 44.065624 335.02814Q44.565624 334.325 44.565624 332.21564Q44.565624 330.09064 44.065624 329.40314Q43.58125 328.7 42.83125 328.7Q42.1125 328.7 41.675 329.3094Q41.128124 330.09064 41.128124 332.21564Z" fill-rule="nonzero"/><path fill="#000000" d="M31.596874 281.3277L31.596874 282.34332L25.909374 282.34332Q25.909374 281.96832 26.034374 281.60895Q26.253124 281.03082 26.721874 280.46832Q27.20625 279.90582 28.1125 279.17145Q29.51875 278.0152 30.003124 277.34332Q30.503124 276.67145 30.503124 276.0777Q30.503124 275.4527 30.05 275.03082Q29.596874 274.59332 28.878124 274.59332Q28.1125 274.59332 27.659374 275.04645Q27.20625 275.49957 27.190624 276.31207L26.1125 276.2027Q26.221874 274.98395 26.940624 274.35895Q27.675 273.71832 28.909374 273.71832Q30.14375 273.71832 30.8625 274.40582Q31.58125 275.09332 31.58125 276.10895Q31.58125 276.62457 31.3625 277.12457Q31.159374 277.60895 30.659374 278.17145Q30.175 278.71832 29.05 279.67145Q28.096874 280.46832 27.815624 280.7652Q27.55 281.04645 27.378124 281.3277L31.596874 281.3277ZM33.05 280.09332L34.159374 279.99957Q34.284374 280.81207 34.721874 281.21832Q35.175 281.62457 35.815624 281.62457Q36.565624 281.62457 37.096874 281.04645Q37.628124 280.46832 37.628124 279.53082Q37.628124 278.62457 37.1125 278.10895Q36.6125 277.5777 35.784374 277.5777Q35.284374 277.5777 34.8625 277.81207Q34.45625 278.04645 34.221874 278.40582L33.2375 278.28082L34.065624 273.87457L38.346874 273.87457L38.346874 274.87457L34.909374 274.87457L34.45625 277.18707Q35.221874 276.6402 36.065624 276.6402Q37.190624 276.6402 37.95625 277.42145Q38.7375 278.2027 38.7375 279.43707Q38.7375 280.59332 38.065624 281.4527Q37.2375 282.48395 35.815624 282.48395Q34.64375 282.48395 33.89375 281.8277Q33.159374 281.17145 33.05 280.09332ZM40.05 278.10895Q40.05 276.5777 40.3625 275.65582Q40.675 274.71832 41.284374 274.21832Q41.909374 273.71832 42.846874 273.71832Q43.534374 273.71832 44.05 273.99957Q44.58125 274.28082 44.925 274.81207Q45.26875 275.3277 45.45625 276.0777Q45.64375 276.8277 45.64375 278.10895Q45.64375 279.62457 45.33125 280.54645Q45.034374 281.46832 44.409374 281.98395Q43.8 282.48395 42.846874 282.48395Q41.6125 282.48395 40.89375 281.59332Q40.05 280.53082 40.05 278.10895ZM41.128124 278.10895Q41.128124 280.21832 41.628124 280.92145Q42.128124 281.62457 42.846874 281.62457Q43.58125 281.62457 44.065624 280.92145Q44.565624 280.21832 44.565624 278.10895Q44.565624 275.98395 44.065624 275.29645Q43.58125 274.59332 42.83125 274.59332Q42.1125 274.59332 41.675 275.2027Q41.128124 275.98395 41.128124 278.10895Z" fill-rule="nonzero"/><path fill="#000000" d="M26.05 225.98666L27.159374 225.89291Q27.284374 226.70541 27.721874 227.11166Q28.175 227.51791 28.815624 227.51791Q29.565624 227.51791 30.096874 226.93979Q30.628124 226.36166 30.628124 225.42416Q30.628124 224.51791 30.1125 224.00229Q29.6125 223.47104 28.784374 223.47104Q28.284374 223.47104 27.8625 223.70541Q27.45625 223.93979 27.221874 224.29916L26.2375 224.17416L27.065624 219.76791L31.346874 219.76791L31.346874 220.76791L27.909374 220.76791L27.45625 223.08041Q28.221874 222.53354 29.065624 222.53354Q30.190624 222.53354 30.95625 223.31479Q31.7375 224.09604 31.7375 225.33041Q31.7375 226.48666 31.065624 227.34604Q30.2375 228.37729 28.815624 228.37729Q27.64375 228.37729 26.89375 227.72104Q26.159374 227.06479 26.05 225.98666ZM33.05 224.00229Q33.05 222.47104 33.3625 221.54916Q33.675 220.61166 34.284374 220.11166Q34.909374 219.61166 35.846874 219.61166Q36.534374 219.61166 37.05 219.89291Q37.58125 220.17416 37.925 220.70541Q38.26875 221.22104 38.45625 221.97104Q38.64375 222.72104 38.64375 224.00229Q38.64375 225.51791 38.33125 226.43979Q38.034374 227.36166 37.409374 227.87729Q36.8 228.37729 35.846874 228.37729Q34.6125 228.37729 33.89375 227.48666Q33.05 226.42416 33.05 224.00229ZM34.128124 224.00229Q34.128124 226.11166 34.628124 226.81479Q35.128124 227.51791 35.846874 227.51791Q36.58125 227.51791 37.065624 226.81479Q37.565624 226.11166 37.565624 224.00229Q37.565624 221.87729 37.065624 221.18979Q36.58125 220.48666 35.83125 220.48666Q35.1125 220.48666 34.675 221.09604Q34.128124 221.87729 34.128124 224.00229ZM40.05 224.00229Q40.05 222.47104 40.3625 221.54916Q40.675 220.61166 41.284374 220.11166Q41.909374 219.61166 42.846874 219.61166Q43.534374 219.61166 44.05 219.89291Q44.58125 220.17416 44.925 220.70541Q45.26875 221.22104 45.45625 221.97104Q45.64375 222.72104 45.64375 224.00229Q45.64375 225.51791 45.33125 226.43979Q45.034374 227.36166 44.409374 227.87729Q43.8 228.37729 42.846874 228.37729Q41.6125 228.37729 40.89375 227.48666Q40.05 226.42416 40.05 224.00229ZM41.128124 224.00229Q41.128124 226.11166 41.628124 226.81479Q42.128124 227.51791 42.846874 227.51791Q43.58125 227.51791 44.065624 226.81479Q44.565624 226.11166 44.565624 224.00229Q44.565624 221.87729 44.065624 221.18979Q43.58125 220.48666 42.83125 220.48666Q42.1125 220.48666 41.675 221.09604Q41.128124 221.87729 41.128124 224.00229Z" fill-rule="nonzero"/><path fill="#000000" d="M26.1125 166.66125L26.1125 165.64563L31.675 165.64563L31.675 166.47375Q30.8625 167.34875 30.05 168.80188Q29.253124 170.23938 28.815624 171.77063Q28.4875 172.84875 28.409374 174.13L27.315624 174.13Q27.33125 173.11438 27.70625 171.67688Q28.096874 170.23938 28.8 168.91125Q29.51875 167.58313 30.33125 166.66125L26.1125 166.66125ZM33.05 171.88L34.159374 171.78625Q34.284374 172.59875 34.721874 173.005Q35.175 173.41125 35.815624 173.41125Q36.565624 173.41125 37.096874 172.83313Q37.628124 172.255 37.628124 171.3175Q37.628124 170.41125 37.1125 169.89563Q36.6125 169.36438 35.784374 169.36438Q35.284374 169.36438 34.8625 169.59875Q34.45625 169.83313 34.221874 170.1925L33.2375 170.0675L34.065624 165.66125L38.346874 165.66125L38.346874 166.66125L34.909374 166.66125L34.45625 168.97375Q35.221874 168.42688 36.065624 168.42688Q37.190624 168.42688 37.95625 169.20813Q38.7375 169.98938 38.7375 171.22375Q38.7375 172.38 38.065624 173.23938Q37.2375 174.27063 35.815624 174.27063Q34.64375 174.27063 33.89375 173.61438Q33.159374 172.95813 33.05 171.88ZM40.05 169.89563Q40.05 168.36438 40.3625 167.4425Q40.675 166.505 41.284374 166.005Q41.909374 165.505 42.846874 165.505Q43.534374 165.505 44.05 165.78625Q44.58125 166.0675 44.925 166.59875Q45.26875 167.11438 45.45625 167.86438Q45.64375 168.61438 45.64375 169.89563Q45.64375 171.41125 45.33125 172.33313Q45.034374 173.255 44.409374 173.77063Q43.8 174.27063 42.846874 174.27063Q41.6125 174.27063 40.89375 173.38Q40.05 172.3175 40.05 169.89563ZM41.128124 169.89563Q41.128124 172.005 41.628124 172.70813Q42.128124 173.41125 42.846874 173.41125Q43.58125 173.41125 44.065624 172.70813Q44.565624 172.005 44.565624 169.89563Q44.565624 167.77063 44.065624 167.08313Q43.58125 166.38 42.83125 166.38Q42.1125 166.38 41.675 166.98938Q41.128124 167.77063 41.128124 169.89563Z" fill-rule="nonzero"/><path fill="#000000" d="M23.01875 120.02333L21.971874 120.02333L21.971874 113.30458Q21.58125 113.663956 20.95625 114.038956Q20.346874 114.39833 19.8625 114.570206L19.8625 113.55458Q20.7375 113.132706 21.39375 112.55458Q22.065624 111.96083 22.346874 111.39833L23.01875 111.39833L23.01875 120.02333ZM26.05 115.788956Q26.05 114.257706 26.3625 113.33583Q26.675 112.39833 27.284374 111.89833Q27.909374 111.39833 28.846874 111.39833Q29.534374 111.39833 30.05 111.67958Q30.58125 111.96083 30.925 112.49208Q31.26875 113.007706 31.45625 113.757706Q31.64375 114.507706 31.64375 115.788956Q31.64375 117.30458 31.33125 118.226456Q31.034374 119.14833 30.409374 119.663956Q29.8 120.163956 28.846874 120.163956Q27.6125 120.163956 26.89375 119.27333Q26.05 118.21083 26.05 115.788956ZM27.128124 115.788956Q27.128124 117.89833 27.628124 118.601456Q28.128124 119.30458 28.846874 119.30458Q29.58125 119.30458 30.065624 118.601456Q30.565624 117.89833 30.565624 115.788956Q30.565624 113.663956 30.065624 112.976456Q29.58125 112.27333 28.83125 112.27333Q28.1125 112.27333 27.675 112.882706Q27.128124 113.663956 27.128124 115.788956ZM33.05 115.788956Q33.05 114.257706 33.3625 113.33583Q33.675 112.39833 34.284374 111.89833Q34.909374 111.39833 35.846874 111.39833Q36.534374 111.39833 37.05 111.67958Q37.58125 111.96083 37.925 112.49208Q38.26875 113.007706 38.45625 113.757706Q38.64375 114.507706 38.64375 115.788956Q38.64375 117.30458 38.33125 118.226456Q38.034374 119.14833 37.409374 119.663956Q36.8 120.163956 35.846874 120.163956Q34.6125 120.163956 33.89375 119.27333Q33.05 118.21083 33.05 115.788956ZM34.128124 115.788956Q34.128124 117.89833 34.628124 118.601456Q35.128124 119.30458 35.846874 119.30458Q36.58125 119.30458 37.065624 118.601456Q37.565624 117.89833 37.565624 115.788956Q37.565624 113.663956 37.065624 112.976456Q36.58125 112.27333 35.83125 112.27333Q35.1125 112.27333 34.675 112.882706Q34.128124 113.663956 34.128124 115.788956ZM40.05 115.788956Q40.05 114.257706 40.3625 113.33583Q40.675 112.39833 41.284374 111.89833Q41.909374 111.39833 42.846874 111.39833Q43.534374 111.39833 44.05 111.67958Q44.58125 111.96083 44.925 112.49208Q45.26875 113.007706 45.45625 113.757706Q45.64375 114.507706 45.64375 115.788956Q45.64375 117.30458 45.33125 118.226456Q45.034374 119.14833 44.409374 119.663956Q43.8 120.163956 42.846874 120.163956Q41.6125 120.163956 40.89375 119.27333Q40.05 118.21083 40.05 115.788956ZM41.128124 115.788956Q41.128124 117.89833 41.628124 118.601456Q42.128124 119.30458 42.846874 119.30458Q43.58125 119.30458 44.065624 118.601456Q44.565624 117.89833 44.565624 115.788956Q44.565624 113.663956 44.065624 112.976456Q43.58125 112.27333 42.83125 112.27333Q42.1125 112.27333 41.675 112.882706Q41.128124 113.663956 41.128124 115.788956Z" fill-rule="nonzero"/><path fill="#000000" d="M23.01875 65.916664L21.971874 65.916664L21.971874 59.197914Q21.58125 59.55729 20.95625 59.93229Q20.346874 60.291664 19.8625 60.46354L19.8625 59.447914Q20.7375 59.02604 21.39375 58.447914Q22.065624 57.854164 22.346874 57.291664L23.01875 57.291664L23.01875 65.916664ZM31.596874 64.90104L31.596874 65.916664L25.909374 65.916664Q25.909374 65.541664 26.034374 65.18229Q26.253124 64.604164 26.721874 64.041664Q27.20625 63.479164 28.1125 62.74479Q29.51875 61.58854 30.003124 60.916664Q30.503124 60.24479 30.503124 59.65104Q30.503124 59.02604 30.05 58.604164Q29.596874 58.166664 28.878124 58.166664Q28.1125 58.166664 27.659374 58.61979Q27.20625 59.072914 27.190624 59.885414L26.1125 59.77604Q26.221874 58.55729 26.940624 57.93229Q27.675 57.291664 28.909374 57.291664Q30.14375 57.291664 30.8625 57.979164Q31.58125 58.666664 31.58125 59.68229Q31.58125 60.197914 31.3625 60.697914Q31.159374 61.18229 30.659374 61.74479Q30.175 62.291664 29.05 63.24479Q28.096874 64.041664 27.815624 64.33854Q27.55 64.61979 27.378124 64.90104L31.596874 64.90104ZM33.05 63.666664L34.159374 63.572914Q34.284374 64.385414 34.721874 64.791664Q35.175 65.197914 35.815624 65.197914Q36.565624 65.197914 37.096874 64.61979Q37.628124 64.041664 37.628124 63.104164Q37.628124 62.197914 37.1125 61.68229Q36.6125 61.15104 35.784374 61.15104Q35.284374 61.15104 34.8625 61.385414Q34.45625 61.61979 34.221874 61.979164L33.2375 61.854164L34.065624 57.447914L38.346874 57.447914L38.346874 58.447914L34.909374 58.447914L34.45625 60.760414Q35.221874 60.21354 36.065624 60.21354Q37.190624 60.21354 37.95625 60.99479Q38.7375 61.77604 38.7375 63.010414Q38.7375 64.166664 38.065624 65.02604Q37.2375 66.05729 35.815624 66.05729Q34.64375 66.05729 33.89375 65.40104Q33.159374 64.74479 33.05 63.666664ZM40.05 61.68229Q40.05 60.15104 40.3625 59.229164Q40.675 58.291664 41.284374 57.791664Q41.909374 57.291664 42.846874 57.291664Q43.534374 57.291664 44.05 57.572914Q44.58125 57.854164 44.925 58.385414Q45.26875 58.90104 45.45625 59.65104Q45.64375 60.40104 45.64375 61.68229Q45.64375 63.197914 45.33125 64.11979Q45.034374 65.041664 44.409374 65.55729Q43.8 66.05729 42.846874 66.05729Q41.6125 66.05729 40.89375 65.166664Q40.05 64.104164 40.05 61.68229ZM41.128124 61.68229Q41.128124 63.791664 41.628124 64.49479Q42.128124 65.197914 42.846874 65.197914Q43.58125 65.197914 44.065624 64.49479Q44.565624 63.791664 44.565624 61.68229Q44.565624 59.55729 44.065624 58.86979Q43.58125 58.166664 42.83125 58.166664Q42.1125 58.166664 41.675 58.77604Q41.128124 59.55729 41.128124 61.68229Z" fill-rule="nonzero"/><path fill="#000000" d="M135.04128 349.45L135.04128 340.85626L138.01003 340.85626Q139.01003 340.85626 139.54128 340.98126Q140.27565 341.15314 140.79128 341.59064Q141.47878 342.16876 141.8069 343.075Q142.15065 343.96564 142.15065 345.10626Q142.15065 346.09064 141.91628 346.84064Q141.69753 347.59064 141.33815 348.09064Q140.97878 348.59064 140.54128 348.8719Q140.1194 349.15314 139.52565 349.3094Q138.9319 349.45 138.15065 349.45L135.04128 349.45ZM136.1819 348.4344L138.01003 348.4344Q138.8694 348.4344 139.35378 348.27814Q139.83815 348.1219 140.1194 347.825Q140.52565 347.4344 140.7444 346.7469Q140.97878 346.0594 140.97878 345.09064Q140.97878 343.7469 140.52565 343.02814Q140.08815 342.29376 139.46315 342.04376Q138.9944 341.8719 137.9944 341.8719L136.1819 341.8719L136.1819 348.4344ZM148.16628 347.45L149.26003 347.575Q149.01003 348.52814 148.3069 349.0594Q147.60378 349.59064 146.52565 349.59064Q145.16628 349.59064 144.35378 348.7469Q143.5569 347.90314 143.5569 346.3875Q143.5569 344.825 144.3694 343.96564Q145.1819 343.09064 146.46315 343.09064Q147.71315 343.09064 148.4944 343.9344Q149.29128 344.77814 149.29128 346.325Q149.29128 346.41876 149.29128 346.60626L144.65065 346.60626Q144.71315 347.6375 145.22878 348.1844Q145.7444 348.71564 146.52565 348.71564Q147.10378 348.71564 147.51003 348.41876Q147.9319 348.10626 148.16628 347.45ZM144.71315 345.7469L148.1819 345.7469Q148.1194 344.95 147.79128 344.5594Q147.27565 343.95 146.47878 343.95Q145.7444 343.95 145.2444 344.4344Q144.76003 344.91876 144.71315 345.7469ZM150.91628 349.45L150.91628 343.23126L151.85378 343.23126L151.85378 344.10626Q152.54128 343.09064 153.83815 343.09064Q154.40065 343.09064 154.8694 343.29376Q155.35378 343.4969 155.58815 343.825Q155.82253 344.15314 155.91628 344.59064Q155.96315 344.8875 155.96315 345.6219L155.96315 349.45L154.91628 349.45L154.91628 345.66876Q154.91628 345.0125 154.79128 344.7Q154.66628 344.3875 154.35378 344.2Q154.04128 343.9969 153.6194 343.9969Q152.94753 343.9969 152.44753 344.4344Q151.96315 344.85626 151.96315 346.04376L151.96315 349.45L150.91628 349.45ZM157.91628 349.45L157.91628 343.23126L158.85378 343.23126L158.85378 344.10626Q159.15065 343.6375 159.63503 343.3719Q160.1194 343.09064 160.7444 343.09064Q161.4319 343.09064 161.8694 343.3719Q162.32253 343.65314 162.4944 344.16876Q163.2444 343.09064 164.41628 343.09064Q165.35378 343.09064 165.83815 343.60626Q166.33815 344.10626 166.33815 345.1844L166.33815 349.45L165.29128 349.45L165.29128 345.52814Q165.29128 344.90314 165.1819 344.6219Q165.08815 344.34064 164.82253 344.16876Q164.5569 343.9969 164.1819 343.9969Q163.52565 343.9969 163.08815 344.4344Q162.66628 344.8719 162.66628 345.84064L162.66628 349.45L161.60378 349.45L161.60378 345.40314Q161.60378 344.7 161.33815 344.35626Q161.08815 343.9969 160.51003 343.9969Q160.0569 343.9969 159.6819 344.23126Q159.3069 344.46564 159.13503 344.91876Q158.96315 345.3719 158.96315 346.21564L158.96315 349.45L157.91628 349.45ZM171.97878 348.6844Q171.38503 349.1844 170.83815 349.3875Q170.3069 349.59064 169.6819 349.59064Q168.65065 349.59064 168.10378 349.09064Q167.5569 348.59064 167.5569 347.8094Q167.5569 347.35626 167.76003 346.98126Q167.96315 346.59064 168.3069 346.3719Q168.65065 346.1375 169.07253 346.02814Q169.3694 345.9344 170.01003 345.85626Q171.27565 345.71564 171.88503 345.4969Q171.88503 345.27814 171.88503 345.23126Q171.88503 344.575 171.58815 344.3094Q171.1819 343.96564 170.38503 343.96564Q169.65065 343.96564 169.29128 344.23126Q168.9319 344.48126 168.76003 345.1375L167.72878 344.9969Q167.8694 344.34064 168.19753 343.9344Q168.52565 343.52814 169.13503 343.3094Q169.7444 343.09064 170.54128 343.09064Q171.33815 343.09064 171.83815 343.27814Q172.33815 343.46564 172.57253 343.7469Q172.8069 344.02814 172.90065 344.46564Q172.94753 344.73126 172.94753 345.4344L172.94753 346.84064Q172.94753 348.3094 173.01003 348.7Q173.08815 349.09064 173.29128 349.45L172.1819 349.45Q172.02565 349.1219 171.97878 348.6844ZM171.88503 346.325Q171.3069 346.5594 170.16628 346.73126Q169.51003 346.825 169.2444 346.95Q168.97878 347.0594 168.82253 347.27814Q168.6819 347.4969 168.6819 347.77814Q168.6819 348.2 168.9944 348.48126Q169.32253 348.7625 169.9319 348.7625Q170.54128 348.7625 171.01003 348.4969Q171.4944 348.23126 171.71315 347.7625Q171.88503 347.40314 171.88503 346.71564L171.88503 346.325ZM174.90065 349.45L174.90065 343.23126L175.85378 343.23126L175.85378 344.16876Q176.21315 343.5125 176.51003 343.3094Q176.82253 343.09064 177.19753 343.09064Q177.72878 343.09064 178.27565 343.41876L177.91628 344.40314Q177.52565 344.16876 177.15065 344.16876Q176.79128 344.16876 176.51003 344.3875Q176.2444 344.59064 176.13503 344.96564Q175.94753 345.52814 175.94753 346.1844L175.94753 349.45L174.90065 349.45ZM178.91628 349.45L178.91628 340.85626L179.97878 340.85626L179.97878 345.7625L182.46315 343.23126L183.83815 343.23126L181.44753 345.52814L184.07253 349.45L182.77565 349.45L180.71315 346.2625L179.97878 346.98126L179.97878 349.45L178.91628 349.45Z" fill-rule="nonzero"/><path fill="#000000" d="M297.48438 349.45L297.48438 340.85626L303.28125 340.85626L303.28125 341.8719L298.625 341.8719L298.625 344.52814L302.65625 344.52814L302.65625 345.54376L298.625 345.54376L298.625 349.45L297.48438 349.45ZM304.29688 342.075L304.29688 340.85626L305.35938 340.85626L305.35938 342.075L304.29688 342.075ZM304.29688 349.45L304.29688 343.23126L305.35938 343.23126L305.35938 349.45L304.29688 349.45ZM307.29688 349.45L307.29688 343.23126L308.23438 343.23126L308.23438 344.10626Q308.92188 343.09064 310.21875 343.09064Q310.78125 343.09064 311.25 343.29376Q311.73438 343.4969 311.96875 343.825Q312.20312 344.15314 312.29688 344.59064Q312.34375 344.8875 312.34375 345.6219L312.34375 349.45L311.29688 349.45L311.29688 345.66876Q311.29688 345.0125 311.17188 344.7Q311.04688 344.3875 310.73438 344.2Q310.42188 343.9969 310.0 343.9969Q309.32812 343.9969 308.82812 344.4344Q308.34375 344.85626 308.34375 346.04376L308.34375 349.45L307.29688 349.45ZM314.26562 349.45L314.26562 340.85626L315.32812 340.85626L315.32812 349.45L314.26562 349.45ZM321.35938 348.6844Q320.76562 349.1844 320.21875 349.3875Q319.6875 349.59064 319.0625 349.59064Q318.03125 349.59064 317.48438 349.09064Q316.9375 348.59064 316.9375 347.8094Q316.9375 347.35626 317.14062 346.98126Q317.34375 346.59064 317.6875 346.3719Q318.03125 346.1375 318.45312 346.02814Q318.75 345.9344 319.39062 345.85626Q320.65625 345.71564 321.26562 345.4969Q321.26562 345.27814 321.26562 345.23126Q321.26562 344.575 320.96875 344.3094Q320.5625 343.96564 319.76562 343.96564Q319.03125 343.96564 318.67188 344.23126Q318.3125 344.48126 318.14062 345.1375L317.10938 344.9969Q317.25 344.34064 317.57812 343.9344Q317.90625 343.52814 318.51562 343.3094Q319.125 343.09064 319.92188 343.09064Q320.71875 343.09064 321.21875 343.27814Q321.71875 343.46564 321.95312 343.7469Q322.1875 344.02814 322.28125 344.46564Q322.32812 344.73126 322.32812 345.4344L322.32812 346.84064Q322.32812 348.3094 322.39062 348.7Q322.46875 349.09064 322.67188 349.45L321.5625 349.45Q321.40625 349.1219 321.35938 348.6844ZM321.26562 346.325Q320.6875 346.5594 319.54688 346.73126Q318.89062 346.825 318.625 346.95Q318.35938 347.0594 318.20312 347.27814Q318.0625 347.4969 318.0625 347.77814Q318.0625 348.2 318.375 348.48126Q318.70312 348.7625 319.3125 348.7625Q319.92188 348.7625 320.39062 348.4969Q320.875 348.23126 321.09375 347.7625Q321.26562 347.40314 321.26562 346.71564L321.26562 346.325ZM324.29688 349.45L324.29688 343.23126L325.23438 343.23126L325.23438 344.10626Q325.92188 343.09064 327.21875 343.09064Q327.78125 343.09064 328.25 343.29376Q328.73438 343.4969 328.96875 343.825Q329.20312 344.15314 329.29688 344.59064Q329.34375 344.8875 329.34375 345.6219L329.34375 349.45L328.29688 349.45L328.29688 345.66876Q328.29688 345.0125 328.17188 344.7Q328.04688 344.3875 327.73438 344.2Q327.42188 343.9969 327.0 343.9969Q326.32812 343.9969 325.82812 344.4344Q325.34375 344.85626 325.34375 346.04376L325.34375 349.45L324.29688 349.45ZM335.32812 349.45L335.32812 348.66876Q334.73438 349.59064 333.59375 349.59064Q332.84375 349.59064 332.21875 349.1844Q331.59375 348.7625 331.25 348.02814Q330.90625 347.29376 330.90625 346.34064Q330.90625 345.41876 331.21875 344.65314Q331.53125 343.8875 332.15625 343.4969Q332.78125 343.09064 333.54688 343.09064Q334.10938 343.09064 334.54688 343.325Q334.98438 343.5594 335.26562 343.9344L335.26562 340.85626L336.3125 340.85626L336.3125 349.45L335.32812 349.45ZM332.0 346.34064Q332.0 347.54376 332.5 348.1375Q333.0 348.71564 333.6875 348.71564Q334.375 348.71564 334.85938 348.15314Q335.34375 347.59064 335.34375 346.4344Q335.34375 345.15314 334.84375 344.5594Q334.35938 343.96564 333.64062 343.96564Q332.9375 343.96564 332.46875 344.54376Q332.0 345.10626 332.0 346.34064Z" fill-rule="nonzero"/><path fill="#000000" d="M454.80246 349.45L454.80246 340.85626L455.9587 340.85626L460.47433 347.60626L460.47433 340.85626L461.56808 340.85626L461.56808 349.45L460.3962 349.45L455.88058 342.7L455.88058 349.45L454.80246 349.45ZM463.28683 346.34064Q463.28683 344.60626 464.23996 343.77814Q465.03683 343.09064 466.19308 343.09064Q467.47433 343.09064 468.28683 343.9344Q469.11496 344.7625 469.11496 346.2469Q469.11496 347.45 468.75558 348.1375Q468.3962 348.825 467.69308 349.21564Q467.00558 349.59064 466.19308 349.59064Q464.8962 349.59064 464.0837 348.7625Q463.28683 347.91876 463.28683 346.34064ZM464.36496 346.34064Q464.36496 347.52814 464.88058 348.1219Q465.41183 348.71564 466.19308 348.71564Q466.98996 348.71564 467.50558 348.1219Q468.0212 347.52814 468.0212 346.3094Q468.0212 345.15314 467.48996 344.5594Q466.97433 343.96564 466.19308 343.96564Q465.41183 343.96564 464.88058 344.5594Q464.36496 345.1375 464.36496 346.34064ZM470.66183 349.45L470.66183 343.23126L471.61496 343.23126L471.61496 344.16876Q471.97433 343.5125 472.2712 343.3094Q472.5837 343.09064 472.9587 343.09064Q473.48996 343.09064 474.03683 343.41876L473.67746 344.40314Q473.28683 344.16876 472.91183 344.16876Q472.55246 344.16876 472.2712 344.3875Q472.00558 344.59064 471.8962 344.96564Q471.7087 345.52814 471.7087 346.1844L471.7087 349.45L470.66183 349.45ZM475.81808 349.45L473.91183 343.23126L475.00558 343.23126L475.98996 346.825L476.36496 348.15314Q476.3962 348.0594 476.69308 346.8719L477.67746 343.23126L478.75558 343.23126L479.69308 346.84064L480.00558 348.02814L480.36496 346.825L481.42746 343.23126L482.4587 343.23126L480.50558 349.45L479.41183 349.45L478.42746 345.71564L478.17746 344.66876L476.92746 349.45L475.81808 349.45ZM487.73996 348.6844Q487.1462 349.1844 486.59933 349.3875Q486.06808 349.59064 485.44308 349.59064Q484.41183 349.59064 483.86496 349.09064Q483.31808 348.59064 483.31808 347.8094Q483.31808 347.35626 483.5212 346.98126Q483.72433 346.59064 484.06808 346.3719Q484.41183 346.1375 484.8337 346.02814Q485.13058 345.9344 485.7712 345.85626Q487.03683 345.71564 487.6462 345.4969Q487.6462 345.27814 487.6462 345.23126Q487.6462 344.575 487.34933 344.3094Q486.94308 343.96564 486.1462 343.96564Q485.41183 343.96564 485.05246 344.23126Q484.69308 344.48126 484.5212 345.1375L483.48996 344.9969Q483.63058 344.34064 483.9587 343.9344Q484.28683 343.52814 484.8962 343.3094Q485.50558 343.09064 486.30246 343.09064Q487.09933 343.09064 487.59933 343.27814Q488.09933 343.46564 488.3337 343.7469Q488.56808 344.02814 488.66183 344.46564Q488.7087 344.73126 488.7087 345.4344L488.7087 346.84064Q488.7087 348.3094 488.7712 348.7Q488.84933 349.09064 489.05246 349.45L487.94308 349.45Q487.78683 349.1219 487.73996 348.6844ZM487.6462 346.325Q487.06808 346.5594 485.92746 346.73126Q485.2712 346.825 485.00558 346.95Q484.73996 347.0594 484.5837 347.27814Q484.44308 347.4969 484.44308 347.77814Q484.44308 348.2 484.75558 348.48126Q485.0837 348.7625 485.69308 348.7625Q486.30246 348.7625 486.7712 348.4969Q487.25558 348.23126 487.47433 347.7625Q487.6462 347.40314 487.6462 346.71564L487.6462 346.325ZM490.63058 351.84064L490.50558 350.85626Q490.84933 350.95 491.11496 350.95Q491.4587 350.95 491.66183 350.825Q491.88058 350.71564 492.0212 350.5125Q492.11496 350.34064 492.34933 349.71564Q492.36496 349.6375 492.44308 349.46564L490.06808 343.23126L491.2087 343.23126L492.50558 346.825Q492.75558 347.5125 492.9587 348.27814Q493.1462 347.54376 493.3962 346.85626L494.72433 343.23126L495.7712 343.23126L493.41183 349.5594Q493.0212 350.575 492.81808 350.96564Q492.53683 351.4969 492.16183 351.73126Q491.80246 351.98126 491.30246 351.98126Q491.00558 351.98126 490.63058 351.84064Z" fill-rule="nonzero"/><path fill="#757575" d="M19.51875 30.58125Q19.51875 27.01875 21.425 25.003124Q23.346874 22.971874 26.378124 22.971874Q28.3625 22.971874 29.940624 23.925Q31.534374 24.878124 32.3625 26.58125Q33.20625 28.26875 33.20625 30.409374Q33.20625 32.58125 32.33125 34.3Q31.45625 36.01875 29.83125 36.909374Q28.221874 37.8 26.3625 37.8Q24.346874 37.8 22.753124 36.83125Q21.159374 35.846874 20.33125 34.159374Q19.51875 32.45625 19.51875 30.58125ZM21.471874 30.6125Q21.471874 33.190624 22.8625 34.690624Q24.253124 36.175 26.346874 36.175Q28.4875 36.175 29.8625 34.675Q31.253124 33.159374 31.253124 30.39375Q31.253124 28.659374 30.659374 27.3625Q30.08125 26.05 28.940624 25.33125Q27.8 24.6125 26.378124 24.6125Q24.378124 24.6125 22.925 26.003124Q21.471874 27.378124 21.471874 30.6125ZM42.64375 33.753124L44.3625 33.971874Q44.08125 35.76875 42.909374 36.784374Q41.753124 37.784374 40.05 37.784374Q37.925 37.784374 36.628124 36.39375Q35.33125 35.003124 35.33125 32.409374Q35.33125 30.721874 35.878124 29.471874Q36.440624 28.20625 37.58125 27.58125Q38.721874 26.940624 40.065624 26.940624Q41.753124 26.940624 42.815624 27.8Q43.89375 28.659374 44.20625 30.221874L42.4875 30.4875Q42.253124 29.440624 41.628124 28.925Q41.003124 28.39375 40.128124 28.39375Q38.8 28.39375 37.971874 29.346874Q37.14375 30.3 37.14375 32.346874Q37.14375 34.440624 37.940624 35.39375Q38.7375 36.33125 40.034374 36.33125Q41.065624 36.33125 41.753124 35.70625Q42.45625 35.065624 42.64375 33.753124ZM49.70625 35.971874L49.95625 37.534374Q49.221874 37.690624 48.628124 37.690624Q47.675 37.690624 47.14375 37.39375Q46.628124 37.08125 46.409374 36.596874Q46.190624 36.096874 46.190624 34.51875L46.190624 28.55L44.909374 28.55L44.909374 27.175L46.190624 27.175L46.190624 24.6125L47.940624 23.55L47.940624 27.175L49.70625 27.175L49.70625 28.55L47.940624 28.55L47.940624 34.6125Q47.940624 35.3625 48.034374 35.58125Q48.128124 35.784374 48.33125 35.925Q48.55 36.05 48.940624 36.05Q49.221874 36.05 49.70625 35.971874ZM51.221874 32.3625Q51.221874 29.4875 52.815624 28.096874Q54.159374 26.940624 56.08125 26.940624Q58.221874 26.940624 59.565624 28.346874Q60.925 29.753124 60.925 32.221874Q60.925 34.221874 60.33125 35.378124Q59.7375 36.51875 58.58125 37.159374Q57.440624 37.784374 56.08125 37.784374Q53.89375 37.784374 52.55 36.39375Q51.221874 34.9875 51.221874 32.3625ZM53.01875 32.3625Q53.01875 34.3625 53.878124 35.346874Q54.753124 36.33125 56.08125 36.33125Q57.39375 36.33125 58.253124 35.346874Q59.128124 34.346874 59.128124 32.3Q59.128124 30.378124 58.253124 29.39375Q57.378124 28.39375 56.08125 28.39375Q54.753124 28.39375 53.878124 29.39375Q53.01875 30.378124 53.01875 32.3625ZM64.4875 37.55L62.8625 37.55L62.8625 23.2375L64.6125 23.2375L64.6125 28.346874Q65.7375 26.940624 67.45625 26.940624Q68.40938 26.940624 69.26875 27.33125Q70.12813 27.721874 70.675 28.425Q71.22188 29.1125 71.53438 30.096874Q71.84688 31.08125 71.84688 32.20625Q71.84688 34.878124 70.53438 36.33125Q69.22188 37.784374 67.37813 37.784374Q65.53438 37.784374 64.4875 36.253124L64.4875 37.55ZM64.47188 32.284374Q64.47188 34.14375 64.97188 34.9875Q65.81563 36.33125 67.22188 36.33125Q68.37813 36.33125 69.20625 35.33125Q70.05 34.33125 70.05 32.346874Q70.05 30.315624 69.2375 29.3625Q68.44063 28.39375 67.3 28.39375Q66.14375 28.39375 65.3 29.39375Q64.47188 30.39375 64.47188 32.284374ZM80.97188 34.20625L82.78438 34.440624Q82.3625 36.01875 81.19063 36.909374Q80.03438 37.784374 78.22188 37.784374Q75.95625 37.784374 74.6125 36.39375Q73.28438 34.9875 73.28438 32.45625Q73.28438 29.83125 74.62813 28.39375Q75.97188 26.940624 78.12813 26.940624Q80.20625 26.940624 81.51875 28.3625Q82.84688 29.76875 82.84688 32.346874Q82.84688 32.503124 82.83125 32.815624L75.09688 32.815624Q75.19063 34.51875 76.06563 35.425Q76.94063 36.33125 78.2375 36.33125Q79.20625 36.33125 79.87813 35.83125Q80.56563 35.315624 80.97188 34.20625ZM75.19063 31.3625L80.9875 31.3625Q80.87813 30.065624 80.33125 29.409374Q79.4875 28.39375 78.14375 28.39375Q76.94063 28.39375 76.1125 29.20625Q75.28438 30.003124 75.19063 31.3625ZM84.84688 37.55L84.84688 27.175L86.425 27.175L86.425 28.753124Q87.03438 27.64375 87.55 27.3Q88.06563 26.940624 88.675 26.940624Q89.56563 26.940624 90.4875 27.503124L89.87813 29.14375Q89.2375 28.753124 88.59688 28.753124Q88.01875 28.753124 87.55 29.1125Q87.09688 29.45625 86.89375 30.065624Q86.6125 31.003124 86.6125 32.1125L86.6125 37.55L84.84688 37.55ZM104.64375 33.753124L106.3625 33.971874Q106.08125 35.76875 104.90938 36.784374Q103.75313 37.784374 102.05 37.784374Q99.925 37.784374 98.62813 36.39375Q97.33125 35.003124 97.33125 32.409374Q97.33125 30.721874 97.87813 29.471874Q98.44063 28.20625 99.58125 27.58125Q100.72188 26.940624 102.06563 26.940624Q103.75313 26.940624 104.81563 27.8Q105.89375 28.659374 106.20625 30.221874L104.4875 30.4875Q104.25313 29.440624 103.62813 28.925Q103.00313 28.39375 102.12813 28.39375Q100.8 28.39375 99.97188 29.346874Q99.14375 30.3 99.14375 32.346874Q99.14375 34.440624 99.94063 35.39375Q100.7375 36.33125 102.03438 36.33125Q103.06563 36.33125 103.75313 35.70625Q104.45625 35.065624 104.64375 33.753124ZM114.64375 36.26875Q113.65938 37.096874 112.75313 37.440624Q111.84688 37.784374 110.81563 37.784374Q109.1125 37.784374 108.19063 36.95625Q107.26875 36.1125 107.26875 34.815624Q107.26875 34.05 107.6125 33.425Q107.97188 32.8 108.53438 32.425Q109.09688 32.034374 109.8 31.83125Q110.31563 31.70625 111.3625 31.565624Q113.4875 31.315624 114.4875 30.971874Q114.50313 30.6125 114.50313 30.503124Q114.50313 29.440624 114.00313 28.9875Q113.33125 28.39375 112.00313 28.39375Q110.75313 28.39375 110.15938 28.83125Q109.58125 29.26875 109.3 30.378124L107.58125 30.14375Q107.81563 29.034374 108.34688 28.3625Q108.87813 27.675 109.89375 27.315624Q110.90938 26.940624 112.25313 26.940624Q113.58125 26.940624 114.40938 27.253124Q115.2375 27.565624 115.62813 28.05Q116.01875 28.51875 116.175 29.2375Q116.26875 29.690624 116.26875 30.8625L116.26875 33.20625Q116.26875 35.659374 116.37813 36.315624Q116.4875 36.95625 116.83125 37.55L114.9875 37.55Q114.72188 37.003124 114.64375 36.26875ZM114.4875 32.346874Q113.53438 32.7375 111.6125 33.003124Q110.53438 33.159374 110.08125 33.3625Q109.64375 33.55 109.39375 33.925Q109.14375 34.3 109.14375 34.76875Q109.14375 35.471874 109.675 35.940624Q110.20625 36.409374 111.2375 36.409374Q112.25313 36.409374 113.03438 35.971874Q113.83125 35.51875 114.20625 34.753124Q114.4875 34.14375 114.4875 32.9875L114.4875 32.346874ZM118.15938 34.45625L119.90938 34.175Q120.05 35.221874 120.72188 35.784374Q121.39375 36.33125 122.59688 36.33125Q123.8 36.33125 124.37813 35.846874Q124.97188 35.346874 124.97188 34.690624Q124.97188 34.096874 124.45625 33.753124Q124.09688 33.51875 122.65938 33.159374Q120.72188 32.659374 119.97188 32.315624Q119.2375 31.95625 118.84688 31.33125Q118.45625 30.690624 118.45625 29.925Q118.45625 29.2375 118.76875 28.64375Q119.09688 28.05 119.64375 27.659374Q120.05 27.3625 120.75313 27.159374Q121.47188 26.940624 122.28438 26.940624Q123.50313 26.940624 124.425 27.3Q125.34688 27.64375 125.78438 28.253124Q126.22188 28.846874 126.39375 29.846874L124.675 30.08125Q124.55 29.284374 123.9875 28.846874Q123.425 28.39375 122.40938 28.39375Q121.19063 28.39375 120.675 28.8Q120.15938 29.190624 120.15938 29.721874Q120.15938 30.065624 120.37813 30.346874Q120.58125 30.628124 121.05 30.815624Q121.31563 30.909374 122.59688 31.253124Q124.47188 31.753124 125.20625 32.08125Q125.94063 32.39375 126.3625 33.003124Q126.78438 33.596874 126.78438 34.503124Q126.78438 35.378124 126.26875 36.159374Q125.75313 36.940624 124.78438 37.3625Q123.81563 37.784374 122.59688 37.784374Q120.58125 37.784374 119.51875 36.940624Q118.45625 36.096874 118.15938 34.45625ZM135.97188 34.20625L137.78438 34.440624Q137.3625 36.01875 136.19063 36.909374Q135.03438 37.784374 133.22188 37.784374Q130.95625 37.784374 129.6125 36.39375Q128.28438 34.9875 128.28438 32.45625Q128.28438 29.83125 129.62813 28.39375Q130.97188 26.940624 133.12813 26.940624Q135.20625 26.940624 136.51875 28.3625Q137.84688 29.76875 137.84688 32.346874Q137.84688 32.503124 137.83125 32.815624L130.09688 32.815624Q130.19063 34.51875 131.06563 35.425Q131.94063 36.33125 133.2375 36.33125Q134.20625 36.33125 134.87813 35.83125Q135.56563 35.315624 135.97188 34.20625ZM130.19063 31.3625L135.9875 31.3625Q135.87813 30.065624 135.33125 29.409374Q134.4875 28.39375 133.14375 28.39375Q131.94063 28.39375 131.1125 29.20625Q130.28438 30.003124 130.19063 31.3625ZM139.15938 34.45625L140.90938 34.175Q141.05 35.221874 141.72188 35.784374Q142.39375 36.33125 143.59688 36.33125Q144.8 36.33125 145.37813 35.846874Q145.97188 35.346874 145.97188 34.690624Q145.97188 34.096874 145.45625 33.753124Q145.09688 33.51875 143.65938 33.159374Q141.72188 32.659374 140.97188 32.315624Q140.2375 31.95625 139.84688 31.33125Q139.45625 30.690624 139.45625 29.925Q139.45625 29.2375 139.76875 28.64375Q140.09688 28.05 140.64375 27.659374Q141.05 27.3625 141.75313 27.159374Q142.47188 26.940624 143.28438 26.940624Q144.50313 26.940624 145.425 27.3Q146.34688 27.64375 146.78438 28.253124Q147.22188 28.846874 147.39375 29.846874L145.675 30.08125Q145.55 29.284374 144.9875 28.846874Q144.425 28.39375 143.40938 28.39375Q142.19063 28.39375 141.675 28.8Q141.15938 29.190624 141.15938 29.721874Q141.15938 30.065624 141.37813 30.346874Q141.58125 30.628124 142.05 30.815624Q142.31563 30.909374 143.59688 31.253124Q145.47188 31.753124 146.20625 32.08125Q146.94063 32.39375 147.3625 33.003124Q147.78438 33.596874 147.78438 34.503124Q147.78438 35.378124 147.26875 36.159374Q146.75313 36.940624 145.78438 37.3625Q144.81563 37.784374 143.59688 37.784374Q141.58125 37.784374 140.51875 36.940624Q139.45625 36.096874 139.15938 34.45625ZM155.87813 25.253124L155.87813 23.2375L157.64375 23.2375L157.64375 25.253124L155.87813 25.253124ZM155.87813 37.55L155.87813 27.175L157.64375 27.175L157.64375 37.55L155.87813 37.55ZM159.8625 37.55L159.8625 27.175L161.45625 27.175L161.45625 28.659374Q162.59688 26.940624 164.75313 26.940624Q165.69063 26.940624 166.47188 27.284374Q167.26875 27.6125 167.65938 28.159374Q168.05 28.70625 168.20625 29.45625Q168.3 29.95625 168.3 31.175L168.3 37.55L166.53438 37.55L166.53438 31.2375Q166.53438 30.159374 166.33125 29.628124Q166.12813 29.096874 165.59688 28.784374Q165.08125 28.471874 164.37813 28.471874Q163.25313 28.471874 162.44063 29.190624Q161.62813 29.89375 161.62813 31.878124L161.62813 37.55L159.8625 37.55ZM183.64375 36.26875Q182.65938 37.096874 181.75313 37.440624Q180.84688 37.784374 179.81563 37.784374Q178.1125 37.784374 177.19063 36.95625Q176.26875 36.1125 176.26875 34.815624Q176.26875 34.05 176.6125 33.425Q176.97188 32.8 177.53438 32.425Q178.09688 32.034374 178.8 31.83125Q179.31563 31.70625 180.3625 31.565624Q182.4875 31.315624 183.4875 30.971874Q183.50313 30.6125 183.50313 30.503124Q183.50313 29.440624 183.00313 28.9875Q182.33125 28.39375 181.00313 28.39375Q179.75313 28.39375 179.15938 28.83125Q178.58125 29.26875 178.3 30.378124L176.58125 30.14375Q176.81563 29.034374 177.34688 28.3625Q177.87813 27.675 178.89375 27.315624Q179.90938 26.940624 181.25313 26.940624Q182.58125 26.940624 183.40938 27.253124Q184.2375 27.565624 184.62813 28.05Q185.01875 28.51875 185.175 29.2375Q185.26875 29.690624 185.26875 30.8625L185.26875 33.20625Q185.26875 35.659374 185.37813 36.315624Q185.4875 36.95625 185.83125 37.55L183.9875 37.55Q183.72188 37.003124 183.64375 36.26875ZM183.4875 32.346874Q182.53438 32.7375 180.6125 33.003124Q179.53438 33.159374 179.08125 33.3625Q178.64375 33.55 178.39375 33.925Q178.14375 34.3 178.14375 34.76875Q178.14375 35.471874 178.675 35.940624Q179.20625 36.409374 180.2375 36.409374Q181.25313 36.409374 182.03438 35.971874Q182.83125 35.51875 183.20625 34.753124Q183.4875 34.14375 183.4875 32.9875L183.4875 32.346874ZM200.64375 33.753124L202.3625 33.971874Q202.08125 35.76875 200.90938 36.784374Q199.75313 37.784374 198.05 37.784374Q195.925 37.784374 194.62813 36.39375Q193.33125 35.003124 193.33125 32.409374Q193.33125 30.721874 193.87813 29.471874Q194.44063 28.20625 195.58125 27.58125Q196.72188 26.940624 198.06563 26.940624Q199.75313 26.940624 200.81563 27.8Q201.89375 28.659374 202.20625 30.221874L200.4875 30.4875Q200.25313 29.440624 199.62813 28.925Q199.00313 28.39375 198.12813 28.39375Q196.8 28.39375 195.97188 29.346874Q195.14375 30.3 195.14375 32.346874Q195.14375 34.440624 195.94063 35.39375Q196.7375 36.33125 198.03438 36.33125Q199.06563 36.33125 199.75313 35.70625Q200.45625 35.065624 200.64375 33.753124ZM210.64375 36.26875Q209.65938 37.096874 208.75313 37.440624Q207.84688 37.784374 206.81563 37.784374Q205.1125 37.784374 204.19063 36.95625Q203.26875 36.1125 203.26875 34.815624Q203.26875 34.05 203.6125 33.425Q203.97188 32.8 204.53438 32.425Q205.09688 32.034374 205.8 31.83125Q206.31563 31.70625 207.3625 31.565624Q209.4875 31.315624 210.4875 30.971874Q210.50313 30.6125 210.50313 30.503124Q210.50313 29.440624 210.00313 28.9875Q209.33125 28.39375 208.00313 28.39375Q206.75313 28.39375 206.15938 28.83125Q205.58125 29.26875 205.3 30.378124L203.58125 30.14375Q203.81563 29.034374 204.34688 28.3625Q204.87813 27.675 205.89375 27.315624Q206.90938 26.940624 208.25313 26.940624Q209.58125 26.940624 210.40938 27.253124Q211.2375 27.565624 211.62813 28.05Q212.01875 28.51875 212.175 29.2375Q212.26875 29.690624 212.26875 30.8625L212.26875 33.20625Q212.26875 35.659374 212.37813 36.315624Q212.4875 36.95625 212.83125 37.55L210.9875 37.55Q210.72188 37.003124 210.64375 36.26875ZM210.4875 32.346874Q209.53438 32.7375 207.6125 33.003124Q206.53438 33.159374 206.08125 33.3625Q205.64375 33.55 205.39375 33.925Q205.14375 34.3 205.14375 34.76875Q205.14375 35.471874 205.675 35.940624Q206.20625 36.409374 207.2375 36.409374Q208.25313 36.409374 209.03438 35.971874Q209.83125 35.51875 210.20625 34.753124Q210.4875 34.14375 210.4875 32.9875L210.4875 32.346874ZM214.8625 37.55L214.8625 27.175L216.45625 27.175L216.45625 28.659374Q217.59688 26.940624 219.75313 26.940624Q220.69063 26.940624 221.47188 27.284374Q222.26875 27.6125 222.65938 28.159374Q223.05 28.70625 223.20625 29.45625Q223.3 29.95625 223.3 31.175L223.3 37.55L221.53438 37.55L221.53438 31.2375Q221.53438 30.159374 221.33125 29.628124Q221.12813 29.096874 220.59688 28.784374Q220.08125 28.471874 219.37813 28.471874Q218.25313 28.471874 217.44063 29.190624Q216.62813 29.89375 216.62813 31.878124L216.62813 37.55L214.8625 37.55ZM232.59688 37.55L232.59688 36.2375Q231.6125 37.784374 229.69063 37.784374Q228.45625 37.784374 227.40938 37.096874Q226.37813 36.409374 225.8 35.190624Q225.2375 33.971874 225.2375 32.378124Q225.2375 30.815624 225.75313 29.55Q226.26875 28.284374 227.3 27.6125Q228.34688 26.940624 229.6125 26.940624Q230.55 26.940624 231.28438 27.346874Q232.01875 27.7375 232.4875 28.3625L232.4875 23.2375L234.22188 23.2375L234.22188 37.55L232.59688 37.55ZM227.03438 32.378124Q227.03438 34.3625 227.87813 35.346874Q228.72188 36.33125 229.8625 36.33125Q231.01875 36.33125 231.81563 35.39375Q232.62813 34.45625 232.62813 32.51875Q232.62813 30.39375 231.8 29.39375Q230.9875 28.39375 229.78438 28.39375Q228.6125 28.39375 227.81563 29.3625Q227.03438 30.315624 227.03438 32.378124ZM236.83125 37.55L236.83125 23.2375L238.58125 23.2375L238.58125 37.55L236.83125 37.55ZM247.97188 34.20625L249.78438 34.440624Q249.3625 36.01875 248.19063 36.909374Q247.03438 37.784374 245.22188 37.784374Q242.95625 37.784374 241.6125 36.39375Q240.28438 34.9875 240.28438 32.45625Q240.28438 29.83125 241.62813 28.39375Q242.97188 26.940624 245.12813 26.940624Q247.20625 26.940624 248.51875 28.3625Q249.84688 29.76875 249.84688 32.346874Q249.84688 32.503124 249.83125 32.815624L242.09688 32.815624Q242.19063 34.51875 243.06563 35.425Q243.94063 36.33125 245.2375 36.33125Q246.20625 36.33125 246.87813 35.83125Q247.56563 35.315624 247.97188 34.20625ZM242.19063 31.3625L247.9875 31.3625Q247.87813 30.065624 247.33125 29.409374Q246.4875 28.39375 245.14375 28.39375Q243.94063 28.39375 243.1125 29.20625Q242.28438 30.003124 242.19063 31.3625ZM251.15938 34.45625L252.90938 34.175Q253.05 35.221874 253.72188 35.784374Q254.39375 36.33125 255.59688 36.33125Q256.8 36.33125 257.3781 35.846874Q257.97186 35.346874 257.97186 34.690624Q257.97186 34.096874 257.45624 33.753124Q257.09686 33.51875 255.65938 33.159374Q253.72188 32.659374 252.97188 32.315624Q252.2375 31.95625 251.84688 31.33125Q251.45625 30.690624 251.45625 29.925Q251.45625 29.2375 251.76875 28.64375Q252.09688 28.05 252.64375 27.659374Q253.05 27.3625 253.75313 27.159374Q254.47188 26.940624 255.28438 26.940624Q256.5031 26.940624 257.425 27.3Q258.34686 27.64375 258.78436 28.253124Q259.22186 28.846874 259.39374 29.846874L257.675 30.08125Q257.55 29.284374 256.9875 28.846874Q256.425 28.39375 255.40938 28.39375Q254.19063 28.39375 253.675 28.8Q253.15938 29.190624 253.15938 29.721874Q253.15938 30.065624 253.37813 30.346874Q253.58125 30.628124 254.05 30.815624Q254.31563 30.909374 255.59688 31.253124Q257.47186 31.753124 258.20624 32.08125Q258.9406 32.39375 259.3625 33.003124Q259.78436 33.596874 259.78436 34.503124Q259.78436 35.378124 259.26874 36.159374Q258.7531 36.940624 257.78436 37.3625Q256.8156 37.784374 255.59688 37.784374Q253.58125 37.784374 252.51875 36.940624Q251.45625 36.096874 251.15938 34.45625ZM265.70624 35.971874L265.95624 37.534374Q265.22186 37.690624 264.6281 37.690624Q263.675 37.690624 263.14374 37.39375Q262.6281 37.08125 262.40936 36.596874Q262.1906 36.096874 262.1906 34.51875L262.1906 28.55L260.90936 28.55L260.90936 27.175L262.1906 27.175L262.1906 24.6125L263.9406 23.55L263.9406 27.175L265.70624 27.175L265.70624 28.55L263.9406 28.55L263.9406 34.6125Q263.9406 35.3625 264.03436 35.58125Q264.1281 35.784374 264.33124 35.925Q264.55 36.05 264.9406 36.05Q265.22186 36.05 265.70624 35.971874ZM267.8781 25.253124L267.8781 23.2375L269.64374 23.2375L269.64374 25.253124L267.8781 25.253124ZM267.8781 37.55L267.8781 27.175L269.64374 27.175L269.64374 37.55L267.8781 37.55ZM278.64374 33.753124L280.3625 33.971874Q280.08124 35.76875 278.90936 36.784374Q277.7531 37.784374 276.05 37.784374Q273.925 37.784374 272.6281 36.39375Q271.33124 35.003124 271.33124 32.409374Q271.33124 30.721874 271.8781 29.471874Q272.4406 28.20625 273.58124 27.58125Q274.72186 26.940624 276.0656 26.940624Q277.7531 26.940624 278.8156 27.8Q279.89374 28.659374 280.20624 30.221874L278.4875 30.4875Q278.2531 29.440624 277.6281 28.925Q277.0031 28.39375 276.1281 28.39375Q274.8 28.39375 273.97186 29.346874Q273.14374 30.3 273.14374 32.346874Q273.14374 34.440624 273.9406 35.39375Q274.7375 36.33125 276.03436 36.33125Q277.0656 36.33125 277.7531 35.70625Q278.45624 35.065624 278.64374 33.753124ZM281.8781 37.55L281.8781 23.2375L283.64374 23.2375L283.64374 31.39375L287.8 27.175L290.0656 27.175L286.1125 31.01875L290.47186 37.55L288.3 37.55L284.8781 32.253124L283.64374 33.440624L283.64374 37.55L281.8781 37.55ZM304.64374 33.753124L306.3625 33.971874Q306.08124 35.76875 304.90936 36.784374Q303.7531 37.784374 302.05 37.784374Q299.925 37.784374 298.6281 36.39375Q297.33124 35.003124 297.33124 32.409374Q297.33124 30.721874 297.8781 29.471874Q298.4406 28.20625 299.58124 27.58125Q300.72186 26.940624 302.0656 26.940624Q303.7531 26.940624 304.8156 27.8Q305.89374 28.659374 306.20624 30.221874L304.4875 30.4875Q304.2531 29.440624 303.6281 28.925Q303.0031 28.39375 302.1281 28.39375Q300.8 28.39375 299.97186 29.346874Q299.14374 30.3 299.14374 32.346874Q299.14374 34.440624 299.9406 35.39375Q300.7375 36.33125 302.03436 36.33125Q303.0656 36.33125 303.7531 35.70625Q304.45624 35.065624 304.64374 33.753124ZM307.8625 37.55L307.8625 23.2375L309.6281 23.2375L309.6281 28.3625Q310.8625 26.940624 312.7375 26.940624Q313.8781 26.940624 314.72186 27.39375Q315.58124 27.846874 315.9406 28.659374Q316.3156 29.45625 316.3156 30.971874L316.3156 37.55L314.5656 37.55L314.5656 30.971874Q314.5656 29.659374 313.9875 29.065624Q313.40936 28.45625 312.3781 28.45625Q311.59686 28.45625 310.89374 28.8625Q310.20624 29.26875 309.90936 29.971874Q309.6281 30.659374 309.6281 31.878124L309.6281 37.55L307.8625 37.55ZM325.64374 36.26875Q324.65936 37.096874 323.7531 37.440624Q322.84686 37.784374 321.8156 37.784374Q320.1125 37.784374 319.1906 36.95625Q318.26874 36.1125 318.26874 34.815624Q318.26874 34.05 318.6125 33.425Q318.97186 32.8 319.53436 32.425Q320.09686 32.034374 320.8 31.83125Q321.3156 31.70625 322.3625 31.565624Q324.4875 31.315624 325.4875 30.971874Q325.5031 30.6125 325.5031 30.503124Q325.5031 29.440624 325.0031 28.9875Q324.33124 28.39375 323.0031 28.39375Q321.7531 28.39375 321.15936 28.83125Q320.58124 29.26875 320.3 30.378124L318.58124 30.14375Q318.8156 29.034374 319.34686 28.3625Q319.8781 27.675 320.89374 27.315624Q321.90936 26.940624 323.2531 26.940624Q324.58124 26.940624 325.40936 27.253124Q326.2375 27.565624 326.6281 28.05Q327.01874 28.51875 327.175 29.2375Q327.26874 29.690624 327.26874 30.8625L327.26874 33.20625Q327.26874 35.659374 327.3781 36.315624Q327.4875 36.95625 327.83124 37.55L325.9875 37.55Q325.72186 37.003124 325.64374 36.26875ZM325.4875 32.346874Q324.53436 32.7375 322.6125 33.003124Q321.53436 33.159374 321.08124 33.3625Q320.64374 33.55 320.39374 33.925Q320.14374 34.3 320.14374 34.76875Q320.14374 35.471874 320.675 35.940624Q321.20624 36.409374 322.2375 36.409374Q323.2531 36.409374 324.03436 35.971874Q324.83124 35.51875 325.20624 34.753124Q325.4875 34.14375 325.4875 32.9875L325.4875 32.346874ZM329.84686 37.55L329.84686 27.175L331.425 27.175L331.425 28.753124Q332.03436 27.64375 332.55 27.3Q333.0656 26.940624 333.675 26.940624Q334.5656 26.940624 335.4875 27.503124L334.8781 29.14375Q334.2375 28.753124 333.59686 28.753124Q333.01874 28.753124 332.55 29.1125Q332.09686 29.45625 331.89374 30.065624Q331.6125 31.003124 331.6125 32.1125L331.6125 37.55L329.84686 37.55ZM340.70624 35.971874L340.95624 37.534374Q340.22186 37.690624 339.6281 37.690624Q338.675 37.690624 338.14374 37.39375Q337.6281 37.08125 337.40936 36.596874Q337.1906 36.096874 337.1906 34.51875L337.1906 28.55L335.90936 28.55L335.90936 27.175L337.1906 27.175L337.1906 24.6125L338.9406 23.55L338.9406 27.175L340.70624 27.175L340.70624 28.55L338.9406 28.55L338.9406 34.6125Q338.9406 35.3625 339.03436 35.58125Q339.1281 35.784374 339.33124 35.925Q339.55 36.05 339.9406 36.05Q340.22186 36.05 340.70624 35.971874Z" fill-rule="nonzero"/></svg>